G04 #@! TF.FileFunction,Legend,Top*
%FSLAX46Y46*%
G04 Gerber Fmt 4.6, Leading zero omitted, Abs format (unit mm)*
G04 Created by KiCad (PCBNEW 4.0.7) date 05/17/20 12:06:38*
%MOMM*%
%LPD*%
G01*
G04 APERTURE LIST*
%ADD10C,0.100000*%
%ADD11C,0.120000*%
%ADD12C,0.150000*%
%ADD13C,2.000000*%
%ADD14R,2.100000X2.100000*%
%ADD15O,2.100000X2.100000*%
%ADD16R,2.800000X2.800000*%
%ADD17C,2.800000*%
%ADD18R,2.200000X2.200000*%
%ADD19O,2.200000X2.200000*%
%ADD20O,3.900000X3.900000*%
%ADD21R,2.000000X2.000000*%
%ADD22C,3.900000*%
G04 APERTURE END LIST*
D10*
D11*
X90110000Y-67270000D02*
X95230000Y-67270000D01*
X90110000Y-69890000D02*
X95230000Y-69890000D01*
X90110000Y-67270000D02*
X90110000Y-67584000D01*
X90110000Y-69576000D02*
X90110000Y-69890000D01*
X95230000Y-67270000D02*
X95230000Y-67584000D01*
X95230000Y-69576000D02*
X95230000Y-69890000D01*
X102930000Y-69890000D02*
X97810000Y-69890000D01*
X102930000Y-67270000D02*
X97810000Y-67270000D01*
X102930000Y-69890000D02*
X102930000Y-69576000D01*
X102930000Y-67584000D02*
X102930000Y-67270000D01*
X97810000Y-69890000D02*
X97810000Y-69576000D01*
X97810000Y-67584000D02*
X97810000Y-67270000D01*
X100390000Y-48320000D02*
X100390000Y-43120000D01*
X92710000Y-48320000D02*
X100390000Y-48320000D01*
X90110000Y-43120000D02*
X100390000Y-43120000D01*
X92710000Y-48320000D02*
X92710000Y-45720000D01*
X92710000Y-45720000D02*
X90110000Y-45720000D01*
X90110000Y-45720000D02*
X90110000Y-43120000D01*
X91440000Y-48320000D02*
X90110000Y-48320000D01*
X90110000Y-48320000D02*
X90110000Y-46990000D01*
X104200000Y-82610000D02*
X104200000Y-79950000D01*
X91440000Y-82610000D02*
X104200000Y-82610000D01*
X91440000Y-79950000D02*
X104200000Y-79950000D01*
X91440000Y-82610000D02*
X91440000Y-79950000D01*
X90170000Y-82610000D02*
X88840000Y-82610000D01*
X88840000Y-82610000D02*
X88840000Y-81280000D01*
X104200000Y-74990000D02*
X104200000Y-72330000D01*
X91440000Y-74990000D02*
X104200000Y-74990000D01*
X91440000Y-72330000D02*
X104200000Y-72330000D01*
X91440000Y-74990000D02*
X91440000Y-72330000D01*
X90170000Y-74990000D02*
X88840000Y-74990000D01*
X88840000Y-74990000D02*
X88840000Y-73660000D01*
X82490000Y-73720000D02*
X87690000Y-73720000D01*
X82490000Y-50800000D02*
X82490000Y-73720000D01*
X87690000Y-48200000D02*
X87690000Y-73720000D01*
X82490000Y-50800000D02*
X85090000Y-50800000D01*
X85090000Y-50800000D02*
X85090000Y-48200000D01*
X85090000Y-48200000D02*
X87690000Y-48200000D01*
X82490000Y-49530000D02*
X82490000Y-48200000D01*
X82490000Y-48200000D02*
X83820000Y-48200000D01*
X107890000Y-73720000D02*
X113090000Y-73720000D01*
X107890000Y-50800000D02*
X107890000Y-73720000D01*
X113090000Y-48200000D02*
X113090000Y-73720000D01*
X107890000Y-50800000D02*
X110490000Y-50800000D01*
X110490000Y-50800000D02*
X110490000Y-48200000D01*
X110490000Y-48200000D02*
X113090000Y-48200000D01*
X107890000Y-49530000D02*
X107890000Y-48200000D01*
X107890000Y-48200000D02*
X109220000Y-48200000D01*
X79950000Y-91530000D02*
X110150000Y-91530000D01*
X79950000Y-92630000D02*
X110150000Y-92630000D01*
X79950000Y-93130000D02*
X79950000Y-82730000D01*
X79950000Y-82730000D02*
X110150000Y-82730000D01*
X110150000Y-82730000D02*
X110150000Y-93130000D01*
X85050000Y-92630000D02*
X85050000Y-93030000D01*
X90050000Y-92630000D02*
X90050000Y-93030000D01*
X95050000Y-92630000D02*
X95050000Y-93030000D01*
X100050000Y-92630000D02*
X100050000Y-93030000D01*
X105050000Y-92630000D02*
X105050000Y-93030000D01*
X79710000Y-90530000D02*
X79710000Y-93370000D01*
X79710000Y-93370000D02*
X82550000Y-93370000D01*
X78800000Y-90230000D02*
X78800000Y-85030000D01*
X78740000Y-90230000D02*
X78800000Y-90230000D01*
X76140000Y-85030000D02*
X78800000Y-85030000D01*
X78740000Y-90230000D02*
X78740000Y-87630000D01*
X78740000Y-87630000D02*
X76140000Y-87630000D01*
X76140000Y-87630000D02*
X76140000Y-85030000D01*
X77470000Y-90230000D02*
X76140000Y-90230000D01*
X76140000Y-90230000D02*
X76140000Y-88900000D01*
X77560277Y-77974278D02*
G75*
G03X77560000Y-82585580I1179723J-2305722D01*
G01*
X79919723Y-77974278D02*
G75*
G02X79920000Y-82585580I-1179723J-2305722D01*
G01*
X79919723Y-77974278D02*
G75*
G03X77560000Y-77974420I-1179723J-2305722D01*
G01*
X76190000Y-80280000D02*
X81290000Y-80280000D01*
X76190000Y-80240000D02*
X77760000Y-80240000D01*
X79720000Y-80240000D02*
X81290000Y-80240000D01*
X76191000Y-80200000D02*
X77760000Y-80200000D01*
X79720000Y-80200000D02*
X81289000Y-80200000D01*
X76192000Y-80160000D02*
X77760000Y-80160000D01*
X79720000Y-80160000D02*
X81288000Y-80160000D01*
X76194000Y-80120000D02*
X77760000Y-80120000D01*
X79720000Y-80120000D02*
X81286000Y-80120000D01*
X76197000Y-80080000D02*
X77760000Y-80080000D01*
X79720000Y-80080000D02*
X81283000Y-80080000D01*
X76201000Y-80040000D02*
X77760000Y-80040000D01*
X79720000Y-80040000D02*
X81279000Y-80040000D01*
X76205000Y-80000000D02*
X77760000Y-80000000D01*
X79720000Y-80000000D02*
X81275000Y-80000000D01*
X76209000Y-79960000D02*
X77760000Y-79960000D01*
X79720000Y-79960000D02*
X81271000Y-79960000D01*
X76215000Y-79920000D02*
X77760000Y-79920000D01*
X79720000Y-79920000D02*
X81265000Y-79920000D01*
X76221000Y-79880000D02*
X77760000Y-79880000D01*
X79720000Y-79880000D02*
X81259000Y-79880000D01*
X76227000Y-79840000D02*
X77760000Y-79840000D01*
X79720000Y-79840000D02*
X81253000Y-79840000D01*
X76234000Y-79800000D02*
X77760000Y-79800000D01*
X79720000Y-79800000D02*
X81246000Y-79800000D01*
X76242000Y-79760000D02*
X77760000Y-79760000D01*
X79720000Y-79760000D02*
X81238000Y-79760000D01*
X76251000Y-79720000D02*
X77760000Y-79720000D01*
X79720000Y-79720000D02*
X81229000Y-79720000D01*
X76260000Y-79680000D02*
X77760000Y-79680000D01*
X79720000Y-79680000D02*
X81220000Y-79680000D01*
X76270000Y-79640000D02*
X77760000Y-79640000D01*
X79720000Y-79640000D02*
X81210000Y-79640000D01*
X76280000Y-79600000D02*
X77760000Y-79600000D01*
X79720000Y-79600000D02*
X81200000Y-79600000D01*
X76292000Y-79559000D02*
X77760000Y-79559000D01*
X79720000Y-79559000D02*
X81188000Y-79559000D01*
X76304000Y-79519000D02*
X77760000Y-79519000D01*
X79720000Y-79519000D02*
X81176000Y-79519000D01*
X76316000Y-79479000D02*
X77760000Y-79479000D01*
X79720000Y-79479000D02*
X81164000Y-79479000D01*
X76330000Y-79439000D02*
X77760000Y-79439000D01*
X79720000Y-79439000D02*
X81150000Y-79439000D01*
X76344000Y-79399000D02*
X77760000Y-79399000D01*
X79720000Y-79399000D02*
X81136000Y-79399000D01*
X76358000Y-79359000D02*
X77760000Y-79359000D01*
X79720000Y-79359000D02*
X81122000Y-79359000D01*
X76374000Y-79319000D02*
X77760000Y-79319000D01*
X79720000Y-79319000D02*
X81106000Y-79319000D01*
X76390000Y-79279000D02*
X77760000Y-79279000D01*
X79720000Y-79279000D02*
X81090000Y-79279000D01*
X76407000Y-79239000D02*
X77760000Y-79239000D01*
X79720000Y-79239000D02*
X81073000Y-79239000D01*
X76425000Y-79199000D02*
X77760000Y-79199000D01*
X79720000Y-79199000D02*
X81055000Y-79199000D01*
X76444000Y-79159000D02*
X77760000Y-79159000D01*
X79720000Y-79159000D02*
X81036000Y-79159000D01*
X76464000Y-79119000D02*
X77760000Y-79119000D01*
X79720000Y-79119000D02*
X81016000Y-79119000D01*
X76484000Y-79079000D02*
X77760000Y-79079000D01*
X79720000Y-79079000D02*
X80996000Y-79079000D01*
X76506000Y-79039000D02*
X77760000Y-79039000D01*
X79720000Y-79039000D02*
X80974000Y-79039000D01*
X76528000Y-78999000D02*
X77760000Y-78999000D01*
X79720000Y-78999000D02*
X80952000Y-78999000D01*
X76551000Y-78959000D02*
X77760000Y-78959000D01*
X79720000Y-78959000D02*
X80929000Y-78959000D01*
X76575000Y-78919000D02*
X77760000Y-78919000D01*
X79720000Y-78919000D02*
X80905000Y-78919000D01*
X76600000Y-78879000D02*
X77760000Y-78879000D01*
X79720000Y-78879000D02*
X80880000Y-78879000D01*
X76627000Y-78839000D02*
X77760000Y-78839000D01*
X79720000Y-78839000D02*
X80853000Y-78839000D01*
X76654000Y-78799000D02*
X77760000Y-78799000D01*
X79720000Y-78799000D02*
X80826000Y-78799000D01*
X76682000Y-78759000D02*
X77760000Y-78759000D01*
X79720000Y-78759000D02*
X80798000Y-78759000D01*
X76712000Y-78719000D02*
X77760000Y-78719000D01*
X79720000Y-78719000D02*
X80768000Y-78719000D01*
X76743000Y-78679000D02*
X77760000Y-78679000D01*
X79720000Y-78679000D02*
X80737000Y-78679000D01*
X76775000Y-78639000D02*
X77760000Y-78639000D01*
X79720000Y-78639000D02*
X80705000Y-78639000D01*
X76808000Y-78599000D02*
X77760000Y-78599000D01*
X79720000Y-78599000D02*
X80672000Y-78599000D01*
X76843000Y-78559000D02*
X77760000Y-78559000D01*
X79720000Y-78559000D02*
X80637000Y-78559000D01*
X76879000Y-78519000D02*
X77760000Y-78519000D01*
X79720000Y-78519000D02*
X80601000Y-78519000D01*
X76917000Y-78479000D02*
X77760000Y-78479000D01*
X79720000Y-78479000D02*
X80563000Y-78479000D01*
X76957000Y-78439000D02*
X77760000Y-78439000D01*
X79720000Y-78439000D02*
X80523000Y-78439000D01*
X76998000Y-78399000D02*
X77760000Y-78399000D01*
X79720000Y-78399000D02*
X80482000Y-78399000D01*
X77041000Y-78359000D02*
X77760000Y-78359000D01*
X79720000Y-78359000D02*
X80439000Y-78359000D01*
X77086000Y-78319000D02*
X77760000Y-78319000D01*
X79720000Y-78319000D02*
X80394000Y-78319000D01*
X77134000Y-78279000D02*
X80346000Y-78279000D01*
X77184000Y-78239000D02*
X80296000Y-78239000D01*
X77236000Y-78199000D02*
X80244000Y-78199000D01*
X77292000Y-78159000D02*
X80188000Y-78159000D01*
X77350000Y-78119000D02*
X80130000Y-78119000D01*
X77413000Y-78079000D02*
X80067000Y-78079000D01*
X77479000Y-78039000D02*
X80001000Y-78039000D01*
X77551000Y-77999000D02*
X79929000Y-77999000D01*
X77628000Y-77959000D02*
X79852000Y-77959000D01*
X77712000Y-77919000D02*
X79768000Y-77919000D01*
X77806000Y-77879000D02*
X79674000Y-77879000D01*
X77911000Y-77839000D02*
X79569000Y-77839000D01*
X78033000Y-77799000D02*
X79447000Y-77799000D01*
X78181000Y-77759000D02*
X79299000Y-77759000D01*
X78386000Y-77719000D02*
X79094000Y-77719000D01*
X78740000Y-83480000D02*
X78740000Y-82280000D01*
X78090000Y-82880000D02*
X79390000Y-82880000D01*
D12*
X92503334Y-66377143D02*
X92455715Y-66424762D01*
X92312858Y-66472381D01*
X92217620Y-66472381D01*
X92074762Y-66424762D01*
X91979524Y-66329524D01*
X91931905Y-66234286D01*
X91884286Y-66043810D01*
X91884286Y-65900952D01*
X91931905Y-65710476D01*
X91979524Y-65615238D01*
X92074762Y-65520000D01*
X92217620Y-65472381D01*
X92312858Y-65472381D01*
X92455715Y-65520000D01*
X92503334Y-65567619D01*
X93455715Y-66472381D02*
X92884286Y-66472381D01*
X93170000Y-66472381D02*
X93170000Y-65472381D01*
X93074762Y-65615238D01*
X92979524Y-65710476D01*
X92884286Y-65758095D01*
X100203334Y-71497143D02*
X100155715Y-71544762D01*
X100012858Y-71592381D01*
X99917620Y-71592381D01*
X99774762Y-71544762D01*
X99679524Y-71449524D01*
X99631905Y-71354286D01*
X99584286Y-71163810D01*
X99584286Y-71020952D01*
X99631905Y-70830476D01*
X99679524Y-70735238D01*
X99774762Y-70640000D01*
X99917620Y-70592381D01*
X100012858Y-70592381D01*
X100155715Y-70640000D01*
X100203334Y-70687619D01*
X100584286Y-70687619D02*
X100631905Y-70640000D01*
X100727143Y-70592381D01*
X100965239Y-70592381D01*
X101060477Y-70640000D01*
X101108096Y-70687619D01*
X101155715Y-70782857D01*
X101155715Y-70878095D01*
X101108096Y-71020952D01*
X100536667Y-71592381D01*
X101155715Y-71592381D01*
X89467143Y-46410476D02*
X89514762Y-46458095D01*
X89562381Y-46600952D01*
X89562381Y-46696190D01*
X89514762Y-46839048D01*
X89419524Y-46934286D01*
X89324286Y-46981905D01*
X89133810Y-47029524D01*
X88990952Y-47029524D01*
X88800476Y-46981905D01*
X88705238Y-46934286D01*
X88610000Y-46839048D01*
X88562381Y-46696190D01*
X88562381Y-46600952D01*
X88610000Y-46458095D01*
X88657619Y-46410476D01*
X89562381Y-45981905D02*
X88562381Y-45981905D01*
X89562381Y-45410476D01*
X88562381Y-45410476D01*
X89562381Y-44410476D02*
X89562381Y-44981905D01*
X89562381Y-44696191D02*
X88562381Y-44696191D01*
X88705238Y-44791429D01*
X88800476Y-44886667D01*
X88848095Y-44981905D01*
X88197143Y-81970476D02*
X88244762Y-82018095D01*
X88292381Y-82160952D01*
X88292381Y-82256190D01*
X88244762Y-82399048D01*
X88149524Y-82494286D01*
X88054286Y-82541905D01*
X87863810Y-82589524D01*
X87720952Y-82589524D01*
X87530476Y-82541905D01*
X87435238Y-82494286D01*
X87340000Y-82399048D01*
X87292381Y-82256190D01*
X87292381Y-82160952D01*
X87340000Y-82018095D01*
X87387619Y-81970476D01*
X88292381Y-81541905D02*
X87292381Y-81541905D01*
X88292381Y-80970476D01*
X87292381Y-80970476D01*
X87625714Y-80065714D02*
X88292381Y-80065714D01*
X87244762Y-80303810D02*
X87959048Y-80541905D01*
X87959048Y-79922857D01*
X88197143Y-74350476D02*
X88244762Y-74398095D01*
X88292381Y-74540952D01*
X88292381Y-74636190D01*
X88244762Y-74779048D01*
X88149524Y-74874286D01*
X88054286Y-74921905D01*
X87863810Y-74969524D01*
X87720952Y-74969524D01*
X87530476Y-74921905D01*
X87435238Y-74874286D01*
X87340000Y-74779048D01*
X87292381Y-74636190D01*
X87292381Y-74540952D01*
X87340000Y-74398095D01*
X87387619Y-74350476D01*
X88292381Y-73921905D02*
X87292381Y-73921905D01*
X88292381Y-73350476D01*
X87292381Y-73350476D01*
X87292381Y-72398095D02*
X87292381Y-72874286D01*
X87768571Y-72921905D01*
X87720952Y-72874286D01*
X87673333Y-72779048D01*
X87673333Y-72540952D01*
X87720952Y-72445714D01*
X87768571Y-72398095D01*
X87863810Y-72350476D01*
X88101905Y-72350476D01*
X88197143Y-72398095D01*
X88244762Y-72445714D01*
X88292381Y-72540952D01*
X88292381Y-72779048D01*
X88244762Y-72874286D01*
X88197143Y-72921905D01*
X84399524Y-47557143D02*
X84351905Y-47604762D01*
X84209048Y-47652381D01*
X84113810Y-47652381D01*
X83970952Y-47604762D01*
X83875714Y-47509524D01*
X83828095Y-47414286D01*
X83780476Y-47223810D01*
X83780476Y-47080952D01*
X83828095Y-46890476D01*
X83875714Y-46795238D01*
X83970952Y-46700000D01*
X84113810Y-46652381D01*
X84209048Y-46652381D01*
X84351905Y-46700000D01*
X84399524Y-46747619D01*
X84828095Y-47652381D02*
X84828095Y-46652381D01*
X85399524Y-47652381D01*
X85399524Y-46652381D01*
X86304286Y-46652381D02*
X86113809Y-46652381D01*
X86018571Y-46700000D01*
X85970952Y-46747619D01*
X85875714Y-46890476D01*
X85828095Y-47080952D01*
X85828095Y-47461905D01*
X85875714Y-47557143D01*
X85923333Y-47604762D01*
X86018571Y-47652381D01*
X86209048Y-47652381D01*
X86304286Y-47604762D01*
X86351905Y-47557143D01*
X86399524Y-47461905D01*
X86399524Y-47223810D01*
X86351905Y-47128571D01*
X86304286Y-47080952D01*
X86209048Y-47033333D01*
X86018571Y-47033333D01*
X85923333Y-47080952D01*
X85875714Y-47128571D01*
X85828095Y-47223810D01*
X109799524Y-47557143D02*
X109751905Y-47604762D01*
X109609048Y-47652381D01*
X109513810Y-47652381D01*
X109370952Y-47604762D01*
X109275714Y-47509524D01*
X109228095Y-47414286D01*
X109180476Y-47223810D01*
X109180476Y-47080952D01*
X109228095Y-46890476D01*
X109275714Y-46795238D01*
X109370952Y-46700000D01*
X109513810Y-46652381D01*
X109609048Y-46652381D01*
X109751905Y-46700000D01*
X109799524Y-46747619D01*
X110228095Y-47652381D02*
X110228095Y-46652381D01*
X110799524Y-47652381D01*
X110799524Y-46652381D01*
X111180476Y-46652381D02*
X111847143Y-46652381D01*
X111418571Y-47652381D01*
X81224524Y-82272143D02*
X81176905Y-82319762D01*
X81034048Y-82367381D01*
X80938810Y-82367381D01*
X80795952Y-82319762D01*
X80700714Y-82224524D01*
X80653095Y-82129286D01*
X80605476Y-81938810D01*
X80605476Y-81795952D01*
X80653095Y-81605476D01*
X80700714Y-81510238D01*
X80795952Y-81415000D01*
X80938810Y-81367381D01*
X81034048Y-81367381D01*
X81176905Y-81415000D01*
X81224524Y-81462619D01*
X81653095Y-82367381D02*
X81653095Y-81367381D01*
X82224524Y-82367381D01*
X82224524Y-81367381D01*
X82843571Y-81795952D02*
X82748333Y-81748333D01*
X82700714Y-81700714D01*
X82653095Y-81605476D01*
X82653095Y-81557857D01*
X82700714Y-81462619D01*
X82748333Y-81415000D01*
X82843571Y-81367381D01*
X83034048Y-81367381D01*
X83129286Y-81415000D01*
X83176905Y-81462619D01*
X83224524Y-81557857D01*
X83224524Y-81605476D01*
X83176905Y-81700714D01*
X83129286Y-81748333D01*
X83034048Y-81795952D01*
X82843571Y-81795952D01*
X82748333Y-81843571D01*
X82700714Y-81891190D01*
X82653095Y-81986429D01*
X82653095Y-82176905D01*
X82700714Y-82272143D01*
X82748333Y-82319762D01*
X82843571Y-82367381D01*
X83034048Y-82367381D01*
X83129286Y-82319762D01*
X83176905Y-82272143D01*
X83224524Y-82176905D01*
X83224524Y-81986429D01*
X83176905Y-81891190D01*
X83129286Y-81843571D01*
X83034048Y-81795952D01*
X74592381Y-87963333D02*
X75306667Y-87963333D01*
X75449524Y-88010953D01*
X75544762Y-88106191D01*
X75592381Y-88249048D01*
X75592381Y-88344286D01*
X75592381Y-86963333D02*
X75592381Y-87534762D01*
X75592381Y-87249048D02*
X74592381Y-87249048D01*
X74735238Y-87344286D01*
X74830476Y-87439524D01*
X74878095Y-87534762D01*
X75287143Y-80446666D02*
X75334762Y-80494285D01*
X75382381Y-80637142D01*
X75382381Y-80732380D01*
X75334762Y-80875238D01*
X75239524Y-80970476D01*
X75144286Y-81018095D01*
X74953810Y-81065714D01*
X74810952Y-81065714D01*
X74620476Y-81018095D01*
X74525238Y-80970476D01*
X74430000Y-80875238D01*
X74382381Y-80732380D01*
X74382381Y-80637142D01*
X74430000Y-80494285D01*
X74477619Y-80446666D01*
X74382381Y-80113333D02*
X74382381Y-79494285D01*
X74763333Y-79827619D01*
X74763333Y-79684761D01*
X74810952Y-79589523D01*
X74858571Y-79541904D01*
X74953810Y-79494285D01*
X75191905Y-79494285D01*
X75287143Y-79541904D01*
X75334762Y-79589523D01*
X75382381Y-79684761D01*
X75382381Y-79970476D01*
X75334762Y-80065714D01*
X75287143Y-80113333D01*
%LPC*%
D13*
X90170000Y-68580000D03*
X95170000Y-68580000D03*
X102870000Y-68580000D03*
X97870000Y-68580000D03*
D14*
X91440000Y-46990000D03*
D15*
X91440000Y-44450000D03*
X93980000Y-46990000D03*
X93980000Y-44450000D03*
X96520000Y-46990000D03*
X96520000Y-44450000D03*
X99060000Y-46990000D03*
X99060000Y-44450000D03*
D14*
X78740000Y-53340000D03*
D15*
X78740000Y-55880000D03*
X78740000Y-58420000D03*
X78740000Y-60960000D03*
X78740000Y-63500000D03*
X78740000Y-66040000D03*
X78740000Y-68580000D03*
X78740000Y-71120000D03*
D14*
X106680000Y-53340000D03*
D15*
X106680000Y-55880000D03*
X106680000Y-58420000D03*
X106680000Y-60960000D03*
X106680000Y-63500000D03*
X106680000Y-66040000D03*
X106680000Y-68580000D03*
D14*
X90170000Y-81280000D03*
D15*
X92710000Y-81280000D03*
X95250000Y-81280000D03*
X97790000Y-81280000D03*
X100330000Y-81280000D03*
X102870000Y-81280000D03*
D14*
X90170000Y-73660000D03*
D15*
X92710000Y-73660000D03*
X95250000Y-73660000D03*
X97790000Y-73660000D03*
X100330000Y-73660000D03*
X102870000Y-73660000D03*
D14*
X83820000Y-49530000D03*
D15*
X86360000Y-49530000D03*
X83820000Y-52070000D03*
X86360000Y-52070000D03*
X83820000Y-54610000D03*
X86360000Y-54610000D03*
X83820000Y-57150000D03*
X86360000Y-57150000D03*
X83820000Y-59690000D03*
X86360000Y-59690000D03*
X83820000Y-62230000D03*
X86360000Y-62230000D03*
X83820000Y-64770000D03*
X86360000Y-64770000D03*
X83820000Y-67310000D03*
X86360000Y-67310000D03*
X83820000Y-69850000D03*
X86360000Y-69850000D03*
X83820000Y-72390000D03*
X86360000Y-72390000D03*
D14*
X109220000Y-49530000D03*
D15*
X111760000Y-49530000D03*
X109220000Y-52070000D03*
X111760000Y-52070000D03*
X109220000Y-54610000D03*
X111760000Y-54610000D03*
X109220000Y-57150000D03*
X111760000Y-57150000D03*
X109220000Y-59690000D03*
X111760000Y-59690000D03*
X109220000Y-62230000D03*
X111760000Y-62230000D03*
X109220000Y-64770000D03*
X111760000Y-64770000D03*
X109220000Y-67310000D03*
X111760000Y-67310000D03*
X109220000Y-69850000D03*
X111760000Y-69850000D03*
X109220000Y-72390000D03*
X111760000Y-72390000D03*
D16*
X82550000Y-87630000D03*
D17*
X87550000Y-87630000D03*
X92550000Y-87630000D03*
X97550000Y-87630000D03*
X102550000Y-87630000D03*
X107550000Y-87630000D03*
D14*
X77470000Y-88900000D03*
D15*
X77470000Y-86360000D03*
D18*
X92710000Y-76200000D03*
D19*
X95250000Y-76200000D03*
X97790000Y-76200000D03*
X100330000Y-76200000D03*
D20*
X96520000Y-62080000D03*
D18*
X93980000Y-78740000D03*
D19*
X96520000Y-78740000D03*
X99060000Y-78740000D03*
D21*
X78740000Y-81280000D03*
D13*
X78740000Y-79280000D03*
D22*
X79375000Y-46355000D03*
X111125000Y-78740000D03*
M02*
