G04 #@! TF.FileFunction,Legend,Top*
%FSLAX46Y46*%
G04 Gerber Fmt 4.6, Leading zero omitted, Abs format (unit mm)*
G04 Created by KiCad (PCBNEW 4.0.7) date 05/29/20 13:35:47*
%MOMM*%
%LPD*%
G01*
G04 APERTURE LIST*
%ADD10C,0.100000*%
%ADD11C,0.200000*%
%ADD12C,0.150000*%
%ADD13C,0.120000*%
%ADD14C,2.000000*%
%ADD15R,2.100000X2.100000*%
%ADD16O,2.100000X2.100000*%
%ADD17R,3.400000X4.400000*%
%ADD18R,2.200000X2.200000*%
%ADD19O,2.200000X2.200000*%
%ADD20O,3.900000X3.900000*%
%ADD21R,2.000000X2.000000*%
%ADD22C,3.900000*%
G04 APERTURE END LIST*
D10*
D11*
X90877143Y-52793571D02*
X90377143Y-52079286D01*
X90020000Y-52793571D02*
X90020000Y-51293571D01*
X90591428Y-51293571D01*
X90734286Y-51365000D01*
X90805714Y-51436429D01*
X90877143Y-51579286D01*
X90877143Y-51793571D01*
X90805714Y-51936429D01*
X90734286Y-52007857D01*
X90591428Y-52079286D01*
X90020000Y-52079286D01*
X92162857Y-51793571D02*
X92162857Y-52793571D01*
X91520000Y-51793571D02*
X91520000Y-52579286D01*
X91591428Y-52722143D01*
X91734286Y-52793571D01*
X91948571Y-52793571D01*
X92091428Y-52722143D01*
X92162857Y-52650714D01*
X92877143Y-52793571D02*
X92877143Y-51793571D01*
X92877143Y-51936429D02*
X92948571Y-51865000D01*
X93091429Y-51793571D01*
X93305714Y-51793571D01*
X93448571Y-51865000D01*
X93520000Y-52007857D01*
X93520000Y-52793571D01*
X93520000Y-52007857D02*
X93591429Y-51865000D01*
X93734286Y-51793571D01*
X93948571Y-51793571D01*
X94091429Y-51865000D01*
X94162857Y-52007857D01*
X94162857Y-52793571D01*
X94877143Y-52793571D02*
X94877143Y-51793571D01*
X94877143Y-51293571D02*
X94805714Y-51365000D01*
X94877143Y-51436429D01*
X94948571Y-51365000D01*
X94877143Y-51293571D01*
X94877143Y-51436429D01*
X96448572Y-52650714D02*
X96377143Y-52722143D01*
X96162857Y-52793571D01*
X96020000Y-52793571D01*
X95805715Y-52722143D01*
X95662857Y-52579286D01*
X95591429Y-52436429D01*
X95520000Y-52150714D01*
X95520000Y-51936429D01*
X95591429Y-51650714D01*
X95662857Y-51507857D01*
X95805715Y-51365000D01*
X96020000Y-51293571D01*
X96162857Y-51293571D01*
X96377143Y-51365000D01*
X96448572Y-51436429D01*
X97734286Y-52793571D02*
X97734286Y-52007857D01*
X97662857Y-51865000D01*
X97520000Y-51793571D01*
X97234286Y-51793571D01*
X97091429Y-51865000D01*
X97734286Y-52722143D02*
X97591429Y-52793571D01*
X97234286Y-52793571D01*
X97091429Y-52722143D01*
X97020000Y-52579286D01*
X97020000Y-52436429D01*
X97091429Y-52293571D01*
X97234286Y-52222143D01*
X97591429Y-52222143D01*
X97734286Y-52150714D01*
X98448572Y-52793571D02*
X98448572Y-51793571D01*
X98448572Y-52079286D02*
X98520000Y-51936429D01*
X98591429Y-51865000D01*
X98734286Y-51793571D01*
X98877143Y-51793571D01*
X101377143Y-52650714D02*
X101305714Y-52722143D01*
X101091428Y-52793571D01*
X100948571Y-52793571D01*
X100734286Y-52722143D01*
X100591428Y-52579286D01*
X100520000Y-52436429D01*
X100448571Y-52150714D01*
X100448571Y-51936429D01*
X100520000Y-51650714D01*
X100591428Y-51507857D01*
X100734286Y-51365000D01*
X100948571Y-51293571D01*
X101091428Y-51293571D01*
X101305714Y-51365000D01*
X101377143Y-51436429D01*
X102020000Y-52793571D02*
X102020000Y-51293571D01*
X102520000Y-52365000D01*
X103020000Y-51293571D01*
X103020000Y-52793571D01*
X90912858Y-54457857D02*
X91412858Y-54457857D01*
X91627144Y-55243571D02*
X90912858Y-55243571D01*
X90912858Y-53743571D01*
X91627144Y-53743571D01*
X92198572Y-55172143D02*
X92412858Y-55243571D01*
X92770001Y-55243571D01*
X92912858Y-55172143D01*
X92984287Y-55100714D01*
X93055715Y-54957857D01*
X93055715Y-54815000D01*
X92984287Y-54672143D01*
X92912858Y-54600714D01*
X92770001Y-54529286D01*
X92484287Y-54457857D01*
X92341429Y-54386429D01*
X92270001Y-54315000D01*
X92198572Y-54172143D01*
X92198572Y-54029286D01*
X92270001Y-53886429D01*
X92341429Y-53815000D01*
X92484287Y-53743571D01*
X92841429Y-53743571D01*
X93055715Y-53815000D01*
X93698572Y-55243571D02*
X93698572Y-53743571D01*
X94270000Y-53743571D01*
X94412858Y-53815000D01*
X94484286Y-53886429D01*
X94555715Y-54029286D01*
X94555715Y-54243571D01*
X94484286Y-54386429D01*
X94412858Y-54457857D01*
X94270000Y-54529286D01*
X93698572Y-54529286D01*
X95055715Y-53743571D02*
X95984286Y-53743571D01*
X95484286Y-54315000D01*
X95698572Y-54315000D01*
X95841429Y-54386429D01*
X95912858Y-54457857D01*
X95984286Y-54600714D01*
X95984286Y-54957857D01*
X95912858Y-55100714D01*
X95841429Y-55172143D01*
X95698572Y-55243571D01*
X95270000Y-55243571D01*
X95127143Y-55172143D01*
X95055715Y-55100714D01*
X96555714Y-53886429D02*
X96627143Y-53815000D01*
X96770000Y-53743571D01*
X97127143Y-53743571D01*
X97270000Y-53815000D01*
X97341429Y-53886429D01*
X97412857Y-54029286D01*
X97412857Y-54172143D01*
X97341429Y-54386429D01*
X96484286Y-55243571D01*
X97412857Y-55243571D01*
X98055714Y-55243571D02*
X98055714Y-54243571D01*
X98055714Y-54386429D02*
X98127142Y-54315000D01*
X98270000Y-54243571D01*
X98484285Y-54243571D01*
X98627142Y-54315000D01*
X98698571Y-54457857D01*
X98698571Y-55243571D01*
X98698571Y-54457857D02*
X98770000Y-54315000D01*
X98912857Y-54243571D01*
X99127142Y-54243571D01*
X99270000Y-54315000D01*
X99341428Y-54457857D01*
X99341428Y-55243571D01*
X100055714Y-55243571D02*
X100055714Y-54243571D01*
X100055714Y-53743571D02*
X99984285Y-53815000D01*
X100055714Y-53886429D01*
X100127142Y-53815000D01*
X100055714Y-53743571D01*
X100055714Y-53886429D01*
X100770000Y-54243571D02*
X100770000Y-55243571D01*
X100770000Y-54386429D02*
X100841428Y-54315000D01*
X100984286Y-54243571D01*
X101198571Y-54243571D01*
X101341428Y-54315000D01*
X101412857Y-54457857D01*
X101412857Y-55243571D01*
X102127143Y-55243571D02*
X102127143Y-54243571D01*
X102127143Y-53743571D02*
X102055714Y-53815000D01*
X102127143Y-53886429D01*
X102198571Y-53815000D01*
X102127143Y-53743571D01*
X102127143Y-53886429D01*
D12*
X101695238Y-75462381D02*
X102028571Y-76462381D01*
X102361905Y-75462381D01*
X102695238Y-76462381D02*
X102695238Y-75795714D01*
X102695238Y-75462381D02*
X102647619Y-75510000D01*
X102695238Y-75557619D01*
X102742857Y-75510000D01*
X102695238Y-75462381D01*
X102695238Y-75557619D01*
X103885714Y-75414762D02*
X103028571Y-76700476D01*
X104076190Y-75462381D02*
X104409523Y-76462381D01*
X104742857Y-75462381D01*
X105219047Y-76462381D02*
X105123809Y-76414762D01*
X105076190Y-76367143D01*
X105028571Y-76271905D01*
X105028571Y-75986190D01*
X105076190Y-75890952D01*
X105123809Y-75843333D01*
X105219047Y-75795714D01*
X105361905Y-75795714D01*
X105457143Y-75843333D01*
X105504762Y-75890952D01*
X105552381Y-75986190D01*
X105552381Y-76271905D01*
X105504762Y-76367143D01*
X105457143Y-76414762D01*
X105361905Y-76462381D01*
X105219047Y-76462381D01*
X106695238Y-75414762D02*
X105838095Y-76700476D01*
X107552381Y-75510000D02*
X107457143Y-75462381D01*
X107314286Y-75462381D01*
X107171428Y-75510000D01*
X107076190Y-75605238D01*
X107028571Y-75700476D01*
X106980952Y-75890952D01*
X106980952Y-76033810D01*
X107028571Y-76224286D01*
X107076190Y-76319524D01*
X107171428Y-76414762D01*
X107314286Y-76462381D01*
X107409524Y-76462381D01*
X107552381Y-76414762D01*
X107600000Y-76367143D01*
X107600000Y-76033810D01*
X107409524Y-76033810D01*
X108742857Y-75414762D02*
X107885714Y-76700476D01*
X109076190Y-76081429D02*
X109838095Y-76081429D01*
X101695238Y-77112381D02*
X102028571Y-78112381D01*
X102361905Y-77112381D01*
X102695238Y-78112381D02*
X102695238Y-77445714D01*
X102695238Y-77112381D02*
X102647619Y-77160000D01*
X102695238Y-77207619D01*
X102742857Y-77160000D01*
X102695238Y-77112381D01*
X102695238Y-77207619D01*
X103885714Y-77064762D02*
X103028571Y-78350476D01*
X104742857Y-77160000D02*
X104647619Y-77112381D01*
X104504762Y-77112381D01*
X104361904Y-77160000D01*
X104266666Y-77255238D01*
X104219047Y-77350476D01*
X104171428Y-77540952D01*
X104171428Y-77683810D01*
X104219047Y-77874286D01*
X104266666Y-77969524D01*
X104361904Y-78064762D01*
X104504762Y-78112381D01*
X104600000Y-78112381D01*
X104742857Y-78064762D01*
X104790476Y-78017143D01*
X104790476Y-77683810D01*
X104600000Y-77683810D01*
X105933333Y-77064762D02*
X105076190Y-78350476D01*
X106123809Y-77112381D02*
X106457142Y-78112381D01*
X106790476Y-77112381D01*
X107266666Y-78112381D02*
X107171428Y-78064762D01*
X107123809Y-78017143D01*
X107076190Y-77921905D01*
X107076190Y-77636190D01*
X107123809Y-77540952D01*
X107171428Y-77493333D01*
X107266666Y-77445714D01*
X107409524Y-77445714D01*
X107504762Y-77493333D01*
X107552381Y-77540952D01*
X107600000Y-77636190D01*
X107600000Y-77921905D01*
X107552381Y-78017143D01*
X107504762Y-78064762D01*
X107409524Y-78112381D01*
X107266666Y-78112381D01*
X100266667Y-43902381D02*
X100600000Y-44902381D01*
X100933334Y-43902381D01*
X101838096Y-44807143D02*
X101790477Y-44854762D01*
X101647620Y-44902381D01*
X101552382Y-44902381D01*
X101409524Y-44854762D01*
X101314286Y-44759524D01*
X101266667Y-44664286D01*
X101219048Y-44473810D01*
X101219048Y-44330952D01*
X101266667Y-44140476D01*
X101314286Y-44045238D01*
X101409524Y-43950000D01*
X101552382Y-43902381D01*
X101647620Y-43902381D01*
X101790477Y-43950000D01*
X101838096Y-43997619D01*
X102838096Y-44807143D02*
X102790477Y-44854762D01*
X102647620Y-44902381D01*
X102552382Y-44902381D01*
X102409524Y-44854762D01*
X102314286Y-44759524D01*
X102266667Y-44664286D01*
X102219048Y-44473810D01*
X102219048Y-44330952D01*
X102266667Y-44140476D01*
X102314286Y-44045238D01*
X102409524Y-43950000D01*
X102552382Y-43902381D01*
X102647620Y-43902381D01*
X102790477Y-43950000D01*
X102838096Y-43997619D01*
X102370000Y-79113095D02*
X102322381Y-79208333D01*
X102322381Y-79351190D01*
X102370000Y-79494048D01*
X102465238Y-79589286D01*
X102560476Y-79636905D01*
X102750952Y-79684524D01*
X102893810Y-79684524D01*
X103084286Y-79636905D01*
X103179524Y-79589286D01*
X103274762Y-79494048D01*
X103322381Y-79351190D01*
X103322381Y-79255952D01*
X103274762Y-79113095D01*
X103227143Y-79065476D01*
X102893810Y-79065476D01*
X102893810Y-79255952D01*
X89622381Y-80279762D02*
X90622381Y-79946429D01*
X89622381Y-79613095D01*
X90622381Y-79279762D02*
X89622381Y-79279762D01*
X90336667Y-78946428D01*
X89622381Y-78613095D01*
X90622381Y-78613095D01*
D13*
X90110000Y-67270000D02*
X95230000Y-67270000D01*
X90110000Y-69890000D02*
X95230000Y-69890000D01*
X90110000Y-67270000D02*
X90110000Y-67584000D01*
X90110000Y-69576000D02*
X90110000Y-69890000D01*
X95230000Y-67270000D02*
X95230000Y-67584000D01*
X95230000Y-69576000D02*
X95230000Y-69890000D01*
X102930000Y-69890000D02*
X97810000Y-69890000D01*
X102930000Y-67270000D02*
X97810000Y-67270000D01*
X102930000Y-69890000D02*
X102930000Y-69576000D01*
X102930000Y-67584000D02*
X102930000Y-67270000D01*
X97810000Y-69890000D02*
X97810000Y-69576000D01*
X97810000Y-67584000D02*
X97810000Y-67270000D01*
X104200000Y-82610000D02*
X104200000Y-79950000D01*
X91440000Y-82610000D02*
X104200000Y-82610000D01*
X91440000Y-79950000D02*
X104200000Y-79950000D01*
X91440000Y-82610000D02*
X91440000Y-79950000D01*
X90170000Y-82610000D02*
X88840000Y-82610000D01*
X88840000Y-82610000D02*
X88840000Y-81280000D01*
X104200000Y-74990000D02*
X104200000Y-72330000D01*
X91440000Y-74990000D02*
X104200000Y-74990000D01*
X91440000Y-72330000D02*
X104200000Y-72330000D01*
X91440000Y-74990000D02*
X91440000Y-72330000D01*
X90170000Y-74990000D02*
X88840000Y-74990000D01*
X88840000Y-74990000D02*
X88840000Y-73660000D01*
X82490000Y-73720000D02*
X87690000Y-73720000D01*
X82490000Y-50800000D02*
X82490000Y-73720000D01*
X87690000Y-48200000D02*
X87690000Y-73720000D01*
X82490000Y-50800000D02*
X85090000Y-50800000D01*
X85090000Y-50800000D02*
X85090000Y-48200000D01*
X85090000Y-48200000D02*
X87690000Y-48200000D01*
X82490000Y-49530000D02*
X82490000Y-48200000D01*
X82490000Y-48200000D02*
X83820000Y-48200000D01*
X107890000Y-73720000D02*
X113090000Y-73720000D01*
X107890000Y-50800000D02*
X107890000Y-73720000D01*
X113090000Y-48200000D02*
X113090000Y-73720000D01*
X107890000Y-50800000D02*
X110490000Y-50800000D01*
X110490000Y-50800000D02*
X110490000Y-48200000D01*
X110490000Y-48200000D02*
X113090000Y-48200000D01*
X107890000Y-49530000D02*
X107890000Y-48200000D01*
X107890000Y-48200000D02*
X109220000Y-48200000D01*
X79950000Y-91530000D02*
X110150000Y-91530000D01*
X79950000Y-92630000D02*
X110150000Y-92630000D01*
X79950000Y-93130000D02*
X79950000Y-82730000D01*
X79950000Y-82730000D02*
X110150000Y-82730000D01*
X110150000Y-82730000D02*
X110150000Y-93130000D01*
X85050000Y-92630000D02*
X85050000Y-93030000D01*
X90050000Y-92630000D02*
X90050000Y-93030000D01*
X95050000Y-92630000D02*
X95050000Y-93030000D01*
X100050000Y-92630000D02*
X100050000Y-93030000D01*
X105050000Y-92630000D02*
X105050000Y-93030000D01*
X79710000Y-90530000D02*
X79710000Y-93370000D01*
X79710000Y-93370000D02*
X82550000Y-93370000D01*
X78800000Y-90230000D02*
X78800000Y-85030000D01*
X78740000Y-90230000D02*
X78800000Y-90230000D01*
X76140000Y-85030000D02*
X78800000Y-85030000D01*
X78740000Y-90230000D02*
X78740000Y-87630000D01*
X78740000Y-87630000D02*
X76140000Y-87630000D01*
X76140000Y-87630000D02*
X76140000Y-85030000D01*
X77470000Y-90230000D02*
X76140000Y-90230000D01*
X76140000Y-90230000D02*
X76140000Y-88900000D01*
X77560277Y-77974278D02*
G75*
G03X77560000Y-82585580I1179723J-2305722D01*
G01*
X79919723Y-77974278D02*
G75*
G02X79920000Y-82585580I-1179723J-2305722D01*
G01*
X79919723Y-77974278D02*
G75*
G03X77560000Y-77974420I-1179723J-2305722D01*
G01*
X76190000Y-80280000D02*
X81290000Y-80280000D01*
X76190000Y-80240000D02*
X77760000Y-80240000D01*
X79720000Y-80240000D02*
X81290000Y-80240000D01*
X76191000Y-80200000D02*
X77760000Y-80200000D01*
X79720000Y-80200000D02*
X81289000Y-80200000D01*
X76192000Y-80160000D02*
X77760000Y-80160000D01*
X79720000Y-80160000D02*
X81288000Y-80160000D01*
X76194000Y-80120000D02*
X77760000Y-80120000D01*
X79720000Y-80120000D02*
X81286000Y-80120000D01*
X76197000Y-80080000D02*
X77760000Y-80080000D01*
X79720000Y-80080000D02*
X81283000Y-80080000D01*
X76201000Y-80040000D02*
X77760000Y-80040000D01*
X79720000Y-80040000D02*
X81279000Y-80040000D01*
X76205000Y-80000000D02*
X77760000Y-80000000D01*
X79720000Y-80000000D02*
X81275000Y-80000000D01*
X76209000Y-79960000D02*
X77760000Y-79960000D01*
X79720000Y-79960000D02*
X81271000Y-79960000D01*
X76215000Y-79920000D02*
X77760000Y-79920000D01*
X79720000Y-79920000D02*
X81265000Y-79920000D01*
X76221000Y-79880000D02*
X77760000Y-79880000D01*
X79720000Y-79880000D02*
X81259000Y-79880000D01*
X76227000Y-79840000D02*
X77760000Y-79840000D01*
X79720000Y-79840000D02*
X81253000Y-79840000D01*
X76234000Y-79800000D02*
X77760000Y-79800000D01*
X79720000Y-79800000D02*
X81246000Y-79800000D01*
X76242000Y-79760000D02*
X77760000Y-79760000D01*
X79720000Y-79760000D02*
X81238000Y-79760000D01*
X76251000Y-79720000D02*
X77760000Y-79720000D01*
X79720000Y-79720000D02*
X81229000Y-79720000D01*
X76260000Y-79680000D02*
X77760000Y-79680000D01*
X79720000Y-79680000D02*
X81220000Y-79680000D01*
X76270000Y-79640000D02*
X77760000Y-79640000D01*
X79720000Y-79640000D02*
X81210000Y-79640000D01*
X76280000Y-79600000D02*
X77760000Y-79600000D01*
X79720000Y-79600000D02*
X81200000Y-79600000D01*
X76292000Y-79559000D02*
X77760000Y-79559000D01*
X79720000Y-79559000D02*
X81188000Y-79559000D01*
X76304000Y-79519000D02*
X77760000Y-79519000D01*
X79720000Y-79519000D02*
X81176000Y-79519000D01*
X76316000Y-79479000D02*
X77760000Y-79479000D01*
X79720000Y-79479000D02*
X81164000Y-79479000D01*
X76330000Y-79439000D02*
X77760000Y-79439000D01*
X79720000Y-79439000D02*
X81150000Y-79439000D01*
X76344000Y-79399000D02*
X77760000Y-79399000D01*
X79720000Y-79399000D02*
X81136000Y-79399000D01*
X76358000Y-79359000D02*
X77760000Y-79359000D01*
X79720000Y-79359000D02*
X81122000Y-79359000D01*
X76374000Y-79319000D02*
X77760000Y-79319000D01*
X79720000Y-79319000D02*
X81106000Y-79319000D01*
X76390000Y-79279000D02*
X77760000Y-79279000D01*
X79720000Y-79279000D02*
X81090000Y-79279000D01*
X76407000Y-79239000D02*
X77760000Y-79239000D01*
X79720000Y-79239000D02*
X81073000Y-79239000D01*
X76425000Y-79199000D02*
X77760000Y-79199000D01*
X79720000Y-79199000D02*
X81055000Y-79199000D01*
X76444000Y-79159000D02*
X77760000Y-79159000D01*
X79720000Y-79159000D02*
X81036000Y-79159000D01*
X76464000Y-79119000D02*
X77760000Y-79119000D01*
X79720000Y-79119000D02*
X81016000Y-79119000D01*
X76484000Y-79079000D02*
X77760000Y-79079000D01*
X79720000Y-79079000D02*
X80996000Y-79079000D01*
X76506000Y-79039000D02*
X77760000Y-79039000D01*
X79720000Y-79039000D02*
X80974000Y-79039000D01*
X76528000Y-78999000D02*
X77760000Y-78999000D01*
X79720000Y-78999000D02*
X80952000Y-78999000D01*
X76551000Y-78959000D02*
X77760000Y-78959000D01*
X79720000Y-78959000D02*
X80929000Y-78959000D01*
X76575000Y-78919000D02*
X77760000Y-78919000D01*
X79720000Y-78919000D02*
X80905000Y-78919000D01*
X76600000Y-78879000D02*
X77760000Y-78879000D01*
X79720000Y-78879000D02*
X80880000Y-78879000D01*
X76627000Y-78839000D02*
X77760000Y-78839000D01*
X79720000Y-78839000D02*
X80853000Y-78839000D01*
X76654000Y-78799000D02*
X77760000Y-78799000D01*
X79720000Y-78799000D02*
X80826000Y-78799000D01*
X76682000Y-78759000D02*
X77760000Y-78759000D01*
X79720000Y-78759000D02*
X80798000Y-78759000D01*
X76712000Y-78719000D02*
X77760000Y-78719000D01*
X79720000Y-78719000D02*
X80768000Y-78719000D01*
X76743000Y-78679000D02*
X77760000Y-78679000D01*
X79720000Y-78679000D02*
X80737000Y-78679000D01*
X76775000Y-78639000D02*
X77760000Y-78639000D01*
X79720000Y-78639000D02*
X80705000Y-78639000D01*
X76808000Y-78599000D02*
X77760000Y-78599000D01*
X79720000Y-78599000D02*
X80672000Y-78599000D01*
X76843000Y-78559000D02*
X77760000Y-78559000D01*
X79720000Y-78559000D02*
X80637000Y-78559000D01*
X76879000Y-78519000D02*
X77760000Y-78519000D01*
X79720000Y-78519000D02*
X80601000Y-78519000D01*
X76917000Y-78479000D02*
X77760000Y-78479000D01*
X79720000Y-78479000D02*
X80563000Y-78479000D01*
X76957000Y-78439000D02*
X77760000Y-78439000D01*
X79720000Y-78439000D02*
X80523000Y-78439000D01*
X76998000Y-78399000D02*
X77760000Y-78399000D01*
X79720000Y-78399000D02*
X80482000Y-78399000D01*
X77041000Y-78359000D02*
X77760000Y-78359000D01*
X79720000Y-78359000D02*
X80439000Y-78359000D01*
X77086000Y-78319000D02*
X77760000Y-78319000D01*
X79720000Y-78319000D02*
X80394000Y-78319000D01*
X77134000Y-78279000D02*
X80346000Y-78279000D01*
X77184000Y-78239000D02*
X80296000Y-78239000D01*
X77236000Y-78199000D02*
X80244000Y-78199000D01*
X77292000Y-78159000D02*
X80188000Y-78159000D01*
X77350000Y-78119000D02*
X80130000Y-78119000D01*
X77413000Y-78079000D02*
X80067000Y-78079000D01*
X77479000Y-78039000D02*
X80001000Y-78039000D01*
X77551000Y-77999000D02*
X79929000Y-77999000D01*
X77628000Y-77959000D02*
X79852000Y-77959000D01*
X77712000Y-77919000D02*
X79768000Y-77919000D01*
X77806000Y-77879000D02*
X79674000Y-77879000D01*
X77911000Y-77839000D02*
X79569000Y-77839000D01*
X78033000Y-77799000D02*
X79447000Y-77799000D01*
X78181000Y-77759000D02*
X79299000Y-77759000D01*
X78386000Y-77719000D02*
X79094000Y-77719000D01*
X78740000Y-83480000D02*
X78740000Y-82280000D01*
X78090000Y-82880000D02*
X79390000Y-82880000D01*
X85030000Y-74870000D02*
X85030000Y-80070000D01*
X85090000Y-74870000D02*
X85030000Y-74870000D01*
X87690000Y-80070000D02*
X85030000Y-80070000D01*
X85090000Y-74870000D02*
X85090000Y-77470000D01*
X85090000Y-77470000D02*
X87690000Y-77470000D01*
X87690000Y-77470000D02*
X87690000Y-80070000D01*
X86360000Y-74870000D02*
X87690000Y-74870000D01*
X87690000Y-74870000D02*
X87690000Y-76200000D01*
D12*
X92543334Y-66397143D02*
X92495715Y-66444762D01*
X92352858Y-66492381D01*
X92257620Y-66492381D01*
X92114762Y-66444762D01*
X92019524Y-66349524D01*
X91971905Y-66254286D01*
X91924286Y-66063810D01*
X91924286Y-65920952D01*
X91971905Y-65730476D01*
X92019524Y-65635238D01*
X92114762Y-65540000D01*
X92257620Y-65492381D01*
X92352858Y-65492381D01*
X92495715Y-65540000D01*
X92543334Y-65587619D01*
X93495715Y-66492381D02*
X92924286Y-66492381D01*
X93210000Y-66492381D02*
X93210000Y-65492381D01*
X93114762Y-65635238D01*
X93019524Y-65730476D01*
X92924286Y-65778095D01*
X100163334Y-66397143D02*
X100115715Y-66444762D01*
X99972858Y-66492381D01*
X99877620Y-66492381D01*
X99734762Y-66444762D01*
X99639524Y-66349524D01*
X99591905Y-66254286D01*
X99544286Y-66063810D01*
X99544286Y-65920952D01*
X99591905Y-65730476D01*
X99639524Y-65635238D01*
X99734762Y-65540000D01*
X99877620Y-65492381D01*
X99972858Y-65492381D01*
X100115715Y-65540000D01*
X100163334Y-65587619D01*
X100544286Y-65587619D02*
X100591905Y-65540000D01*
X100687143Y-65492381D01*
X100925239Y-65492381D01*
X101020477Y-65540000D01*
X101068096Y-65587619D01*
X101115715Y-65682857D01*
X101115715Y-65778095D01*
X101068096Y-65920952D01*
X100496667Y-66492381D01*
X101115715Y-66492381D01*
X105767143Y-81970476D02*
X105814762Y-82018095D01*
X105862381Y-82160952D01*
X105862381Y-82256190D01*
X105814762Y-82399048D01*
X105719524Y-82494286D01*
X105624286Y-82541905D01*
X105433810Y-82589524D01*
X105290952Y-82589524D01*
X105100476Y-82541905D01*
X105005238Y-82494286D01*
X104910000Y-82399048D01*
X104862381Y-82256190D01*
X104862381Y-82160952D01*
X104910000Y-82018095D01*
X104957619Y-81970476D01*
X105862381Y-81541905D02*
X104862381Y-81541905D01*
X105862381Y-80970476D01*
X104862381Y-80970476D01*
X105195714Y-80065714D02*
X105862381Y-80065714D01*
X104814762Y-80303810D02*
X105529048Y-80541905D01*
X105529048Y-79922857D01*
X105767143Y-74350476D02*
X105814762Y-74398095D01*
X105862381Y-74540952D01*
X105862381Y-74636190D01*
X105814762Y-74779048D01*
X105719524Y-74874286D01*
X105624286Y-74921905D01*
X105433810Y-74969524D01*
X105290952Y-74969524D01*
X105100476Y-74921905D01*
X105005238Y-74874286D01*
X104910000Y-74779048D01*
X104862381Y-74636190D01*
X104862381Y-74540952D01*
X104910000Y-74398095D01*
X104957619Y-74350476D01*
X105862381Y-73921905D02*
X104862381Y-73921905D01*
X105862381Y-73350476D01*
X104862381Y-73350476D01*
X104862381Y-72398095D02*
X104862381Y-72874286D01*
X105338571Y-72921905D01*
X105290952Y-72874286D01*
X105243333Y-72779048D01*
X105243333Y-72540952D01*
X105290952Y-72445714D01*
X105338571Y-72398095D01*
X105433810Y-72350476D01*
X105671905Y-72350476D01*
X105767143Y-72398095D01*
X105814762Y-72445714D01*
X105862381Y-72540952D01*
X105862381Y-72779048D01*
X105814762Y-72874286D01*
X105767143Y-72921905D01*
X84399524Y-47557143D02*
X84351905Y-47604762D01*
X84209048Y-47652381D01*
X84113810Y-47652381D01*
X83970952Y-47604762D01*
X83875714Y-47509524D01*
X83828095Y-47414286D01*
X83780476Y-47223810D01*
X83780476Y-47080952D01*
X83828095Y-46890476D01*
X83875714Y-46795238D01*
X83970952Y-46700000D01*
X84113810Y-46652381D01*
X84209048Y-46652381D01*
X84351905Y-46700000D01*
X84399524Y-46747619D01*
X84828095Y-47652381D02*
X84828095Y-46652381D01*
X85399524Y-47652381D01*
X85399524Y-46652381D01*
X86304286Y-46652381D02*
X86113809Y-46652381D01*
X86018571Y-46700000D01*
X85970952Y-46747619D01*
X85875714Y-46890476D01*
X85828095Y-47080952D01*
X85828095Y-47461905D01*
X85875714Y-47557143D01*
X85923333Y-47604762D01*
X86018571Y-47652381D01*
X86209048Y-47652381D01*
X86304286Y-47604762D01*
X86351905Y-47557143D01*
X86399524Y-47461905D01*
X86399524Y-47223810D01*
X86351905Y-47128571D01*
X86304286Y-47080952D01*
X86209048Y-47033333D01*
X86018571Y-47033333D01*
X85923333Y-47080952D01*
X85875714Y-47128571D01*
X85828095Y-47223810D01*
X109799524Y-47557143D02*
X109751905Y-47604762D01*
X109609048Y-47652381D01*
X109513810Y-47652381D01*
X109370952Y-47604762D01*
X109275714Y-47509524D01*
X109228095Y-47414286D01*
X109180476Y-47223810D01*
X109180476Y-47080952D01*
X109228095Y-46890476D01*
X109275714Y-46795238D01*
X109370952Y-46700000D01*
X109513810Y-46652381D01*
X109609048Y-46652381D01*
X109751905Y-46700000D01*
X109799524Y-46747619D01*
X110228095Y-47652381D02*
X110228095Y-46652381D01*
X110799524Y-47652381D01*
X110799524Y-46652381D01*
X111180476Y-46652381D02*
X111847143Y-46652381D01*
X111418571Y-47652381D01*
X83129524Y-82272143D02*
X83081905Y-82319762D01*
X82939048Y-82367381D01*
X82843810Y-82367381D01*
X82700952Y-82319762D01*
X82605714Y-82224524D01*
X82558095Y-82129286D01*
X82510476Y-81938810D01*
X82510476Y-81795952D01*
X82558095Y-81605476D01*
X82605714Y-81510238D01*
X82700952Y-81415000D01*
X82843810Y-81367381D01*
X82939048Y-81367381D01*
X83081905Y-81415000D01*
X83129524Y-81462619D01*
X83558095Y-82367381D02*
X83558095Y-81367381D01*
X84129524Y-82367381D01*
X84129524Y-81367381D01*
X84748571Y-81795952D02*
X84653333Y-81748333D01*
X84605714Y-81700714D01*
X84558095Y-81605476D01*
X84558095Y-81557857D01*
X84605714Y-81462619D01*
X84653333Y-81415000D01*
X84748571Y-81367381D01*
X84939048Y-81367381D01*
X85034286Y-81415000D01*
X85081905Y-81462619D01*
X85129524Y-81557857D01*
X85129524Y-81605476D01*
X85081905Y-81700714D01*
X85034286Y-81748333D01*
X84939048Y-81795952D01*
X84748571Y-81795952D01*
X84653333Y-81843571D01*
X84605714Y-81891190D01*
X84558095Y-81986429D01*
X84558095Y-82176905D01*
X84605714Y-82272143D01*
X84653333Y-82319762D01*
X84748571Y-82367381D01*
X84939048Y-82367381D01*
X85034286Y-82319762D01*
X85081905Y-82272143D01*
X85129524Y-82176905D01*
X85129524Y-81986429D01*
X85081905Y-81891190D01*
X85034286Y-81843571D01*
X84939048Y-81795952D01*
X77136667Y-83272381D02*
X77136667Y-83986667D01*
X77089047Y-84129524D01*
X76993809Y-84224762D01*
X76850952Y-84272381D01*
X76755714Y-84272381D01*
X78136667Y-84272381D02*
X77565238Y-84272381D01*
X77850952Y-84272381D02*
X77850952Y-83272381D01*
X77755714Y-83415238D01*
X77660476Y-83510476D01*
X77565238Y-83558095D01*
X80478334Y-77827143D02*
X80430715Y-77874762D01*
X80287858Y-77922381D01*
X80192620Y-77922381D01*
X80049762Y-77874762D01*
X79954524Y-77779524D01*
X79906905Y-77684286D01*
X79859286Y-77493810D01*
X79859286Y-77350952D01*
X79906905Y-77160476D01*
X79954524Y-77065238D01*
X80049762Y-76970000D01*
X80192620Y-76922381D01*
X80287858Y-76922381D01*
X80430715Y-76970000D01*
X80478334Y-77017619D01*
X80811667Y-76922381D02*
X81430715Y-76922381D01*
X81097381Y-77303333D01*
X81240239Y-77303333D01*
X81335477Y-77350952D01*
X81383096Y-77398571D01*
X81430715Y-77493810D01*
X81430715Y-77731905D01*
X81383096Y-77827143D01*
X81335477Y-77874762D01*
X81240239Y-77922381D01*
X80954524Y-77922381D01*
X80859286Y-77874762D01*
X80811667Y-77827143D01*
X83272381Y-77803333D02*
X83986667Y-77803333D01*
X84129524Y-77850953D01*
X84224762Y-77946191D01*
X84272381Y-78089048D01*
X84272381Y-78184286D01*
X83367619Y-77374762D02*
X83320000Y-77327143D01*
X83272381Y-77231905D01*
X83272381Y-76993809D01*
X83320000Y-76898571D01*
X83367619Y-76850952D01*
X83462857Y-76803333D01*
X83558095Y-76803333D01*
X83700952Y-76850952D01*
X84272381Y-77422381D01*
X84272381Y-76803333D01*
%LPC*%
D14*
X90170000Y-68580000D03*
X95170000Y-68580000D03*
X102870000Y-68580000D03*
X97870000Y-68580000D03*
D15*
X99060000Y-46990000D03*
D16*
X99060000Y-44450000D03*
X96520000Y-46990000D03*
X96520000Y-44450000D03*
X93980000Y-46990000D03*
X93980000Y-44450000D03*
X91440000Y-46990000D03*
X91440000Y-44450000D03*
D15*
X78740000Y-53340000D03*
D16*
X78740000Y-55880000D03*
X78740000Y-58420000D03*
X78740000Y-60960000D03*
X78740000Y-63500000D03*
X78740000Y-66040000D03*
X78740000Y-68580000D03*
X78740000Y-71120000D03*
D15*
X106680000Y-53340000D03*
D16*
X106680000Y-55880000D03*
X106680000Y-58420000D03*
X106680000Y-60960000D03*
X106680000Y-63500000D03*
X106680000Y-66040000D03*
X106680000Y-68580000D03*
D15*
X90170000Y-81280000D03*
D16*
X92710000Y-81280000D03*
X95250000Y-81280000D03*
X97790000Y-81280000D03*
X100330000Y-81280000D03*
X102870000Y-81280000D03*
D15*
X90170000Y-73660000D03*
D16*
X92710000Y-73660000D03*
X95250000Y-73660000D03*
X97790000Y-73660000D03*
X100330000Y-73660000D03*
X102870000Y-73660000D03*
D15*
X83820000Y-49530000D03*
D16*
X86360000Y-49530000D03*
X83820000Y-52070000D03*
X86360000Y-52070000D03*
X83820000Y-54610000D03*
X86360000Y-54610000D03*
X83820000Y-57150000D03*
X86360000Y-57150000D03*
X83820000Y-59690000D03*
X86360000Y-59690000D03*
X83820000Y-62230000D03*
X86360000Y-62230000D03*
X83820000Y-64770000D03*
X86360000Y-64770000D03*
X83820000Y-67310000D03*
X86360000Y-67310000D03*
X83820000Y-69850000D03*
X86360000Y-69850000D03*
X83820000Y-72390000D03*
X86360000Y-72390000D03*
D15*
X109220000Y-49530000D03*
D16*
X111760000Y-49530000D03*
X109220000Y-52070000D03*
X111760000Y-52070000D03*
X109220000Y-54610000D03*
X111760000Y-54610000D03*
X109220000Y-57150000D03*
X111760000Y-57150000D03*
X109220000Y-59690000D03*
X111760000Y-59690000D03*
X109220000Y-62230000D03*
X111760000Y-62230000D03*
X109220000Y-64770000D03*
X111760000Y-64770000D03*
X109220000Y-67310000D03*
X111760000Y-67310000D03*
X109220000Y-69850000D03*
X111760000Y-69850000D03*
X109220000Y-72390000D03*
X111760000Y-72390000D03*
D17*
X82550000Y-88430000D03*
X87550000Y-88430000D03*
X92550000Y-88430000D03*
X97550000Y-88430000D03*
X102550000Y-88430000D03*
X107550000Y-88430000D03*
D15*
X77470000Y-88900000D03*
D16*
X77470000Y-86360000D03*
D18*
X92710000Y-76200000D03*
D19*
X95250000Y-76200000D03*
X97790000Y-76200000D03*
X100330000Y-76200000D03*
D20*
X96520000Y-62080000D03*
D18*
X93980000Y-78740000D03*
D19*
X96520000Y-78740000D03*
X99060000Y-78740000D03*
D21*
X78740000Y-81280000D03*
D14*
X78740000Y-79280000D03*
D22*
X79375000Y-46355000D03*
X111125000Y-78740000D03*
D15*
X86360000Y-76200000D03*
D16*
X86360000Y-78740000D03*
M02*
