G04 #@! TF.FileFunction,Soldermask,Top*
%FSLAX46Y46*%
G04 Gerber Fmt 4.6, Leading zero omitted, Abs format (unit mm)*
G04 Created by KiCad (PCBNEW 4.0.7) date 05/29/20 13:35:47*
%MOMM*%
%LPD*%
G01*
G04 APERTURE LIST*
%ADD10C,0.100000*%
%ADD11C,2.000000*%
%ADD12R,2.100000X2.100000*%
%ADD13O,2.100000X2.100000*%
%ADD14R,3.400000X4.400000*%
%ADD15R,2.200000X2.200000*%
%ADD16O,2.200000X2.200000*%
%ADD17O,3.900000X3.900000*%
%ADD18R,2.000000X2.000000*%
%ADD19C,3.900000*%
G04 APERTURE END LIST*
D10*
D11*
X90170000Y-68580000D03*
X95170000Y-68580000D03*
X102870000Y-68580000D03*
X97870000Y-68580000D03*
D12*
X99060000Y-46990000D03*
D13*
X99060000Y-44450000D03*
X96520000Y-46990000D03*
X96520000Y-44450000D03*
X93980000Y-46990000D03*
X93980000Y-44450000D03*
X91440000Y-46990000D03*
X91440000Y-44450000D03*
D12*
X78740000Y-53340000D03*
D13*
X78740000Y-55880000D03*
X78740000Y-58420000D03*
X78740000Y-60960000D03*
X78740000Y-63500000D03*
X78740000Y-66040000D03*
X78740000Y-68580000D03*
X78740000Y-71120000D03*
D12*
X106680000Y-53340000D03*
D13*
X106680000Y-55880000D03*
X106680000Y-58420000D03*
X106680000Y-60960000D03*
X106680000Y-63500000D03*
X106680000Y-66040000D03*
X106680000Y-68580000D03*
D12*
X90170000Y-81280000D03*
D13*
X92710000Y-81280000D03*
X95250000Y-81280000D03*
X97790000Y-81280000D03*
X100330000Y-81280000D03*
X102870000Y-81280000D03*
D12*
X90170000Y-73660000D03*
D13*
X92710000Y-73660000D03*
X95250000Y-73660000D03*
X97790000Y-73660000D03*
X100330000Y-73660000D03*
X102870000Y-73660000D03*
D12*
X83820000Y-49530000D03*
D13*
X86360000Y-49530000D03*
X83820000Y-52070000D03*
X86360000Y-52070000D03*
X83820000Y-54610000D03*
X86360000Y-54610000D03*
X83820000Y-57150000D03*
X86360000Y-57150000D03*
X83820000Y-59690000D03*
X86360000Y-59690000D03*
X83820000Y-62230000D03*
X86360000Y-62230000D03*
X83820000Y-64770000D03*
X86360000Y-64770000D03*
X83820000Y-67310000D03*
X86360000Y-67310000D03*
X83820000Y-69850000D03*
X86360000Y-69850000D03*
X83820000Y-72390000D03*
X86360000Y-72390000D03*
D12*
X109220000Y-49530000D03*
D13*
X111760000Y-49530000D03*
X109220000Y-52070000D03*
X111760000Y-52070000D03*
X109220000Y-54610000D03*
X111760000Y-54610000D03*
X109220000Y-57150000D03*
X111760000Y-57150000D03*
X109220000Y-59690000D03*
X111760000Y-59690000D03*
X109220000Y-62230000D03*
X111760000Y-62230000D03*
X109220000Y-64770000D03*
X111760000Y-64770000D03*
X109220000Y-67310000D03*
X111760000Y-67310000D03*
X109220000Y-69850000D03*
X111760000Y-69850000D03*
X109220000Y-72390000D03*
X111760000Y-72390000D03*
D14*
X82550000Y-88430000D03*
X87550000Y-88430000D03*
X92550000Y-88430000D03*
X97550000Y-88430000D03*
X102550000Y-88430000D03*
X107550000Y-88430000D03*
D12*
X77470000Y-88900000D03*
D13*
X77470000Y-86360000D03*
D15*
X92710000Y-76200000D03*
D16*
X95250000Y-76200000D03*
X97790000Y-76200000D03*
X100330000Y-76200000D03*
D17*
X96520000Y-62080000D03*
D15*
X93980000Y-78740000D03*
D16*
X96520000Y-78740000D03*
X99060000Y-78740000D03*
D18*
X78740000Y-81280000D03*
D11*
X78740000Y-79280000D03*
D19*
X79375000Y-46355000D03*
X111125000Y-78740000D03*
D12*
X86360000Y-76200000D03*
D13*
X86360000Y-78740000D03*
M02*
