M48
;DRILL file {KiCad 4.0.7} date 05/27/20 17:45:22
;FORMAT={2:4/ absolute / inch / suppress leading zeros}
FMAT,2
INCH,TZ
T1C0.016
T2C0.031
T3C0.039
T4C0.058
T5C0.138
%
G90
G05
M72
T1
X31000Y-29250
X31000Y-29750
X31750Y-33250
X32000Y-33000
X35750Y-23500
X36000Y-24500
X36292Y-26481
X36750Y-25000
X39500Y-21250
X39500Y-21750
X39500Y-24750
X40000Y-24750
X40500Y-18500
X40500Y-19000
X41750Y-17750
X43250Y-17750
T2
X31000Y-31213
X31000Y-32000
X35500Y-27000
X37469Y-27000
X38531Y-27000
X40500Y-27000
T3
X30500Y-34000
X30500Y-35000
X31000Y-21000
X31000Y-22000
X31000Y-23000
X31000Y-24000
X31000Y-25000
X31000Y-26000
X31000Y-27000
X31000Y-28000
X33000Y-19500
X33000Y-20500
X33000Y-21500
X33000Y-22500
X33000Y-23500
X33000Y-24500
X33000Y-25500
X33000Y-26500
X33000Y-27500
X33000Y-28500
X34000Y-19500
X34000Y-20500
X34000Y-21500
X34000Y-22500
X34000Y-23500
X34000Y-24500
X34000Y-25500
X34000Y-26500
X34000Y-27500
X34000Y-28500
X34000Y-30000
X34000Y-31000
X35500Y-29000
X35500Y-32000
X36000Y-17500
X36000Y-18500
X36500Y-29000
X36500Y-30000
X36500Y-32000
X37000Y-17500
X37000Y-18500
X37000Y-31000
X37500Y-29000
X37500Y-30000
X37500Y-32000
X38000Y-17500
X38000Y-18500
X38000Y-31000
X38500Y-29000
X38500Y-30000
X38500Y-32000
X39000Y-17500
X39000Y-18500
X39000Y-31000
X39500Y-29000
X39500Y-30000
X39500Y-32000
X40500Y-29000
X40500Y-32000
X42000Y-21000
X42000Y-22000
X42000Y-23000
X42000Y-24000
X42000Y-25000
X42000Y-26000
X42000Y-27000
X43000Y-19500
X43000Y-20500
X43000Y-21500
X43000Y-22500
X43000Y-23500
X43000Y-24500
X43000Y-25500
X43000Y-26500
X43000Y-27500
X43000Y-28500
X44000Y-19500
X44000Y-20500
X44000Y-21500
X44000Y-22500
X44000Y-23500
X44000Y-24500
X44000Y-25500
X44000Y-26500
X44000Y-27500
X44000Y-28500
T4
X32500Y-34500
X34469Y-34500
X36437Y-34500
X38406Y-34500
X40374Y-34500
X42343Y-34500
T5
X31250Y-18250
X38000Y-24441
X43750Y-31000
T0
M30
