G04 #@! TF.FileFunction,Legend,Bot*
%FSLAX46Y46*%
G04 Gerber Fmt 4.6, Leading zero omitted, Abs format (unit mm)*
G04 Created by KiCad (PCBNEW 4.0.7) date 05/17/20 12:06:38*
%MOMM*%
%LPD*%
G01*
G04 APERTURE LIST*
%ADD10C,0.100000*%
%ADD11C,0.120000*%
%ADD12C,0.150000*%
%ADD13C,2.000000*%
%ADD14R,2.100000X2.100000*%
%ADD15O,2.100000X2.100000*%
%ADD16R,2.800000X2.800000*%
%ADD17C,2.800000*%
%ADD18R,2.200000X2.200000*%
%ADD19O,2.200000X2.200000*%
%ADD20O,3.900000X3.900000*%
%ADD21R,2.000000X2.000000*%
%ADD22C,3.900000*%
G04 APERTURE END LIST*
D10*
D11*
X80070000Y-72450000D02*
X77410000Y-72450000D01*
X80070000Y-54610000D02*
X80070000Y-72450000D01*
X77410000Y-54610000D02*
X77410000Y-72450000D01*
X80070000Y-54610000D02*
X77410000Y-54610000D01*
X80070000Y-53340000D02*
X80070000Y-52010000D01*
X80070000Y-52010000D02*
X78740000Y-52010000D01*
X108010000Y-69910000D02*
X105350000Y-69910000D01*
X108010000Y-54610000D02*
X108010000Y-69910000D01*
X105350000Y-54610000D02*
X105350000Y-69910000D01*
X108010000Y-54610000D02*
X105350000Y-54610000D01*
X108010000Y-53340000D02*
X108010000Y-52010000D01*
X108010000Y-52010000D02*
X106680000Y-52010000D01*
X91400000Y-78820000D02*
X101640000Y-78820000D01*
X91400000Y-74179000D02*
X101640000Y-74179000D01*
X91400000Y-78820000D02*
X91400000Y-74179000D01*
X101640000Y-78820000D02*
X101640000Y-74179000D01*
X91400000Y-77310000D02*
X101640000Y-77310000D01*
X94670000Y-78820000D02*
X94670000Y-77310000D01*
X98370000Y-78820000D02*
X98370000Y-77310000D01*
X91400000Y-75050000D02*
X101640000Y-75050000D01*
X91400000Y-65560000D02*
X101640000Y-65560000D01*
X91400000Y-75050000D02*
X91400000Y-65560000D01*
X101640000Y-75050000D02*
X101640000Y-65560000D01*
X91400000Y-59160000D02*
X92600000Y-59160000D01*
X93799000Y-59160000D02*
X95000000Y-59160000D01*
X96200000Y-59160000D02*
X97400000Y-59160000D01*
X98600000Y-59160000D02*
X99800000Y-59160000D01*
X101000000Y-59160000D02*
X101640000Y-59160000D01*
X91400000Y-65320000D02*
X91400000Y-64120000D01*
X91400000Y-62920000D02*
X91400000Y-61720000D01*
X91400000Y-60520000D02*
X91400000Y-59320000D01*
X101640000Y-65320000D02*
X101640000Y-64120000D01*
X101640000Y-62920000D02*
X101640000Y-61720000D01*
X101640000Y-60520000D02*
X101640000Y-59320000D01*
X93980000Y-77690000D02*
X93980000Y-75050000D01*
X96520000Y-77674000D02*
X96520000Y-75050000D01*
X99060000Y-77674000D02*
X99060000Y-75050000D01*
D12*
X79430476Y-51367143D02*
X79478095Y-51414762D01*
X79620952Y-51462381D01*
X79716190Y-51462381D01*
X79859048Y-51414762D01*
X79954286Y-51319524D01*
X80001905Y-51224286D01*
X80049524Y-51033810D01*
X80049524Y-50890952D01*
X80001905Y-50700476D01*
X79954286Y-50605238D01*
X79859048Y-50510000D01*
X79716190Y-50462381D01*
X79620952Y-50462381D01*
X79478095Y-50510000D01*
X79430476Y-50557619D01*
X79001905Y-51462381D02*
X79001905Y-50462381D01*
X78430476Y-51462381D01*
X78430476Y-50462381D01*
X78001905Y-50557619D02*
X77954286Y-50510000D01*
X77859048Y-50462381D01*
X77620952Y-50462381D01*
X77525714Y-50510000D01*
X77478095Y-50557619D01*
X77430476Y-50652857D01*
X77430476Y-50748095D01*
X77478095Y-50890952D01*
X78049524Y-51462381D01*
X77430476Y-51462381D01*
X107370476Y-51367143D02*
X107418095Y-51414762D01*
X107560952Y-51462381D01*
X107656190Y-51462381D01*
X107799048Y-51414762D01*
X107894286Y-51319524D01*
X107941905Y-51224286D01*
X107989524Y-51033810D01*
X107989524Y-50890952D01*
X107941905Y-50700476D01*
X107894286Y-50605238D01*
X107799048Y-50510000D01*
X107656190Y-50462381D01*
X107560952Y-50462381D01*
X107418095Y-50510000D01*
X107370476Y-50557619D01*
X106941905Y-51462381D02*
X106941905Y-50462381D01*
X106370476Y-51462381D01*
X106370476Y-50462381D01*
X105989524Y-50462381D02*
X105370476Y-50462381D01*
X105703810Y-50843333D01*
X105560952Y-50843333D01*
X105465714Y-50890952D01*
X105418095Y-50938571D01*
X105370476Y-51033810D01*
X105370476Y-51271905D01*
X105418095Y-51367143D01*
X105465714Y-51414762D01*
X105560952Y-51462381D01*
X105846667Y-51462381D01*
X105941905Y-51414762D01*
X105989524Y-51367143D01*
X97281905Y-79272381D02*
X97281905Y-80081905D01*
X97234286Y-80177143D01*
X97186667Y-80224762D01*
X97091429Y-80272381D01*
X96900952Y-80272381D01*
X96805714Y-80224762D01*
X96758095Y-80177143D01*
X96710476Y-80081905D01*
X96710476Y-79272381D01*
X96281905Y-79367619D02*
X96234286Y-79320000D01*
X96139048Y-79272381D01*
X95900952Y-79272381D01*
X95805714Y-79320000D01*
X95758095Y-79367619D01*
X95710476Y-79462857D01*
X95710476Y-79558095D01*
X95758095Y-79700952D01*
X96329524Y-80272381D01*
X95710476Y-80272381D01*
X97281905Y-57612381D02*
X97281905Y-58421905D01*
X97234286Y-58517143D01*
X97186667Y-58564762D01*
X97091429Y-58612381D01*
X96900952Y-58612381D01*
X96805714Y-58564762D01*
X96758095Y-58517143D01*
X96710476Y-58421905D01*
X96710476Y-57612381D01*
X95710476Y-58612381D02*
X96281905Y-58612381D01*
X95996191Y-58612381D02*
X95996191Y-57612381D01*
X96091429Y-57755238D01*
X96186667Y-57850476D01*
X96281905Y-57898095D01*
%LPC*%
D13*
X90170000Y-68580000D03*
X95170000Y-68580000D03*
X102870000Y-68580000D03*
X97870000Y-68580000D03*
D14*
X91440000Y-46990000D03*
D15*
X91440000Y-44450000D03*
X93980000Y-46990000D03*
X93980000Y-44450000D03*
X96520000Y-46990000D03*
X96520000Y-44450000D03*
X99060000Y-46990000D03*
X99060000Y-44450000D03*
D14*
X78740000Y-53340000D03*
D15*
X78740000Y-55880000D03*
X78740000Y-58420000D03*
X78740000Y-60960000D03*
X78740000Y-63500000D03*
X78740000Y-66040000D03*
X78740000Y-68580000D03*
X78740000Y-71120000D03*
D14*
X106680000Y-53340000D03*
D15*
X106680000Y-55880000D03*
X106680000Y-58420000D03*
X106680000Y-60960000D03*
X106680000Y-63500000D03*
X106680000Y-66040000D03*
X106680000Y-68580000D03*
D14*
X90170000Y-81280000D03*
D15*
X92710000Y-81280000D03*
X95250000Y-81280000D03*
X97790000Y-81280000D03*
X100330000Y-81280000D03*
X102870000Y-81280000D03*
D14*
X90170000Y-73660000D03*
D15*
X92710000Y-73660000D03*
X95250000Y-73660000D03*
X97790000Y-73660000D03*
X100330000Y-73660000D03*
X102870000Y-73660000D03*
D14*
X83820000Y-49530000D03*
D15*
X86360000Y-49530000D03*
X83820000Y-52070000D03*
X86360000Y-52070000D03*
X83820000Y-54610000D03*
X86360000Y-54610000D03*
X83820000Y-57150000D03*
X86360000Y-57150000D03*
X83820000Y-59690000D03*
X86360000Y-59690000D03*
X83820000Y-62230000D03*
X86360000Y-62230000D03*
X83820000Y-64770000D03*
X86360000Y-64770000D03*
X83820000Y-67310000D03*
X86360000Y-67310000D03*
X83820000Y-69850000D03*
X86360000Y-69850000D03*
X83820000Y-72390000D03*
X86360000Y-72390000D03*
D14*
X109220000Y-49530000D03*
D15*
X111760000Y-49530000D03*
X109220000Y-52070000D03*
X111760000Y-52070000D03*
X109220000Y-54610000D03*
X111760000Y-54610000D03*
X109220000Y-57150000D03*
X111760000Y-57150000D03*
X109220000Y-59690000D03*
X111760000Y-59690000D03*
X109220000Y-62230000D03*
X111760000Y-62230000D03*
X109220000Y-64770000D03*
X111760000Y-64770000D03*
X109220000Y-67310000D03*
X111760000Y-67310000D03*
X109220000Y-69850000D03*
X111760000Y-69850000D03*
X109220000Y-72390000D03*
X111760000Y-72390000D03*
D16*
X82550000Y-87630000D03*
D17*
X87550000Y-87630000D03*
X92550000Y-87630000D03*
X97550000Y-87630000D03*
X102550000Y-87630000D03*
X107550000Y-87630000D03*
D14*
X77470000Y-88900000D03*
D15*
X77470000Y-86360000D03*
D18*
X92710000Y-76200000D03*
D19*
X95250000Y-76200000D03*
X97790000Y-76200000D03*
X100330000Y-76200000D03*
D20*
X96520000Y-62080000D03*
D18*
X93980000Y-78740000D03*
D19*
X96520000Y-78740000D03*
X99060000Y-78740000D03*
D21*
X78740000Y-81280000D03*
D13*
X78740000Y-79280000D03*
D22*
X79375000Y-46355000D03*
X111125000Y-78740000D03*
M02*
