G04 #@! TF.FileFunction,Legend,Top*
%FSLAX46Y46*%
G04 Gerber Fmt 4.6, Leading zero omitted, Abs format (unit mm)*
G04 Created by KiCad (PCBNEW 4.0.7) date 06/11/20 11:22:33*
%MOMM*%
%LPD*%
G01*
G04 APERTURE LIST*
%ADD10C,0.100000*%
%ADD11C,0.200000*%
%ADD12C,0.300000*%
%ADD13C,0.150000*%
%ADD14C,0.120000*%
%ADD15O,3.900000X3.900000*%
%ADD16R,2.200000X2.200000*%
%ADD17O,2.200000X2.200000*%
%ADD18R,2.100000X2.100000*%
%ADD19O,2.100000X2.100000*%
%ADD20R,2.000000X2.000000*%
%ADD21C,2.000000*%
%ADD22R,3.400000X4.400000*%
%ADD23C,3.900000*%
G04 APERTURE END LIST*
D10*
D11*
X104140000Y-153035000D02*
X106680000Y-155575000D01*
X104140000Y-153035000D02*
X101600000Y-155575000D01*
X104140000Y-153035000D02*
X104140000Y-159385000D01*
D12*
X105782857Y-161703571D02*
X102782857Y-162703571D01*
X105782857Y-163703571D01*
X103925714Y-164703572D02*
X103925714Y-166989286D01*
X103068571Y-170132143D02*
X102925714Y-169989286D01*
X102782857Y-169560715D01*
X102782857Y-169275001D01*
X102925714Y-168846429D01*
X103211429Y-168560715D01*
X103497143Y-168417858D01*
X104068571Y-168275001D01*
X104497143Y-168275001D01*
X105068571Y-168417858D01*
X105354286Y-168560715D01*
X105640000Y-168846429D01*
X105782857Y-169275001D01*
X105782857Y-169560715D01*
X105640000Y-169989286D01*
X105497143Y-170132143D01*
X104782857Y-172703572D02*
X102782857Y-172703572D01*
X104782857Y-171417858D02*
X103211429Y-171417858D01*
X102925714Y-171560715D01*
X102782857Y-171846429D01*
X102782857Y-172275001D01*
X102925714Y-172560715D01*
X103068571Y-172703572D01*
X104782857Y-173703572D02*
X104782857Y-174846429D01*
X105782857Y-174132144D02*
X103211429Y-174132144D01*
X102925714Y-174275001D01*
X102782857Y-174560715D01*
X102782857Y-174846429D01*
X154718571Y-96147143D02*
X155718571Y-99147143D01*
X156718571Y-96147143D01*
X157718572Y-98004286D02*
X160004286Y-98004286D01*
X163147143Y-98861429D02*
X163004286Y-99004286D01*
X162575715Y-99147143D01*
X162290001Y-99147143D01*
X161861429Y-99004286D01*
X161575715Y-98718571D01*
X161432858Y-98432857D01*
X161290001Y-97861429D01*
X161290001Y-97432857D01*
X161432858Y-96861429D01*
X161575715Y-96575714D01*
X161861429Y-96290000D01*
X162290001Y-96147143D01*
X162575715Y-96147143D01*
X163004286Y-96290000D01*
X163147143Y-96432857D01*
X165718572Y-97147143D02*
X165718572Y-99147143D01*
X164432858Y-97147143D02*
X164432858Y-98718571D01*
X164575715Y-99004286D01*
X164861429Y-99147143D01*
X165290001Y-99147143D01*
X165575715Y-99004286D01*
X165718572Y-98861429D01*
X166718572Y-97147143D02*
X167861429Y-97147143D01*
X167147144Y-96147143D02*
X167147144Y-98718571D01*
X167290001Y-99004286D01*
X167575715Y-99147143D01*
X167861429Y-99147143D01*
D11*
X146050000Y-97790000D02*
X152400000Y-97790000D01*
X146050000Y-97790000D02*
X148590000Y-100330000D01*
X146050000Y-97790000D02*
X148590000Y-95250000D01*
D13*
X128206667Y-98512381D02*
X128540000Y-99512381D01*
X128873334Y-98512381D01*
X129778096Y-99417143D02*
X129730477Y-99464762D01*
X129587620Y-99512381D01*
X129492382Y-99512381D01*
X129349524Y-99464762D01*
X129254286Y-99369524D01*
X129206667Y-99274286D01*
X129159048Y-99083810D01*
X129159048Y-98940952D01*
X129206667Y-98750476D01*
X129254286Y-98655238D01*
X129349524Y-98560000D01*
X129492382Y-98512381D01*
X129587620Y-98512381D01*
X129730477Y-98560000D01*
X129778096Y-98607619D01*
X130778096Y-99417143D02*
X130730477Y-99464762D01*
X130587620Y-99512381D01*
X130492382Y-99512381D01*
X130349524Y-99464762D01*
X130254286Y-99369524D01*
X130206667Y-99274286D01*
X130159048Y-99083810D01*
X130159048Y-98940952D01*
X130206667Y-98750476D01*
X130254286Y-98655238D01*
X130349524Y-98560000D01*
X130492382Y-98512381D01*
X130587620Y-98512381D01*
X130730477Y-98560000D01*
X130778096Y-98607619D01*
X90106667Y-98512381D02*
X90440000Y-99512381D01*
X90773334Y-98512381D01*
X91678096Y-99417143D02*
X91630477Y-99464762D01*
X91487620Y-99512381D01*
X91392382Y-99512381D01*
X91249524Y-99464762D01*
X91154286Y-99369524D01*
X91106667Y-99274286D01*
X91059048Y-99083810D01*
X91059048Y-98940952D01*
X91106667Y-98750476D01*
X91154286Y-98655238D01*
X91249524Y-98560000D01*
X91392382Y-98512381D01*
X91487620Y-98512381D01*
X91630477Y-98560000D01*
X91678096Y-98607619D01*
X92678096Y-99417143D02*
X92630477Y-99464762D01*
X92487620Y-99512381D01*
X92392382Y-99512381D01*
X92249524Y-99464762D01*
X92154286Y-99369524D01*
X92106667Y-99274286D01*
X92059048Y-99083810D01*
X92059048Y-98940952D01*
X92106667Y-98750476D01*
X92154286Y-98655238D01*
X92249524Y-98560000D01*
X92392382Y-98512381D01*
X92487620Y-98512381D01*
X92630477Y-98560000D01*
X92678096Y-98607619D01*
X128206667Y-48982381D02*
X128540000Y-49982381D01*
X128873334Y-48982381D01*
X129778096Y-49887143D02*
X129730477Y-49934762D01*
X129587620Y-49982381D01*
X129492382Y-49982381D01*
X129349524Y-49934762D01*
X129254286Y-49839524D01*
X129206667Y-49744286D01*
X129159048Y-49553810D01*
X129159048Y-49410952D01*
X129206667Y-49220476D01*
X129254286Y-49125238D01*
X129349524Y-49030000D01*
X129492382Y-48982381D01*
X129587620Y-48982381D01*
X129730477Y-49030000D01*
X129778096Y-49077619D01*
X130778096Y-49887143D02*
X130730477Y-49934762D01*
X130587620Y-49982381D01*
X130492382Y-49982381D01*
X130349524Y-49934762D01*
X130254286Y-49839524D01*
X130206667Y-49744286D01*
X130159048Y-49553810D01*
X130159048Y-49410952D01*
X130206667Y-49220476D01*
X130254286Y-49125238D01*
X130349524Y-49030000D01*
X130492382Y-48982381D01*
X130587620Y-48982381D01*
X130730477Y-49030000D01*
X130778096Y-49077619D01*
D11*
X118817143Y-107403571D02*
X118317143Y-106689286D01*
X117960000Y-107403571D02*
X117960000Y-105903571D01*
X118531428Y-105903571D01*
X118674286Y-105975000D01*
X118745714Y-106046429D01*
X118817143Y-106189286D01*
X118817143Y-106403571D01*
X118745714Y-106546429D01*
X118674286Y-106617857D01*
X118531428Y-106689286D01*
X117960000Y-106689286D01*
X120102857Y-106403571D02*
X120102857Y-107403571D01*
X119460000Y-106403571D02*
X119460000Y-107189286D01*
X119531428Y-107332143D01*
X119674286Y-107403571D01*
X119888571Y-107403571D01*
X120031428Y-107332143D01*
X120102857Y-107260714D01*
X120817143Y-107403571D02*
X120817143Y-106403571D01*
X120817143Y-106546429D02*
X120888571Y-106475000D01*
X121031429Y-106403571D01*
X121245714Y-106403571D01*
X121388571Y-106475000D01*
X121460000Y-106617857D01*
X121460000Y-107403571D01*
X121460000Y-106617857D02*
X121531429Y-106475000D01*
X121674286Y-106403571D01*
X121888571Y-106403571D01*
X122031429Y-106475000D01*
X122102857Y-106617857D01*
X122102857Y-107403571D01*
X122817143Y-107403571D02*
X122817143Y-106403571D01*
X122817143Y-105903571D02*
X122745714Y-105975000D01*
X122817143Y-106046429D01*
X122888571Y-105975000D01*
X122817143Y-105903571D01*
X122817143Y-106046429D01*
X124388572Y-107260714D02*
X124317143Y-107332143D01*
X124102857Y-107403571D01*
X123960000Y-107403571D01*
X123745715Y-107332143D01*
X123602857Y-107189286D01*
X123531429Y-107046429D01*
X123460000Y-106760714D01*
X123460000Y-106546429D01*
X123531429Y-106260714D01*
X123602857Y-106117857D01*
X123745715Y-105975000D01*
X123960000Y-105903571D01*
X124102857Y-105903571D01*
X124317143Y-105975000D01*
X124388572Y-106046429D01*
X125674286Y-107403571D02*
X125674286Y-106617857D01*
X125602857Y-106475000D01*
X125460000Y-106403571D01*
X125174286Y-106403571D01*
X125031429Y-106475000D01*
X125674286Y-107332143D02*
X125531429Y-107403571D01*
X125174286Y-107403571D01*
X125031429Y-107332143D01*
X124960000Y-107189286D01*
X124960000Y-107046429D01*
X125031429Y-106903571D01*
X125174286Y-106832143D01*
X125531429Y-106832143D01*
X125674286Y-106760714D01*
X126388572Y-107403571D02*
X126388572Y-106403571D01*
X126388572Y-106689286D02*
X126460000Y-106546429D01*
X126531429Y-106475000D01*
X126674286Y-106403571D01*
X126817143Y-106403571D01*
X129317143Y-107260714D02*
X129245714Y-107332143D01*
X129031428Y-107403571D01*
X128888571Y-107403571D01*
X128674286Y-107332143D01*
X128531428Y-107189286D01*
X128460000Y-107046429D01*
X128388571Y-106760714D01*
X128388571Y-106546429D01*
X128460000Y-106260714D01*
X128531428Y-106117857D01*
X128674286Y-105975000D01*
X128888571Y-105903571D01*
X129031428Y-105903571D01*
X129245714Y-105975000D01*
X129317143Y-106046429D01*
X129960000Y-107403571D02*
X129960000Y-105903571D01*
X130460000Y-106975000D01*
X130960000Y-105903571D01*
X130960000Y-107403571D01*
X118852858Y-109067857D02*
X119352858Y-109067857D01*
X119567144Y-109853571D02*
X118852858Y-109853571D01*
X118852858Y-108353571D01*
X119567144Y-108353571D01*
X120138572Y-109782143D02*
X120352858Y-109853571D01*
X120710001Y-109853571D01*
X120852858Y-109782143D01*
X120924287Y-109710714D01*
X120995715Y-109567857D01*
X120995715Y-109425000D01*
X120924287Y-109282143D01*
X120852858Y-109210714D01*
X120710001Y-109139286D01*
X120424287Y-109067857D01*
X120281429Y-108996429D01*
X120210001Y-108925000D01*
X120138572Y-108782143D01*
X120138572Y-108639286D01*
X120210001Y-108496429D01*
X120281429Y-108425000D01*
X120424287Y-108353571D01*
X120781429Y-108353571D01*
X120995715Y-108425000D01*
X121638572Y-109853571D02*
X121638572Y-108353571D01*
X122210000Y-108353571D01*
X122352858Y-108425000D01*
X122424286Y-108496429D01*
X122495715Y-108639286D01*
X122495715Y-108853571D01*
X122424286Y-108996429D01*
X122352858Y-109067857D01*
X122210000Y-109139286D01*
X121638572Y-109139286D01*
X122995715Y-108353571D02*
X123924286Y-108353571D01*
X123424286Y-108925000D01*
X123638572Y-108925000D01*
X123781429Y-108996429D01*
X123852858Y-109067857D01*
X123924286Y-109210714D01*
X123924286Y-109567857D01*
X123852858Y-109710714D01*
X123781429Y-109782143D01*
X123638572Y-109853571D01*
X123210000Y-109853571D01*
X123067143Y-109782143D01*
X122995715Y-109710714D01*
X124495714Y-108496429D02*
X124567143Y-108425000D01*
X124710000Y-108353571D01*
X125067143Y-108353571D01*
X125210000Y-108425000D01*
X125281429Y-108496429D01*
X125352857Y-108639286D01*
X125352857Y-108782143D01*
X125281429Y-108996429D01*
X124424286Y-109853571D01*
X125352857Y-109853571D01*
X125995714Y-109853571D02*
X125995714Y-108853571D01*
X125995714Y-108996429D02*
X126067142Y-108925000D01*
X126210000Y-108853571D01*
X126424285Y-108853571D01*
X126567142Y-108925000D01*
X126638571Y-109067857D01*
X126638571Y-109853571D01*
X126638571Y-109067857D02*
X126710000Y-108925000D01*
X126852857Y-108853571D01*
X127067142Y-108853571D01*
X127210000Y-108925000D01*
X127281428Y-109067857D01*
X127281428Y-109853571D01*
X127995714Y-109853571D02*
X127995714Y-108853571D01*
X127995714Y-108353571D02*
X127924285Y-108425000D01*
X127995714Y-108496429D01*
X128067142Y-108425000D01*
X127995714Y-108353571D01*
X127995714Y-108496429D01*
X128710000Y-108853571D02*
X128710000Y-109853571D01*
X128710000Y-108996429D02*
X128781428Y-108925000D01*
X128924286Y-108853571D01*
X129138571Y-108853571D01*
X129281428Y-108925000D01*
X129352857Y-109067857D01*
X129352857Y-109853571D01*
X130067143Y-109853571D02*
X130067143Y-108853571D01*
X130067143Y-108353571D02*
X129995714Y-108425000D01*
X130067143Y-108496429D01*
X130138571Y-108425000D01*
X130067143Y-108353571D01*
X130067143Y-108496429D01*
X80717143Y-107403571D02*
X80217143Y-106689286D01*
X79860000Y-107403571D02*
X79860000Y-105903571D01*
X80431428Y-105903571D01*
X80574286Y-105975000D01*
X80645714Y-106046429D01*
X80717143Y-106189286D01*
X80717143Y-106403571D01*
X80645714Y-106546429D01*
X80574286Y-106617857D01*
X80431428Y-106689286D01*
X79860000Y-106689286D01*
X82002857Y-106403571D02*
X82002857Y-107403571D01*
X81360000Y-106403571D02*
X81360000Y-107189286D01*
X81431428Y-107332143D01*
X81574286Y-107403571D01*
X81788571Y-107403571D01*
X81931428Y-107332143D01*
X82002857Y-107260714D01*
X82717143Y-107403571D02*
X82717143Y-106403571D01*
X82717143Y-106546429D02*
X82788571Y-106475000D01*
X82931429Y-106403571D01*
X83145714Y-106403571D01*
X83288571Y-106475000D01*
X83360000Y-106617857D01*
X83360000Y-107403571D01*
X83360000Y-106617857D02*
X83431429Y-106475000D01*
X83574286Y-106403571D01*
X83788571Y-106403571D01*
X83931429Y-106475000D01*
X84002857Y-106617857D01*
X84002857Y-107403571D01*
X84717143Y-107403571D02*
X84717143Y-106403571D01*
X84717143Y-105903571D02*
X84645714Y-105975000D01*
X84717143Y-106046429D01*
X84788571Y-105975000D01*
X84717143Y-105903571D01*
X84717143Y-106046429D01*
X86288572Y-107260714D02*
X86217143Y-107332143D01*
X86002857Y-107403571D01*
X85860000Y-107403571D01*
X85645715Y-107332143D01*
X85502857Y-107189286D01*
X85431429Y-107046429D01*
X85360000Y-106760714D01*
X85360000Y-106546429D01*
X85431429Y-106260714D01*
X85502857Y-106117857D01*
X85645715Y-105975000D01*
X85860000Y-105903571D01*
X86002857Y-105903571D01*
X86217143Y-105975000D01*
X86288572Y-106046429D01*
X87574286Y-107403571D02*
X87574286Y-106617857D01*
X87502857Y-106475000D01*
X87360000Y-106403571D01*
X87074286Y-106403571D01*
X86931429Y-106475000D01*
X87574286Y-107332143D02*
X87431429Y-107403571D01*
X87074286Y-107403571D01*
X86931429Y-107332143D01*
X86860000Y-107189286D01*
X86860000Y-107046429D01*
X86931429Y-106903571D01*
X87074286Y-106832143D01*
X87431429Y-106832143D01*
X87574286Y-106760714D01*
X88288572Y-107403571D02*
X88288572Y-106403571D01*
X88288572Y-106689286D02*
X88360000Y-106546429D01*
X88431429Y-106475000D01*
X88574286Y-106403571D01*
X88717143Y-106403571D01*
X91217143Y-107260714D02*
X91145714Y-107332143D01*
X90931428Y-107403571D01*
X90788571Y-107403571D01*
X90574286Y-107332143D01*
X90431428Y-107189286D01*
X90360000Y-107046429D01*
X90288571Y-106760714D01*
X90288571Y-106546429D01*
X90360000Y-106260714D01*
X90431428Y-106117857D01*
X90574286Y-105975000D01*
X90788571Y-105903571D01*
X90931428Y-105903571D01*
X91145714Y-105975000D01*
X91217143Y-106046429D01*
X91860000Y-107403571D02*
X91860000Y-105903571D01*
X92360000Y-106975000D01*
X92860000Y-105903571D01*
X92860000Y-107403571D01*
X80752858Y-109067857D02*
X81252858Y-109067857D01*
X81467144Y-109853571D02*
X80752858Y-109853571D01*
X80752858Y-108353571D01*
X81467144Y-108353571D01*
X82038572Y-109782143D02*
X82252858Y-109853571D01*
X82610001Y-109853571D01*
X82752858Y-109782143D01*
X82824287Y-109710714D01*
X82895715Y-109567857D01*
X82895715Y-109425000D01*
X82824287Y-109282143D01*
X82752858Y-109210714D01*
X82610001Y-109139286D01*
X82324287Y-109067857D01*
X82181429Y-108996429D01*
X82110001Y-108925000D01*
X82038572Y-108782143D01*
X82038572Y-108639286D01*
X82110001Y-108496429D01*
X82181429Y-108425000D01*
X82324287Y-108353571D01*
X82681429Y-108353571D01*
X82895715Y-108425000D01*
X83538572Y-109853571D02*
X83538572Y-108353571D01*
X84110000Y-108353571D01*
X84252858Y-108425000D01*
X84324286Y-108496429D01*
X84395715Y-108639286D01*
X84395715Y-108853571D01*
X84324286Y-108996429D01*
X84252858Y-109067857D01*
X84110000Y-109139286D01*
X83538572Y-109139286D01*
X84895715Y-108353571D02*
X85824286Y-108353571D01*
X85324286Y-108925000D01*
X85538572Y-108925000D01*
X85681429Y-108996429D01*
X85752858Y-109067857D01*
X85824286Y-109210714D01*
X85824286Y-109567857D01*
X85752858Y-109710714D01*
X85681429Y-109782143D01*
X85538572Y-109853571D01*
X85110000Y-109853571D01*
X84967143Y-109782143D01*
X84895715Y-109710714D01*
X86395714Y-108496429D02*
X86467143Y-108425000D01*
X86610000Y-108353571D01*
X86967143Y-108353571D01*
X87110000Y-108425000D01*
X87181429Y-108496429D01*
X87252857Y-108639286D01*
X87252857Y-108782143D01*
X87181429Y-108996429D01*
X86324286Y-109853571D01*
X87252857Y-109853571D01*
X87895714Y-109853571D02*
X87895714Y-108853571D01*
X87895714Y-108996429D02*
X87967142Y-108925000D01*
X88110000Y-108853571D01*
X88324285Y-108853571D01*
X88467142Y-108925000D01*
X88538571Y-109067857D01*
X88538571Y-109853571D01*
X88538571Y-109067857D02*
X88610000Y-108925000D01*
X88752857Y-108853571D01*
X88967142Y-108853571D01*
X89110000Y-108925000D01*
X89181428Y-109067857D01*
X89181428Y-109853571D01*
X89895714Y-109853571D02*
X89895714Y-108853571D01*
X89895714Y-108353571D02*
X89824285Y-108425000D01*
X89895714Y-108496429D01*
X89967142Y-108425000D01*
X89895714Y-108353571D01*
X89895714Y-108496429D01*
X90610000Y-108853571D02*
X90610000Y-109853571D01*
X90610000Y-108996429D02*
X90681428Y-108925000D01*
X90824286Y-108853571D01*
X91038571Y-108853571D01*
X91181428Y-108925000D01*
X91252857Y-109067857D01*
X91252857Y-109853571D01*
X91967143Y-109853571D02*
X91967143Y-108853571D01*
X91967143Y-108353571D02*
X91895714Y-108425000D01*
X91967143Y-108496429D01*
X92038571Y-108425000D01*
X91967143Y-108353571D01*
X91967143Y-108496429D01*
X118817143Y-57873571D02*
X118317143Y-57159286D01*
X117960000Y-57873571D02*
X117960000Y-56373571D01*
X118531428Y-56373571D01*
X118674286Y-56445000D01*
X118745714Y-56516429D01*
X118817143Y-56659286D01*
X118817143Y-56873571D01*
X118745714Y-57016429D01*
X118674286Y-57087857D01*
X118531428Y-57159286D01*
X117960000Y-57159286D01*
X120102857Y-56873571D02*
X120102857Y-57873571D01*
X119460000Y-56873571D02*
X119460000Y-57659286D01*
X119531428Y-57802143D01*
X119674286Y-57873571D01*
X119888571Y-57873571D01*
X120031428Y-57802143D01*
X120102857Y-57730714D01*
X120817143Y-57873571D02*
X120817143Y-56873571D01*
X120817143Y-57016429D02*
X120888571Y-56945000D01*
X121031429Y-56873571D01*
X121245714Y-56873571D01*
X121388571Y-56945000D01*
X121460000Y-57087857D01*
X121460000Y-57873571D01*
X121460000Y-57087857D02*
X121531429Y-56945000D01*
X121674286Y-56873571D01*
X121888571Y-56873571D01*
X122031429Y-56945000D01*
X122102857Y-57087857D01*
X122102857Y-57873571D01*
X122817143Y-57873571D02*
X122817143Y-56873571D01*
X122817143Y-56373571D02*
X122745714Y-56445000D01*
X122817143Y-56516429D01*
X122888571Y-56445000D01*
X122817143Y-56373571D01*
X122817143Y-56516429D01*
X124388572Y-57730714D02*
X124317143Y-57802143D01*
X124102857Y-57873571D01*
X123960000Y-57873571D01*
X123745715Y-57802143D01*
X123602857Y-57659286D01*
X123531429Y-57516429D01*
X123460000Y-57230714D01*
X123460000Y-57016429D01*
X123531429Y-56730714D01*
X123602857Y-56587857D01*
X123745715Y-56445000D01*
X123960000Y-56373571D01*
X124102857Y-56373571D01*
X124317143Y-56445000D01*
X124388572Y-56516429D01*
X125674286Y-57873571D02*
X125674286Y-57087857D01*
X125602857Y-56945000D01*
X125460000Y-56873571D01*
X125174286Y-56873571D01*
X125031429Y-56945000D01*
X125674286Y-57802143D02*
X125531429Y-57873571D01*
X125174286Y-57873571D01*
X125031429Y-57802143D01*
X124960000Y-57659286D01*
X124960000Y-57516429D01*
X125031429Y-57373571D01*
X125174286Y-57302143D01*
X125531429Y-57302143D01*
X125674286Y-57230714D01*
X126388572Y-57873571D02*
X126388572Y-56873571D01*
X126388572Y-57159286D02*
X126460000Y-57016429D01*
X126531429Y-56945000D01*
X126674286Y-56873571D01*
X126817143Y-56873571D01*
X129317143Y-57730714D02*
X129245714Y-57802143D01*
X129031428Y-57873571D01*
X128888571Y-57873571D01*
X128674286Y-57802143D01*
X128531428Y-57659286D01*
X128460000Y-57516429D01*
X128388571Y-57230714D01*
X128388571Y-57016429D01*
X128460000Y-56730714D01*
X128531428Y-56587857D01*
X128674286Y-56445000D01*
X128888571Y-56373571D01*
X129031428Y-56373571D01*
X129245714Y-56445000D01*
X129317143Y-56516429D01*
X129960000Y-57873571D02*
X129960000Y-56373571D01*
X130460000Y-57445000D01*
X130960000Y-56373571D01*
X130960000Y-57873571D01*
X118852858Y-59537857D02*
X119352858Y-59537857D01*
X119567144Y-60323571D02*
X118852858Y-60323571D01*
X118852858Y-58823571D01*
X119567144Y-58823571D01*
X120138572Y-60252143D02*
X120352858Y-60323571D01*
X120710001Y-60323571D01*
X120852858Y-60252143D01*
X120924287Y-60180714D01*
X120995715Y-60037857D01*
X120995715Y-59895000D01*
X120924287Y-59752143D01*
X120852858Y-59680714D01*
X120710001Y-59609286D01*
X120424287Y-59537857D01*
X120281429Y-59466429D01*
X120210001Y-59395000D01*
X120138572Y-59252143D01*
X120138572Y-59109286D01*
X120210001Y-58966429D01*
X120281429Y-58895000D01*
X120424287Y-58823571D01*
X120781429Y-58823571D01*
X120995715Y-58895000D01*
X121638572Y-60323571D02*
X121638572Y-58823571D01*
X122210000Y-58823571D01*
X122352858Y-58895000D01*
X122424286Y-58966429D01*
X122495715Y-59109286D01*
X122495715Y-59323571D01*
X122424286Y-59466429D01*
X122352858Y-59537857D01*
X122210000Y-59609286D01*
X121638572Y-59609286D01*
X122995715Y-58823571D02*
X123924286Y-58823571D01*
X123424286Y-59395000D01*
X123638572Y-59395000D01*
X123781429Y-59466429D01*
X123852858Y-59537857D01*
X123924286Y-59680714D01*
X123924286Y-60037857D01*
X123852858Y-60180714D01*
X123781429Y-60252143D01*
X123638572Y-60323571D01*
X123210000Y-60323571D01*
X123067143Y-60252143D01*
X122995715Y-60180714D01*
X124495714Y-58966429D02*
X124567143Y-58895000D01*
X124710000Y-58823571D01*
X125067143Y-58823571D01*
X125210000Y-58895000D01*
X125281429Y-58966429D01*
X125352857Y-59109286D01*
X125352857Y-59252143D01*
X125281429Y-59466429D01*
X124424286Y-60323571D01*
X125352857Y-60323571D01*
X125995714Y-60323571D02*
X125995714Y-59323571D01*
X125995714Y-59466429D02*
X126067142Y-59395000D01*
X126210000Y-59323571D01*
X126424285Y-59323571D01*
X126567142Y-59395000D01*
X126638571Y-59537857D01*
X126638571Y-60323571D01*
X126638571Y-59537857D02*
X126710000Y-59395000D01*
X126852857Y-59323571D01*
X127067142Y-59323571D01*
X127210000Y-59395000D01*
X127281428Y-59537857D01*
X127281428Y-60323571D01*
X127995714Y-60323571D02*
X127995714Y-59323571D01*
X127995714Y-58823571D02*
X127924285Y-58895000D01*
X127995714Y-58966429D01*
X128067142Y-58895000D01*
X127995714Y-58823571D01*
X127995714Y-58966429D01*
X128710000Y-59323571D02*
X128710000Y-60323571D01*
X128710000Y-59466429D02*
X128781428Y-59395000D01*
X128924286Y-59323571D01*
X129138571Y-59323571D01*
X129281428Y-59395000D01*
X129352857Y-59537857D01*
X129352857Y-60323571D01*
X130067143Y-60323571D02*
X130067143Y-59323571D01*
X130067143Y-58823571D02*
X129995714Y-58895000D01*
X130067143Y-58966429D01*
X130138571Y-58895000D01*
X130067143Y-58823571D01*
X130067143Y-58966429D01*
D13*
X117562381Y-134889762D02*
X118562381Y-134556429D01*
X117562381Y-134223095D01*
X118562381Y-133889762D02*
X117562381Y-133889762D01*
X118276667Y-133556428D01*
X117562381Y-133223095D01*
X118562381Y-133223095D01*
X79462381Y-134889762D02*
X80462381Y-134556429D01*
X79462381Y-134223095D01*
X80462381Y-133889762D02*
X79462381Y-133889762D01*
X80176667Y-133556428D01*
X79462381Y-133223095D01*
X80462381Y-133223095D01*
X117562381Y-85359762D02*
X118562381Y-85026429D01*
X117562381Y-84693095D01*
X118562381Y-84359762D02*
X117562381Y-84359762D01*
X118276667Y-84026428D01*
X117562381Y-83693095D01*
X118562381Y-83693095D01*
X130310000Y-133723095D02*
X130262381Y-133818333D01*
X130262381Y-133961190D01*
X130310000Y-134104048D01*
X130405238Y-134199286D01*
X130500476Y-134246905D01*
X130690952Y-134294524D01*
X130833810Y-134294524D01*
X131024286Y-134246905D01*
X131119524Y-134199286D01*
X131214762Y-134104048D01*
X131262381Y-133961190D01*
X131262381Y-133865952D01*
X131214762Y-133723095D01*
X131167143Y-133675476D01*
X130833810Y-133675476D01*
X130833810Y-133865952D01*
X92210000Y-133723095D02*
X92162381Y-133818333D01*
X92162381Y-133961190D01*
X92210000Y-134104048D01*
X92305238Y-134199286D01*
X92400476Y-134246905D01*
X92590952Y-134294524D01*
X92733810Y-134294524D01*
X92924286Y-134246905D01*
X93019524Y-134199286D01*
X93114762Y-134104048D01*
X93162381Y-133961190D01*
X93162381Y-133865952D01*
X93114762Y-133723095D01*
X93067143Y-133675476D01*
X92733810Y-133675476D01*
X92733810Y-133865952D01*
X130310000Y-84193095D02*
X130262381Y-84288333D01*
X130262381Y-84431190D01*
X130310000Y-84574048D01*
X130405238Y-84669286D01*
X130500476Y-84716905D01*
X130690952Y-84764524D01*
X130833810Y-84764524D01*
X131024286Y-84716905D01*
X131119524Y-84669286D01*
X131214762Y-84574048D01*
X131262381Y-84431190D01*
X131262381Y-84335952D01*
X131214762Y-84193095D01*
X131167143Y-84145476D01*
X130833810Y-84145476D01*
X130833810Y-84335952D01*
X129635238Y-130072381D02*
X129968571Y-131072381D01*
X130301905Y-130072381D01*
X130635238Y-131072381D02*
X130635238Y-130405714D01*
X130635238Y-130072381D02*
X130587619Y-130120000D01*
X130635238Y-130167619D01*
X130682857Y-130120000D01*
X130635238Y-130072381D01*
X130635238Y-130167619D01*
X131825714Y-130024762D02*
X130968571Y-131310476D01*
X132016190Y-130072381D02*
X132349523Y-131072381D01*
X132682857Y-130072381D01*
X133159047Y-131072381D02*
X133063809Y-131024762D01*
X133016190Y-130977143D01*
X132968571Y-130881905D01*
X132968571Y-130596190D01*
X133016190Y-130500952D01*
X133063809Y-130453333D01*
X133159047Y-130405714D01*
X133301905Y-130405714D01*
X133397143Y-130453333D01*
X133444762Y-130500952D01*
X133492381Y-130596190D01*
X133492381Y-130881905D01*
X133444762Y-130977143D01*
X133397143Y-131024762D01*
X133301905Y-131072381D01*
X133159047Y-131072381D01*
X134635238Y-130024762D02*
X133778095Y-131310476D01*
X135492381Y-130120000D02*
X135397143Y-130072381D01*
X135254286Y-130072381D01*
X135111428Y-130120000D01*
X135016190Y-130215238D01*
X134968571Y-130310476D01*
X134920952Y-130500952D01*
X134920952Y-130643810D01*
X134968571Y-130834286D01*
X135016190Y-130929524D01*
X135111428Y-131024762D01*
X135254286Y-131072381D01*
X135349524Y-131072381D01*
X135492381Y-131024762D01*
X135540000Y-130977143D01*
X135540000Y-130643810D01*
X135349524Y-130643810D01*
X136682857Y-130024762D02*
X135825714Y-131310476D01*
X137016190Y-130691429D02*
X137778095Y-130691429D01*
X129635238Y-131722381D02*
X129968571Y-132722381D01*
X130301905Y-131722381D01*
X130635238Y-132722381D02*
X130635238Y-132055714D01*
X130635238Y-131722381D02*
X130587619Y-131770000D01*
X130635238Y-131817619D01*
X130682857Y-131770000D01*
X130635238Y-131722381D01*
X130635238Y-131817619D01*
X131825714Y-131674762D02*
X130968571Y-132960476D01*
X132682857Y-131770000D02*
X132587619Y-131722381D01*
X132444762Y-131722381D01*
X132301904Y-131770000D01*
X132206666Y-131865238D01*
X132159047Y-131960476D01*
X132111428Y-132150952D01*
X132111428Y-132293810D01*
X132159047Y-132484286D01*
X132206666Y-132579524D01*
X132301904Y-132674762D01*
X132444762Y-132722381D01*
X132540000Y-132722381D01*
X132682857Y-132674762D01*
X132730476Y-132627143D01*
X132730476Y-132293810D01*
X132540000Y-132293810D01*
X133873333Y-131674762D02*
X133016190Y-132960476D01*
X134063809Y-131722381D02*
X134397142Y-132722381D01*
X134730476Y-131722381D01*
X135206666Y-132722381D02*
X135111428Y-132674762D01*
X135063809Y-132627143D01*
X135016190Y-132531905D01*
X135016190Y-132246190D01*
X135063809Y-132150952D01*
X135111428Y-132103333D01*
X135206666Y-132055714D01*
X135349524Y-132055714D01*
X135444762Y-132103333D01*
X135492381Y-132150952D01*
X135540000Y-132246190D01*
X135540000Y-132531905D01*
X135492381Y-132627143D01*
X135444762Y-132674762D01*
X135349524Y-132722381D01*
X135206666Y-132722381D01*
X91535238Y-130072381D02*
X91868571Y-131072381D01*
X92201905Y-130072381D01*
X92535238Y-131072381D02*
X92535238Y-130405714D01*
X92535238Y-130072381D02*
X92487619Y-130120000D01*
X92535238Y-130167619D01*
X92582857Y-130120000D01*
X92535238Y-130072381D01*
X92535238Y-130167619D01*
X93725714Y-130024762D02*
X92868571Y-131310476D01*
X93916190Y-130072381D02*
X94249523Y-131072381D01*
X94582857Y-130072381D01*
X95059047Y-131072381D02*
X94963809Y-131024762D01*
X94916190Y-130977143D01*
X94868571Y-130881905D01*
X94868571Y-130596190D01*
X94916190Y-130500952D01*
X94963809Y-130453333D01*
X95059047Y-130405714D01*
X95201905Y-130405714D01*
X95297143Y-130453333D01*
X95344762Y-130500952D01*
X95392381Y-130596190D01*
X95392381Y-130881905D01*
X95344762Y-130977143D01*
X95297143Y-131024762D01*
X95201905Y-131072381D01*
X95059047Y-131072381D01*
X96535238Y-130024762D02*
X95678095Y-131310476D01*
X97392381Y-130120000D02*
X97297143Y-130072381D01*
X97154286Y-130072381D01*
X97011428Y-130120000D01*
X96916190Y-130215238D01*
X96868571Y-130310476D01*
X96820952Y-130500952D01*
X96820952Y-130643810D01*
X96868571Y-130834286D01*
X96916190Y-130929524D01*
X97011428Y-131024762D01*
X97154286Y-131072381D01*
X97249524Y-131072381D01*
X97392381Y-131024762D01*
X97440000Y-130977143D01*
X97440000Y-130643810D01*
X97249524Y-130643810D01*
X98582857Y-130024762D02*
X97725714Y-131310476D01*
X98916190Y-130691429D02*
X99678095Y-130691429D01*
X91535238Y-131722381D02*
X91868571Y-132722381D01*
X92201905Y-131722381D01*
X92535238Y-132722381D02*
X92535238Y-132055714D01*
X92535238Y-131722381D02*
X92487619Y-131770000D01*
X92535238Y-131817619D01*
X92582857Y-131770000D01*
X92535238Y-131722381D01*
X92535238Y-131817619D01*
X93725714Y-131674762D02*
X92868571Y-132960476D01*
X94582857Y-131770000D02*
X94487619Y-131722381D01*
X94344762Y-131722381D01*
X94201904Y-131770000D01*
X94106666Y-131865238D01*
X94059047Y-131960476D01*
X94011428Y-132150952D01*
X94011428Y-132293810D01*
X94059047Y-132484286D01*
X94106666Y-132579524D01*
X94201904Y-132674762D01*
X94344762Y-132722381D01*
X94440000Y-132722381D01*
X94582857Y-132674762D01*
X94630476Y-132627143D01*
X94630476Y-132293810D01*
X94440000Y-132293810D01*
X95773333Y-131674762D02*
X94916190Y-132960476D01*
X95963809Y-131722381D02*
X96297142Y-132722381D01*
X96630476Y-131722381D01*
X97106666Y-132722381D02*
X97011428Y-132674762D01*
X96963809Y-132627143D01*
X96916190Y-132531905D01*
X96916190Y-132246190D01*
X96963809Y-132150952D01*
X97011428Y-132103333D01*
X97106666Y-132055714D01*
X97249524Y-132055714D01*
X97344762Y-132103333D01*
X97392381Y-132150952D01*
X97440000Y-132246190D01*
X97440000Y-132531905D01*
X97392381Y-132627143D01*
X97344762Y-132674762D01*
X97249524Y-132722381D01*
X97106666Y-132722381D01*
X129635238Y-80542381D02*
X129968571Y-81542381D01*
X130301905Y-80542381D01*
X130635238Y-81542381D02*
X130635238Y-80875714D01*
X130635238Y-80542381D02*
X130587619Y-80590000D01*
X130635238Y-80637619D01*
X130682857Y-80590000D01*
X130635238Y-80542381D01*
X130635238Y-80637619D01*
X131825714Y-80494762D02*
X130968571Y-81780476D01*
X132016190Y-80542381D02*
X132349523Y-81542381D01*
X132682857Y-80542381D01*
X133159047Y-81542381D02*
X133063809Y-81494762D01*
X133016190Y-81447143D01*
X132968571Y-81351905D01*
X132968571Y-81066190D01*
X133016190Y-80970952D01*
X133063809Y-80923333D01*
X133159047Y-80875714D01*
X133301905Y-80875714D01*
X133397143Y-80923333D01*
X133444762Y-80970952D01*
X133492381Y-81066190D01*
X133492381Y-81351905D01*
X133444762Y-81447143D01*
X133397143Y-81494762D01*
X133301905Y-81542381D01*
X133159047Y-81542381D01*
X134635238Y-80494762D02*
X133778095Y-81780476D01*
X135492381Y-80590000D02*
X135397143Y-80542381D01*
X135254286Y-80542381D01*
X135111428Y-80590000D01*
X135016190Y-80685238D01*
X134968571Y-80780476D01*
X134920952Y-80970952D01*
X134920952Y-81113810D01*
X134968571Y-81304286D01*
X135016190Y-81399524D01*
X135111428Y-81494762D01*
X135254286Y-81542381D01*
X135349524Y-81542381D01*
X135492381Y-81494762D01*
X135540000Y-81447143D01*
X135540000Y-81113810D01*
X135349524Y-81113810D01*
X136682857Y-80494762D02*
X135825714Y-81780476D01*
X137016190Y-81161429D02*
X137778095Y-81161429D01*
X129635238Y-82192381D02*
X129968571Y-83192381D01*
X130301905Y-82192381D01*
X130635238Y-83192381D02*
X130635238Y-82525714D01*
X130635238Y-82192381D02*
X130587619Y-82240000D01*
X130635238Y-82287619D01*
X130682857Y-82240000D01*
X130635238Y-82192381D01*
X130635238Y-82287619D01*
X131825714Y-82144762D02*
X130968571Y-83430476D01*
X132682857Y-82240000D02*
X132587619Y-82192381D01*
X132444762Y-82192381D01*
X132301904Y-82240000D01*
X132206666Y-82335238D01*
X132159047Y-82430476D01*
X132111428Y-82620952D01*
X132111428Y-82763810D01*
X132159047Y-82954286D01*
X132206666Y-83049524D01*
X132301904Y-83144762D01*
X132444762Y-83192381D01*
X132540000Y-83192381D01*
X132682857Y-83144762D01*
X132730476Y-83097143D01*
X132730476Y-82763810D01*
X132540000Y-82763810D01*
X133873333Y-82144762D02*
X133016190Y-83430476D01*
X134063809Y-82192381D02*
X134397142Y-83192381D01*
X134730476Y-82192381D01*
X135206666Y-83192381D02*
X135111428Y-83144762D01*
X135063809Y-83097143D01*
X135016190Y-83001905D01*
X135016190Y-82716190D01*
X135063809Y-82620952D01*
X135111428Y-82573333D01*
X135206666Y-82525714D01*
X135349524Y-82525714D01*
X135444762Y-82573333D01*
X135492381Y-82620952D01*
X135540000Y-82716190D01*
X135540000Y-83001905D01*
X135492381Y-83097143D01*
X135444762Y-83144762D01*
X135349524Y-83192381D01*
X135206666Y-83192381D01*
D11*
X80717143Y-57873571D02*
X80217143Y-57159286D01*
X79860000Y-57873571D02*
X79860000Y-56373571D01*
X80431428Y-56373571D01*
X80574286Y-56445000D01*
X80645714Y-56516429D01*
X80717143Y-56659286D01*
X80717143Y-56873571D01*
X80645714Y-57016429D01*
X80574286Y-57087857D01*
X80431428Y-57159286D01*
X79860000Y-57159286D01*
X82002857Y-56873571D02*
X82002857Y-57873571D01*
X81360000Y-56873571D02*
X81360000Y-57659286D01*
X81431428Y-57802143D01*
X81574286Y-57873571D01*
X81788571Y-57873571D01*
X81931428Y-57802143D01*
X82002857Y-57730714D01*
X82717143Y-57873571D02*
X82717143Y-56873571D01*
X82717143Y-57016429D02*
X82788571Y-56945000D01*
X82931429Y-56873571D01*
X83145714Y-56873571D01*
X83288571Y-56945000D01*
X83360000Y-57087857D01*
X83360000Y-57873571D01*
X83360000Y-57087857D02*
X83431429Y-56945000D01*
X83574286Y-56873571D01*
X83788571Y-56873571D01*
X83931429Y-56945000D01*
X84002857Y-57087857D01*
X84002857Y-57873571D01*
X84717143Y-57873571D02*
X84717143Y-56873571D01*
X84717143Y-56373571D02*
X84645714Y-56445000D01*
X84717143Y-56516429D01*
X84788571Y-56445000D01*
X84717143Y-56373571D01*
X84717143Y-56516429D01*
X86288572Y-57730714D02*
X86217143Y-57802143D01*
X86002857Y-57873571D01*
X85860000Y-57873571D01*
X85645715Y-57802143D01*
X85502857Y-57659286D01*
X85431429Y-57516429D01*
X85360000Y-57230714D01*
X85360000Y-57016429D01*
X85431429Y-56730714D01*
X85502857Y-56587857D01*
X85645715Y-56445000D01*
X85860000Y-56373571D01*
X86002857Y-56373571D01*
X86217143Y-56445000D01*
X86288572Y-56516429D01*
X87574286Y-57873571D02*
X87574286Y-57087857D01*
X87502857Y-56945000D01*
X87360000Y-56873571D01*
X87074286Y-56873571D01*
X86931429Y-56945000D01*
X87574286Y-57802143D02*
X87431429Y-57873571D01*
X87074286Y-57873571D01*
X86931429Y-57802143D01*
X86860000Y-57659286D01*
X86860000Y-57516429D01*
X86931429Y-57373571D01*
X87074286Y-57302143D01*
X87431429Y-57302143D01*
X87574286Y-57230714D01*
X88288572Y-57873571D02*
X88288572Y-56873571D01*
X88288572Y-57159286D02*
X88360000Y-57016429D01*
X88431429Y-56945000D01*
X88574286Y-56873571D01*
X88717143Y-56873571D01*
X91217143Y-57730714D02*
X91145714Y-57802143D01*
X90931428Y-57873571D01*
X90788571Y-57873571D01*
X90574286Y-57802143D01*
X90431428Y-57659286D01*
X90360000Y-57516429D01*
X90288571Y-57230714D01*
X90288571Y-57016429D01*
X90360000Y-56730714D01*
X90431428Y-56587857D01*
X90574286Y-56445000D01*
X90788571Y-56373571D01*
X90931428Y-56373571D01*
X91145714Y-56445000D01*
X91217143Y-56516429D01*
X91860000Y-57873571D02*
X91860000Y-56373571D01*
X92360000Y-57445000D01*
X92860000Y-56373571D01*
X92860000Y-57873571D01*
X80752858Y-59537857D02*
X81252858Y-59537857D01*
X81467144Y-60323571D02*
X80752858Y-60323571D01*
X80752858Y-58823571D01*
X81467144Y-58823571D01*
X82038572Y-60252143D02*
X82252858Y-60323571D01*
X82610001Y-60323571D01*
X82752858Y-60252143D01*
X82824287Y-60180714D01*
X82895715Y-60037857D01*
X82895715Y-59895000D01*
X82824287Y-59752143D01*
X82752858Y-59680714D01*
X82610001Y-59609286D01*
X82324287Y-59537857D01*
X82181429Y-59466429D01*
X82110001Y-59395000D01*
X82038572Y-59252143D01*
X82038572Y-59109286D01*
X82110001Y-58966429D01*
X82181429Y-58895000D01*
X82324287Y-58823571D01*
X82681429Y-58823571D01*
X82895715Y-58895000D01*
X83538572Y-60323571D02*
X83538572Y-58823571D01*
X84110000Y-58823571D01*
X84252858Y-58895000D01*
X84324286Y-58966429D01*
X84395715Y-59109286D01*
X84395715Y-59323571D01*
X84324286Y-59466429D01*
X84252858Y-59537857D01*
X84110000Y-59609286D01*
X83538572Y-59609286D01*
X84895715Y-58823571D02*
X85824286Y-58823571D01*
X85324286Y-59395000D01*
X85538572Y-59395000D01*
X85681429Y-59466429D01*
X85752858Y-59537857D01*
X85824286Y-59680714D01*
X85824286Y-60037857D01*
X85752858Y-60180714D01*
X85681429Y-60252143D01*
X85538572Y-60323571D01*
X85110000Y-60323571D01*
X84967143Y-60252143D01*
X84895715Y-60180714D01*
X86395714Y-58966429D02*
X86467143Y-58895000D01*
X86610000Y-58823571D01*
X86967143Y-58823571D01*
X87110000Y-58895000D01*
X87181429Y-58966429D01*
X87252857Y-59109286D01*
X87252857Y-59252143D01*
X87181429Y-59466429D01*
X86324286Y-60323571D01*
X87252857Y-60323571D01*
X87895714Y-60323571D02*
X87895714Y-59323571D01*
X87895714Y-59466429D02*
X87967142Y-59395000D01*
X88110000Y-59323571D01*
X88324285Y-59323571D01*
X88467142Y-59395000D01*
X88538571Y-59537857D01*
X88538571Y-60323571D01*
X88538571Y-59537857D02*
X88610000Y-59395000D01*
X88752857Y-59323571D01*
X88967142Y-59323571D01*
X89110000Y-59395000D01*
X89181428Y-59537857D01*
X89181428Y-60323571D01*
X89895714Y-60323571D02*
X89895714Y-59323571D01*
X89895714Y-58823571D02*
X89824285Y-58895000D01*
X89895714Y-58966429D01*
X89967142Y-58895000D01*
X89895714Y-58823571D01*
X89895714Y-58966429D01*
X90610000Y-59323571D02*
X90610000Y-60323571D01*
X90610000Y-59466429D02*
X90681428Y-59395000D01*
X90824286Y-59323571D01*
X91038571Y-59323571D01*
X91181428Y-59395000D01*
X91252857Y-59537857D01*
X91252857Y-60323571D01*
X91967143Y-60323571D02*
X91967143Y-59323571D01*
X91967143Y-58823571D02*
X91895714Y-58895000D01*
X91967143Y-58966429D01*
X92038571Y-58895000D01*
X91967143Y-58823571D01*
X91967143Y-58966429D01*
D13*
X91535238Y-80542381D02*
X91868571Y-81542381D01*
X92201905Y-80542381D01*
X92535238Y-81542381D02*
X92535238Y-80875714D01*
X92535238Y-80542381D02*
X92487619Y-80590000D01*
X92535238Y-80637619D01*
X92582857Y-80590000D01*
X92535238Y-80542381D01*
X92535238Y-80637619D01*
X93725714Y-80494762D02*
X92868571Y-81780476D01*
X93916190Y-80542381D02*
X94249523Y-81542381D01*
X94582857Y-80542381D01*
X95059047Y-81542381D02*
X94963809Y-81494762D01*
X94916190Y-81447143D01*
X94868571Y-81351905D01*
X94868571Y-81066190D01*
X94916190Y-80970952D01*
X94963809Y-80923333D01*
X95059047Y-80875714D01*
X95201905Y-80875714D01*
X95297143Y-80923333D01*
X95344762Y-80970952D01*
X95392381Y-81066190D01*
X95392381Y-81351905D01*
X95344762Y-81447143D01*
X95297143Y-81494762D01*
X95201905Y-81542381D01*
X95059047Y-81542381D01*
X96535238Y-80494762D02*
X95678095Y-81780476D01*
X97392381Y-80590000D02*
X97297143Y-80542381D01*
X97154286Y-80542381D01*
X97011428Y-80590000D01*
X96916190Y-80685238D01*
X96868571Y-80780476D01*
X96820952Y-80970952D01*
X96820952Y-81113810D01*
X96868571Y-81304286D01*
X96916190Y-81399524D01*
X97011428Y-81494762D01*
X97154286Y-81542381D01*
X97249524Y-81542381D01*
X97392381Y-81494762D01*
X97440000Y-81447143D01*
X97440000Y-81113810D01*
X97249524Y-81113810D01*
X98582857Y-80494762D02*
X97725714Y-81780476D01*
X98916190Y-81161429D02*
X99678095Y-81161429D01*
X91535238Y-82192381D02*
X91868571Y-83192381D01*
X92201905Y-82192381D01*
X92535238Y-83192381D02*
X92535238Y-82525714D01*
X92535238Y-82192381D02*
X92487619Y-82240000D01*
X92535238Y-82287619D01*
X92582857Y-82240000D01*
X92535238Y-82192381D01*
X92535238Y-82287619D01*
X93725714Y-82144762D02*
X92868571Y-83430476D01*
X94582857Y-82240000D02*
X94487619Y-82192381D01*
X94344762Y-82192381D01*
X94201904Y-82240000D01*
X94106666Y-82335238D01*
X94059047Y-82430476D01*
X94011428Y-82620952D01*
X94011428Y-82763810D01*
X94059047Y-82954286D01*
X94106666Y-83049524D01*
X94201904Y-83144762D01*
X94344762Y-83192381D01*
X94440000Y-83192381D01*
X94582857Y-83144762D01*
X94630476Y-83097143D01*
X94630476Y-82763810D01*
X94440000Y-82763810D01*
X95773333Y-82144762D02*
X94916190Y-83430476D01*
X95963809Y-82192381D02*
X96297142Y-83192381D01*
X96630476Y-82192381D01*
X97106666Y-83192381D02*
X97011428Y-83144762D01*
X96963809Y-83097143D01*
X96916190Y-83001905D01*
X96916190Y-82716190D01*
X96963809Y-82620952D01*
X97011428Y-82573333D01*
X97106666Y-82525714D01*
X97249524Y-82525714D01*
X97344762Y-82573333D01*
X97392381Y-82620952D01*
X97440000Y-82716190D01*
X97440000Y-83001905D01*
X97392381Y-83097143D01*
X97344762Y-83144762D01*
X97249524Y-83192381D01*
X97106666Y-83192381D01*
X90106667Y-48982381D02*
X90440000Y-49982381D01*
X90773334Y-48982381D01*
X91678096Y-49887143D02*
X91630477Y-49934762D01*
X91487620Y-49982381D01*
X91392382Y-49982381D01*
X91249524Y-49934762D01*
X91154286Y-49839524D01*
X91106667Y-49744286D01*
X91059048Y-49553810D01*
X91059048Y-49410952D01*
X91106667Y-49220476D01*
X91154286Y-49125238D01*
X91249524Y-49030000D01*
X91392382Y-48982381D01*
X91487620Y-48982381D01*
X91630477Y-49030000D01*
X91678096Y-49077619D01*
X92678096Y-49887143D02*
X92630477Y-49934762D01*
X92487620Y-49982381D01*
X92392382Y-49982381D01*
X92249524Y-49934762D01*
X92154286Y-49839524D01*
X92106667Y-49744286D01*
X92059048Y-49553810D01*
X92059048Y-49410952D01*
X92106667Y-49220476D01*
X92154286Y-49125238D01*
X92249524Y-49030000D01*
X92392382Y-48982381D01*
X92487620Y-48982381D01*
X92630477Y-49030000D01*
X92678096Y-49077619D01*
X92210000Y-84193095D02*
X92162381Y-84288333D01*
X92162381Y-84431190D01*
X92210000Y-84574048D01*
X92305238Y-84669286D01*
X92400476Y-84716905D01*
X92590952Y-84764524D01*
X92733810Y-84764524D01*
X92924286Y-84716905D01*
X93019524Y-84669286D01*
X93114762Y-84574048D01*
X93162381Y-84431190D01*
X93162381Y-84335952D01*
X93114762Y-84193095D01*
X93067143Y-84145476D01*
X92733810Y-84145476D01*
X92733810Y-84335952D01*
X79462381Y-85359762D02*
X80462381Y-85026429D01*
X79462381Y-84693095D01*
X80462381Y-84359762D02*
X79462381Y-84359762D01*
X80176667Y-84026428D01*
X79462381Y-83693095D01*
X80462381Y-83693095D01*
D14*
X112970000Y-129480000D02*
X112970000Y-134680000D01*
X113030000Y-129480000D02*
X112970000Y-129480000D01*
X115630000Y-134680000D02*
X112970000Y-134680000D01*
X113030000Y-129480000D02*
X113030000Y-132080000D01*
X113030000Y-132080000D02*
X115630000Y-132080000D01*
X115630000Y-132080000D02*
X115630000Y-134680000D01*
X114300000Y-129480000D02*
X115630000Y-129480000D01*
X115630000Y-129480000D02*
X115630000Y-130810000D01*
X74870000Y-129480000D02*
X74870000Y-134680000D01*
X74930000Y-129480000D02*
X74870000Y-129480000D01*
X77530000Y-134680000D02*
X74870000Y-134680000D01*
X74930000Y-129480000D02*
X74930000Y-132080000D01*
X74930000Y-132080000D02*
X77530000Y-132080000D01*
X77530000Y-132080000D02*
X77530000Y-134680000D01*
X76200000Y-129480000D02*
X77530000Y-129480000D01*
X77530000Y-129480000D02*
X77530000Y-130810000D01*
X112970000Y-79950000D02*
X112970000Y-85150000D01*
X113030000Y-79950000D02*
X112970000Y-79950000D01*
X115630000Y-85150000D02*
X112970000Y-85150000D01*
X113030000Y-79950000D02*
X113030000Y-82550000D01*
X113030000Y-82550000D02*
X115630000Y-82550000D01*
X115630000Y-82550000D02*
X115630000Y-85150000D01*
X114300000Y-79950000D02*
X115630000Y-79950000D01*
X115630000Y-79950000D02*
X115630000Y-81280000D01*
X105500277Y-132584278D02*
G75*
G03X105500000Y-137195580I1179723J-2305722D01*
G01*
X107859723Y-132584278D02*
G75*
G02X107860000Y-137195580I-1179723J-2305722D01*
G01*
X107859723Y-132584278D02*
G75*
G03X105500000Y-132584420I-1179723J-2305722D01*
G01*
X104130000Y-134890000D02*
X109230000Y-134890000D01*
X104130000Y-134850000D02*
X105700000Y-134850000D01*
X107660000Y-134850000D02*
X109230000Y-134850000D01*
X104131000Y-134810000D02*
X105700000Y-134810000D01*
X107660000Y-134810000D02*
X109229000Y-134810000D01*
X104132000Y-134770000D02*
X105700000Y-134770000D01*
X107660000Y-134770000D02*
X109228000Y-134770000D01*
X104134000Y-134730000D02*
X105700000Y-134730000D01*
X107660000Y-134730000D02*
X109226000Y-134730000D01*
X104137000Y-134690000D02*
X105700000Y-134690000D01*
X107660000Y-134690000D02*
X109223000Y-134690000D01*
X104141000Y-134650000D02*
X105700000Y-134650000D01*
X107660000Y-134650000D02*
X109219000Y-134650000D01*
X104145000Y-134610000D02*
X105700000Y-134610000D01*
X107660000Y-134610000D02*
X109215000Y-134610000D01*
X104149000Y-134570000D02*
X105700000Y-134570000D01*
X107660000Y-134570000D02*
X109211000Y-134570000D01*
X104155000Y-134530000D02*
X105700000Y-134530000D01*
X107660000Y-134530000D02*
X109205000Y-134530000D01*
X104161000Y-134490000D02*
X105700000Y-134490000D01*
X107660000Y-134490000D02*
X109199000Y-134490000D01*
X104167000Y-134450000D02*
X105700000Y-134450000D01*
X107660000Y-134450000D02*
X109193000Y-134450000D01*
X104174000Y-134410000D02*
X105700000Y-134410000D01*
X107660000Y-134410000D02*
X109186000Y-134410000D01*
X104182000Y-134370000D02*
X105700000Y-134370000D01*
X107660000Y-134370000D02*
X109178000Y-134370000D01*
X104191000Y-134330000D02*
X105700000Y-134330000D01*
X107660000Y-134330000D02*
X109169000Y-134330000D01*
X104200000Y-134290000D02*
X105700000Y-134290000D01*
X107660000Y-134290000D02*
X109160000Y-134290000D01*
X104210000Y-134250000D02*
X105700000Y-134250000D01*
X107660000Y-134250000D02*
X109150000Y-134250000D01*
X104220000Y-134210000D02*
X105700000Y-134210000D01*
X107660000Y-134210000D02*
X109140000Y-134210000D01*
X104232000Y-134169000D02*
X105700000Y-134169000D01*
X107660000Y-134169000D02*
X109128000Y-134169000D01*
X104244000Y-134129000D02*
X105700000Y-134129000D01*
X107660000Y-134129000D02*
X109116000Y-134129000D01*
X104256000Y-134089000D02*
X105700000Y-134089000D01*
X107660000Y-134089000D02*
X109104000Y-134089000D01*
X104270000Y-134049000D02*
X105700000Y-134049000D01*
X107660000Y-134049000D02*
X109090000Y-134049000D01*
X104284000Y-134009000D02*
X105700000Y-134009000D01*
X107660000Y-134009000D02*
X109076000Y-134009000D01*
X104298000Y-133969000D02*
X105700000Y-133969000D01*
X107660000Y-133969000D02*
X109062000Y-133969000D01*
X104314000Y-133929000D02*
X105700000Y-133929000D01*
X107660000Y-133929000D02*
X109046000Y-133929000D01*
X104330000Y-133889000D02*
X105700000Y-133889000D01*
X107660000Y-133889000D02*
X109030000Y-133889000D01*
X104347000Y-133849000D02*
X105700000Y-133849000D01*
X107660000Y-133849000D02*
X109013000Y-133849000D01*
X104365000Y-133809000D02*
X105700000Y-133809000D01*
X107660000Y-133809000D02*
X108995000Y-133809000D01*
X104384000Y-133769000D02*
X105700000Y-133769000D01*
X107660000Y-133769000D02*
X108976000Y-133769000D01*
X104404000Y-133729000D02*
X105700000Y-133729000D01*
X107660000Y-133729000D02*
X108956000Y-133729000D01*
X104424000Y-133689000D02*
X105700000Y-133689000D01*
X107660000Y-133689000D02*
X108936000Y-133689000D01*
X104446000Y-133649000D02*
X105700000Y-133649000D01*
X107660000Y-133649000D02*
X108914000Y-133649000D01*
X104468000Y-133609000D02*
X105700000Y-133609000D01*
X107660000Y-133609000D02*
X108892000Y-133609000D01*
X104491000Y-133569000D02*
X105700000Y-133569000D01*
X107660000Y-133569000D02*
X108869000Y-133569000D01*
X104515000Y-133529000D02*
X105700000Y-133529000D01*
X107660000Y-133529000D02*
X108845000Y-133529000D01*
X104540000Y-133489000D02*
X105700000Y-133489000D01*
X107660000Y-133489000D02*
X108820000Y-133489000D01*
X104567000Y-133449000D02*
X105700000Y-133449000D01*
X107660000Y-133449000D02*
X108793000Y-133449000D01*
X104594000Y-133409000D02*
X105700000Y-133409000D01*
X107660000Y-133409000D02*
X108766000Y-133409000D01*
X104622000Y-133369000D02*
X105700000Y-133369000D01*
X107660000Y-133369000D02*
X108738000Y-133369000D01*
X104652000Y-133329000D02*
X105700000Y-133329000D01*
X107660000Y-133329000D02*
X108708000Y-133329000D01*
X104683000Y-133289000D02*
X105700000Y-133289000D01*
X107660000Y-133289000D02*
X108677000Y-133289000D01*
X104715000Y-133249000D02*
X105700000Y-133249000D01*
X107660000Y-133249000D02*
X108645000Y-133249000D01*
X104748000Y-133209000D02*
X105700000Y-133209000D01*
X107660000Y-133209000D02*
X108612000Y-133209000D01*
X104783000Y-133169000D02*
X105700000Y-133169000D01*
X107660000Y-133169000D02*
X108577000Y-133169000D01*
X104819000Y-133129000D02*
X105700000Y-133129000D01*
X107660000Y-133129000D02*
X108541000Y-133129000D01*
X104857000Y-133089000D02*
X105700000Y-133089000D01*
X107660000Y-133089000D02*
X108503000Y-133089000D01*
X104897000Y-133049000D02*
X105700000Y-133049000D01*
X107660000Y-133049000D02*
X108463000Y-133049000D01*
X104938000Y-133009000D02*
X105700000Y-133009000D01*
X107660000Y-133009000D02*
X108422000Y-133009000D01*
X104981000Y-132969000D02*
X105700000Y-132969000D01*
X107660000Y-132969000D02*
X108379000Y-132969000D01*
X105026000Y-132929000D02*
X105700000Y-132929000D01*
X107660000Y-132929000D02*
X108334000Y-132929000D01*
X105074000Y-132889000D02*
X108286000Y-132889000D01*
X105124000Y-132849000D02*
X108236000Y-132849000D01*
X105176000Y-132809000D02*
X108184000Y-132809000D01*
X105232000Y-132769000D02*
X108128000Y-132769000D01*
X105290000Y-132729000D02*
X108070000Y-132729000D01*
X105353000Y-132689000D02*
X108007000Y-132689000D01*
X105419000Y-132649000D02*
X107941000Y-132649000D01*
X105491000Y-132609000D02*
X107869000Y-132609000D01*
X105568000Y-132569000D02*
X107792000Y-132569000D01*
X105652000Y-132529000D02*
X107708000Y-132529000D01*
X105746000Y-132489000D02*
X107614000Y-132489000D01*
X105851000Y-132449000D02*
X107509000Y-132449000D01*
X105973000Y-132409000D02*
X107387000Y-132409000D01*
X106121000Y-132369000D02*
X107239000Y-132369000D01*
X106326000Y-132329000D02*
X107034000Y-132329000D01*
X106680000Y-138090000D02*
X106680000Y-136890000D01*
X106030000Y-137490000D02*
X107330000Y-137490000D01*
X67400277Y-132584278D02*
G75*
G03X67400000Y-137195580I1179723J-2305722D01*
G01*
X69759723Y-132584278D02*
G75*
G02X69760000Y-137195580I-1179723J-2305722D01*
G01*
X69759723Y-132584278D02*
G75*
G03X67400000Y-132584420I-1179723J-2305722D01*
G01*
X66030000Y-134890000D02*
X71130000Y-134890000D01*
X66030000Y-134850000D02*
X67600000Y-134850000D01*
X69560000Y-134850000D02*
X71130000Y-134850000D01*
X66031000Y-134810000D02*
X67600000Y-134810000D01*
X69560000Y-134810000D02*
X71129000Y-134810000D01*
X66032000Y-134770000D02*
X67600000Y-134770000D01*
X69560000Y-134770000D02*
X71128000Y-134770000D01*
X66034000Y-134730000D02*
X67600000Y-134730000D01*
X69560000Y-134730000D02*
X71126000Y-134730000D01*
X66037000Y-134690000D02*
X67600000Y-134690000D01*
X69560000Y-134690000D02*
X71123000Y-134690000D01*
X66041000Y-134650000D02*
X67600000Y-134650000D01*
X69560000Y-134650000D02*
X71119000Y-134650000D01*
X66045000Y-134610000D02*
X67600000Y-134610000D01*
X69560000Y-134610000D02*
X71115000Y-134610000D01*
X66049000Y-134570000D02*
X67600000Y-134570000D01*
X69560000Y-134570000D02*
X71111000Y-134570000D01*
X66055000Y-134530000D02*
X67600000Y-134530000D01*
X69560000Y-134530000D02*
X71105000Y-134530000D01*
X66061000Y-134490000D02*
X67600000Y-134490000D01*
X69560000Y-134490000D02*
X71099000Y-134490000D01*
X66067000Y-134450000D02*
X67600000Y-134450000D01*
X69560000Y-134450000D02*
X71093000Y-134450000D01*
X66074000Y-134410000D02*
X67600000Y-134410000D01*
X69560000Y-134410000D02*
X71086000Y-134410000D01*
X66082000Y-134370000D02*
X67600000Y-134370000D01*
X69560000Y-134370000D02*
X71078000Y-134370000D01*
X66091000Y-134330000D02*
X67600000Y-134330000D01*
X69560000Y-134330000D02*
X71069000Y-134330000D01*
X66100000Y-134290000D02*
X67600000Y-134290000D01*
X69560000Y-134290000D02*
X71060000Y-134290000D01*
X66110000Y-134250000D02*
X67600000Y-134250000D01*
X69560000Y-134250000D02*
X71050000Y-134250000D01*
X66120000Y-134210000D02*
X67600000Y-134210000D01*
X69560000Y-134210000D02*
X71040000Y-134210000D01*
X66132000Y-134169000D02*
X67600000Y-134169000D01*
X69560000Y-134169000D02*
X71028000Y-134169000D01*
X66144000Y-134129000D02*
X67600000Y-134129000D01*
X69560000Y-134129000D02*
X71016000Y-134129000D01*
X66156000Y-134089000D02*
X67600000Y-134089000D01*
X69560000Y-134089000D02*
X71004000Y-134089000D01*
X66170000Y-134049000D02*
X67600000Y-134049000D01*
X69560000Y-134049000D02*
X70990000Y-134049000D01*
X66184000Y-134009000D02*
X67600000Y-134009000D01*
X69560000Y-134009000D02*
X70976000Y-134009000D01*
X66198000Y-133969000D02*
X67600000Y-133969000D01*
X69560000Y-133969000D02*
X70962000Y-133969000D01*
X66214000Y-133929000D02*
X67600000Y-133929000D01*
X69560000Y-133929000D02*
X70946000Y-133929000D01*
X66230000Y-133889000D02*
X67600000Y-133889000D01*
X69560000Y-133889000D02*
X70930000Y-133889000D01*
X66247000Y-133849000D02*
X67600000Y-133849000D01*
X69560000Y-133849000D02*
X70913000Y-133849000D01*
X66265000Y-133809000D02*
X67600000Y-133809000D01*
X69560000Y-133809000D02*
X70895000Y-133809000D01*
X66284000Y-133769000D02*
X67600000Y-133769000D01*
X69560000Y-133769000D02*
X70876000Y-133769000D01*
X66304000Y-133729000D02*
X67600000Y-133729000D01*
X69560000Y-133729000D02*
X70856000Y-133729000D01*
X66324000Y-133689000D02*
X67600000Y-133689000D01*
X69560000Y-133689000D02*
X70836000Y-133689000D01*
X66346000Y-133649000D02*
X67600000Y-133649000D01*
X69560000Y-133649000D02*
X70814000Y-133649000D01*
X66368000Y-133609000D02*
X67600000Y-133609000D01*
X69560000Y-133609000D02*
X70792000Y-133609000D01*
X66391000Y-133569000D02*
X67600000Y-133569000D01*
X69560000Y-133569000D02*
X70769000Y-133569000D01*
X66415000Y-133529000D02*
X67600000Y-133529000D01*
X69560000Y-133529000D02*
X70745000Y-133529000D01*
X66440000Y-133489000D02*
X67600000Y-133489000D01*
X69560000Y-133489000D02*
X70720000Y-133489000D01*
X66467000Y-133449000D02*
X67600000Y-133449000D01*
X69560000Y-133449000D02*
X70693000Y-133449000D01*
X66494000Y-133409000D02*
X67600000Y-133409000D01*
X69560000Y-133409000D02*
X70666000Y-133409000D01*
X66522000Y-133369000D02*
X67600000Y-133369000D01*
X69560000Y-133369000D02*
X70638000Y-133369000D01*
X66552000Y-133329000D02*
X67600000Y-133329000D01*
X69560000Y-133329000D02*
X70608000Y-133329000D01*
X66583000Y-133289000D02*
X67600000Y-133289000D01*
X69560000Y-133289000D02*
X70577000Y-133289000D01*
X66615000Y-133249000D02*
X67600000Y-133249000D01*
X69560000Y-133249000D02*
X70545000Y-133249000D01*
X66648000Y-133209000D02*
X67600000Y-133209000D01*
X69560000Y-133209000D02*
X70512000Y-133209000D01*
X66683000Y-133169000D02*
X67600000Y-133169000D01*
X69560000Y-133169000D02*
X70477000Y-133169000D01*
X66719000Y-133129000D02*
X67600000Y-133129000D01*
X69560000Y-133129000D02*
X70441000Y-133129000D01*
X66757000Y-133089000D02*
X67600000Y-133089000D01*
X69560000Y-133089000D02*
X70403000Y-133089000D01*
X66797000Y-133049000D02*
X67600000Y-133049000D01*
X69560000Y-133049000D02*
X70363000Y-133049000D01*
X66838000Y-133009000D02*
X67600000Y-133009000D01*
X69560000Y-133009000D02*
X70322000Y-133009000D01*
X66881000Y-132969000D02*
X67600000Y-132969000D01*
X69560000Y-132969000D02*
X70279000Y-132969000D01*
X66926000Y-132929000D02*
X67600000Y-132929000D01*
X69560000Y-132929000D02*
X70234000Y-132929000D01*
X66974000Y-132889000D02*
X70186000Y-132889000D01*
X67024000Y-132849000D02*
X70136000Y-132849000D01*
X67076000Y-132809000D02*
X70084000Y-132809000D01*
X67132000Y-132769000D02*
X70028000Y-132769000D01*
X67190000Y-132729000D02*
X69970000Y-132729000D01*
X67253000Y-132689000D02*
X69907000Y-132689000D01*
X67319000Y-132649000D02*
X69841000Y-132649000D01*
X67391000Y-132609000D02*
X69769000Y-132609000D01*
X67468000Y-132569000D02*
X69692000Y-132569000D01*
X67552000Y-132529000D02*
X69608000Y-132529000D01*
X67646000Y-132489000D02*
X69514000Y-132489000D01*
X67751000Y-132449000D02*
X69409000Y-132449000D01*
X67873000Y-132409000D02*
X69287000Y-132409000D01*
X68021000Y-132369000D02*
X69139000Y-132369000D01*
X68226000Y-132329000D02*
X68934000Y-132329000D01*
X68580000Y-138090000D02*
X68580000Y-136890000D01*
X67930000Y-137490000D02*
X69230000Y-137490000D01*
X105500277Y-83054278D02*
G75*
G03X105500000Y-87665580I1179723J-2305722D01*
G01*
X107859723Y-83054278D02*
G75*
G02X107860000Y-87665580I-1179723J-2305722D01*
G01*
X107859723Y-83054278D02*
G75*
G03X105500000Y-83054420I-1179723J-2305722D01*
G01*
X104130000Y-85360000D02*
X109230000Y-85360000D01*
X104130000Y-85320000D02*
X105700000Y-85320000D01*
X107660000Y-85320000D02*
X109230000Y-85320000D01*
X104131000Y-85280000D02*
X105700000Y-85280000D01*
X107660000Y-85280000D02*
X109229000Y-85280000D01*
X104132000Y-85240000D02*
X105700000Y-85240000D01*
X107660000Y-85240000D02*
X109228000Y-85240000D01*
X104134000Y-85200000D02*
X105700000Y-85200000D01*
X107660000Y-85200000D02*
X109226000Y-85200000D01*
X104137000Y-85160000D02*
X105700000Y-85160000D01*
X107660000Y-85160000D02*
X109223000Y-85160000D01*
X104141000Y-85120000D02*
X105700000Y-85120000D01*
X107660000Y-85120000D02*
X109219000Y-85120000D01*
X104145000Y-85080000D02*
X105700000Y-85080000D01*
X107660000Y-85080000D02*
X109215000Y-85080000D01*
X104149000Y-85040000D02*
X105700000Y-85040000D01*
X107660000Y-85040000D02*
X109211000Y-85040000D01*
X104155000Y-85000000D02*
X105700000Y-85000000D01*
X107660000Y-85000000D02*
X109205000Y-85000000D01*
X104161000Y-84960000D02*
X105700000Y-84960000D01*
X107660000Y-84960000D02*
X109199000Y-84960000D01*
X104167000Y-84920000D02*
X105700000Y-84920000D01*
X107660000Y-84920000D02*
X109193000Y-84920000D01*
X104174000Y-84880000D02*
X105700000Y-84880000D01*
X107660000Y-84880000D02*
X109186000Y-84880000D01*
X104182000Y-84840000D02*
X105700000Y-84840000D01*
X107660000Y-84840000D02*
X109178000Y-84840000D01*
X104191000Y-84800000D02*
X105700000Y-84800000D01*
X107660000Y-84800000D02*
X109169000Y-84800000D01*
X104200000Y-84760000D02*
X105700000Y-84760000D01*
X107660000Y-84760000D02*
X109160000Y-84760000D01*
X104210000Y-84720000D02*
X105700000Y-84720000D01*
X107660000Y-84720000D02*
X109150000Y-84720000D01*
X104220000Y-84680000D02*
X105700000Y-84680000D01*
X107660000Y-84680000D02*
X109140000Y-84680000D01*
X104232000Y-84639000D02*
X105700000Y-84639000D01*
X107660000Y-84639000D02*
X109128000Y-84639000D01*
X104244000Y-84599000D02*
X105700000Y-84599000D01*
X107660000Y-84599000D02*
X109116000Y-84599000D01*
X104256000Y-84559000D02*
X105700000Y-84559000D01*
X107660000Y-84559000D02*
X109104000Y-84559000D01*
X104270000Y-84519000D02*
X105700000Y-84519000D01*
X107660000Y-84519000D02*
X109090000Y-84519000D01*
X104284000Y-84479000D02*
X105700000Y-84479000D01*
X107660000Y-84479000D02*
X109076000Y-84479000D01*
X104298000Y-84439000D02*
X105700000Y-84439000D01*
X107660000Y-84439000D02*
X109062000Y-84439000D01*
X104314000Y-84399000D02*
X105700000Y-84399000D01*
X107660000Y-84399000D02*
X109046000Y-84399000D01*
X104330000Y-84359000D02*
X105700000Y-84359000D01*
X107660000Y-84359000D02*
X109030000Y-84359000D01*
X104347000Y-84319000D02*
X105700000Y-84319000D01*
X107660000Y-84319000D02*
X109013000Y-84319000D01*
X104365000Y-84279000D02*
X105700000Y-84279000D01*
X107660000Y-84279000D02*
X108995000Y-84279000D01*
X104384000Y-84239000D02*
X105700000Y-84239000D01*
X107660000Y-84239000D02*
X108976000Y-84239000D01*
X104404000Y-84199000D02*
X105700000Y-84199000D01*
X107660000Y-84199000D02*
X108956000Y-84199000D01*
X104424000Y-84159000D02*
X105700000Y-84159000D01*
X107660000Y-84159000D02*
X108936000Y-84159000D01*
X104446000Y-84119000D02*
X105700000Y-84119000D01*
X107660000Y-84119000D02*
X108914000Y-84119000D01*
X104468000Y-84079000D02*
X105700000Y-84079000D01*
X107660000Y-84079000D02*
X108892000Y-84079000D01*
X104491000Y-84039000D02*
X105700000Y-84039000D01*
X107660000Y-84039000D02*
X108869000Y-84039000D01*
X104515000Y-83999000D02*
X105700000Y-83999000D01*
X107660000Y-83999000D02*
X108845000Y-83999000D01*
X104540000Y-83959000D02*
X105700000Y-83959000D01*
X107660000Y-83959000D02*
X108820000Y-83959000D01*
X104567000Y-83919000D02*
X105700000Y-83919000D01*
X107660000Y-83919000D02*
X108793000Y-83919000D01*
X104594000Y-83879000D02*
X105700000Y-83879000D01*
X107660000Y-83879000D02*
X108766000Y-83879000D01*
X104622000Y-83839000D02*
X105700000Y-83839000D01*
X107660000Y-83839000D02*
X108738000Y-83839000D01*
X104652000Y-83799000D02*
X105700000Y-83799000D01*
X107660000Y-83799000D02*
X108708000Y-83799000D01*
X104683000Y-83759000D02*
X105700000Y-83759000D01*
X107660000Y-83759000D02*
X108677000Y-83759000D01*
X104715000Y-83719000D02*
X105700000Y-83719000D01*
X107660000Y-83719000D02*
X108645000Y-83719000D01*
X104748000Y-83679000D02*
X105700000Y-83679000D01*
X107660000Y-83679000D02*
X108612000Y-83679000D01*
X104783000Y-83639000D02*
X105700000Y-83639000D01*
X107660000Y-83639000D02*
X108577000Y-83639000D01*
X104819000Y-83599000D02*
X105700000Y-83599000D01*
X107660000Y-83599000D02*
X108541000Y-83599000D01*
X104857000Y-83559000D02*
X105700000Y-83559000D01*
X107660000Y-83559000D02*
X108503000Y-83559000D01*
X104897000Y-83519000D02*
X105700000Y-83519000D01*
X107660000Y-83519000D02*
X108463000Y-83519000D01*
X104938000Y-83479000D02*
X105700000Y-83479000D01*
X107660000Y-83479000D02*
X108422000Y-83479000D01*
X104981000Y-83439000D02*
X105700000Y-83439000D01*
X107660000Y-83439000D02*
X108379000Y-83439000D01*
X105026000Y-83399000D02*
X105700000Y-83399000D01*
X107660000Y-83399000D02*
X108334000Y-83399000D01*
X105074000Y-83359000D02*
X108286000Y-83359000D01*
X105124000Y-83319000D02*
X108236000Y-83319000D01*
X105176000Y-83279000D02*
X108184000Y-83279000D01*
X105232000Y-83239000D02*
X108128000Y-83239000D01*
X105290000Y-83199000D02*
X108070000Y-83199000D01*
X105353000Y-83159000D02*
X108007000Y-83159000D01*
X105419000Y-83119000D02*
X107941000Y-83119000D01*
X105491000Y-83079000D02*
X107869000Y-83079000D01*
X105568000Y-83039000D02*
X107792000Y-83039000D01*
X105652000Y-82999000D02*
X107708000Y-82999000D01*
X105746000Y-82959000D02*
X107614000Y-82959000D01*
X105851000Y-82919000D02*
X107509000Y-82919000D01*
X105973000Y-82879000D02*
X107387000Y-82879000D01*
X106121000Y-82839000D02*
X107239000Y-82839000D01*
X106326000Y-82799000D02*
X107034000Y-82799000D01*
X106680000Y-88560000D02*
X106680000Y-87360000D01*
X106030000Y-87960000D02*
X107330000Y-87960000D01*
X106740000Y-144840000D02*
X106740000Y-139640000D01*
X106680000Y-144840000D02*
X106740000Y-144840000D01*
X104080000Y-139640000D02*
X106740000Y-139640000D01*
X106680000Y-144840000D02*
X106680000Y-142240000D01*
X106680000Y-142240000D02*
X104080000Y-142240000D01*
X104080000Y-142240000D02*
X104080000Y-139640000D01*
X105410000Y-144840000D02*
X104080000Y-144840000D01*
X104080000Y-144840000D02*
X104080000Y-143510000D01*
X68640000Y-144840000D02*
X68640000Y-139640000D01*
X68580000Y-144840000D02*
X68640000Y-144840000D01*
X65980000Y-139640000D02*
X68640000Y-139640000D01*
X68580000Y-144840000D02*
X68580000Y-142240000D01*
X68580000Y-142240000D02*
X65980000Y-142240000D01*
X65980000Y-142240000D02*
X65980000Y-139640000D01*
X67310000Y-144840000D02*
X65980000Y-144840000D01*
X65980000Y-144840000D02*
X65980000Y-143510000D01*
X106740000Y-95310000D02*
X106740000Y-90110000D01*
X106680000Y-95310000D02*
X106740000Y-95310000D01*
X104080000Y-90110000D02*
X106740000Y-90110000D01*
X106680000Y-95310000D02*
X106680000Y-92710000D01*
X106680000Y-92710000D02*
X104080000Y-92710000D01*
X104080000Y-92710000D02*
X104080000Y-90110000D01*
X105410000Y-95310000D02*
X104080000Y-95310000D01*
X104080000Y-95310000D02*
X104080000Y-93980000D01*
X107890000Y-146140000D02*
X138090000Y-146140000D01*
X107890000Y-147240000D02*
X138090000Y-147240000D01*
X107890000Y-147740000D02*
X107890000Y-137340000D01*
X107890000Y-137340000D02*
X138090000Y-137340000D01*
X138090000Y-137340000D02*
X138090000Y-147740000D01*
X112990000Y-147240000D02*
X112990000Y-147640000D01*
X117990000Y-147240000D02*
X117990000Y-147640000D01*
X122990000Y-147240000D02*
X122990000Y-147640000D01*
X127990000Y-147240000D02*
X127990000Y-147640000D01*
X132990000Y-147240000D02*
X132990000Y-147640000D01*
X107650000Y-145140000D02*
X107650000Y-147980000D01*
X107650000Y-147980000D02*
X110490000Y-147980000D01*
X69790000Y-146140000D02*
X99990000Y-146140000D01*
X69790000Y-147240000D02*
X99990000Y-147240000D01*
X69790000Y-147740000D02*
X69790000Y-137340000D01*
X69790000Y-137340000D02*
X99990000Y-137340000D01*
X99990000Y-137340000D02*
X99990000Y-147740000D01*
X74890000Y-147240000D02*
X74890000Y-147640000D01*
X79890000Y-147240000D02*
X79890000Y-147640000D01*
X84890000Y-147240000D02*
X84890000Y-147640000D01*
X89890000Y-147240000D02*
X89890000Y-147640000D01*
X94890000Y-147240000D02*
X94890000Y-147640000D01*
X69550000Y-145140000D02*
X69550000Y-147980000D01*
X69550000Y-147980000D02*
X72390000Y-147980000D01*
X107890000Y-96610000D02*
X138090000Y-96610000D01*
X107890000Y-97710000D02*
X138090000Y-97710000D01*
X107890000Y-98210000D02*
X107890000Y-87810000D01*
X107890000Y-87810000D02*
X138090000Y-87810000D01*
X138090000Y-87810000D02*
X138090000Y-98210000D01*
X112990000Y-97710000D02*
X112990000Y-98110000D01*
X117990000Y-97710000D02*
X117990000Y-98110000D01*
X122990000Y-97710000D02*
X122990000Y-98110000D01*
X127990000Y-97710000D02*
X127990000Y-98110000D01*
X132990000Y-97710000D02*
X132990000Y-98110000D01*
X107650000Y-95610000D02*
X107650000Y-98450000D01*
X107650000Y-98450000D02*
X110490000Y-98450000D01*
X132140000Y-137220000D02*
X132140000Y-134560000D01*
X119380000Y-137220000D02*
X132140000Y-137220000D01*
X119380000Y-134560000D02*
X132140000Y-134560000D01*
X119380000Y-137220000D02*
X119380000Y-134560000D01*
X118110000Y-137220000D02*
X116780000Y-137220000D01*
X116780000Y-137220000D02*
X116780000Y-135890000D01*
X94040000Y-137220000D02*
X94040000Y-134560000D01*
X81280000Y-137220000D02*
X94040000Y-137220000D01*
X81280000Y-134560000D02*
X94040000Y-134560000D01*
X81280000Y-137220000D02*
X81280000Y-134560000D01*
X80010000Y-137220000D02*
X78680000Y-137220000D01*
X78680000Y-137220000D02*
X78680000Y-135890000D01*
X132140000Y-87690000D02*
X132140000Y-85030000D01*
X119380000Y-87690000D02*
X132140000Y-87690000D01*
X119380000Y-85030000D02*
X132140000Y-85030000D01*
X119380000Y-87690000D02*
X119380000Y-85030000D01*
X118110000Y-87690000D02*
X116780000Y-87690000D01*
X116780000Y-87690000D02*
X116780000Y-86360000D01*
X110430000Y-128330000D02*
X115630000Y-128330000D01*
X110430000Y-105410000D02*
X110430000Y-128330000D01*
X115630000Y-102810000D02*
X115630000Y-128330000D01*
X110430000Y-105410000D02*
X113030000Y-105410000D01*
X113030000Y-105410000D02*
X113030000Y-102810000D01*
X113030000Y-102810000D02*
X115630000Y-102810000D01*
X110430000Y-104140000D02*
X110430000Y-102810000D01*
X110430000Y-102810000D02*
X111760000Y-102810000D01*
X72330000Y-128330000D02*
X77530000Y-128330000D01*
X72330000Y-105410000D02*
X72330000Y-128330000D01*
X77530000Y-102810000D02*
X77530000Y-128330000D01*
X72330000Y-105410000D02*
X74930000Y-105410000D01*
X74930000Y-105410000D02*
X74930000Y-102810000D01*
X74930000Y-102810000D02*
X77530000Y-102810000D01*
X72330000Y-104140000D02*
X72330000Y-102810000D01*
X72330000Y-102810000D02*
X73660000Y-102810000D01*
X110430000Y-78800000D02*
X115630000Y-78800000D01*
X110430000Y-55880000D02*
X110430000Y-78800000D01*
X115630000Y-53280000D02*
X115630000Y-78800000D01*
X110430000Y-55880000D02*
X113030000Y-55880000D01*
X113030000Y-55880000D02*
X113030000Y-53280000D01*
X113030000Y-53280000D02*
X115630000Y-53280000D01*
X110430000Y-54610000D02*
X110430000Y-53280000D01*
X110430000Y-53280000D02*
X111760000Y-53280000D01*
X132140000Y-129600000D02*
X132140000Y-126940000D01*
X119380000Y-129600000D02*
X132140000Y-129600000D01*
X119380000Y-126940000D02*
X132140000Y-126940000D01*
X119380000Y-129600000D02*
X119380000Y-126940000D01*
X118110000Y-129600000D02*
X116780000Y-129600000D01*
X116780000Y-129600000D02*
X116780000Y-128270000D01*
X94040000Y-129600000D02*
X94040000Y-126940000D01*
X81280000Y-129600000D02*
X94040000Y-129600000D01*
X81280000Y-126940000D02*
X94040000Y-126940000D01*
X81280000Y-129600000D02*
X81280000Y-126940000D01*
X80010000Y-129600000D02*
X78680000Y-129600000D01*
X78680000Y-129600000D02*
X78680000Y-128270000D01*
X132140000Y-80070000D02*
X132140000Y-77410000D01*
X119380000Y-80070000D02*
X132140000Y-80070000D01*
X119380000Y-77410000D02*
X132140000Y-77410000D01*
X119380000Y-80070000D02*
X119380000Y-77410000D01*
X118110000Y-80070000D02*
X116780000Y-80070000D01*
X116780000Y-80070000D02*
X116780000Y-78740000D01*
X130870000Y-124500000D02*
X125750000Y-124500000D01*
X130870000Y-121880000D02*
X125750000Y-121880000D01*
X130870000Y-124500000D02*
X130870000Y-124186000D01*
X130870000Y-122194000D02*
X130870000Y-121880000D01*
X125750000Y-124500000D02*
X125750000Y-124186000D01*
X125750000Y-122194000D02*
X125750000Y-121880000D01*
X92770000Y-124500000D02*
X87650000Y-124500000D01*
X92770000Y-121880000D02*
X87650000Y-121880000D01*
X92770000Y-124500000D02*
X92770000Y-124186000D01*
X92770000Y-122194000D02*
X92770000Y-121880000D01*
X87650000Y-124500000D02*
X87650000Y-124186000D01*
X87650000Y-122194000D02*
X87650000Y-121880000D01*
X130870000Y-74970000D02*
X125750000Y-74970000D01*
X130870000Y-72350000D02*
X125750000Y-72350000D01*
X130870000Y-74970000D02*
X130870000Y-74656000D01*
X130870000Y-72664000D02*
X130870000Y-72350000D01*
X125750000Y-74970000D02*
X125750000Y-74656000D01*
X125750000Y-72664000D02*
X125750000Y-72350000D01*
X118050000Y-121880000D02*
X123170000Y-121880000D01*
X118050000Y-124500000D02*
X123170000Y-124500000D01*
X118050000Y-121880000D02*
X118050000Y-122194000D01*
X118050000Y-124186000D02*
X118050000Y-124500000D01*
X123170000Y-121880000D02*
X123170000Y-122194000D01*
X123170000Y-124186000D02*
X123170000Y-124500000D01*
X79950000Y-121880000D02*
X85070000Y-121880000D01*
X79950000Y-124500000D02*
X85070000Y-124500000D01*
X79950000Y-121880000D02*
X79950000Y-122194000D01*
X79950000Y-124186000D02*
X79950000Y-124500000D01*
X85070000Y-121880000D02*
X85070000Y-122194000D01*
X85070000Y-124186000D02*
X85070000Y-124500000D01*
X118050000Y-72350000D02*
X123170000Y-72350000D01*
X118050000Y-74970000D02*
X123170000Y-74970000D01*
X118050000Y-72350000D02*
X118050000Y-72664000D01*
X118050000Y-74656000D02*
X118050000Y-74970000D01*
X123170000Y-72350000D02*
X123170000Y-72664000D01*
X123170000Y-74656000D02*
X123170000Y-74970000D01*
X135830000Y-128330000D02*
X141030000Y-128330000D01*
X135830000Y-105410000D02*
X135830000Y-128330000D01*
X141030000Y-102810000D02*
X141030000Y-128330000D01*
X135830000Y-105410000D02*
X138430000Y-105410000D01*
X138430000Y-105410000D02*
X138430000Y-102810000D01*
X138430000Y-102810000D02*
X141030000Y-102810000D01*
X135830000Y-104140000D02*
X135830000Y-102810000D01*
X135830000Y-102810000D02*
X137160000Y-102810000D01*
X97730000Y-128330000D02*
X102930000Y-128330000D01*
X97730000Y-105410000D02*
X97730000Y-128330000D01*
X102930000Y-102810000D02*
X102930000Y-128330000D01*
X97730000Y-105410000D02*
X100330000Y-105410000D01*
X100330000Y-105410000D02*
X100330000Y-102810000D01*
X100330000Y-102810000D02*
X102930000Y-102810000D01*
X97730000Y-104140000D02*
X97730000Y-102810000D01*
X97730000Y-102810000D02*
X99060000Y-102810000D01*
X135830000Y-78800000D02*
X141030000Y-78800000D01*
X135830000Y-55880000D02*
X135830000Y-78800000D01*
X141030000Y-53280000D02*
X141030000Y-78800000D01*
X135830000Y-55880000D02*
X138430000Y-55880000D01*
X138430000Y-55880000D02*
X138430000Y-53280000D01*
X138430000Y-53280000D02*
X141030000Y-53280000D01*
X135830000Y-54610000D02*
X135830000Y-53280000D01*
X135830000Y-53280000D02*
X137160000Y-53280000D01*
X79950000Y-72350000D02*
X85070000Y-72350000D01*
X79950000Y-74970000D02*
X85070000Y-74970000D01*
X79950000Y-72350000D02*
X79950000Y-72664000D01*
X79950000Y-74656000D02*
X79950000Y-74970000D01*
X85070000Y-72350000D02*
X85070000Y-72664000D01*
X85070000Y-74656000D02*
X85070000Y-74970000D01*
X92770000Y-74970000D02*
X87650000Y-74970000D01*
X92770000Y-72350000D02*
X87650000Y-72350000D01*
X92770000Y-74970000D02*
X92770000Y-74656000D01*
X92770000Y-72664000D02*
X92770000Y-72350000D01*
X87650000Y-74970000D02*
X87650000Y-74656000D01*
X87650000Y-72664000D02*
X87650000Y-72350000D01*
X94040000Y-87690000D02*
X94040000Y-85030000D01*
X81280000Y-87690000D02*
X94040000Y-87690000D01*
X81280000Y-85030000D02*
X94040000Y-85030000D01*
X81280000Y-87690000D02*
X81280000Y-85030000D01*
X80010000Y-87690000D02*
X78680000Y-87690000D01*
X78680000Y-87690000D02*
X78680000Y-86360000D01*
X94040000Y-80070000D02*
X94040000Y-77410000D01*
X81280000Y-80070000D02*
X94040000Y-80070000D01*
X81280000Y-77410000D02*
X94040000Y-77410000D01*
X81280000Y-80070000D02*
X81280000Y-77410000D01*
X80010000Y-80070000D02*
X78680000Y-80070000D01*
X78680000Y-80070000D02*
X78680000Y-78740000D01*
X72330000Y-78800000D02*
X77530000Y-78800000D01*
X72330000Y-55880000D02*
X72330000Y-78800000D01*
X77530000Y-53280000D02*
X77530000Y-78800000D01*
X72330000Y-55880000D02*
X74930000Y-55880000D01*
X74930000Y-55880000D02*
X74930000Y-53280000D01*
X74930000Y-53280000D02*
X77530000Y-53280000D01*
X72330000Y-54610000D02*
X72330000Y-53280000D01*
X72330000Y-53280000D02*
X73660000Y-53280000D01*
X97730000Y-78800000D02*
X102930000Y-78800000D01*
X97730000Y-55880000D02*
X97730000Y-78800000D01*
X102930000Y-53280000D02*
X102930000Y-78800000D01*
X97730000Y-55880000D02*
X100330000Y-55880000D01*
X100330000Y-55880000D02*
X100330000Y-53280000D01*
X100330000Y-53280000D02*
X102930000Y-53280000D01*
X97730000Y-54610000D02*
X97730000Y-53280000D01*
X97730000Y-53280000D02*
X99060000Y-53280000D01*
X69790000Y-96610000D02*
X99990000Y-96610000D01*
X69790000Y-97710000D02*
X99990000Y-97710000D01*
X69790000Y-98210000D02*
X69790000Y-87810000D01*
X69790000Y-87810000D02*
X99990000Y-87810000D01*
X99990000Y-87810000D02*
X99990000Y-98210000D01*
X74890000Y-97710000D02*
X74890000Y-98110000D01*
X79890000Y-97710000D02*
X79890000Y-98110000D01*
X84890000Y-97710000D02*
X84890000Y-98110000D01*
X89890000Y-97710000D02*
X89890000Y-98110000D01*
X94890000Y-97710000D02*
X94890000Y-98110000D01*
X69550000Y-95610000D02*
X69550000Y-98450000D01*
X69550000Y-98450000D02*
X72390000Y-98450000D01*
X68640000Y-95310000D02*
X68640000Y-90110000D01*
X68580000Y-95310000D02*
X68640000Y-95310000D01*
X65980000Y-90110000D02*
X68640000Y-90110000D01*
X68580000Y-95310000D02*
X68580000Y-92710000D01*
X68580000Y-92710000D02*
X65980000Y-92710000D01*
X65980000Y-92710000D02*
X65980000Y-90110000D01*
X67310000Y-95310000D02*
X65980000Y-95310000D01*
X65980000Y-95310000D02*
X65980000Y-93980000D01*
X67400277Y-83054278D02*
G75*
G03X67400000Y-87665580I1179723J-2305722D01*
G01*
X69759723Y-83054278D02*
G75*
G02X69760000Y-87665580I-1179723J-2305722D01*
G01*
X69759723Y-83054278D02*
G75*
G03X67400000Y-83054420I-1179723J-2305722D01*
G01*
X66030000Y-85360000D02*
X71130000Y-85360000D01*
X66030000Y-85320000D02*
X67600000Y-85320000D01*
X69560000Y-85320000D02*
X71130000Y-85320000D01*
X66031000Y-85280000D02*
X67600000Y-85280000D01*
X69560000Y-85280000D02*
X71129000Y-85280000D01*
X66032000Y-85240000D02*
X67600000Y-85240000D01*
X69560000Y-85240000D02*
X71128000Y-85240000D01*
X66034000Y-85200000D02*
X67600000Y-85200000D01*
X69560000Y-85200000D02*
X71126000Y-85200000D01*
X66037000Y-85160000D02*
X67600000Y-85160000D01*
X69560000Y-85160000D02*
X71123000Y-85160000D01*
X66041000Y-85120000D02*
X67600000Y-85120000D01*
X69560000Y-85120000D02*
X71119000Y-85120000D01*
X66045000Y-85080000D02*
X67600000Y-85080000D01*
X69560000Y-85080000D02*
X71115000Y-85080000D01*
X66049000Y-85040000D02*
X67600000Y-85040000D01*
X69560000Y-85040000D02*
X71111000Y-85040000D01*
X66055000Y-85000000D02*
X67600000Y-85000000D01*
X69560000Y-85000000D02*
X71105000Y-85000000D01*
X66061000Y-84960000D02*
X67600000Y-84960000D01*
X69560000Y-84960000D02*
X71099000Y-84960000D01*
X66067000Y-84920000D02*
X67600000Y-84920000D01*
X69560000Y-84920000D02*
X71093000Y-84920000D01*
X66074000Y-84880000D02*
X67600000Y-84880000D01*
X69560000Y-84880000D02*
X71086000Y-84880000D01*
X66082000Y-84840000D02*
X67600000Y-84840000D01*
X69560000Y-84840000D02*
X71078000Y-84840000D01*
X66091000Y-84800000D02*
X67600000Y-84800000D01*
X69560000Y-84800000D02*
X71069000Y-84800000D01*
X66100000Y-84760000D02*
X67600000Y-84760000D01*
X69560000Y-84760000D02*
X71060000Y-84760000D01*
X66110000Y-84720000D02*
X67600000Y-84720000D01*
X69560000Y-84720000D02*
X71050000Y-84720000D01*
X66120000Y-84680000D02*
X67600000Y-84680000D01*
X69560000Y-84680000D02*
X71040000Y-84680000D01*
X66132000Y-84639000D02*
X67600000Y-84639000D01*
X69560000Y-84639000D02*
X71028000Y-84639000D01*
X66144000Y-84599000D02*
X67600000Y-84599000D01*
X69560000Y-84599000D02*
X71016000Y-84599000D01*
X66156000Y-84559000D02*
X67600000Y-84559000D01*
X69560000Y-84559000D02*
X71004000Y-84559000D01*
X66170000Y-84519000D02*
X67600000Y-84519000D01*
X69560000Y-84519000D02*
X70990000Y-84519000D01*
X66184000Y-84479000D02*
X67600000Y-84479000D01*
X69560000Y-84479000D02*
X70976000Y-84479000D01*
X66198000Y-84439000D02*
X67600000Y-84439000D01*
X69560000Y-84439000D02*
X70962000Y-84439000D01*
X66214000Y-84399000D02*
X67600000Y-84399000D01*
X69560000Y-84399000D02*
X70946000Y-84399000D01*
X66230000Y-84359000D02*
X67600000Y-84359000D01*
X69560000Y-84359000D02*
X70930000Y-84359000D01*
X66247000Y-84319000D02*
X67600000Y-84319000D01*
X69560000Y-84319000D02*
X70913000Y-84319000D01*
X66265000Y-84279000D02*
X67600000Y-84279000D01*
X69560000Y-84279000D02*
X70895000Y-84279000D01*
X66284000Y-84239000D02*
X67600000Y-84239000D01*
X69560000Y-84239000D02*
X70876000Y-84239000D01*
X66304000Y-84199000D02*
X67600000Y-84199000D01*
X69560000Y-84199000D02*
X70856000Y-84199000D01*
X66324000Y-84159000D02*
X67600000Y-84159000D01*
X69560000Y-84159000D02*
X70836000Y-84159000D01*
X66346000Y-84119000D02*
X67600000Y-84119000D01*
X69560000Y-84119000D02*
X70814000Y-84119000D01*
X66368000Y-84079000D02*
X67600000Y-84079000D01*
X69560000Y-84079000D02*
X70792000Y-84079000D01*
X66391000Y-84039000D02*
X67600000Y-84039000D01*
X69560000Y-84039000D02*
X70769000Y-84039000D01*
X66415000Y-83999000D02*
X67600000Y-83999000D01*
X69560000Y-83999000D02*
X70745000Y-83999000D01*
X66440000Y-83959000D02*
X67600000Y-83959000D01*
X69560000Y-83959000D02*
X70720000Y-83959000D01*
X66467000Y-83919000D02*
X67600000Y-83919000D01*
X69560000Y-83919000D02*
X70693000Y-83919000D01*
X66494000Y-83879000D02*
X67600000Y-83879000D01*
X69560000Y-83879000D02*
X70666000Y-83879000D01*
X66522000Y-83839000D02*
X67600000Y-83839000D01*
X69560000Y-83839000D02*
X70638000Y-83839000D01*
X66552000Y-83799000D02*
X67600000Y-83799000D01*
X69560000Y-83799000D02*
X70608000Y-83799000D01*
X66583000Y-83759000D02*
X67600000Y-83759000D01*
X69560000Y-83759000D02*
X70577000Y-83759000D01*
X66615000Y-83719000D02*
X67600000Y-83719000D01*
X69560000Y-83719000D02*
X70545000Y-83719000D01*
X66648000Y-83679000D02*
X67600000Y-83679000D01*
X69560000Y-83679000D02*
X70512000Y-83679000D01*
X66683000Y-83639000D02*
X67600000Y-83639000D01*
X69560000Y-83639000D02*
X70477000Y-83639000D01*
X66719000Y-83599000D02*
X67600000Y-83599000D01*
X69560000Y-83599000D02*
X70441000Y-83599000D01*
X66757000Y-83559000D02*
X67600000Y-83559000D01*
X69560000Y-83559000D02*
X70403000Y-83559000D01*
X66797000Y-83519000D02*
X67600000Y-83519000D01*
X69560000Y-83519000D02*
X70363000Y-83519000D01*
X66838000Y-83479000D02*
X67600000Y-83479000D01*
X69560000Y-83479000D02*
X70322000Y-83479000D01*
X66881000Y-83439000D02*
X67600000Y-83439000D01*
X69560000Y-83439000D02*
X70279000Y-83439000D01*
X66926000Y-83399000D02*
X67600000Y-83399000D01*
X69560000Y-83399000D02*
X70234000Y-83399000D01*
X66974000Y-83359000D02*
X70186000Y-83359000D01*
X67024000Y-83319000D02*
X70136000Y-83319000D01*
X67076000Y-83279000D02*
X70084000Y-83279000D01*
X67132000Y-83239000D02*
X70028000Y-83239000D01*
X67190000Y-83199000D02*
X69970000Y-83199000D01*
X67253000Y-83159000D02*
X69907000Y-83159000D01*
X67319000Y-83119000D02*
X69841000Y-83119000D01*
X67391000Y-83079000D02*
X69769000Y-83079000D01*
X67468000Y-83039000D02*
X69692000Y-83039000D01*
X67552000Y-82999000D02*
X69608000Y-82999000D01*
X67646000Y-82959000D02*
X69514000Y-82959000D01*
X67751000Y-82919000D02*
X69409000Y-82919000D01*
X67873000Y-82879000D02*
X69287000Y-82879000D01*
X68021000Y-82839000D02*
X69139000Y-82839000D01*
X68226000Y-82799000D02*
X68934000Y-82799000D01*
X68580000Y-88560000D02*
X68580000Y-87360000D01*
X67930000Y-87960000D02*
X69230000Y-87960000D01*
X74870000Y-79950000D02*
X74870000Y-85150000D01*
X74930000Y-79950000D02*
X74870000Y-79950000D01*
X77530000Y-85150000D02*
X74870000Y-85150000D01*
X74930000Y-79950000D02*
X74930000Y-82550000D01*
X74930000Y-82550000D02*
X77530000Y-82550000D01*
X77530000Y-82550000D02*
X77530000Y-85150000D01*
X76200000Y-79950000D02*
X77530000Y-79950000D01*
X77530000Y-79950000D02*
X77530000Y-81280000D01*
D13*
X111212381Y-132413333D02*
X111926667Y-132413333D01*
X112069524Y-132460953D01*
X112164762Y-132556191D01*
X112212381Y-132699048D01*
X112212381Y-132794286D01*
X111307619Y-131984762D02*
X111260000Y-131937143D01*
X111212381Y-131841905D01*
X111212381Y-131603809D01*
X111260000Y-131508571D01*
X111307619Y-131460952D01*
X111402857Y-131413333D01*
X111498095Y-131413333D01*
X111640952Y-131460952D01*
X112212381Y-132032381D01*
X112212381Y-131413333D01*
X73112381Y-132413333D02*
X73826667Y-132413333D01*
X73969524Y-132460953D01*
X74064762Y-132556191D01*
X74112381Y-132699048D01*
X74112381Y-132794286D01*
X73207619Y-131984762D02*
X73160000Y-131937143D01*
X73112381Y-131841905D01*
X73112381Y-131603809D01*
X73160000Y-131508571D01*
X73207619Y-131460952D01*
X73302857Y-131413333D01*
X73398095Y-131413333D01*
X73540952Y-131460952D01*
X74112381Y-132032381D01*
X74112381Y-131413333D01*
X111212381Y-82883333D02*
X111926667Y-82883333D01*
X112069524Y-82930953D01*
X112164762Y-83026191D01*
X112212381Y-83169048D01*
X112212381Y-83264286D01*
X111307619Y-82454762D02*
X111260000Y-82407143D01*
X111212381Y-82311905D01*
X111212381Y-82073809D01*
X111260000Y-81978571D01*
X111307619Y-81930952D01*
X111402857Y-81883333D01*
X111498095Y-81883333D01*
X111640952Y-81930952D01*
X112212381Y-82502381D01*
X112212381Y-81883333D01*
X108418334Y-132437143D02*
X108370715Y-132484762D01*
X108227858Y-132532381D01*
X108132620Y-132532381D01*
X107989762Y-132484762D01*
X107894524Y-132389524D01*
X107846905Y-132294286D01*
X107799286Y-132103810D01*
X107799286Y-131960952D01*
X107846905Y-131770476D01*
X107894524Y-131675238D01*
X107989762Y-131580000D01*
X108132620Y-131532381D01*
X108227858Y-131532381D01*
X108370715Y-131580000D01*
X108418334Y-131627619D01*
X108751667Y-131532381D02*
X109370715Y-131532381D01*
X109037381Y-131913333D01*
X109180239Y-131913333D01*
X109275477Y-131960952D01*
X109323096Y-132008571D01*
X109370715Y-132103810D01*
X109370715Y-132341905D01*
X109323096Y-132437143D01*
X109275477Y-132484762D01*
X109180239Y-132532381D01*
X108894524Y-132532381D01*
X108799286Y-132484762D01*
X108751667Y-132437143D01*
X70318334Y-132437143D02*
X70270715Y-132484762D01*
X70127858Y-132532381D01*
X70032620Y-132532381D01*
X69889762Y-132484762D01*
X69794524Y-132389524D01*
X69746905Y-132294286D01*
X69699286Y-132103810D01*
X69699286Y-131960952D01*
X69746905Y-131770476D01*
X69794524Y-131675238D01*
X69889762Y-131580000D01*
X70032620Y-131532381D01*
X70127858Y-131532381D01*
X70270715Y-131580000D01*
X70318334Y-131627619D01*
X70651667Y-131532381D02*
X71270715Y-131532381D01*
X70937381Y-131913333D01*
X71080239Y-131913333D01*
X71175477Y-131960952D01*
X71223096Y-132008571D01*
X71270715Y-132103810D01*
X71270715Y-132341905D01*
X71223096Y-132437143D01*
X71175477Y-132484762D01*
X71080239Y-132532381D01*
X70794524Y-132532381D01*
X70699286Y-132484762D01*
X70651667Y-132437143D01*
X108418334Y-82907143D02*
X108370715Y-82954762D01*
X108227858Y-83002381D01*
X108132620Y-83002381D01*
X107989762Y-82954762D01*
X107894524Y-82859524D01*
X107846905Y-82764286D01*
X107799286Y-82573810D01*
X107799286Y-82430952D01*
X107846905Y-82240476D01*
X107894524Y-82145238D01*
X107989762Y-82050000D01*
X108132620Y-82002381D01*
X108227858Y-82002381D01*
X108370715Y-82050000D01*
X108418334Y-82097619D01*
X108751667Y-82002381D02*
X109370715Y-82002381D01*
X109037381Y-82383333D01*
X109180239Y-82383333D01*
X109275477Y-82430952D01*
X109323096Y-82478571D01*
X109370715Y-82573810D01*
X109370715Y-82811905D01*
X109323096Y-82907143D01*
X109275477Y-82954762D01*
X109180239Y-83002381D01*
X108894524Y-83002381D01*
X108799286Y-82954762D01*
X108751667Y-82907143D01*
X105076667Y-137882381D02*
X105076667Y-138596667D01*
X105029047Y-138739524D01*
X104933809Y-138834762D01*
X104790952Y-138882381D01*
X104695714Y-138882381D01*
X106076667Y-138882381D02*
X105505238Y-138882381D01*
X105790952Y-138882381D02*
X105790952Y-137882381D01*
X105695714Y-138025238D01*
X105600476Y-138120476D01*
X105505238Y-138168095D01*
X66976667Y-137882381D02*
X66976667Y-138596667D01*
X66929047Y-138739524D01*
X66833809Y-138834762D01*
X66690952Y-138882381D01*
X66595714Y-138882381D01*
X67976667Y-138882381D02*
X67405238Y-138882381D01*
X67690952Y-138882381D02*
X67690952Y-137882381D01*
X67595714Y-138025238D01*
X67500476Y-138120476D01*
X67405238Y-138168095D01*
X105076667Y-88352381D02*
X105076667Y-89066667D01*
X105029047Y-89209524D01*
X104933809Y-89304762D01*
X104790952Y-89352381D01*
X104695714Y-89352381D01*
X106076667Y-89352381D02*
X105505238Y-89352381D01*
X105790952Y-89352381D02*
X105790952Y-88352381D01*
X105695714Y-88495238D01*
X105600476Y-88590476D01*
X105505238Y-88638095D01*
X111069524Y-136882143D02*
X111021905Y-136929762D01*
X110879048Y-136977381D01*
X110783810Y-136977381D01*
X110640952Y-136929762D01*
X110545714Y-136834524D01*
X110498095Y-136739286D01*
X110450476Y-136548810D01*
X110450476Y-136405952D01*
X110498095Y-136215476D01*
X110545714Y-136120238D01*
X110640952Y-136025000D01*
X110783810Y-135977381D01*
X110879048Y-135977381D01*
X111021905Y-136025000D01*
X111069524Y-136072619D01*
X111498095Y-136977381D02*
X111498095Y-135977381D01*
X112069524Y-136977381D01*
X112069524Y-135977381D01*
X112688571Y-136405952D02*
X112593333Y-136358333D01*
X112545714Y-136310714D01*
X112498095Y-136215476D01*
X112498095Y-136167857D01*
X112545714Y-136072619D01*
X112593333Y-136025000D01*
X112688571Y-135977381D01*
X112879048Y-135977381D01*
X112974286Y-136025000D01*
X113021905Y-136072619D01*
X113069524Y-136167857D01*
X113069524Y-136215476D01*
X113021905Y-136310714D01*
X112974286Y-136358333D01*
X112879048Y-136405952D01*
X112688571Y-136405952D01*
X112593333Y-136453571D01*
X112545714Y-136501190D01*
X112498095Y-136596429D01*
X112498095Y-136786905D01*
X112545714Y-136882143D01*
X112593333Y-136929762D01*
X112688571Y-136977381D01*
X112879048Y-136977381D01*
X112974286Y-136929762D01*
X113021905Y-136882143D01*
X113069524Y-136786905D01*
X113069524Y-136596429D01*
X113021905Y-136501190D01*
X112974286Y-136453571D01*
X112879048Y-136405952D01*
X72969524Y-136882143D02*
X72921905Y-136929762D01*
X72779048Y-136977381D01*
X72683810Y-136977381D01*
X72540952Y-136929762D01*
X72445714Y-136834524D01*
X72398095Y-136739286D01*
X72350476Y-136548810D01*
X72350476Y-136405952D01*
X72398095Y-136215476D01*
X72445714Y-136120238D01*
X72540952Y-136025000D01*
X72683810Y-135977381D01*
X72779048Y-135977381D01*
X72921905Y-136025000D01*
X72969524Y-136072619D01*
X73398095Y-136977381D02*
X73398095Y-135977381D01*
X73969524Y-136977381D01*
X73969524Y-135977381D01*
X74588571Y-136405952D02*
X74493333Y-136358333D01*
X74445714Y-136310714D01*
X74398095Y-136215476D01*
X74398095Y-136167857D01*
X74445714Y-136072619D01*
X74493333Y-136025000D01*
X74588571Y-135977381D01*
X74779048Y-135977381D01*
X74874286Y-136025000D01*
X74921905Y-136072619D01*
X74969524Y-136167857D01*
X74969524Y-136215476D01*
X74921905Y-136310714D01*
X74874286Y-136358333D01*
X74779048Y-136405952D01*
X74588571Y-136405952D01*
X74493333Y-136453571D01*
X74445714Y-136501190D01*
X74398095Y-136596429D01*
X74398095Y-136786905D01*
X74445714Y-136882143D01*
X74493333Y-136929762D01*
X74588571Y-136977381D01*
X74779048Y-136977381D01*
X74874286Y-136929762D01*
X74921905Y-136882143D01*
X74969524Y-136786905D01*
X74969524Y-136596429D01*
X74921905Y-136501190D01*
X74874286Y-136453571D01*
X74779048Y-136405952D01*
X111069524Y-87352143D02*
X111021905Y-87399762D01*
X110879048Y-87447381D01*
X110783810Y-87447381D01*
X110640952Y-87399762D01*
X110545714Y-87304524D01*
X110498095Y-87209286D01*
X110450476Y-87018810D01*
X110450476Y-86875952D01*
X110498095Y-86685476D01*
X110545714Y-86590238D01*
X110640952Y-86495000D01*
X110783810Y-86447381D01*
X110879048Y-86447381D01*
X111021905Y-86495000D01*
X111069524Y-86542619D01*
X111498095Y-87447381D02*
X111498095Y-86447381D01*
X112069524Y-87447381D01*
X112069524Y-86447381D01*
X112688571Y-86875952D02*
X112593333Y-86828333D01*
X112545714Y-86780714D01*
X112498095Y-86685476D01*
X112498095Y-86637857D01*
X112545714Y-86542619D01*
X112593333Y-86495000D01*
X112688571Y-86447381D01*
X112879048Y-86447381D01*
X112974286Y-86495000D01*
X113021905Y-86542619D01*
X113069524Y-86637857D01*
X113069524Y-86685476D01*
X113021905Y-86780714D01*
X112974286Y-86828333D01*
X112879048Y-86875952D01*
X112688571Y-86875952D01*
X112593333Y-86923571D01*
X112545714Y-86971190D01*
X112498095Y-87066429D01*
X112498095Y-87256905D01*
X112545714Y-87352143D01*
X112593333Y-87399762D01*
X112688571Y-87447381D01*
X112879048Y-87447381D01*
X112974286Y-87399762D01*
X113021905Y-87352143D01*
X113069524Y-87256905D01*
X113069524Y-87066429D01*
X113021905Y-86971190D01*
X112974286Y-86923571D01*
X112879048Y-86875952D01*
X133707143Y-136580476D02*
X133754762Y-136628095D01*
X133802381Y-136770952D01*
X133802381Y-136866190D01*
X133754762Y-137009048D01*
X133659524Y-137104286D01*
X133564286Y-137151905D01*
X133373810Y-137199524D01*
X133230952Y-137199524D01*
X133040476Y-137151905D01*
X132945238Y-137104286D01*
X132850000Y-137009048D01*
X132802381Y-136866190D01*
X132802381Y-136770952D01*
X132850000Y-136628095D01*
X132897619Y-136580476D01*
X133802381Y-136151905D02*
X132802381Y-136151905D01*
X133802381Y-135580476D01*
X132802381Y-135580476D01*
X133135714Y-134675714D02*
X133802381Y-134675714D01*
X132754762Y-134913810D02*
X133469048Y-135151905D01*
X133469048Y-134532857D01*
X95607143Y-136580476D02*
X95654762Y-136628095D01*
X95702381Y-136770952D01*
X95702381Y-136866190D01*
X95654762Y-137009048D01*
X95559524Y-137104286D01*
X95464286Y-137151905D01*
X95273810Y-137199524D01*
X95130952Y-137199524D01*
X94940476Y-137151905D01*
X94845238Y-137104286D01*
X94750000Y-137009048D01*
X94702381Y-136866190D01*
X94702381Y-136770952D01*
X94750000Y-136628095D01*
X94797619Y-136580476D01*
X95702381Y-136151905D02*
X94702381Y-136151905D01*
X95702381Y-135580476D01*
X94702381Y-135580476D01*
X95035714Y-134675714D02*
X95702381Y-134675714D01*
X94654762Y-134913810D02*
X95369048Y-135151905D01*
X95369048Y-134532857D01*
X133707143Y-87050476D02*
X133754762Y-87098095D01*
X133802381Y-87240952D01*
X133802381Y-87336190D01*
X133754762Y-87479048D01*
X133659524Y-87574286D01*
X133564286Y-87621905D01*
X133373810Y-87669524D01*
X133230952Y-87669524D01*
X133040476Y-87621905D01*
X132945238Y-87574286D01*
X132850000Y-87479048D01*
X132802381Y-87336190D01*
X132802381Y-87240952D01*
X132850000Y-87098095D01*
X132897619Y-87050476D01*
X133802381Y-86621905D02*
X132802381Y-86621905D01*
X133802381Y-86050476D01*
X132802381Y-86050476D01*
X133135714Y-85145714D02*
X133802381Y-85145714D01*
X132754762Y-85383810D02*
X133469048Y-85621905D01*
X133469048Y-85002857D01*
X112339524Y-102167143D02*
X112291905Y-102214762D01*
X112149048Y-102262381D01*
X112053810Y-102262381D01*
X111910952Y-102214762D01*
X111815714Y-102119524D01*
X111768095Y-102024286D01*
X111720476Y-101833810D01*
X111720476Y-101690952D01*
X111768095Y-101500476D01*
X111815714Y-101405238D01*
X111910952Y-101310000D01*
X112053810Y-101262381D01*
X112149048Y-101262381D01*
X112291905Y-101310000D01*
X112339524Y-101357619D01*
X112768095Y-102262381D02*
X112768095Y-101262381D01*
X113339524Y-102262381D01*
X113339524Y-101262381D01*
X114244286Y-101262381D02*
X114053809Y-101262381D01*
X113958571Y-101310000D01*
X113910952Y-101357619D01*
X113815714Y-101500476D01*
X113768095Y-101690952D01*
X113768095Y-102071905D01*
X113815714Y-102167143D01*
X113863333Y-102214762D01*
X113958571Y-102262381D01*
X114149048Y-102262381D01*
X114244286Y-102214762D01*
X114291905Y-102167143D01*
X114339524Y-102071905D01*
X114339524Y-101833810D01*
X114291905Y-101738571D01*
X114244286Y-101690952D01*
X114149048Y-101643333D01*
X113958571Y-101643333D01*
X113863333Y-101690952D01*
X113815714Y-101738571D01*
X113768095Y-101833810D01*
X74239524Y-102167143D02*
X74191905Y-102214762D01*
X74049048Y-102262381D01*
X73953810Y-102262381D01*
X73810952Y-102214762D01*
X73715714Y-102119524D01*
X73668095Y-102024286D01*
X73620476Y-101833810D01*
X73620476Y-101690952D01*
X73668095Y-101500476D01*
X73715714Y-101405238D01*
X73810952Y-101310000D01*
X73953810Y-101262381D01*
X74049048Y-101262381D01*
X74191905Y-101310000D01*
X74239524Y-101357619D01*
X74668095Y-102262381D02*
X74668095Y-101262381D01*
X75239524Y-102262381D01*
X75239524Y-101262381D01*
X76144286Y-101262381D02*
X75953809Y-101262381D01*
X75858571Y-101310000D01*
X75810952Y-101357619D01*
X75715714Y-101500476D01*
X75668095Y-101690952D01*
X75668095Y-102071905D01*
X75715714Y-102167143D01*
X75763333Y-102214762D01*
X75858571Y-102262381D01*
X76049048Y-102262381D01*
X76144286Y-102214762D01*
X76191905Y-102167143D01*
X76239524Y-102071905D01*
X76239524Y-101833810D01*
X76191905Y-101738571D01*
X76144286Y-101690952D01*
X76049048Y-101643333D01*
X75858571Y-101643333D01*
X75763333Y-101690952D01*
X75715714Y-101738571D01*
X75668095Y-101833810D01*
X112339524Y-52637143D02*
X112291905Y-52684762D01*
X112149048Y-52732381D01*
X112053810Y-52732381D01*
X111910952Y-52684762D01*
X111815714Y-52589524D01*
X111768095Y-52494286D01*
X111720476Y-52303810D01*
X111720476Y-52160952D01*
X111768095Y-51970476D01*
X111815714Y-51875238D01*
X111910952Y-51780000D01*
X112053810Y-51732381D01*
X112149048Y-51732381D01*
X112291905Y-51780000D01*
X112339524Y-51827619D01*
X112768095Y-52732381D02*
X112768095Y-51732381D01*
X113339524Y-52732381D01*
X113339524Y-51732381D01*
X114244286Y-51732381D02*
X114053809Y-51732381D01*
X113958571Y-51780000D01*
X113910952Y-51827619D01*
X113815714Y-51970476D01*
X113768095Y-52160952D01*
X113768095Y-52541905D01*
X113815714Y-52637143D01*
X113863333Y-52684762D01*
X113958571Y-52732381D01*
X114149048Y-52732381D01*
X114244286Y-52684762D01*
X114291905Y-52637143D01*
X114339524Y-52541905D01*
X114339524Y-52303810D01*
X114291905Y-52208571D01*
X114244286Y-52160952D01*
X114149048Y-52113333D01*
X113958571Y-52113333D01*
X113863333Y-52160952D01*
X113815714Y-52208571D01*
X113768095Y-52303810D01*
X133707143Y-128960476D02*
X133754762Y-129008095D01*
X133802381Y-129150952D01*
X133802381Y-129246190D01*
X133754762Y-129389048D01*
X133659524Y-129484286D01*
X133564286Y-129531905D01*
X133373810Y-129579524D01*
X133230952Y-129579524D01*
X133040476Y-129531905D01*
X132945238Y-129484286D01*
X132850000Y-129389048D01*
X132802381Y-129246190D01*
X132802381Y-129150952D01*
X132850000Y-129008095D01*
X132897619Y-128960476D01*
X133802381Y-128531905D02*
X132802381Y-128531905D01*
X133802381Y-127960476D01*
X132802381Y-127960476D01*
X132802381Y-127008095D02*
X132802381Y-127484286D01*
X133278571Y-127531905D01*
X133230952Y-127484286D01*
X133183333Y-127389048D01*
X133183333Y-127150952D01*
X133230952Y-127055714D01*
X133278571Y-127008095D01*
X133373810Y-126960476D01*
X133611905Y-126960476D01*
X133707143Y-127008095D01*
X133754762Y-127055714D01*
X133802381Y-127150952D01*
X133802381Y-127389048D01*
X133754762Y-127484286D01*
X133707143Y-127531905D01*
X95607143Y-128960476D02*
X95654762Y-129008095D01*
X95702381Y-129150952D01*
X95702381Y-129246190D01*
X95654762Y-129389048D01*
X95559524Y-129484286D01*
X95464286Y-129531905D01*
X95273810Y-129579524D01*
X95130952Y-129579524D01*
X94940476Y-129531905D01*
X94845238Y-129484286D01*
X94750000Y-129389048D01*
X94702381Y-129246190D01*
X94702381Y-129150952D01*
X94750000Y-129008095D01*
X94797619Y-128960476D01*
X95702381Y-128531905D02*
X94702381Y-128531905D01*
X95702381Y-127960476D01*
X94702381Y-127960476D01*
X94702381Y-127008095D02*
X94702381Y-127484286D01*
X95178571Y-127531905D01*
X95130952Y-127484286D01*
X95083333Y-127389048D01*
X95083333Y-127150952D01*
X95130952Y-127055714D01*
X95178571Y-127008095D01*
X95273810Y-126960476D01*
X95511905Y-126960476D01*
X95607143Y-127008095D01*
X95654762Y-127055714D01*
X95702381Y-127150952D01*
X95702381Y-127389048D01*
X95654762Y-127484286D01*
X95607143Y-127531905D01*
X133707143Y-79430476D02*
X133754762Y-79478095D01*
X133802381Y-79620952D01*
X133802381Y-79716190D01*
X133754762Y-79859048D01*
X133659524Y-79954286D01*
X133564286Y-80001905D01*
X133373810Y-80049524D01*
X133230952Y-80049524D01*
X133040476Y-80001905D01*
X132945238Y-79954286D01*
X132850000Y-79859048D01*
X132802381Y-79716190D01*
X132802381Y-79620952D01*
X132850000Y-79478095D01*
X132897619Y-79430476D01*
X133802381Y-79001905D02*
X132802381Y-79001905D01*
X133802381Y-78430476D01*
X132802381Y-78430476D01*
X132802381Y-77478095D02*
X132802381Y-77954286D01*
X133278571Y-78001905D01*
X133230952Y-77954286D01*
X133183333Y-77859048D01*
X133183333Y-77620952D01*
X133230952Y-77525714D01*
X133278571Y-77478095D01*
X133373810Y-77430476D01*
X133611905Y-77430476D01*
X133707143Y-77478095D01*
X133754762Y-77525714D01*
X133802381Y-77620952D01*
X133802381Y-77859048D01*
X133754762Y-77954286D01*
X133707143Y-78001905D01*
X128103334Y-121007143D02*
X128055715Y-121054762D01*
X127912858Y-121102381D01*
X127817620Y-121102381D01*
X127674762Y-121054762D01*
X127579524Y-120959524D01*
X127531905Y-120864286D01*
X127484286Y-120673810D01*
X127484286Y-120530952D01*
X127531905Y-120340476D01*
X127579524Y-120245238D01*
X127674762Y-120150000D01*
X127817620Y-120102381D01*
X127912858Y-120102381D01*
X128055715Y-120150000D01*
X128103334Y-120197619D01*
X128484286Y-120197619D02*
X128531905Y-120150000D01*
X128627143Y-120102381D01*
X128865239Y-120102381D01*
X128960477Y-120150000D01*
X129008096Y-120197619D01*
X129055715Y-120292857D01*
X129055715Y-120388095D01*
X129008096Y-120530952D01*
X128436667Y-121102381D01*
X129055715Y-121102381D01*
X90003334Y-121007143D02*
X89955715Y-121054762D01*
X89812858Y-121102381D01*
X89717620Y-121102381D01*
X89574762Y-121054762D01*
X89479524Y-120959524D01*
X89431905Y-120864286D01*
X89384286Y-120673810D01*
X89384286Y-120530952D01*
X89431905Y-120340476D01*
X89479524Y-120245238D01*
X89574762Y-120150000D01*
X89717620Y-120102381D01*
X89812858Y-120102381D01*
X89955715Y-120150000D01*
X90003334Y-120197619D01*
X90384286Y-120197619D02*
X90431905Y-120150000D01*
X90527143Y-120102381D01*
X90765239Y-120102381D01*
X90860477Y-120150000D01*
X90908096Y-120197619D01*
X90955715Y-120292857D01*
X90955715Y-120388095D01*
X90908096Y-120530952D01*
X90336667Y-121102381D01*
X90955715Y-121102381D01*
X128103334Y-71477143D02*
X128055715Y-71524762D01*
X127912858Y-71572381D01*
X127817620Y-71572381D01*
X127674762Y-71524762D01*
X127579524Y-71429524D01*
X127531905Y-71334286D01*
X127484286Y-71143810D01*
X127484286Y-71000952D01*
X127531905Y-70810476D01*
X127579524Y-70715238D01*
X127674762Y-70620000D01*
X127817620Y-70572381D01*
X127912858Y-70572381D01*
X128055715Y-70620000D01*
X128103334Y-70667619D01*
X128484286Y-70667619D02*
X128531905Y-70620000D01*
X128627143Y-70572381D01*
X128865239Y-70572381D01*
X128960477Y-70620000D01*
X129008096Y-70667619D01*
X129055715Y-70762857D01*
X129055715Y-70858095D01*
X129008096Y-71000952D01*
X128436667Y-71572381D01*
X129055715Y-71572381D01*
X120483334Y-121007143D02*
X120435715Y-121054762D01*
X120292858Y-121102381D01*
X120197620Y-121102381D01*
X120054762Y-121054762D01*
X119959524Y-120959524D01*
X119911905Y-120864286D01*
X119864286Y-120673810D01*
X119864286Y-120530952D01*
X119911905Y-120340476D01*
X119959524Y-120245238D01*
X120054762Y-120150000D01*
X120197620Y-120102381D01*
X120292858Y-120102381D01*
X120435715Y-120150000D01*
X120483334Y-120197619D01*
X121435715Y-121102381D02*
X120864286Y-121102381D01*
X121150000Y-121102381D02*
X121150000Y-120102381D01*
X121054762Y-120245238D01*
X120959524Y-120340476D01*
X120864286Y-120388095D01*
X82383334Y-121007143D02*
X82335715Y-121054762D01*
X82192858Y-121102381D01*
X82097620Y-121102381D01*
X81954762Y-121054762D01*
X81859524Y-120959524D01*
X81811905Y-120864286D01*
X81764286Y-120673810D01*
X81764286Y-120530952D01*
X81811905Y-120340476D01*
X81859524Y-120245238D01*
X81954762Y-120150000D01*
X82097620Y-120102381D01*
X82192858Y-120102381D01*
X82335715Y-120150000D01*
X82383334Y-120197619D01*
X83335715Y-121102381D02*
X82764286Y-121102381D01*
X83050000Y-121102381D02*
X83050000Y-120102381D01*
X82954762Y-120245238D01*
X82859524Y-120340476D01*
X82764286Y-120388095D01*
X120483334Y-71477143D02*
X120435715Y-71524762D01*
X120292858Y-71572381D01*
X120197620Y-71572381D01*
X120054762Y-71524762D01*
X119959524Y-71429524D01*
X119911905Y-71334286D01*
X119864286Y-71143810D01*
X119864286Y-71000952D01*
X119911905Y-70810476D01*
X119959524Y-70715238D01*
X120054762Y-70620000D01*
X120197620Y-70572381D01*
X120292858Y-70572381D01*
X120435715Y-70620000D01*
X120483334Y-70667619D01*
X121435715Y-71572381D02*
X120864286Y-71572381D01*
X121150000Y-71572381D02*
X121150000Y-70572381D01*
X121054762Y-70715238D01*
X120959524Y-70810476D01*
X120864286Y-70858095D01*
X137739524Y-102167143D02*
X137691905Y-102214762D01*
X137549048Y-102262381D01*
X137453810Y-102262381D01*
X137310952Y-102214762D01*
X137215714Y-102119524D01*
X137168095Y-102024286D01*
X137120476Y-101833810D01*
X137120476Y-101690952D01*
X137168095Y-101500476D01*
X137215714Y-101405238D01*
X137310952Y-101310000D01*
X137453810Y-101262381D01*
X137549048Y-101262381D01*
X137691905Y-101310000D01*
X137739524Y-101357619D01*
X138168095Y-102262381D02*
X138168095Y-101262381D01*
X138739524Y-102262381D01*
X138739524Y-101262381D01*
X139120476Y-101262381D02*
X139787143Y-101262381D01*
X139358571Y-102262381D01*
X99639524Y-102167143D02*
X99591905Y-102214762D01*
X99449048Y-102262381D01*
X99353810Y-102262381D01*
X99210952Y-102214762D01*
X99115714Y-102119524D01*
X99068095Y-102024286D01*
X99020476Y-101833810D01*
X99020476Y-101690952D01*
X99068095Y-101500476D01*
X99115714Y-101405238D01*
X99210952Y-101310000D01*
X99353810Y-101262381D01*
X99449048Y-101262381D01*
X99591905Y-101310000D01*
X99639524Y-101357619D01*
X100068095Y-102262381D02*
X100068095Y-101262381D01*
X100639524Y-102262381D01*
X100639524Y-101262381D01*
X101020476Y-101262381D02*
X101687143Y-101262381D01*
X101258571Y-102262381D01*
X137739524Y-52637143D02*
X137691905Y-52684762D01*
X137549048Y-52732381D01*
X137453810Y-52732381D01*
X137310952Y-52684762D01*
X137215714Y-52589524D01*
X137168095Y-52494286D01*
X137120476Y-52303810D01*
X137120476Y-52160952D01*
X137168095Y-51970476D01*
X137215714Y-51875238D01*
X137310952Y-51780000D01*
X137453810Y-51732381D01*
X137549048Y-51732381D01*
X137691905Y-51780000D01*
X137739524Y-51827619D01*
X138168095Y-52732381D02*
X138168095Y-51732381D01*
X138739524Y-52732381D01*
X138739524Y-51732381D01*
X139120476Y-51732381D02*
X139787143Y-51732381D01*
X139358571Y-52732381D01*
X82383334Y-71477143D02*
X82335715Y-71524762D01*
X82192858Y-71572381D01*
X82097620Y-71572381D01*
X81954762Y-71524762D01*
X81859524Y-71429524D01*
X81811905Y-71334286D01*
X81764286Y-71143810D01*
X81764286Y-71000952D01*
X81811905Y-70810476D01*
X81859524Y-70715238D01*
X81954762Y-70620000D01*
X82097620Y-70572381D01*
X82192858Y-70572381D01*
X82335715Y-70620000D01*
X82383334Y-70667619D01*
X83335715Y-71572381D02*
X82764286Y-71572381D01*
X83050000Y-71572381D02*
X83050000Y-70572381D01*
X82954762Y-70715238D01*
X82859524Y-70810476D01*
X82764286Y-70858095D01*
X90003334Y-71477143D02*
X89955715Y-71524762D01*
X89812858Y-71572381D01*
X89717620Y-71572381D01*
X89574762Y-71524762D01*
X89479524Y-71429524D01*
X89431905Y-71334286D01*
X89384286Y-71143810D01*
X89384286Y-71000952D01*
X89431905Y-70810476D01*
X89479524Y-70715238D01*
X89574762Y-70620000D01*
X89717620Y-70572381D01*
X89812858Y-70572381D01*
X89955715Y-70620000D01*
X90003334Y-70667619D01*
X90384286Y-70667619D02*
X90431905Y-70620000D01*
X90527143Y-70572381D01*
X90765239Y-70572381D01*
X90860477Y-70620000D01*
X90908096Y-70667619D01*
X90955715Y-70762857D01*
X90955715Y-70858095D01*
X90908096Y-71000952D01*
X90336667Y-71572381D01*
X90955715Y-71572381D01*
X95607143Y-87050476D02*
X95654762Y-87098095D01*
X95702381Y-87240952D01*
X95702381Y-87336190D01*
X95654762Y-87479048D01*
X95559524Y-87574286D01*
X95464286Y-87621905D01*
X95273810Y-87669524D01*
X95130952Y-87669524D01*
X94940476Y-87621905D01*
X94845238Y-87574286D01*
X94750000Y-87479048D01*
X94702381Y-87336190D01*
X94702381Y-87240952D01*
X94750000Y-87098095D01*
X94797619Y-87050476D01*
X95702381Y-86621905D02*
X94702381Y-86621905D01*
X95702381Y-86050476D01*
X94702381Y-86050476D01*
X95035714Y-85145714D02*
X95702381Y-85145714D01*
X94654762Y-85383810D02*
X95369048Y-85621905D01*
X95369048Y-85002857D01*
X95607143Y-79430476D02*
X95654762Y-79478095D01*
X95702381Y-79620952D01*
X95702381Y-79716190D01*
X95654762Y-79859048D01*
X95559524Y-79954286D01*
X95464286Y-80001905D01*
X95273810Y-80049524D01*
X95130952Y-80049524D01*
X94940476Y-80001905D01*
X94845238Y-79954286D01*
X94750000Y-79859048D01*
X94702381Y-79716190D01*
X94702381Y-79620952D01*
X94750000Y-79478095D01*
X94797619Y-79430476D01*
X95702381Y-79001905D02*
X94702381Y-79001905D01*
X95702381Y-78430476D01*
X94702381Y-78430476D01*
X94702381Y-77478095D02*
X94702381Y-77954286D01*
X95178571Y-78001905D01*
X95130952Y-77954286D01*
X95083333Y-77859048D01*
X95083333Y-77620952D01*
X95130952Y-77525714D01*
X95178571Y-77478095D01*
X95273810Y-77430476D01*
X95511905Y-77430476D01*
X95607143Y-77478095D01*
X95654762Y-77525714D01*
X95702381Y-77620952D01*
X95702381Y-77859048D01*
X95654762Y-77954286D01*
X95607143Y-78001905D01*
X74239524Y-52637143D02*
X74191905Y-52684762D01*
X74049048Y-52732381D01*
X73953810Y-52732381D01*
X73810952Y-52684762D01*
X73715714Y-52589524D01*
X73668095Y-52494286D01*
X73620476Y-52303810D01*
X73620476Y-52160952D01*
X73668095Y-51970476D01*
X73715714Y-51875238D01*
X73810952Y-51780000D01*
X73953810Y-51732381D01*
X74049048Y-51732381D01*
X74191905Y-51780000D01*
X74239524Y-51827619D01*
X74668095Y-52732381D02*
X74668095Y-51732381D01*
X75239524Y-52732381D01*
X75239524Y-51732381D01*
X76144286Y-51732381D02*
X75953809Y-51732381D01*
X75858571Y-51780000D01*
X75810952Y-51827619D01*
X75715714Y-51970476D01*
X75668095Y-52160952D01*
X75668095Y-52541905D01*
X75715714Y-52637143D01*
X75763333Y-52684762D01*
X75858571Y-52732381D01*
X76049048Y-52732381D01*
X76144286Y-52684762D01*
X76191905Y-52637143D01*
X76239524Y-52541905D01*
X76239524Y-52303810D01*
X76191905Y-52208571D01*
X76144286Y-52160952D01*
X76049048Y-52113333D01*
X75858571Y-52113333D01*
X75763333Y-52160952D01*
X75715714Y-52208571D01*
X75668095Y-52303810D01*
X99639524Y-52637143D02*
X99591905Y-52684762D01*
X99449048Y-52732381D01*
X99353810Y-52732381D01*
X99210952Y-52684762D01*
X99115714Y-52589524D01*
X99068095Y-52494286D01*
X99020476Y-52303810D01*
X99020476Y-52160952D01*
X99068095Y-51970476D01*
X99115714Y-51875238D01*
X99210952Y-51780000D01*
X99353810Y-51732381D01*
X99449048Y-51732381D01*
X99591905Y-51780000D01*
X99639524Y-51827619D01*
X100068095Y-52732381D02*
X100068095Y-51732381D01*
X100639524Y-52732381D01*
X100639524Y-51732381D01*
X101020476Y-51732381D02*
X101687143Y-51732381D01*
X101258571Y-52732381D01*
X72969524Y-87352143D02*
X72921905Y-87399762D01*
X72779048Y-87447381D01*
X72683810Y-87447381D01*
X72540952Y-87399762D01*
X72445714Y-87304524D01*
X72398095Y-87209286D01*
X72350476Y-87018810D01*
X72350476Y-86875952D01*
X72398095Y-86685476D01*
X72445714Y-86590238D01*
X72540952Y-86495000D01*
X72683810Y-86447381D01*
X72779048Y-86447381D01*
X72921905Y-86495000D01*
X72969524Y-86542619D01*
X73398095Y-87447381D02*
X73398095Y-86447381D01*
X73969524Y-87447381D01*
X73969524Y-86447381D01*
X74588571Y-86875952D02*
X74493333Y-86828333D01*
X74445714Y-86780714D01*
X74398095Y-86685476D01*
X74398095Y-86637857D01*
X74445714Y-86542619D01*
X74493333Y-86495000D01*
X74588571Y-86447381D01*
X74779048Y-86447381D01*
X74874286Y-86495000D01*
X74921905Y-86542619D01*
X74969524Y-86637857D01*
X74969524Y-86685476D01*
X74921905Y-86780714D01*
X74874286Y-86828333D01*
X74779048Y-86875952D01*
X74588571Y-86875952D01*
X74493333Y-86923571D01*
X74445714Y-86971190D01*
X74398095Y-87066429D01*
X74398095Y-87256905D01*
X74445714Y-87352143D01*
X74493333Y-87399762D01*
X74588571Y-87447381D01*
X74779048Y-87447381D01*
X74874286Y-87399762D01*
X74921905Y-87352143D01*
X74969524Y-87256905D01*
X74969524Y-87066429D01*
X74921905Y-86971190D01*
X74874286Y-86923571D01*
X74779048Y-86875952D01*
X66976667Y-88352381D02*
X66976667Y-89066667D01*
X66929047Y-89209524D01*
X66833809Y-89304762D01*
X66690952Y-89352381D01*
X66595714Y-89352381D01*
X67976667Y-89352381D02*
X67405238Y-89352381D01*
X67690952Y-89352381D02*
X67690952Y-88352381D01*
X67595714Y-88495238D01*
X67500476Y-88590476D01*
X67405238Y-88638095D01*
X70318334Y-82907143D02*
X70270715Y-82954762D01*
X70127858Y-83002381D01*
X70032620Y-83002381D01*
X69889762Y-82954762D01*
X69794524Y-82859524D01*
X69746905Y-82764286D01*
X69699286Y-82573810D01*
X69699286Y-82430952D01*
X69746905Y-82240476D01*
X69794524Y-82145238D01*
X69889762Y-82050000D01*
X70032620Y-82002381D01*
X70127858Y-82002381D01*
X70270715Y-82050000D01*
X70318334Y-82097619D01*
X70651667Y-82002381D02*
X71270715Y-82002381D01*
X70937381Y-82383333D01*
X71080239Y-82383333D01*
X71175477Y-82430952D01*
X71223096Y-82478571D01*
X71270715Y-82573810D01*
X71270715Y-82811905D01*
X71223096Y-82907143D01*
X71175477Y-82954762D01*
X71080239Y-83002381D01*
X70794524Y-83002381D01*
X70699286Y-82954762D01*
X70651667Y-82907143D01*
X73112381Y-82883333D02*
X73826667Y-82883333D01*
X73969524Y-82930953D01*
X74064762Y-83026191D01*
X74112381Y-83169048D01*
X74112381Y-83264286D01*
X73207619Y-82454762D02*
X73160000Y-82407143D01*
X73112381Y-82311905D01*
X73112381Y-82073809D01*
X73160000Y-81978571D01*
X73207619Y-81930952D01*
X73302857Y-81883333D01*
X73398095Y-81883333D01*
X73540952Y-81930952D01*
X74112381Y-82502381D01*
X74112381Y-81883333D01*
%LPC*%
D15*
X124460000Y-116690000D03*
D16*
X121920000Y-133350000D03*
D17*
X124460000Y-133350000D03*
X127000000Y-133350000D03*
D15*
X86360000Y-116690000D03*
D16*
X83820000Y-133350000D03*
D17*
X86360000Y-133350000D03*
X88900000Y-133350000D03*
D15*
X124460000Y-67160000D03*
D16*
X121920000Y-83820000D03*
D17*
X124460000Y-83820000D03*
X127000000Y-83820000D03*
D16*
X120650000Y-130810000D03*
D17*
X123190000Y-130810000D03*
X125730000Y-130810000D03*
X128270000Y-130810000D03*
D16*
X82550000Y-130810000D03*
D17*
X85090000Y-130810000D03*
X87630000Y-130810000D03*
X90170000Y-130810000D03*
D16*
X120650000Y-81280000D03*
D17*
X123190000Y-81280000D03*
X125730000Y-81280000D03*
X128270000Y-81280000D03*
D18*
X134620000Y-107950000D03*
D19*
X134620000Y-110490000D03*
X134620000Y-113030000D03*
X134620000Y-115570000D03*
X134620000Y-118110000D03*
X134620000Y-120650000D03*
X134620000Y-123190000D03*
D18*
X96520000Y-107950000D03*
D19*
X96520000Y-110490000D03*
X96520000Y-113030000D03*
X96520000Y-115570000D03*
X96520000Y-118110000D03*
X96520000Y-120650000D03*
X96520000Y-123190000D03*
D18*
X134620000Y-58420000D03*
D19*
X134620000Y-60960000D03*
X134620000Y-63500000D03*
X134620000Y-66040000D03*
X134620000Y-68580000D03*
X134620000Y-71120000D03*
X134620000Y-73660000D03*
D18*
X106680000Y-107950000D03*
D19*
X106680000Y-110490000D03*
X106680000Y-113030000D03*
X106680000Y-115570000D03*
X106680000Y-118110000D03*
X106680000Y-120650000D03*
X106680000Y-123190000D03*
X106680000Y-125730000D03*
D18*
X68580000Y-107950000D03*
D19*
X68580000Y-110490000D03*
X68580000Y-113030000D03*
X68580000Y-115570000D03*
X68580000Y-118110000D03*
X68580000Y-120650000D03*
X68580000Y-123190000D03*
X68580000Y-125730000D03*
D18*
X106680000Y-58420000D03*
D19*
X106680000Y-60960000D03*
X106680000Y-63500000D03*
X106680000Y-66040000D03*
X106680000Y-68580000D03*
X106680000Y-71120000D03*
X106680000Y-73660000D03*
X106680000Y-76200000D03*
D18*
X127000000Y-101600000D03*
D19*
X127000000Y-99060000D03*
X124460000Y-101600000D03*
X124460000Y-99060000D03*
X121920000Y-101600000D03*
X121920000Y-99060000D03*
X119380000Y-101600000D03*
X119380000Y-99060000D03*
D18*
X88900000Y-101600000D03*
D19*
X88900000Y-99060000D03*
X86360000Y-101600000D03*
X86360000Y-99060000D03*
X83820000Y-101600000D03*
X83820000Y-99060000D03*
X81280000Y-101600000D03*
X81280000Y-99060000D03*
D18*
X127000000Y-52070000D03*
D19*
X127000000Y-49530000D03*
X124460000Y-52070000D03*
X124460000Y-49530000D03*
X121920000Y-52070000D03*
X121920000Y-49530000D03*
X119380000Y-52070000D03*
X119380000Y-49530000D03*
D18*
X114300000Y-130810000D03*
D19*
X114300000Y-133350000D03*
D18*
X76200000Y-130810000D03*
D19*
X76200000Y-133350000D03*
D18*
X114300000Y-81280000D03*
D19*
X114300000Y-83820000D03*
D20*
X106680000Y-135890000D03*
D21*
X106680000Y-133890000D03*
D20*
X68580000Y-135890000D03*
D21*
X68580000Y-133890000D03*
D20*
X106680000Y-86360000D03*
D21*
X106680000Y-84360000D03*
D18*
X105410000Y-143510000D03*
D19*
X105410000Y-140970000D03*
D18*
X67310000Y-143510000D03*
D19*
X67310000Y-140970000D03*
D18*
X105410000Y-93980000D03*
D19*
X105410000Y-91440000D03*
D22*
X110490000Y-143040000D03*
X115490000Y-143040000D03*
X120490000Y-143040000D03*
X125490000Y-143040000D03*
X130490000Y-143040000D03*
X135490000Y-143040000D03*
X72390000Y-143040000D03*
X77390000Y-143040000D03*
X82390000Y-143040000D03*
X87390000Y-143040000D03*
X92390000Y-143040000D03*
X97390000Y-143040000D03*
X110490000Y-93510000D03*
X115490000Y-93510000D03*
X120490000Y-93510000D03*
X125490000Y-93510000D03*
X130490000Y-93510000D03*
X135490000Y-93510000D03*
D18*
X118110000Y-135890000D03*
D19*
X120650000Y-135890000D03*
X123190000Y-135890000D03*
X125730000Y-135890000D03*
X128270000Y-135890000D03*
X130810000Y-135890000D03*
D18*
X80010000Y-135890000D03*
D19*
X82550000Y-135890000D03*
X85090000Y-135890000D03*
X87630000Y-135890000D03*
X90170000Y-135890000D03*
X92710000Y-135890000D03*
D18*
X118110000Y-86360000D03*
D19*
X120650000Y-86360000D03*
X123190000Y-86360000D03*
X125730000Y-86360000D03*
X128270000Y-86360000D03*
X130810000Y-86360000D03*
D23*
X139065000Y-133350000D03*
X100965000Y-133350000D03*
X139065000Y-83820000D03*
X107315000Y-100965000D03*
X69215000Y-100965000D03*
X107315000Y-51435000D03*
D18*
X111760000Y-104140000D03*
D19*
X114300000Y-104140000D03*
X111760000Y-106680000D03*
X114300000Y-106680000D03*
X111760000Y-109220000D03*
X114300000Y-109220000D03*
X111760000Y-111760000D03*
X114300000Y-111760000D03*
X111760000Y-114300000D03*
X114300000Y-114300000D03*
X111760000Y-116840000D03*
X114300000Y-116840000D03*
X111760000Y-119380000D03*
X114300000Y-119380000D03*
X111760000Y-121920000D03*
X114300000Y-121920000D03*
X111760000Y-124460000D03*
X114300000Y-124460000D03*
X111760000Y-127000000D03*
X114300000Y-127000000D03*
D18*
X73660000Y-104140000D03*
D19*
X76200000Y-104140000D03*
X73660000Y-106680000D03*
X76200000Y-106680000D03*
X73660000Y-109220000D03*
X76200000Y-109220000D03*
X73660000Y-111760000D03*
X76200000Y-111760000D03*
X73660000Y-114300000D03*
X76200000Y-114300000D03*
X73660000Y-116840000D03*
X76200000Y-116840000D03*
X73660000Y-119380000D03*
X76200000Y-119380000D03*
X73660000Y-121920000D03*
X76200000Y-121920000D03*
X73660000Y-124460000D03*
X76200000Y-124460000D03*
X73660000Y-127000000D03*
X76200000Y-127000000D03*
D18*
X111760000Y-54610000D03*
D19*
X114300000Y-54610000D03*
X111760000Y-57150000D03*
X114300000Y-57150000D03*
X111760000Y-59690000D03*
X114300000Y-59690000D03*
X111760000Y-62230000D03*
X114300000Y-62230000D03*
X111760000Y-64770000D03*
X114300000Y-64770000D03*
X111760000Y-67310000D03*
X114300000Y-67310000D03*
X111760000Y-69850000D03*
X114300000Y-69850000D03*
X111760000Y-72390000D03*
X114300000Y-72390000D03*
X111760000Y-74930000D03*
X114300000Y-74930000D03*
X111760000Y-77470000D03*
X114300000Y-77470000D03*
D18*
X118110000Y-128270000D03*
D19*
X120650000Y-128270000D03*
X123190000Y-128270000D03*
X125730000Y-128270000D03*
X128270000Y-128270000D03*
X130810000Y-128270000D03*
D18*
X80010000Y-128270000D03*
D19*
X82550000Y-128270000D03*
X85090000Y-128270000D03*
X87630000Y-128270000D03*
X90170000Y-128270000D03*
X92710000Y-128270000D03*
D18*
X118110000Y-78740000D03*
D19*
X120650000Y-78740000D03*
X123190000Y-78740000D03*
X125730000Y-78740000D03*
X128270000Y-78740000D03*
X130810000Y-78740000D03*
D21*
X130810000Y-123190000D03*
X125810000Y-123190000D03*
X92710000Y-123190000D03*
X87710000Y-123190000D03*
X130810000Y-73660000D03*
X125810000Y-73660000D03*
X118110000Y-123190000D03*
X123110000Y-123190000D03*
X80010000Y-123190000D03*
X85010000Y-123190000D03*
X118110000Y-73660000D03*
X123110000Y-73660000D03*
D18*
X137160000Y-104140000D03*
D19*
X139700000Y-104140000D03*
X137160000Y-106680000D03*
X139700000Y-106680000D03*
X137160000Y-109220000D03*
X139700000Y-109220000D03*
X137160000Y-111760000D03*
X139700000Y-111760000D03*
X137160000Y-114300000D03*
X139700000Y-114300000D03*
X137160000Y-116840000D03*
X139700000Y-116840000D03*
X137160000Y-119380000D03*
X139700000Y-119380000D03*
X137160000Y-121920000D03*
X139700000Y-121920000D03*
X137160000Y-124460000D03*
X139700000Y-124460000D03*
X137160000Y-127000000D03*
X139700000Y-127000000D03*
D18*
X99060000Y-104140000D03*
D19*
X101600000Y-104140000D03*
X99060000Y-106680000D03*
X101600000Y-106680000D03*
X99060000Y-109220000D03*
X101600000Y-109220000D03*
X99060000Y-111760000D03*
X101600000Y-111760000D03*
X99060000Y-114300000D03*
X101600000Y-114300000D03*
X99060000Y-116840000D03*
X101600000Y-116840000D03*
X99060000Y-119380000D03*
X101600000Y-119380000D03*
X99060000Y-121920000D03*
X101600000Y-121920000D03*
X99060000Y-124460000D03*
X101600000Y-124460000D03*
X99060000Y-127000000D03*
X101600000Y-127000000D03*
D18*
X137160000Y-54610000D03*
D19*
X139700000Y-54610000D03*
X137160000Y-57150000D03*
X139700000Y-57150000D03*
X137160000Y-59690000D03*
X139700000Y-59690000D03*
X137160000Y-62230000D03*
X139700000Y-62230000D03*
X137160000Y-64770000D03*
X139700000Y-64770000D03*
X137160000Y-67310000D03*
X139700000Y-67310000D03*
X137160000Y-69850000D03*
X139700000Y-69850000D03*
X137160000Y-72390000D03*
X139700000Y-72390000D03*
X137160000Y-74930000D03*
X139700000Y-74930000D03*
X137160000Y-77470000D03*
X139700000Y-77470000D03*
D21*
X80010000Y-73660000D03*
X85010000Y-73660000D03*
X92710000Y-73660000D03*
X87710000Y-73660000D03*
D18*
X88900000Y-52070000D03*
D19*
X88900000Y-49530000D03*
X86360000Y-52070000D03*
X86360000Y-49530000D03*
X83820000Y-52070000D03*
X83820000Y-49530000D03*
X81280000Y-52070000D03*
X81280000Y-49530000D03*
D18*
X68580000Y-58420000D03*
D19*
X68580000Y-60960000D03*
X68580000Y-63500000D03*
X68580000Y-66040000D03*
X68580000Y-68580000D03*
X68580000Y-71120000D03*
X68580000Y-73660000D03*
X68580000Y-76200000D03*
D18*
X96520000Y-58420000D03*
D19*
X96520000Y-60960000D03*
X96520000Y-63500000D03*
X96520000Y-66040000D03*
X96520000Y-68580000D03*
X96520000Y-71120000D03*
X96520000Y-73660000D03*
D18*
X80010000Y-86360000D03*
D19*
X82550000Y-86360000D03*
X85090000Y-86360000D03*
X87630000Y-86360000D03*
X90170000Y-86360000D03*
X92710000Y-86360000D03*
D18*
X80010000Y-78740000D03*
D19*
X82550000Y-78740000D03*
X85090000Y-78740000D03*
X87630000Y-78740000D03*
X90170000Y-78740000D03*
X92710000Y-78740000D03*
D18*
X73660000Y-54610000D03*
D19*
X76200000Y-54610000D03*
X73660000Y-57150000D03*
X76200000Y-57150000D03*
X73660000Y-59690000D03*
X76200000Y-59690000D03*
X73660000Y-62230000D03*
X76200000Y-62230000D03*
X73660000Y-64770000D03*
X76200000Y-64770000D03*
X73660000Y-67310000D03*
X76200000Y-67310000D03*
X73660000Y-69850000D03*
X76200000Y-69850000D03*
X73660000Y-72390000D03*
X76200000Y-72390000D03*
X73660000Y-74930000D03*
X76200000Y-74930000D03*
X73660000Y-77470000D03*
X76200000Y-77470000D03*
D18*
X99060000Y-54610000D03*
D19*
X101600000Y-54610000D03*
X99060000Y-57150000D03*
X101600000Y-57150000D03*
X99060000Y-59690000D03*
X101600000Y-59690000D03*
X99060000Y-62230000D03*
X101600000Y-62230000D03*
X99060000Y-64770000D03*
X101600000Y-64770000D03*
X99060000Y-67310000D03*
X101600000Y-67310000D03*
X99060000Y-69850000D03*
X101600000Y-69850000D03*
X99060000Y-72390000D03*
X101600000Y-72390000D03*
X99060000Y-74930000D03*
X101600000Y-74930000D03*
X99060000Y-77470000D03*
X101600000Y-77470000D03*
D22*
X72390000Y-93510000D03*
X77390000Y-93510000D03*
X82390000Y-93510000D03*
X87390000Y-93510000D03*
X92390000Y-93510000D03*
X97390000Y-93510000D03*
D18*
X67310000Y-93980000D03*
D19*
X67310000Y-91440000D03*
D16*
X82550000Y-81280000D03*
D17*
X85090000Y-81280000D03*
X87630000Y-81280000D03*
X90170000Y-81280000D03*
D15*
X86360000Y-67160000D03*
D16*
X83820000Y-83820000D03*
D17*
X86360000Y-83820000D03*
X88900000Y-83820000D03*
D20*
X68580000Y-86360000D03*
D21*
X68580000Y-84360000D03*
D23*
X69215000Y-51435000D03*
X100965000Y-83820000D03*
D18*
X76200000Y-81280000D03*
D19*
X76200000Y-83820000D03*
M02*
