M48
;DRILL file {KiCad 4.0.7} date 06/11/20 11:22:35
;FORMAT={2:4/ absolute / inch / suppress leading zeros}
FMAT,2
INCH,TZ
T1C0.016
T2C0.031
T3C0.039
T4C0.058
T5C0.138
%
G90
G05
M72
T1
X27000Y-31250
X27000Y-31750
X27000Y-50750
X27000Y-51250
X27750Y-35250
X27750Y-54750
X28000Y-35000
X28000Y-54500
X31750Y-25500
X31750Y-45000
X32000Y-26500
X32000Y-46000
X32292Y-28481
X32292Y-47981
X32750Y-27000
X32750Y-46500
X35500Y-24668
X35500Y-44168
X37500Y-20000
X37500Y-39500
X38500Y-20000
X38500Y-39500
X39500Y-20000
X39500Y-39500
X42000Y-31250
X42000Y-31750
X42000Y-50750
X42000Y-51250
X42750Y-35250
X42750Y-54750
X43000Y-35000
X43000Y-54500
X46750Y-25500
X46750Y-45000
X47000Y-26500
X47000Y-46000
X47292Y-28481
X47292Y-47981
X47750Y-27000
X47750Y-46500
X50500Y-24668
X50500Y-44168
X52500Y-20000
X52500Y-39500
X53500Y-20000
X53500Y-39500
X54500Y-20000
X54500Y-39500
T2
X27000Y-33213
X27000Y-34000
X27000Y-52713
X27000Y-53500
X31500Y-29000
X31500Y-48500
X33469Y-29000
X33469Y-48500
X34531Y-29000
X34531Y-48500
X36500Y-29000
X36500Y-48500
X42000Y-33213
X42000Y-34000
X42000Y-52713
X42000Y-53500
X46500Y-29000
X46500Y-48500
X48469Y-29000
X48469Y-48500
X49531Y-29000
X49531Y-48500
X51500Y-29000
X51500Y-48500
T3
X26500Y-36000
X26500Y-37000
X26500Y-55500
X26500Y-56500
X27000Y-23000
X27000Y-24000
X27000Y-25000
X27000Y-26000
X27000Y-27000
X27000Y-28000
X27000Y-29000
X27000Y-30000
X27000Y-42500
X27000Y-43500
X27000Y-44500
X27000Y-45500
X27000Y-46500
X27000Y-47500
X27000Y-48500
X27000Y-49500
X29000Y-21500
X29000Y-22500
X29000Y-23500
X29000Y-24500
X29000Y-25500
X29000Y-26500
X29000Y-27500
X29000Y-28500
X29000Y-29500
X29000Y-30500
X29000Y-41000
X29000Y-42000
X29000Y-43000
X29000Y-44000
X29000Y-45000
X29000Y-46000
X29000Y-47000
X29000Y-48000
X29000Y-49000
X29000Y-50000
X30000Y-21500
X30000Y-22500
X30000Y-23500
X30000Y-24500
X30000Y-25500
X30000Y-26500
X30000Y-27500
X30000Y-28500
X30000Y-29500
X30000Y-30500
X30000Y-32000
X30000Y-33000
X30000Y-41000
X30000Y-42000
X30000Y-43000
X30000Y-44000
X30000Y-45000
X30000Y-46000
X30000Y-47000
X30000Y-48000
X30000Y-49000
X30000Y-50000
X30000Y-51500
X30000Y-52500
X31500Y-31000
X31500Y-34000
X31500Y-50500
X31500Y-53500
X32000Y-19500
X32000Y-20500
X32000Y-39000
X32000Y-40000
X32500Y-31000
X32500Y-32000
X32500Y-34000
X32500Y-50500
X32500Y-51500
X32500Y-53500
X33000Y-19500
X33000Y-20500
X33000Y-33000
X33000Y-39000
X33000Y-40000
X33000Y-52500
X33500Y-31000
X33500Y-32000
X33500Y-34000
X33500Y-50500
X33500Y-51500
X33500Y-53500
X34000Y-19500
X34000Y-20500
X34000Y-33000
X34000Y-39000
X34000Y-40000
X34000Y-52500
X34500Y-31000
X34500Y-32000
X34500Y-34000
X34500Y-50500
X34500Y-51500
X34500Y-53500
X35000Y-19500
X35000Y-20500
X35000Y-33000
X35000Y-39000
X35000Y-40000
X35000Y-52500
X35500Y-31000
X35500Y-32000
X35500Y-34000
X35500Y-50500
X35500Y-51500
X35500Y-53500
X36500Y-31000
X36500Y-34000
X36500Y-50500
X36500Y-53500
X38000Y-23000
X38000Y-24000
X38000Y-25000
X38000Y-26000
X38000Y-27000
X38000Y-28000
X38000Y-29000
X38000Y-42500
X38000Y-43500
X38000Y-44500
X38000Y-45500
X38000Y-46500
X38000Y-47500
X38000Y-48500
X39000Y-21500
X39000Y-22500
X39000Y-23500
X39000Y-24500
X39000Y-25500
X39000Y-26500
X39000Y-27500
X39000Y-28500
X39000Y-29500
X39000Y-30500
X39000Y-41000
X39000Y-42000
X39000Y-43000
X39000Y-44000
X39000Y-45000
X39000Y-46000
X39000Y-47000
X39000Y-48000
X39000Y-49000
X39000Y-50000
X40000Y-21500
X40000Y-22500
X40000Y-23500
X40000Y-24500
X40000Y-25500
X40000Y-26500
X40000Y-27500
X40000Y-28500
X40000Y-29500
X40000Y-30500
X40000Y-41000
X40000Y-42000
X40000Y-43000
X40000Y-44000
X40000Y-45000
X40000Y-46000
X40000Y-47000
X40000Y-48000
X40000Y-49000
X40000Y-50000
X41500Y-36000
X41500Y-37000
X41500Y-55500
X41500Y-56500
X42000Y-23000
X42000Y-24000
X42000Y-25000
X42000Y-26000
X42000Y-27000
X42000Y-28000
X42000Y-29000
X42000Y-30000
X42000Y-42500
X42000Y-43500
X42000Y-44500
X42000Y-45500
X42000Y-46500
X42000Y-47500
X42000Y-48500
X42000Y-49500
X44000Y-21500
X44000Y-22500
X44000Y-23500
X44000Y-24500
X44000Y-25500
X44000Y-26500
X44000Y-27500
X44000Y-28500
X44000Y-29500
X44000Y-30500
X44000Y-41000
X44000Y-42000
X44000Y-43000
X44000Y-44000
X44000Y-45000
X44000Y-46000
X44000Y-47000
X44000Y-48000
X44000Y-49000
X44000Y-50000
X45000Y-21500
X45000Y-22500
X45000Y-23500
X45000Y-24500
X45000Y-25500
X45000Y-26500
X45000Y-27500
X45000Y-28500
X45000Y-29500
X45000Y-30500
X45000Y-32000
X45000Y-33000
X45000Y-41000
X45000Y-42000
X45000Y-43000
X45000Y-44000
X45000Y-45000
X45000Y-46000
X45000Y-47000
X45000Y-48000
X45000Y-49000
X45000Y-50000
X45000Y-51500
X45000Y-52500
X46500Y-31000
X46500Y-34000
X46500Y-50500
X46500Y-53500
X47000Y-19500
X47000Y-20500
X47000Y-39000
X47000Y-40000
X47500Y-31000
X47500Y-32000
X47500Y-34000
X47500Y-50500
X47500Y-51500
X47500Y-53500
X48000Y-19500
X48000Y-20500
X48000Y-33000
X48000Y-39000
X48000Y-40000
X48000Y-52500
X48500Y-31000
X48500Y-32000
X48500Y-34000
X48500Y-50500
X48500Y-51500
X48500Y-53500
X49000Y-19500
X49000Y-20500
X49000Y-33000
X49000Y-39000
X49000Y-40000
X49000Y-52500
X49500Y-31000
X49500Y-32000
X49500Y-34000
X49500Y-50500
X49500Y-51500
X49500Y-53500
X50000Y-19500
X50000Y-20500
X50000Y-33000
X50000Y-39000
X50000Y-40000
X50000Y-52500
X50500Y-31000
X50500Y-32000
X50500Y-34000
X50500Y-50500
X50500Y-51500
X50500Y-53500
X51500Y-31000
X51500Y-34000
X51500Y-50500
X51500Y-53500
X53000Y-23000
X53000Y-24000
X53000Y-25000
X53000Y-26000
X53000Y-27000
X53000Y-28000
X53000Y-29000
X53000Y-42500
X53000Y-43500
X53000Y-44500
X53000Y-45500
X53000Y-46500
X53000Y-47500
X53000Y-48500
X54000Y-21500
X54000Y-22500
X54000Y-23500
X54000Y-24500
X54000Y-25500
X54000Y-26500
X54000Y-27500
X54000Y-28500
X54000Y-29500
X54000Y-30500
X54000Y-41000
X54000Y-42000
X54000Y-43000
X54000Y-44000
X54000Y-45000
X54000Y-46000
X54000Y-47000
X54000Y-48000
X54000Y-49000
X54000Y-50000
X55000Y-21500
X55000Y-22500
X55000Y-23500
X55000Y-24500
X55000Y-25500
X55000Y-26500
X55000Y-27500
X55000Y-28500
X55000Y-29500
X55000Y-30500
X55000Y-41000
X55000Y-42000
X55000Y-43000
X55000Y-44000
X55000Y-45000
X55000Y-46000
X55000Y-47000
X55000Y-48000
X55000Y-49000
X55000Y-50000
T4
X28500Y-36500
X28500Y-56000
X30469Y-36500
X30469Y-56000
X32437Y-36500
X32437Y-56000
X34406Y-36500
X34406Y-56000
X36374Y-36500
X36374Y-56000
X38343Y-36500
X38343Y-56000
X43500Y-36500
X43500Y-56000
X45469Y-36500
X45469Y-56000
X47437Y-36500
X47437Y-56000
X49406Y-36500
X49406Y-56000
X51374Y-36500
X51374Y-56000
X53343Y-36500
X53343Y-56000
T5
X27250Y-20250
X27250Y-39750
X34000Y-26441
X34000Y-45941
X39750Y-33000
X39750Y-52500
X42250Y-20250
X42250Y-39750
X49000Y-26441
X49000Y-45941
X54750Y-33000
X54750Y-52500
T0
M30
