G04 #@! TF.FileFunction,Copper,L2,Bot,Signal*
%FSLAX46Y46*%
G04 Gerber Fmt 4.6, Leading zero omitted, Abs format (unit mm)*
G04 Created by KiCad (PCBNEW 4.0.7) date 06/11/20 11:20:33*
%MOMM*%
%LPD*%
G01*
G04 APERTURE LIST*
%ADD10C,0.100000*%
%ADD11R,1.700000X1.700000*%
%ADD12O,1.700000X1.700000*%
%ADD13C,1.600000*%
%ADD14O,1.600000X1.600000*%
%ADD15C,1.700000*%
%ADD16R,1.200000X1.700000*%
%ADD17O,1.200000X1.700000*%
%ADD18C,0.400000*%
G04 APERTURE END LIST*
D10*
D11*
X144780000Y-102870000D03*
D12*
X142240000Y-102870000D03*
X144780000Y-105410000D03*
X142240000Y-105410000D03*
X144780000Y-107950000D03*
X142240000Y-107950000D03*
X144780000Y-110490000D03*
X142240000Y-110490000D03*
D11*
X120650000Y-102870000D03*
D12*
X118110000Y-102870000D03*
X120650000Y-105410000D03*
X118110000Y-105410000D03*
X120650000Y-107950000D03*
X118110000Y-107950000D03*
X120650000Y-110490000D03*
X118110000Y-110490000D03*
D11*
X96520000Y-102870000D03*
D12*
X93980000Y-102870000D03*
X96520000Y-105410000D03*
X93980000Y-105410000D03*
X96520000Y-107950000D03*
X93980000Y-107950000D03*
X96520000Y-110490000D03*
X93980000Y-110490000D03*
D11*
X72390000Y-102870000D03*
D12*
X69850000Y-102870000D03*
X72390000Y-105410000D03*
X69850000Y-105410000D03*
X72390000Y-107950000D03*
X69850000Y-107950000D03*
X72390000Y-110490000D03*
X69850000Y-110490000D03*
D11*
X144780000Y-58420000D03*
D12*
X142240000Y-58420000D03*
X144780000Y-60960000D03*
X142240000Y-60960000D03*
X144780000Y-63500000D03*
X142240000Y-63500000D03*
X144780000Y-66040000D03*
X142240000Y-66040000D03*
D11*
X120650000Y-58420000D03*
D12*
X118110000Y-58420000D03*
X120650000Y-60960000D03*
X118110000Y-60960000D03*
X120650000Y-63500000D03*
X118110000Y-63500000D03*
X120650000Y-66040000D03*
X118110000Y-66040000D03*
D11*
X96520000Y-58420000D03*
D12*
X93980000Y-58420000D03*
X96520000Y-60960000D03*
X93980000Y-60960000D03*
X96520000Y-63500000D03*
X93980000Y-63500000D03*
X96520000Y-66040000D03*
X93980000Y-66040000D03*
D13*
X144780000Y-116205000D03*
D14*
X142240000Y-116205000D03*
D13*
X120650000Y-116205000D03*
D14*
X118110000Y-116205000D03*
D13*
X96520000Y-116205000D03*
D14*
X93980000Y-116205000D03*
D13*
X72390000Y-116205000D03*
D14*
X69850000Y-116205000D03*
D13*
X144780000Y-71755000D03*
D14*
X142240000Y-71755000D03*
D13*
X120650000Y-71755000D03*
D14*
X118110000Y-71755000D03*
D13*
X96520000Y-71755000D03*
D14*
X93980000Y-71755000D03*
D13*
X144780000Y-97155000D03*
D14*
X142240000Y-97155000D03*
D13*
X120650000Y-97155000D03*
D14*
X118110000Y-97155000D03*
D13*
X96520000Y-97155000D03*
D14*
X93980000Y-97155000D03*
D13*
X72390000Y-97155000D03*
D14*
X69850000Y-97155000D03*
D13*
X144780000Y-52705000D03*
D14*
X142240000Y-52705000D03*
D13*
X120650000Y-52705000D03*
D14*
X118110000Y-52705000D03*
D13*
X96520000Y-52705000D03*
D14*
X93980000Y-52705000D03*
D10*
G36*
X150000413Y-86329864D02*
X151541136Y-85611413D01*
X152259587Y-87152136D01*
X150718864Y-87870587D01*
X150000413Y-86329864D01*
X150000413Y-86329864D01*
G37*
D15*
X148827978Y-87814450D02*
X148827978Y-87814450D01*
X146525956Y-88887901D02*
X146525956Y-88887901D01*
X144223935Y-89961351D02*
X144223935Y-89961351D01*
X141921913Y-91034802D02*
X141921913Y-91034802D01*
X139619891Y-92108252D02*
X139619891Y-92108252D01*
D10*
G36*
X125870413Y-86329864D02*
X127411136Y-85611413D01*
X128129587Y-87152136D01*
X126588864Y-87870587D01*
X125870413Y-86329864D01*
X125870413Y-86329864D01*
G37*
D15*
X124697978Y-87814450D02*
X124697978Y-87814450D01*
X122395956Y-88887901D02*
X122395956Y-88887901D01*
X120093935Y-89961351D02*
X120093935Y-89961351D01*
X117791913Y-91034802D02*
X117791913Y-91034802D01*
X115489891Y-92108252D02*
X115489891Y-92108252D01*
D10*
G36*
X101740413Y-86329864D02*
X103281136Y-85611413D01*
X103999587Y-87152136D01*
X102458864Y-87870587D01*
X101740413Y-86329864D01*
X101740413Y-86329864D01*
G37*
D15*
X100567978Y-87814450D02*
X100567978Y-87814450D01*
X98265956Y-88887901D02*
X98265956Y-88887901D01*
X95963935Y-89961351D02*
X95963935Y-89961351D01*
X93661913Y-91034802D02*
X93661913Y-91034802D01*
X91359891Y-92108252D02*
X91359891Y-92108252D01*
D10*
G36*
X77610413Y-86329864D02*
X79151136Y-85611413D01*
X79869587Y-87152136D01*
X78328864Y-87870587D01*
X77610413Y-86329864D01*
X77610413Y-86329864D01*
G37*
D15*
X76437978Y-87814450D02*
X76437978Y-87814450D01*
X74135956Y-88887901D02*
X74135956Y-88887901D01*
X71833935Y-89961351D02*
X71833935Y-89961351D01*
X69531913Y-91034802D02*
X69531913Y-91034802D01*
X67229891Y-92108252D02*
X67229891Y-92108252D01*
D10*
G36*
X150000413Y-41879864D02*
X151541136Y-41161413D01*
X152259587Y-42702136D01*
X150718864Y-43420587D01*
X150000413Y-41879864D01*
X150000413Y-41879864D01*
G37*
D15*
X148827978Y-43364450D02*
X148827978Y-43364450D01*
X146525956Y-44437901D02*
X146525956Y-44437901D01*
X144223935Y-45511351D02*
X144223935Y-45511351D01*
X141921913Y-46584802D02*
X141921913Y-46584802D01*
X139619891Y-47658252D02*
X139619891Y-47658252D01*
D10*
G36*
X125870413Y-41879864D02*
X127411136Y-41161413D01*
X128129587Y-42702136D01*
X126588864Y-43420587D01*
X125870413Y-41879864D01*
X125870413Y-41879864D01*
G37*
D15*
X124697978Y-43364450D02*
X124697978Y-43364450D01*
X122395956Y-44437901D02*
X122395956Y-44437901D01*
X120093935Y-45511351D02*
X120093935Y-45511351D01*
X117791913Y-46584802D02*
X117791913Y-46584802D01*
X115489891Y-47658252D02*
X115489891Y-47658252D01*
D10*
G36*
X101740413Y-41879864D02*
X103281136Y-41161413D01*
X103999587Y-42702136D01*
X102458864Y-43420587D01*
X101740413Y-41879864D01*
X101740413Y-41879864D01*
G37*
D15*
X100567978Y-43364450D02*
X100567978Y-43364450D01*
X98265956Y-44437901D02*
X98265956Y-44437901D01*
X95963935Y-45511351D02*
X95963935Y-45511351D01*
X93661913Y-46584802D02*
X93661913Y-46584802D01*
X91359891Y-47658252D02*
X91359891Y-47658252D01*
D11*
X138430000Y-100330000D03*
D12*
X138430000Y-102870000D03*
X138430000Y-105410000D03*
X138430000Y-107950000D03*
X138430000Y-110490000D03*
X138430000Y-113030000D03*
D11*
X114300000Y-100330000D03*
D12*
X114300000Y-102870000D03*
X114300000Y-105410000D03*
X114300000Y-107950000D03*
X114300000Y-110490000D03*
X114300000Y-113030000D03*
D11*
X90170000Y-100330000D03*
D12*
X90170000Y-102870000D03*
X90170000Y-105410000D03*
X90170000Y-107950000D03*
X90170000Y-110490000D03*
X90170000Y-113030000D03*
D11*
X66040000Y-100330000D03*
D12*
X66040000Y-102870000D03*
X66040000Y-105410000D03*
X66040000Y-107950000D03*
X66040000Y-110490000D03*
X66040000Y-113030000D03*
D11*
X138430000Y-55880000D03*
D12*
X138430000Y-58420000D03*
X138430000Y-60960000D03*
X138430000Y-63500000D03*
X138430000Y-66040000D03*
X138430000Y-68580000D03*
D11*
X114300000Y-55880000D03*
D12*
X114300000Y-58420000D03*
X114300000Y-60960000D03*
X114300000Y-63500000D03*
X114300000Y-66040000D03*
X114300000Y-68580000D03*
D11*
X90170000Y-55880000D03*
D12*
X90170000Y-58420000D03*
X90170000Y-60960000D03*
X90170000Y-63500000D03*
X90170000Y-66040000D03*
X90170000Y-68580000D03*
D11*
X148590000Y-97790000D03*
D12*
X148590000Y-100330000D03*
X148590000Y-102870000D03*
X148590000Y-105410000D03*
X148590000Y-107950000D03*
X148590000Y-110490000D03*
X148590000Y-113030000D03*
X148590000Y-115570000D03*
D11*
X124460000Y-97790000D03*
D12*
X124460000Y-100330000D03*
X124460000Y-102870000D03*
X124460000Y-105410000D03*
X124460000Y-107950000D03*
X124460000Y-110490000D03*
X124460000Y-113030000D03*
X124460000Y-115570000D03*
D11*
X100330000Y-97790000D03*
D12*
X100330000Y-100330000D03*
X100330000Y-102870000D03*
X100330000Y-105410000D03*
X100330000Y-107950000D03*
X100330000Y-110490000D03*
X100330000Y-113030000D03*
X100330000Y-115570000D03*
D11*
X76200000Y-97790000D03*
D12*
X76200000Y-100330000D03*
X76200000Y-102870000D03*
X76200000Y-105410000D03*
X76200000Y-107950000D03*
X76200000Y-110490000D03*
X76200000Y-113030000D03*
X76200000Y-115570000D03*
D11*
X148590000Y-53340000D03*
D12*
X148590000Y-55880000D03*
X148590000Y-58420000D03*
X148590000Y-60960000D03*
X148590000Y-63500000D03*
X148590000Y-66040000D03*
X148590000Y-68580000D03*
X148590000Y-71120000D03*
D11*
X124460000Y-53340000D03*
D12*
X124460000Y-55880000D03*
X124460000Y-58420000D03*
X124460000Y-60960000D03*
X124460000Y-63500000D03*
X124460000Y-66040000D03*
X124460000Y-68580000D03*
X124460000Y-71120000D03*
D11*
X100330000Y-53340000D03*
D12*
X100330000Y-55880000D03*
X100330000Y-58420000D03*
X100330000Y-60960000D03*
X100330000Y-63500000D03*
X100330000Y-66040000D03*
X100330000Y-68580000D03*
X100330000Y-71120000D03*
D16*
X156210000Y-92710000D03*
D17*
X154210000Y-92710000D03*
X152210000Y-92710000D03*
X150210000Y-92710000D03*
D16*
X132080000Y-92710000D03*
D17*
X130080000Y-92710000D03*
X128080000Y-92710000D03*
X126080000Y-92710000D03*
D16*
X107950000Y-92710000D03*
D17*
X105950000Y-92710000D03*
X103950000Y-92710000D03*
X101950000Y-92710000D03*
D16*
X83820000Y-92710000D03*
D17*
X81820000Y-92710000D03*
X79820000Y-92710000D03*
X77820000Y-92710000D03*
D16*
X156210000Y-48260000D03*
D17*
X154210000Y-48260000D03*
X152210000Y-48260000D03*
X150210000Y-48260000D03*
D16*
X132080000Y-48260000D03*
D17*
X130080000Y-48260000D03*
X128080000Y-48260000D03*
X126080000Y-48260000D03*
D16*
X107950000Y-48260000D03*
D17*
X105950000Y-48260000D03*
X103950000Y-48260000D03*
X101950000Y-48260000D03*
D10*
G36*
X140111136Y-122414587D02*
X138570413Y-121696136D01*
X139288864Y-120155413D01*
X140829587Y-120873864D01*
X140111136Y-122414587D01*
X140111136Y-122414587D01*
G37*
D15*
X142002022Y-122358450D02*
X142002022Y-122358450D01*
X144304044Y-123431901D02*
X144304044Y-123431901D01*
X146606065Y-124505351D02*
X146606065Y-124505351D01*
X148908087Y-125578802D02*
X148908087Y-125578802D01*
X151210109Y-126652252D02*
X151210109Y-126652252D01*
D10*
G36*
X115981136Y-122414587D02*
X114440413Y-121696136D01*
X115158864Y-120155413D01*
X116699587Y-120873864D01*
X115981136Y-122414587D01*
X115981136Y-122414587D01*
G37*
D15*
X117872022Y-122358450D02*
X117872022Y-122358450D01*
X120174044Y-123431901D02*
X120174044Y-123431901D01*
X122476065Y-124505351D02*
X122476065Y-124505351D01*
X124778087Y-125578802D02*
X124778087Y-125578802D01*
X127080109Y-126652252D02*
X127080109Y-126652252D01*
D10*
G36*
X91851136Y-122414587D02*
X90310413Y-121696136D01*
X91028864Y-120155413D01*
X92569587Y-120873864D01*
X91851136Y-122414587D01*
X91851136Y-122414587D01*
G37*
D15*
X93742022Y-122358450D02*
X93742022Y-122358450D01*
X96044044Y-123431901D02*
X96044044Y-123431901D01*
X98346065Y-124505351D02*
X98346065Y-124505351D01*
X100648087Y-125578802D02*
X100648087Y-125578802D01*
X102950109Y-126652252D02*
X102950109Y-126652252D01*
D10*
G36*
X67721136Y-122414587D02*
X66180413Y-121696136D01*
X66898864Y-120155413D01*
X68439587Y-120873864D01*
X67721136Y-122414587D01*
X67721136Y-122414587D01*
G37*
D15*
X69612022Y-122358450D02*
X69612022Y-122358450D01*
X71914044Y-123431901D02*
X71914044Y-123431901D01*
X74216065Y-124505351D02*
X74216065Y-124505351D01*
X76518087Y-125578802D02*
X76518087Y-125578802D01*
X78820109Y-126652252D02*
X78820109Y-126652252D01*
D10*
G36*
X140111136Y-77964587D02*
X138570413Y-77246136D01*
X139288864Y-75705413D01*
X140829587Y-76423864D01*
X140111136Y-77964587D01*
X140111136Y-77964587D01*
G37*
D15*
X142002022Y-77908450D02*
X142002022Y-77908450D01*
X144304044Y-78981901D02*
X144304044Y-78981901D01*
X146606065Y-80055351D02*
X146606065Y-80055351D01*
X148908087Y-81128802D02*
X148908087Y-81128802D01*
X151210109Y-82202252D02*
X151210109Y-82202252D01*
D10*
G36*
X115981136Y-77964587D02*
X114440413Y-77246136D01*
X115158864Y-75705413D01*
X116699587Y-76423864D01*
X115981136Y-77964587D01*
X115981136Y-77964587D01*
G37*
D15*
X117872022Y-77908450D02*
X117872022Y-77908450D01*
X120174044Y-78981901D02*
X120174044Y-78981901D01*
X122476065Y-80055351D02*
X122476065Y-80055351D01*
X124778087Y-81128802D02*
X124778087Y-81128802D01*
X127080109Y-82202252D02*
X127080109Y-82202252D01*
D10*
G36*
X91851136Y-77964587D02*
X90310413Y-77246136D01*
X91028864Y-75705413D01*
X92569587Y-76423864D01*
X91851136Y-77964587D01*
X91851136Y-77964587D01*
G37*
D15*
X93742022Y-77908450D02*
X93742022Y-77908450D01*
X96044044Y-78981901D02*
X96044044Y-78981901D01*
X98346065Y-80055351D02*
X98346065Y-80055351D01*
X100648087Y-81128802D02*
X100648087Y-81128802D01*
X102950109Y-82202252D02*
X102950109Y-82202252D01*
D16*
X156210000Y-120015000D03*
D17*
X154210000Y-120015000D03*
X152210000Y-120015000D03*
X150210000Y-120015000D03*
D16*
X132080000Y-120015000D03*
D17*
X130080000Y-120015000D03*
X128080000Y-120015000D03*
X126080000Y-120015000D03*
D16*
X107950000Y-120015000D03*
D17*
X105950000Y-120015000D03*
X103950000Y-120015000D03*
X101950000Y-120015000D03*
D16*
X83820000Y-120015000D03*
D17*
X81820000Y-120015000D03*
X79820000Y-120015000D03*
X77820000Y-120015000D03*
D16*
X156210000Y-75565000D03*
D17*
X154210000Y-75565000D03*
X152210000Y-75565000D03*
X150210000Y-75565000D03*
D16*
X132080000Y-75565000D03*
D17*
X130080000Y-75565000D03*
X128080000Y-75565000D03*
X126080000Y-75565000D03*
D16*
X107950000Y-75565000D03*
D17*
X105950000Y-75565000D03*
X103950000Y-75565000D03*
X101950000Y-75565000D03*
D11*
X76200000Y-53340000D03*
D12*
X76200000Y-55880000D03*
X76200000Y-58420000D03*
X76200000Y-60960000D03*
X76200000Y-63500000D03*
X76200000Y-66040000D03*
X76200000Y-68580000D03*
X76200000Y-71120000D03*
D11*
X72390000Y-58420000D03*
D12*
X69850000Y-58420000D03*
X72390000Y-60960000D03*
X69850000Y-60960000D03*
X72390000Y-63500000D03*
X69850000Y-63500000D03*
X72390000Y-66040000D03*
X69850000Y-66040000D03*
D16*
X83820000Y-48260000D03*
D17*
X81820000Y-48260000D03*
X79820000Y-48260000D03*
X77820000Y-48260000D03*
D16*
X83820000Y-75565000D03*
D17*
X81820000Y-75565000D03*
X79820000Y-75565000D03*
X77820000Y-75565000D03*
D10*
G36*
X67721136Y-77964587D02*
X66180413Y-77246136D01*
X66898864Y-75705413D01*
X68439587Y-76423864D01*
X67721136Y-77964587D01*
X67721136Y-77964587D01*
G37*
D15*
X69612022Y-77908450D02*
X69612022Y-77908450D01*
X71914044Y-78981901D02*
X71914044Y-78981901D01*
X74216065Y-80055351D02*
X74216065Y-80055351D01*
X76518087Y-81128802D02*
X76518087Y-81128802D01*
X78820109Y-82202252D02*
X78820109Y-82202252D01*
D11*
X66040000Y-55880000D03*
D12*
X66040000Y-58420000D03*
X66040000Y-60960000D03*
X66040000Y-63500000D03*
X66040000Y-66040000D03*
X66040000Y-68580000D03*
D10*
G36*
X77610413Y-41879864D02*
X79151136Y-41161413D01*
X79869587Y-42702136D01*
X78328864Y-43420587D01*
X77610413Y-41879864D01*
X77610413Y-41879864D01*
G37*
D15*
X76437978Y-43364450D02*
X76437978Y-43364450D01*
X74135956Y-44437901D02*
X74135956Y-44437901D01*
X71833935Y-45511351D02*
X71833935Y-45511351D01*
X69531913Y-46584802D02*
X69531913Y-46584802D01*
X67229891Y-47658252D02*
X67229891Y-47658252D01*
D13*
X72390000Y-52705000D03*
D14*
X69850000Y-52705000D03*
D13*
X72390000Y-71755000D03*
D14*
X69850000Y-71755000D03*
D18*
X146050000Y-93980000D02*
X146050000Y-90805000D01*
X121920000Y-93980000D02*
X121920000Y-90805000D01*
X97790000Y-93980000D02*
X97790000Y-90805000D01*
X73660000Y-93980000D02*
X73660000Y-90805000D01*
X146050000Y-49530000D02*
X146050000Y-46355000D01*
X121920000Y-49530000D02*
X121920000Y-46355000D01*
X97790000Y-49530000D02*
X97790000Y-46355000D01*
X150749000Y-86360000D02*
X151130000Y-86741000D01*
X126619000Y-86360000D02*
X127000000Y-86741000D01*
X102489000Y-86360000D02*
X102870000Y-86741000D01*
X78359000Y-86360000D02*
X78740000Y-86741000D01*
X150749000Y-41910000D02*
X151130000Y-42291000D01*
X126619000Y-41910000D02*
X127000000Y-42291000D01*
X102489000Y-41910000D02*
X102870000Y-42291000D01*
X146050000Y-86360000D02*
X150749000Y-86360000D01*
X121920000Y-86360000D02*
X126619000Y-86360000D01*
X97790000Y-86360000D02*
X102489000Y-86360000D01*
X73660000Y-86360000D02*
X78359000Y-86360000D01*
X146050000Y-41910000D02*
X150749000Y-41910000D01*
X121920000Y-41910000D02*
X126619000Y-41910000D01*
X97790000Y-41910000D02*
X102489000Y-41910000D01*
X146050000Y-90805000D02*
X144780000Y-88265000D01*
X121920000Y-90805000D02*
X120650000Y-88265000D01*
X97790000Y-90805000D02*
X96520000Y-88265000D01*
X73660000Y-90805000D02*
X72390000Y-88265000D01*
X146050000Y-46355000D02*
X144780000Y-43815000D01*
X121920000Y-46355000D02*
X120650000Y-43815000D01*
X97790000Y-46355000D02*
X96520000Y-43815000D01*
X144780000Y-88265000D02*
X144780000Y-87630000D01*
X120650000Y-88265000D02*
X120650000Y-87630000D01*
X96520000Y-88265000D02*
X96520000Y-87630000D01*
X72390000Y-88265000D02*
X72390000Y-87630000D01*
X144780000Y-43815000D02*
X144780000Y-43180000D01*
X120650000Y-43815000D02*
X120650000Y-43180000D01*
X96520000Y-43815000D02*
X96520000Y-43180000D01*
X144780000Y-87630000D02*
X146050000Y-86360000D01*
X120650000Y-87630000D02*
X121920000Y-86360000D01*
X96520000Y-87630000D02*
X97790000Y-86360000D01*
X72390000Y-87630000D02*
X73660000Y-86360000D01*
X144780000Y-43180000D02*
X146050000Y-41910000D01*
X120650000Y-43180000D02*
X121920000Y-41910000D01*
X96520000Y-43180000D02*
X97790000Y-41910000D01*
X144780000Y-113665000D02*
X145415000Y-113030000D01*
X120650000Y-113665000D02*
X121285000Y-113030000D01*
X96520000Y-113665000D02*
X97155000Y-113030000D01*
X72390000Y-113665000D02*
X73025000Y-113030000D01*
X144780000Y-69215000D02*
X145415000Y-68580000D01*
X120650000Y-69215000D02*
X121285000Y-68580000D01*
X96520000Y-69215000D02*
X97155000Y-68580000D01*
X144780000Y-116205000D02*
X144780000Y-113665000D01*
X120650000Y-116205000D02*
X120650000Y-113665000D01*
X96520000Y-116205000D02*
X96520000Y-113665000D01*
X72390000Y-116205000D02*
X72390000Y-113665000D01*
X144780000Y-71755000D02*
X144780000Y-69215000D01*
X120650000Y-71755000D02*
X120650000Y-69215000D01*
X96520000Y-71755000D02*
X96520000Y-69215000D01*
X144145000Y-99060000D02*
X144780000Y-98425000D01*
X120015000Y-99060000D02*
X120650000Y-98425000D01*
X95885000Y-99060000D02*
X96520000Y-98425000D01*
X71755000Y-99060000D02*
X72390000Y-98425000D01*
X144145000Y-54610000D02*
X144780000Y-53975000D01*
X120015000Y-54610000D02*
X120650000Y-53975000D01*
X95885000Y-54610000D02*
X96520000Y-53975000D01*
X144780000Y-98425000D02*
X144780000Y-97155000D01*
X120650000Y-98425000D02*
X120650000Y-97155000D01*
X96520000Y-98425000D02*
X96520000Y-97155000D01*
X72390000Y-98425000D02*
X72390000Y-97155000D01*
X144780000Y-53975000D02*
X144780000Y-52705000D01*
X120650000Y-53975000D02*
X120650000Y-52705000D01*
X96520000Y-53975000D02*
X96520000Y-52705000D01*
X144780000Y-95250000D02*
X146050000Y-93980000D01*
X120650000Y-95250000D02*
X121920000Y-93980000D01*
X96520000Y-95250000D02*
X97790000Y-93980000D01*
X72390000Y-95250000D02*
X73660000Y-93980000D01*
X144780000Y-50800000D02*
X146050000Y-49530000D01*
X120650000Y-50800000D02*
X121920000Y-49530000D01*
X96520000Y-50800000D02*
X97790000Y-49530000D01*
X144780000Y-97155000D02*
X144780000Y-95250000D01*
X120650000Y-97155000D02*
X120650000Y-95250000D01*
X96520000Y-97155000D02*
X96520000Y-95250000D01*
X72390000Y-97155000D02*
X72390000Y-95250000D01*
X144780000Y-52705000D02*
X144780000Y-50800000D01*
X120650000Y-52705000D02*
X120650000Y-50800000D01*
X96520000Y-52705000D02*
X96520000Y-50800000D01*
X145415000Y-113030000D02*
X148590000Y-113030000D01*
X121285000Y-113030000D02*
X124460000Y-113030000D01*
X97155000Y-113030000D02*
X100330000Y-113030000D01*
X73025000Y-113030000D02*
X76200000Y-113030000D01*
X145415000Y-68580000D02*
X148590000Y-68580000D01*
X121285000Y-68580000D02*
X124460000Y-68580000D01*
X97155000Y-68580000D02*
X100330000Y-68580000D01*
X140335000Y-118745000D02*
X139700000Y-119380000D01*
X116205000Y-118745000D02*
X115570000Y-119380000D01*
X92075000Y-118745000D02*
X91440000Y-119380000D01*
X67945000Y-118745000D02*
X67310000Y-119380000D01*
X140335000Y-74295000D02*
X139700000Y-74930000D01*
X116205000Y-74295000D02*
X115570000Y-74930000D01*
X92075000Y-74295000D02*
X91440000Y-74930000D01*
X139700000Y-119380000D02*
X139700000Y-121285000D01*
X115570000Y-119380000D02*
X115570000Y-121285000D01*
X91440000Y-119380000D02*
X91440000Y-121285000D01*
X67310000Y-119380000D02*
X67310000Y-121285000D01*
X139700000Y-74930000D02*
X139700000Y-76835000D01*
X115570000Y-74930000D02*
X115570000Y-76835000D01*
X91440000Y-74930000D02*
X91440000Y-76835000D01*
X142240000Y-118745000D02*
X140335000Y-118745000D01*
X118110000Y-118745000D02*
X116205000Y-118745000D01*
X93980000Y-118745000D02*
X92075000Y-118745000D01*
X69850000Y-118745000D02*
X67945000Y-118745000D01*
X142240000Y-74295000D02*
X140335000Y-74295000D01*
X118110000Y-74295000D02*
X116205000Y-74295000D01*
X93980000Y-74295000D02*
X92075000Y-74295000D01*
X144780000Y-116205000D02*
X142240000Y-118745000D01*
X120650000Y-116205000D02*
X118110000Y-118745000D01*
X96520000Y-116205000D02*
X93980000Y-118745000D01*
X72390000Y-116205000D02*
X69850000Y-118745000D01*
X144780000Y-71755000D02*
X142240000Y-74295000D01*
X120650000Y-71755000D02*
X118110000Y-74295000D01*
X96520000Y-71755000D02*
X93980000Y-74295000D01*
X138430000Y-100330000D02*
X141605000Y-100330000D01*
X114300000Y-100330000D02*
X117475000Y-100330000D01*
X90170000Y-100330000D02*
X93345000Y-100330000D01*
X66040000Y-100330000D02*
X69215000Y-100330000D01*
X138430000Y-55880000D02*
X141605000Y-55880000D01*
X114300000Y-55880000D02*
X117475000Y-55880000D01*
X90170000Y-55880000D02*
X93345000Y-55880000D01*
X142240000Y-100965000D02*
X142240000Y-102870000D01*
X118110000Y-100965000D02*
X118110000Y-102870000D01*
X93980000Y-100965000D02*
X93980000Y-102870000D01*
X69850000Y-100965000D02*
X69850000Y-102870000D01*
X142240000Y-56515000D02*
X142240000Y-58420000D01*
X118110000Y-56515000D02*
X118110000Y-58420000D01*
X93980000Y-56515000D02*
X93980000Y-58420000D01*
X142875000Y-99060000D02*
X144145000Y-99060000D01*
X118745000Y-99060000D02*
X120015000Y-99060000D01*
X94615000Y-99060000D02*
X95885000Y-99060000D01*
X70485000Y-99060000D02*
X71755000Y-99060000D01*
X142875000Y-54610000D02*
X144145000Y-54610000D01*
X118745000Y-54610000D02*
X120015000Y-54610000D01*
X94615000Y-54610000D02*
X95885000Y-54610000D01*
X141605000Y-100330000D02*
X142875000Y-99060000D01*
X117475000Y-100330000D02*
X118745000Y-99060000D01*
X93345000Y-100330000D02*
X94615000Y-99060000D01*
X69215000Y-100330000D02*
X70485000Y-99060000D01*
X141605000Y-55880000D02*
X142875000Y-54610000D01*
X117475000Y-55880000D02*
X118745000Y-54610000D01*
X93345000Y-55880000D02*
X94615000Y-54610000D01*
X141605000Y-100330000D02*
X142240000Y-100965000D01*
X117475000Y-100330000D02*
X118110000Y-100965000D01*
X93345000Y-100330000D02*
X93980000Y-100965000D01*
X69215000Y-100330000D02*
X69850000Y-100965000D01*
X141605000Y-55880000D02*
X142240000Y-56515000D01*
X117475000Y-55880000D02*
X118110000Y-56515000D01*
X93345000Y-55880000D02*
X93980000Y-56515000D01*
X72390000Y-43815000D02*
X72390000Y-43180000D01*
X72390000Y-50800000D02*
X73660000Y-49530000D01*
X73660000Y-49530000D02*
X73660000Y-46355000D01*
X73660000Y-46355000D02*
X72390000Y-43815000D01*
X72390000Y-52705000D02*
X72390000Y-50800000D01*
X73660000Y-41910000D02*
X78359000Y-41910000D01*
X72390000Y-43180000D02*
X73660000Y-41910000D01*
X78359000Y-41910000D02*
X78740000Y-42291000D01*
X72390000Y-71755000D02*
X69850000Y-74295000D01*
X67310000Y-74930000D02*
X67310000Y-76835000D01*
X67945000Y-74295000D02*
X67310000Y-74930000D01*
X69850000Y-74295000D02*
X67945000Y-74295000D01*
X69215000Y-55880000D02*
X70485000Y-54610000D01*
X72390000Y-53975000D02*
X72390000Y-52705000D01*
X71755000Y-54610000D02*
X72390000Y-53975000D01*
X70485000Y-54610000D02*
X71755000Y-54610000D01*
X66040000Y-55880000D02*
X69215000Y-55880000D01*
X69850000Y-56515000D02*
X69850000Y-58420000D01*
X69215000Y-55880000D02*
X69850000Y-56515000D01*
X72390000Y-69215000D02*
X73025000Y-68580000D01*
X73025000Y-68580000D02*
X76200000Y-68580000D01*
X72390000Y-71755000D02*
X72390000Y-69215000D01*
X152210000Y-110680000D02*
X152210000Y-92710000D01*
X128080000Y-110680000D02*
X128080000Y-92710000D01*
X103950000Y-110680000D02*
X103950000Y-92710000D01*
X79820000Y-110680000D02*
X79820000Y-92710000D01*
X152210000Y-66230000D02*
X152210000Y-48260000D01*
X128080000Y-66230000D02*
X128080000Y-48260000D01*
X103950000Y-66230000D02*
X103950000Y-48260000D01*
X144780000Y-105410000D02*
X144780000Y-106045000D01*
X120650000Y-105410000D02*
X120650000Y-106045000D01*
X96520000Y-105410000D02*
X96520000Y-106045000D01*
X72390000Y-105410000D02*
X72390000Y-106045000D01*
X144780000Y-60960000D02*
X144780000Y-61595000D01*
X120650000Y-60960000D02*
X120650000Y-61595000D01*
X96520000Y-60960000D02*
X96520000Y-61595000D01*
X140970000Y-111760000D02*
X151130000Y-111760000D01*
X116840000Y-111760000D02*
X127000000Y-111760000D01*
X92710000Y-111760000D02*
X102870000Y-111760000D01*
X68580000Y-111760000D02*
X78740000Y-111760000D01*
X140970000Y-67310000D02*
X151130000Y-67310000D01*
X116840000Y-67310000D02*
X127000000Y-67310000D01*
X92710000Y-67310000D02*
X102870000Y-67310000D01*
X143510000Y-107315000D02*
X143510000Y-108585000D01*
X119380000Y-107315000D02*
X119380000Y-108585000D01*
X95250000Y-107315000D02*
X95250000Y-108585000D01*
X71120000Y-107315000D02*
X71120000Y-108585000D01*
X143510000Y-62865000D02*
X143510000Y-64135000D01*
X119380000Y-62865000D02*
X119380000Y-64135000D01*
X95250000Y-62865000D02*
X95250000Y-64135000D01*
X151130000Y-111760000D02*
X152210000Y-110680000D01*
X127000000Y-111760000D02*
X128080000Y-110680000D01*
X102870000Y-111760000D02*
X103950000Y-110680000D01*
X78740000Y-111760000D02*
X79820000Y-110680000D01*
X151130000Y-67310000D02*
X152210000Y-66230000D01*
X127000000Y-67310000D02*
X128080000Y-66230000D01*
X102870000Y-67310000D02*
X103950000Y-66230000D01*
X143510000Y-108585000D02*
X142875000Y-109220000D01*
X119380000Y-108585000D02*
X118745000Y-109220000D01*
X95250000Y-108585000D02*
X94615000Y-109220000D01*
X71120000Y-108585000D02*
X70485000Y-109220000D01*
X143510000Y-64135000D02*
X142875000Y-64770000D01*
X119380000Y-64135000D02*
X118745000Y-64770000D01*
X95250000Y-64135000D02*
X94615000Y-64770000D01*
X138430000Y-113030000D02*
X139700000Y-113030000D01*
X114300000Y-113030000D02*
X115570000Y-113030000D01*
X90170000Y-113030000D02*
X91440000Y-113030000D01*
X66040000Y-113030000D02*
X67310000Y-113030000D01*
X138430000Y-68580000D02*
X139700000Y-68580000D01*
X114300000Y-68580000D02*
X115570000Y-68580000D01*
X90170000Y-68580000D02*
X91440000Y-68580000D01*
X140335000Y-109855000D02*
X140970000Y-109220000D01*
X116205000Y-109855000D02*
X116840000Y-109220000D01*
X92075000Y-109855000D02*
X92710000Y-109220000D01*
X67945000Y-109855000D02*
X68580000Y-109220000D01*
X140335000Y-65405000D02*
X140970000Y-64770000D01*
X116205000Y-65405000D02*
X116840000Y-64770000D01*
X92075000Y-65405000D02*
X92710000Y-64770000D01*
X140970000Y-111760000D02*
X140335000Y-111125000D01*
X116840000Y-111760000D02*
X116205000Y-111125000D01*
X92710000Y-111760000D02*
X92075000Y-111125000D01*
X68580000Y-111760000D02*
X67945000Y-111125000D01*
X140970000Y-67310000D02*
X140335000Y-66675000D01*
X116840000Y-67310000D02*
X116205000Y-66675000D01*
X92710000Y-67310000D02*
X92075000Y-66675000D01*
X140335000Y-111125000D02*
X140335000Y-109855000D01*
X116205000Y-111125000D02*
X116205000Y-109855000D01*
X92075000Y-111125000D02*
X92075000Y-109855000D01*
X67945000Y-111125000D02*
X67945000Y-109855000D01*
X140335000Y-66675000D02*
X140335000Y-65405000D01*
X116205000Y-66675000D02*
X116205000Y-65405000D01*
X92075000Y-66675000D02*
X92075000Y-65405000D01*
X139700000Y-113030000D02*
X140970000Y-111760000D01*
X115570000Y-113030000D02*
X116840000Y-111760000D01*
X91440000Y-113030000D02*
X92710000Y-111760000D01*
X67310000Y-113030000D02*
X68580000Y-111760000D01*
X139700000Y-68580000D02*
X140970000Y-67310000D01*
X115570000Y-68580000D02*
X116840000Y-67310000D01*
X91440000Y-68580000D02*
X92710000Y-67310000D01*
X142875000Y-109220000D02*
X140970000Y-109220000D01*
X118745000Y-109220000D02*
X116840000Y-109220000D01*
X94615000Y-109220000D02*
X92710000Y-109220000D01*
X70485000Y-109220000D02*
X68580000Y-109220000D01*
X142875000Y-64770000D02*
X140970000Y-64770000D01*
X118745000Y-64770000D02*
X116840000Y-64770000D01*
X94615000Y-64770000D02*
X92710000Y-64770000D01*
X144780000Y-106045000D02*
X143510000Y-107315000D01*
X120650000Y-106045000D02*
X119380000Y-107315000D01*
X96520000Y-106045000D02*
X95250000Y-107315000D01*
X72390000Y-106045000D02*
X71120000Y-107315000D01*
X144780000Y-61595000D02*
X143510000Y-62865000D01*
X120650000Y-61595000D02*
X119380000Y-62865000D01*
X96520000Y-61595000D02*
X95250000Y-62865000D01*
X68580000Y-67310000D02*
X67945000Y-66675000D01*
X67945000Y-65405000D02*
X68580000Y-64770000D01*
X67945000Y-66675000D02*
X67945000Y-65405000D01*
X72390000Y-60960000D02*
X72390000Y-61595000D01*
X72390000Y-61595000D02*
X71120000Y-62865000D01*
X70485000Y-64770000D02*
X68580000Y-64770000D01*
X71120000Y-64135000D02*
X70485000Y-64770000D01*
X71120000Y-62865000D02*
X71120000Y-64135000D01*
X66040000Y-68580000D02*
X67310000Y-68580000D01*
X79820000Y-66230000D02*
X79820000Y-48260000D01*
X78740000Y-67310000D02*
X79820000Y-66230000D01*
X68580000Y-67310000D02*
X78740000Y-67310000D01*
X67310000Y-68580000D02*
X68580000Y-67310000D01*
X156210000Y-92710000D02*
X156210000Y-120015000D01*
X132080000Y-92710000D02*
X132080000Y-120015000D01*
X107950000Y-92710000D02*
X107950000Y-120015000D01*
X83820000Y-92710000D02*
X83820000Y-120015000D01*
X156210000Y-48260000D02*
X156210000Y-75565000D01*
X132080000Y-48260000D02*
X132080000Y-75565000D01*
X107950000Y-48260000D02*
X107950000Y-75565000D01*
X148590000Y-97790000D02*
X146685000Y-97790000D01*
X124460000Y-97790000D02*
X122555000Y-97790000D01*
X100330000Y-97790000D02*
X98425000Y-97790000D01*
X76200000Y-97790000D02*
X74295000Y-97790000D01*
X148590000Y-53340000D02*
X146685000Y-53340000D01*
X124460000Y-53340000D02*
X122555000Y-53340000D01*
X100330000Y-53340000D02*
X98425000Y-53340000D01*
X146685000Y-97790000D02*
X143529600Y-100945400D01*
X122555000Y-97790000D02*
X119399600Y-100945400D01*
X98425000Y-97790000D02*
X95269600Y-100945400D01*
X74295000Y-97790000D02*
X71139600Y-100945400D01*
X146685000Y-53340000D02*
X143529600Y-56495400D01*
X122555000Y-53340000D02*
X119399600Y-56495400D01*
X98425000Y-53340000D02*
X95269600Y-56495400D01*
X156210000Y-118745000D02*
X156210000Y-120015000D01*
X132080000Y-118745000D02*
X132080000Y-120015000D01*
X107950000Y-118745000D02*
X107950000Y-120015000D01*
X83820000Y-118745000D02*
X83820000Y-120015000D01*
X156210000Y-74295000D02*
X156210000Y-75565000D01*
X132080000Y-74295000D02*
X132080000Y-75565000D01*
X107950000Y-74295000D02*
X107950000Y-75565000D01*
X155575000Y-118110000D02*
X156210000Y-118745000D01*
X131445000Y-118110000D02*
X132080000Y-118745000D01*
X107315000Y-118110000D02*
X107950000Y-118745000D01*
X83185000Y-118110000D02*
X83820000Y-118745000D01*
X155575000Y-73660000D02*
X156210000Y-74295000D01*
X131445000Y-73660000D02*
X132080000Y-74295000D01*
X107315000Y-73660000D02*
X107950000Y-74295000D01*
X144780000Y-118110000D02*
X155575000Y-118110000D01*
X120650000Y-118110000D02*
X131445000Y-118110000D01*
X96520000Y-118110000D02*
X107315000Y-118110000D01*
X72390000Y-118110000D02*
X83185000Y-118110000D01*
X144780000Y-73660000D02*
X155575000Y-73660000D01*
X120650000Y-73660000D02*
X131445000Y-73660000D01*
X96520000Y-73660000D02*
X107315000Y-73660000D01*
X142002022Y-120887978D02*
X144780000Y-118110000D01*
X117872022Y-120887978D02*
X120650000Y-118110000D01*
X93742022Y-120887978D02*
X96520000Y-118110000D01*
X69612022Y-120887978D02*
X72390000Y-118110000D01*
X142002022Y-76437978D02*
X144780000Y-73660000D01*
X117872022Y-76437978D02*
X120650000Y-73660000D01*
X93742022Y-76437978D02*
X96520000Y-73660000D01*
X142002022Y-122358450D02*
X142002022Y-120887978D01*
X117872022Y-122358450D02*
X117872022Y-120887978D01*
X93742022Y-122358450D02*
X93742022Y-120887978D01*
X69612022Y-122358450D02*
X69612022Y-120887978D01*
X142002022Y-77908450D02*
X142002022Y-76437978D01*
X117872022Y-77908450D02*
X117872022Y-76437978D01*
X93742022Y-77908450D02*
X93742022Y-76437978D01*
X142240000Y-104775000D02*
X143529600Y-103485400D01*
X118110000Y-104775000D02*
X119399600Y-103485400D01*
X93980000Y-104775000D02*
X95269600Y-103485400D01*
X69850000Y-104775000D02*
X71139600Y-103485400D01*
X142240000Y-60325000D02*
X143529600Y-59035400D01*
X118110000Y-60325000D02*
X119399600Y-59035400D01*
X93980000Y-60325000D02*
X95269600Y-59035400D01*
X142240000Y-105410000D02*
X142240000Y-104775000D01*
X118110000Y-105410000D02*
X118110000Y-104775000D01*
X93980000Y-105410000D02*
X93980000Y-104775000D01*
X69850000Y-105410000D02*
X69850000Y-104775000D01*
X142240000Y-60960000D02*
X142240000Y-60325000D01*
X118110000Y-60960000D02*
X118110000Y-60325000D01*
X93980000Y-60960000D02*
X93980000Y-60325000D01*
X142220300Y-105410000D02*
X142240000Y-105410000D01*
X118090300Y-105410000D02*
X118110000Y-105410000D01*
X93960300Y-105410000D02*
X93980000Y-105410000D01*
X69830300Y-105410000D02*
X69850000Y-105410000D01*
X142220300Y-60960000D02*
X142240000Y-60960000D01*
X118090300Y-60960000D02*
X118110000Y-60960000D01*
X93960300Y-60960000D02*
X93980000Y-60960000D01*
X138430000Y-102870000D02*
X139680300Y-102870000D01*
X114300000Y-102870000D02*
X115550300Y-102870000D01*
X90170000Y-102870000D02*
X91420300Y-102870000D01*
X66040000Y-102870000D02*
X67290300Y-102870000D01*
X138430000Y-58420000D02*
X139680300Y-58420000D01*
X114300000Y-58420000D02*
X115550300Y-58420000D01*
X90170000Y-58420000D02*
X91420300Y-58420000D01*
X139680300Y-102870000D02*
X142220300Y-105410000D01*
X115550300Y-102870000D02*
X118090300Y-105410000D01*
X91420300Y-102870000D02*
X93960300Y-105410000D01*
X67290300Y-102870000D02*
X69830300Y-105410000D01*
X139680300Y-58420000D02*
X142220300Y-60960000D01*
X115550300Y-58420000D02*
X118090300Y-60960000D01*
X91420300Y-58420000D02*
X93960300Y-60960000D01*
X143529600Y-103485400D02*
X143529600Y-100945400D01*
X119399600Y-103485400D02*
X119399600Y-100945400D01*
X95269600Y-103485400D02*
X95269600Y-100945400D01*
X71139600Y-103485400D02*
X71139600Y-100945400D01*
X143529600Y-59035400D02*
X143529600Y-56495400D01*
X119399600Y-59035400D02*
X119399600Y-56495400D01*
X95269600Y-59035400D02*
X95269600Y-56495400D01*
X83820000Y-48260000D02*
X83820000Y-75565000D01*
X69850000Y-60960000D02*
X69850000Y-60325000D01*
X69850000Y-60325000D02*
X71139600Y-59035400D01*
X71139600Y-59035400D02*
X71139600Y-56495400D01*
X76200000Y-53340000D02*
X74295000Y-53340000D01*
X74295000Y-53340000D02*
X71139600Y-56495400D01*
X66040000Y-58420000D02*
X67290300Y-58420000D01*
X67290300Y-58420000D02*
X69830300Y-60960000D01*
X69830300Y-60960000D02*
X69850000Y-60960000D01*
X69612022Y-77908450D02*
X69612022Y-76437978D01*
X69612022Y-76437978D02*
X72390000Y-73660000D01*
X72390000Y-73660000D02*
X83185000Y-73660000D01*
X83185000Y-73660000D02*
X83820000Y-74295000D01*
X83820000Y-74295000D02*
X83820000Y-75565000D01*
X147320000Y-101600000D02*
X149860000Y-101600000D01*
X123190000Y-101600000D02*
X125730000Y-101600000D01*
X99060000Y-101600000D02*
X101600000Y-101600000D01*
X74930000Y-101600000D02*
X77470000Y-101600000D01*
X147320000Y-57150000D02*
X149860000Y-57150000D01*
X123190000Y-57150000D02*
X125730000Y-57150000D01*
X99060000Y-57150000D02*
X101600000Y-57150000D01*
X149860000Y-101600000D02*
X150495000Y-100965000D01*
X125730000Y-101600000D02*
X126365000Y-100965000D01*
X101600000Y-101600000D02*
X102235000Y-100965000D01*
X77470000Y-101600000D02*
X78105000Y-100965000D01*
X149860000Y-57150000D02*
X150495000Y-56515000D01*
X125730000Y-57150000D02*
X126365000Y-56515000D01*
X101600000Y-57150000D02*
X102235000Y-56515000D01*
X150495000Y-100965000D02*
X150495000Y-93980000D01*
X126365000Y-100965000D02*
X126365000Y-93980000D01*
X102235000Y-100965000D02*
X102235000Y-93980000D01*
X78105000Y-100965000D02*
X78105000Y-93980000D01*
X150495000Y-56515000D02*
X150495000Y-49530000D01*
X126365000Y-56515000D02*
X126365000Y-49530000D01*
X102235000Y-56515000D02*
X102235000Y-49530000D01*
X150495000Y-93980000D02*
X150210000Y-93695000D01*
X126365000Y-93980000D02*
X126080000Y-93695000D01*
X102235000Y-93980000D02*
X101950000Y-93695000D01*
X78105000Y-93980000D02*
X77820000Y-93695000D01*
X150495000Y-49530000D02*
X150210000Y-49245000D01*
X126365000Y-49530000D02*
X126080000Y-49245000D01*
X102235000Y-49530000D02*
X101950000Y-49245000D01*
X150210000Y-93695000D02*
X150210000Y-92710000D01*
X126080000Y-93695000D02*
X126080000Y-92710000D01*
X101950000Y-93695000D02*
X101950000Y-92710000D01*
X77820000Y-93695000D02*
X77820000Y-92710000D01*
X150210000Y-49245000D02*
X150210000Y-48260000D01*
X126080000Y-49245000D02*
X126080000Y-48260000D01*
X101950000Y-49245000D02*
X101950000Y-48260000D01*
X146050000Y-102870000D02*
X147320000Y-101600000D01*
X121920000Y-102870000D02*
X123190000Y-101600000D01*
X97790000Y-102870000D02*
X99060000Y-101600000D01*
X73660000Y-102870000D02*
X74930000Y-101600000D01*
X146050000Y-58420000D02*
X147320000Y-57150000D01*
X121920000Y-58420000D02*
X123190000Y-57150000D01*
X97790000Y-58420000D02*
X99060000Y-57150000D01*
X144780000Y-102870000D02*
X146050000Y-102870000D01*
X120650000Y-102870000D02*
X121920000Y-102870000D01*
X96520000Y-102870000D02*
X97790000Y-102870000D01*
X72390000Y-102870000D02*
X73660000Y-102870000D01*
X144780000Y-58420000D02*
X146050000Y-58420000D01*
X120650000Y-58420000D02*
X121920000Y-58420000D01*
X96520000Y-58420000D02*
X97790000Y-58420000D01*
X72390000Y-58420000D02*
X73660000Y-58420000D01*
X77820000Y-49245000D02*
X77820000Y-48260000D01*
X78105000Y-49530000D02*
X77820000Y-49245000D01*
X78105000Y-56515000D02*
X78105000Y-49530000D01*
X77470000Y-57150000D02*
X78105000Y-56515000D01*
X74930000Y-57150000D02*
X77470000Y-57150000D01*
X73660000Y-58420000D02*
X74930000Y-57150000D01*
X144145000Y-90040286D02*
X144223935Y-89961351D01*
X120015000Y-90040286D02*
X120093935Y-89961351D01*
X95885000Y-90040286D02*
X95963935Y-89961351D01*
X71755000Y-90040286D02*
X71833935Y-89961351D01*
X144145000Y-45590286D02*
X144223935Y-45511351D01*
X120015000Y-45590286D02*
X120093935Y-45511351D01*
X95885000Y-45590286D02*
X95963935Y-45511351D01*
X142240000Y-97155000D02*
X142240000Y-95885000D01*
X118110000Y-97155000D02*
X118110000Y-95885000D01*
X93980000Y-97155000D02*
X93980000Y-95885000D01*
X69850000Y-97155000D02*
X69850000Y-95885000D01*
X142240000Y-52705000D02*
X142240000Y-51435000D01*
X118110000Y-52705000D02*
X118110000Y-51435000D01*
X93980000Y-52705000D02*
X93980000Y-51435000D01*
X144145000Y-93980000D02*
X144145000Y-90040286D01*
X120015000Y-93980000D02*
X120015000Y-90040286D01*
X95885000Y-93980000D02*
X95885000Y-90040286D01*
X71755000Y-93980000D02*
X71755000Y-90040286D01*
X144145000Y-49530000D02*
X144145000Y-45590286D01*
X120015000Y-49530000D02*
X120015000Y-45590286D01*
X95885000Y-49530000D02*
X95885000Y-45590286D01*
X142240000Y-95885000D02*
X144145000Y-93980000D01*
X118110000Y-95885000D02*
X120015000Y-93980000D01*
X93980000Y-95885000D02*
X95885000Y-93980000D01*
X69850000Y-95885000D02*
X71755000Y-93980000D01*
X142240000Y-51435000D02*
X144145000Y-49530000D01*
X118110000Y-51435000D02*
X120015000Y-49530000D01*
X93980000Y-51435000D02*
X95885000Y-49530000D01*
X147320000Y-109220000D02*
X148590000Y-107950000D01*
X123190000Y-109220000D02*
X124460000Y-107950000D01*
X99060000Y-109220000D02*
X100330000Y-107950000D01*
X74930000Y-109220000D02*
X76200000Y-107950000D01*
X147320000Y-64770000D02*
X148590000Y-63500000D01*
X123190000Y-64770000D02*
X124460000Y-63500000D01*
X99060000Y-64770000D02*
X100330000Y-63500000D01*
X144145000Y-109220000D02*
X147320000Y-109220000D01*
X120015000Y-109220000D02*
X123190000Y-109220000D01*
X95885000Y-109220000D02*
X99060000Y-109220000D01*
X71755000Y-109220000D02*
X74930000Y-109220000D01*
X144145000Y-64770000D02*
X147320000Y-64770000D01*
X120015000Y-64770000D02*
X123190000Y-64770000D01*
X95885000Y-64770000D02*
X99060000Y-64770000D01*
X142875000Y-110490000D02*
X144145000Y-109220000D01*
X118745000Y-110490000D02*
X120015000Y-109220000D01*
X94615000Y-110490000D02*
X95885000Y-109220000D01*
X70485000Y-110490000D02*
X71755000Y-109220000D01*
X142875000Y-66040000D02*
X144145000Y-64770000D01*
X118745000Y-66040000D02*
X120015000Y-64770000D01*
X94615000Y-66040000D02*
X95885000Y-64770000D01*
X142240000Y-110490000D02*
X142875000Y-110490000D01*
X118110000Y-110490000D02*
X118745000Y-110490000D01*
X93980000Y-110490000D02*
X94615000Y-110490000D01*
X69850000Y-110490000D02*
X70485000Y-110490000D01*
X142240000Y-66040000D02*
X142875000Y-66040000D01*
X118110000Y-66040000D02*
X118745000Y-66040000D01*
X93980000Y-66040000D02*
X94615000Y-66040000D01*
X146639649Y-124505351D02*
X147955000Y-123190000D01*
X122509649Y-124505351D02*
X123825000Y-123190000D01*
X98379649Y-124505351D02*
X99695000Y-123190000D01*
X74249649Y-124505351D02*
X75565000Y-123190000D01*
X146639649Y-80055351D02*
X147955000Y-78740000D01*
X122509649Y-80055351D02*
X123825000Y-78740000D01*
X98379649Y-80055351D02*
X99695000Y-78740000D01*
X146606065Y-124505351D02*
X146639649Y-124505351D01*
X122476065Y-124505351D02*
X122509649Y-124505351D01*
X98346065Y-124505351D02*
X98379649Y-124505351D01*
X74216065Y-124505351D02*
X74249649Y-124505351D01*
X146606065Y-80055351D02*
X146639649Y-80055351D01*
X122476065Y-80055351D02*
X122509649Y-80055351D01*
X98346065Y-80055351D02*
X98379649Y-80055351D01*
X152210000Y-122110000D02*
X152210000Y-120015000D01*
X128080000Y-122110000D02*
X128080000Y-120015000D01*
X103950000Y-122110000D02*
X103950000Y-120015000D01*
X79820000Y-122110000D02*
X79820000Y-120015000D01*
X152210000Y-77660000D02*
X152210000Y-75565000D01*
X128080000Y-77660000D02*
X128080000Y-75565000D01*
X103950000Y-77660000D02*
X103950000Y-75565000D01*
X151130000Y-123190000D02*
X152210000Y-122110000D01*
X127000000Y-123190000D02*
X128080000Y-122110000D01*
X102870000Y-123190000D02*
X103950000Y-122110000D01*
X78740000Y-123190000D02*
X79820000Y-122110000D01*
X151130000Y-78740000D02*
X152210000Y-77660000D01*
X127000000Y-78740000D02*
X128080000Y-77660000D01*
X102870000Y-78740000D02*
X103950000Y-77660000D01*
X147955000Y-123190000D02*
X151130000Y-123190000D01*
X123825000Y-123190000D02*
X127000000Y-123190000D01*
X99695000Y-123190000D02*
X102870000Y-123190000D01*
X75565000Y-123190000D02*
X78740000Y-123190000D01*
X147955000Y-78740000D02*
X151130000Y-78740000D01*
X123825000Y-78740000D02*
X127000000Y-78740000D01*
X99695000Y-78740000D02*
X102870000Y-78740000D01*
X69850000Y-52705000D02*
X69850000Y-51435000D01*
X71755000Y-49530000D02*
X71755000Y-45590286D01*
X69850000Y-51435000D02*
X71755000Y-49530000D01*
X71755000Y-45590286D02*
X71833935Y-45511351D01*
X69850000Y-66040000D02*
X70485000Y-66040000D01*
X70485000Y-66040000D02*
X71755000Y-64770000D01*
X74930000Y-64770000D02*
X76200000Y-63500000D01*
X71755000Y-64770000D02*
X74930000Y-64770000D01*
X74216065Y-80055351D02*
X74249649Y-80055351D01*
X74249649Y-80055351D02*
X75565000Y-78740000D01*
X75565000Y-78740000D02*
X78740000Y-78740000D01*
X78740000Y-78740000D02*
X79820000Y-77660000D01*
X79820000Y-77660000D02*
X79820000Y-75565000D01*
X148550600Y-102870000D02*
X148590000Y-102870000D01*
X124420600Y-102870000D02*
X124460000Y-102870000D01*
X100290600Y-102870000D02*
X100330000Y-102870000D01*
X76160600Y-102870000D02*
X76200000Y-102870000D01*
X148550600Y-58420000D02*
X148590000Y-58420000D01*
X124420600Y-58420000D02*
X124460000Y-58420000D01*
X100290600Y-58420000D02*
X100330000Y-58420000D01*
X145815945Y-121920000D02*
X144304044Y-123431901D01*
X121685945Y-121920000D02*
X120174044Y-123431901D01*
X97555945Y-121920000D02*
X96044044Y-123431901D01*
X73425945Y-121920000D02*
X71914044Y-123431901D01*
X145815945Y-77470000D02*
X144304044Y-78981901D01*
X121685945Y-77470000D02*
X120174044Y-78981901D01*
X97555945Y-77470000D02*
X96044044Y-78981901D01*
X150210000Y-121570000D02*
X149860000Y-121920000D01*
X126080000Y-121570000D02*
X125730000Y-121920000D01*
X101950000Y-121570000D02*
X101600000Y-121920000D01*
X77820000Y-121570000D02*
X77470000Y-121920000D01*
X150210000Y-77120000D02*
X149860000Y-77470000D01*
X126080000Y-77120000D02*
X125730000Y-77470000D01*
X101950000Y-77120000D02*
X101600000Y-77470000D01*
X150210000Y-120015000D02*
X150210000Y-121570000D01*
X126080000Y-120015000D02*
X126080000Y-121570000D01*
X101950000Y-120015000D02*
X101950000Y-121570000D01*
X77820000Y-120015000D02*
X77820000Y-121570000D01*
X150210000Y-75565000D02*
X150210000Y-77120000D01*
X126080000Y-75565000D02*
X126080000Y-77120000D01*
X101950000Y-75565000D02*
X101950000Y-77120000D01*
X149860000Y-121920000D02*
X145815945Y-121920000D01*
X125730000Y-121920000D02*
X121685945Y-121920000D01*
X101600000Y-121920000D02*
X97555945Y-121920000D01*
X77470000Y-121920000D02*
X73425945Y-121920000D01*
X149860000Y-77470000D02*
X145815945Y-77470000D01*
X125730000Y-77470000D02*
X121685945Y-77470000D01*
X101600000Y-77470000D02*
X97555945Y-77470000D01*
X144285500Y-104120300D02*
X143529600Y-104876200D01*
X120155500Y-104120300D02*
X119399600Y-104876200D01*
X96025500Y-104120300D02*
X95269600Y-104876200D01*
X71895500Y-104120300D02*
X71139600Y-104876200D01*
X144285500Y-59670300D02*
X143529600Y-60426200D01*
X120155500Y-59670300D02*
X119399600Y-60426200D01*
X96025500Y-59670300D02*
X95269600Y-60426200D01*
X143529600Y-104876200D02*
X144285500Y-104120300D01*
X119399600Y-104876200D02*
X120155500Y-104120300D01*
X95269600Y-104876200D02*
X96025500Y-104120300D01*
X71139600Y-104876200D02*
X71895500Y-104120300D01*
X143529600Y-60426200D02*
X144285500Y-59670300D01*
X119399600Y-60426200D02*
X120155500Y-59670300D01*
X95269600Y-60426200D02*
X96025500Y-59670300D01*
X143529600Y-106062200D02*
X143529600Y-104876200D01*
X119399600Y-106062200D02*
X119399600Y-104876200D01*
X95269600Y-106062200D02*
X95269600Y-104876200D01*
X71139600Y-106062200D02*
X71139600Y-104876200D01*
X143529600Y-61612200D02*
X143529600Y-60426200D01*
X119399600Y-61612200D02*
X119399600Y-60426200D01*
X95269600Y-61612200D02*
X95269600Y-60426200D01*
X142220300Y-107950000D02*
X142240000Y-107950000D01*
X118090300Y-107950000D02*
X118110000Y-107950000D01*
X93960300Y-107950000D02*
X93980000Y-107950000D01*
X69830300Y-107950000D02*
X69850000Y-107950000D01*
X142220300Y-63500000D02*
X142240000Y-63500000D01*
X118090300Y-63500000D02*
X118110000Y-63500000D01*
X93960300Y-63500000D02*
X93980000Y-63500000D01*
X142240000Y-107351800D02*
X143529600Y-106062200D01*
X118110000Y-107351800D02*
X119399600Y-106062200D01*
X93980000Y-107351800D02*
X95269600Y-106062200D01*
X69850000Y-107351800D02*
X71139600Y-106062200D01*
X142240000Y-62901800D02*
X143529600Y-61612200D01*
X118110000Y-62901800D02*
X119399600Y-61612200D01*
X93980000Y-62901800D02*
X95269600Y-61612200D01*
X142240000Y-107950000D02*
X142240000Y-107351800D01*
X118110000Y-107950000D02*
X118110000Y-107351800D01*
X93980000Y-107950000D02*
X93980000Y-107351800D01*
X69850000Y-107950000D02*
X69850000Y-107351800D01*
X142240000Y-63500000D02*
X142240000Y-62901800D01*
X118110000Y-63500000D02*
X118110000Y-62901800D01*
X93980000Y-63500000D02*
X93980000Y-62901800D01*
X144285500Y-104120300D02*
X147300300Y-104120300D01*
X120155500Y-104120300D02*
X123170300Y-104120300D01*
X96025500Y-104120300D02*
X99040300Y-104120300D01*
X71895500Y-104120300D02*
X74910300Y-104120300D01*
X144285500Y-59670300D02*
X147300300Y-59670300D01*
X120155500Y-59670300D02*
X123170300Y-59670300D01*
X96025500Y-59670300D02*
X99040300Y-59670300D01*
X147300300Y-104120300D02*
X148550600Y-102870000D01*
X123170300Y-104120300D02*
X124420600Y-102870000D01*
X99040300Y-104120300D02*
X100290600Y-102870000D01*
X74910300Y-104120300D02*
X76160600Y-102870000D01*
X147300300Y-59670300D02*
X148550600Y-58420000D01*
X123170300Y-59670300D02*
X124420600Y-58420000D01*
X99040300Y-59670300D02*
X100290600Y-58420000D01*
X139680300Y-105410000D02*
X142220300Y-107950000D01*
X115550300Y-105410000D02*
X118090300Y-107950000D01*
X91420300Y-105410000D02*
X93960300Y-107950000D01*
X67290300Y-105410000D02*
X69830300Y-107950000D01*
X139680300Y-60960000D02*
X142220300Y-63500000D01*
X115550300Y-60960000D02*
X118090300Y-63500000D01*
X91420300Y-60960000D02*
X93960300Y-63500000D01*
X138430000Y-105410000D02*
X139680300Y-105410000D01*
X114300000Y-105410000D02*
X115550300Y-105410000D01*
X90170000Y-105410000D02*
X91420300Y-105410000D01*
X66040000Y-105410000D02*
X67290300Y-105410000D01*
X138430000Y-60960000D02*
X139680300Y-60960000D01*
X114300000Y-60960000D02*
X115550300Y-60960000D01*
X90170000Y-60960000D02*
X91420300Y-60960000D01*
X66040000Y-60960000D02*
X67290300Y-60960000D01*
X67290300Y-60960000D02*
X69830300Y-63500000D01*
X69830300Y-63500000D02*
X69850000Y-63500000D01*
X69850000Y-63500000D02*
X69850000Y-62901800D01*
X69850000Y-62901800D02*
X71139600Y-61612200D01*
X71139600Y-61612200D02*
X71139600Y-60426200D01*
X71139600Y-60426200D02*
X71895500Y-59670300D01*
X71895500Y-59670300D02*
X74910300Y-59670300D01*
X74910300Y-59670300D02*
X76160600Y-58420000D01*
X76160600Y-58420000D02*
X76200000Y-58420000D01*
X77820000Y-75565000D02*
X77820000Y-77120000D01*
X73425945Y-77470000D02*
X71914044Y-78981901D01*
X77470000Y-77470000D02*
X73425945Y-77470000D01*
X77820000Y-77120000D02*
X77470000Y-77470000D01*
X71895500Y-59670300D02*
X71139600Y-60426200D01*
M02*
