G04 #@! TF.FileFunction,Soldermask,Top*
%FSLAX46Y46*%
G04 Gerber Fmt 4.6, Leading zero omitted, Abs format (unit mm)*
G04 Created by KiCad (PCBNEW 4.0.7) date 05/22/20 14:46:27*
%MOMM*%
%LPD*%
G01*
G04 APERTURE LIST*
%ADD10C,0.100000*%
%ADD11R,2.100000X2.100000*%
%ADD12O,2.100000X2.100000*%
%ADD13R,1.600000X2.100000*%
%ADD14O,1.600000X2.100000*%
%ADD15C,2.100000*%
%ADD16C,3.900000*%
%ADD17C,2.000000*%
%ADD18O,2.000000X2.000000*%
G04 APERTURE END LIST*
D10*
D11*
X69850000Y-60960000D03*
D12*
X67310000Y-60960000D03*
X69850000Y-63500000D03*
X67310000Y-63500000D03*
X69850000Y-66040000D03*
X67310000Y-66040000D03*
X69850000Y-68580000D03*
X67310000Y-68580000D03*
D13*
X81280000Y-50800000D03*
D14*
X79280000Y-50800000D03*
X77280000Y-50800000D03*
X75280000Y-50800000D03*
D13*
X81280000Y-78105000D03*
D14*
X79280000Y-78105000D03*
X77280000Y-78105000D03*
X75280000Y-78105000D03*
D11*
X73660000Y-55880000D03*
D12*
X73660000Y-58420000D03*
X73660000Y-60960000D03*
X73660000Y-63500000D03*
X73660000Y-66040000D03*
X73660000Y-68580000D03*
X73660000Y-71120000D03*
X73660000Y-73660000D03*
D10*
G36*
X65277874Y-80770372D02*
X63374628Y-79882874D01*
X64262126Y-77979628D01*
X66165372Y-78867126D01*
X65277874Y-80770372D01*
X65277874Y-80770372D01*
G37*
D15*
X67072022Y-80448450D02*
X67072022Y-80448450D01*
X69374044Y-81521901D02*
X69374044Y-81521901D01*
X71676065Y-82595351D02*
X71676065Y-82595351D01*
X73978087Y-83668802D02*
X73978087Y-83668802D01*
X76280109Y-84742252D02*
X76280109Y-84742252D01*
D11*
X63500000Y-58420000D03*
D12*
X63500000Y-60960000D03*
X63500000Y-63500000D03*
X63500000Y-66040000D03*
X63500000Y-68580000D03*
X63500000Y-71120000D03*
D10*
G36*
X74804628Y-44323126D02*
X76707874Y-43435628D01*
X77595372Y-45338874D01*
X75692126Y-46226372D01*
X74804628Y-44323126D01*
X74804628Y-44323126D01*
G37*
D15*
X73897978Y-45904450D02*
X73897978Y-45904450D01*
X71595956Y-46977901D02*
X71595956Y-46977901D01*
X69293935Y-48051351D02*
X69293935Y-48051351D01*
X66991913Y-49124802D02*
X66991913Y-49124802D01*
X64689891Y-50198252D02*
X64689891Y-50198252D01*
D16*
X64135000Y-45720000D03*
X81915000Y-45720000D03*
X64135000Y-83820000D03*
X81915000Y-83820000D03*
D17*
X69850000Y-55245000D03*
D18*
X67310000Y-55245000D03*
D17*
X69850000Y-74295000D03*
D18*
X67310000Y-74295000D03*
M02*
