M48
;DRILL file {KiCad 4.0.7} date 06/11/20 11:20:35
;FORMAT={2:4/ absolute / inch / suppress leading zeros}
FMAT,2
INCH,TZ
T1C0.030
T2C0.031
T3C0.039
T4C0.138
%
G90
G05
M72
T1
X30638Y-19000
X30638Y-29750
X30638Y-36500
X30638Y-47250
X31425Y-19000
X31425Y-29750
X31425Y-36500
X31425Y-47250
X32213Y-19000
X32213Y-29750
X32213Y-36500
X32213Y-47250
X33000Y-19000
X33000Y-29750
X33000Y-36500
X33000Y-47250
X40138Y-19000
X40138Y-29750
X40138Y-36500
X40138Y-47250
X40925Y-19000
X40925Y-29750
X40925Y-36500
X40925Y-47250
X41713Y-19000
X41713Y-29750
X41713Y-36500
X41713Y-47250
X42500Y-19000
X42500Y-29750
X42500Y-36500
X42500Y-47250
X49638Y-19000
X49638Y-29750
X49638Y-36500
X49638Y-47250
X50425Y-19000
X50425Y-29750
X50425Y-36500
X50425Y-47250
X51213Y-19000
X51213Y-29750
X51213Y-36500
X51213Y-47250
X52000Y-19000
X52000Y-29750
X52000Y-36500
X52000Y-47250
X59138Y-19000
X59138Y-29750
X59138Y-36500
X59138Y-47250
X59925Y-19000
X59925Y-29750
X59925Y-36500
X59925Y-47250
X60713Y-19000
X60713Y-29750
X60713Y-36500
X60713Y-47250
X61500Y-19000
X61500Y-29750
X61500Y-36500
X61500Y-47250
T2
X27500Y-20750
X27500Y-28250
X27500Y-38250
X27500Y-45750
X28500Y-20750
X28500Y-28250
X28500Y-38250
X28500Y-45750
X37000Y-20750
X37000Y-28250
X37000Y-38250
X37000Y-45750
X38000Y-20750
X38000Y-28250
X38000Y-38250
X38000Y-45750
X46500Y-20750
X46500Y-28250
X46500Y-38250
X46500Y-45750
X47500Y-20750
X47500Y-28250
X47500Y-38250
X47500Y-45750
X56000Y-20750
X56000Y-28250
X56000Y-38250
X56000Y-45750
X57000Y-20750
X57000Y-28250
X57000Y-38250
X57000Y-45750
T3
X26000Y-22000
X26000Y-23000
X26000Y-24000
X26000Y-25000
X26000Y-26000
X26000Y-27000
X26000Y-39500
X26000Y-40500
X26000Y-41500
X26000Y-42500
X26000Y-43500
X26000Y-44500
X26468Y-18763
X26468Y-36263
X26500Y-30250
X26500Y-47750
X27375Y-18340
X27375Y-35840
X27406Y-30673
X27406Y-48173
X27500Y-23000
X27500Y-24000
X27500Y-25000
X27500Y-26000
X27500Y-40500
X27500Y-41500
X27500Y-42500
X27500Y-43500
X28281Y-17918
X28281Y-35418
X28313Y-31095
X28313Y-48595
X28500Y-23000
X28500Y-24000
X28500Y-25000
X28500Y-26000
X28500Y-40500
X28500Y-41500
X28500Y-42500
X28500Y-43500
X29187Y-17495
X29187Y-34995
X29219Y-31518
X29219Y-49018
X30000Y-21000
X30000Y-22000
X30000Y-23000
X30000Y-24000
X30000Y-25000
X30000Y-26000
X30000Y-27000
X30000Y-28000
X30000Y-38500
X30000Y-39500
X30000Y-40500
X30000Y-41500
X30000Y-42500
X30000Y-43500
X30000Y-44500
X30000Y-45500
X30094Y-17073
X30094Y-34573
X30125Y-31940
X30125Y-49440
X31000Y-16650
X31000Y-34150
X31032Y-32363
X31032Y-49863
X35500Y-22000
X35500Y-23000
X35500Y-24000
X35500Y-25000
X35500Y-26000
X35500Y-27000
X35500Y-39500
X35500Y-40500
X35500Y-41500
X35500Y-42500
X35500Y-43500
X35500Y-44500
X35968Y-18763
X35968Y-36263
X36000Y-30250
X36000Y-47750
X36875Y-18340
X36875Y-35840
X36906Y-30673
X36906Y-48173
X37000Y-23000
X37000Y-24000
X37000Y-25000
X37000Y-26000
X37000Y-40500
X37000Y-41500
X37000Y-42500
X37000Y-43500
X37781Y-17918
X37781Y-35418
X37813Y-31095
X37813Y-48595
X38000Y-23000
X38000Y-24000
X38000Y-25000
X38000Y-26000
X38000Y-40500
X38000Y-41500
X38000Y-42500
X38000Y-43500
X38687Y-17495
X38687Y-34995
X38719Y-31518
X38719Y-49018
X39500Y-21000
X39500Y-22000
X39500Y-23000
X39500Y-24000
X39500Y-25000
X39500Y-26000
X39500Y-27000
X39500Y-28000
X39500Y-38500
X39500Y-39500
X39500Y-40500
X39500Y-41500
X39500Y-42500
X39500Y-43500
X39500Y-44500
X39500Y-45500
X39594Y-17073
X39594Y-34573
X39625Y-31940
X39625Y-49440
X40500Y-16650
X40500Y-34150
X40532Y-32363
X40532Y-49863
X45000Y-22000
X45000Y-23000
X45000Y-24000
X45000Y-25000
X45000Y-26000
X45000Y-27000
X45000Y-39500
X45000Y-40500
X45000Y-41500
X45000Y-42500
X45000Y-43500
X45000Y-44500
X45468Y-18763
X45468Y-36263
X45500Y-30250
X45500Y-47750
X46375Y-18340
X46375Y-35840
X46406Y-30673
X46406Y-48173
X46500Y-23000
X46500Y-24000
X46500Y-25000
X46500Y-26000
X46500Y-40500
X46500Y-41500
X46500Y-42500
X46500Y-43500
X47281Y-17918
X47281Y-35418
X47313Y-31095
X47313Y-48595
X47500Y-23000
X47500Y-24000
X47500Y-25000
X47500Y-26000
X47500Y-40500
X47500Y-41500
X47500Y-42500
X47500Y-43500
X48187Y-17495
X48187Y-34995
X48219Y-31518
X48219Y-49018
X49000Y-21000
X49000Y-22000
X49000Y-23000
X49000Y-24000
X49000Y-25000
X49000Y-26000
X49000Y-27000
X49000Y-28000
X49000Y-38500
X49000Y-39500
X49000Y-40500
X49000Y-41500
X49000Y-42500
X49000Y-43500
X49000Y-44500
X49000Y-45500
X49094Y-17073
X49094Y-34573
X49125Y-31940
X49125Y-49440
X50000Y-16650
X50000Y-34150
X50032Y-32363
X50032Y-49863
X54500Y-22000
X54500Y-23000
X54500Y-24000
X54500Y-25000
X54500Y-26000
X54500Y-27000
X54500Y-39500
X54500Y-40500
X54500Y-41500
X54500Y-42500
X54500Y-43500
X54500Y-44500
X54968Y-18763
X54968Y-36263
X55000Y-30250
X55000Y-47750
X55875Y-18340
X55875Y-35840
X55906Y-30673
X55906Y-48173
X56000Y-23000
X56000Y-24000
X56000Y-25000
X56000Y-26000
X56000Y-40500
X56000Y-41500
X56000Y-42500
X56000Y-43500
X56781Y-17918
X56781Y-35418
X56813Y-31095
X56813Y-48595
X57000Y-23000
X57000Y-24000
X57000Y-25000
X57000Y-26000
X57000Y-40500
X57000Y-41500
X57000Y-42500
X57000Y-43500
X57687Y-17495
X57687Y-34995
X57719Y-31518
X57719Y-49018
X58500Y-21000
X58500Y-22000
X58500Y-23000
X58500Y-24000
X58500Y-25000
X58500Y-26000
X58500Y-27000
X58500Y-28000
X58500Y-38500
X58500Y-39500
X58500Y-40500
X58500Y-41500
X58500Y-42500
X58500Y-43500
X58500Y-44500
X58500Y-45500
X58594Y-17073
X58594Y-34573
X58625Y-31940
X58625Y-49440
X59500Y-16650
X59500Y-34150
X59532Y-32363
X59532Y-49863
T4
X26250Y-17000
X26250Y-32000
X26250Y-34500
X26250Y-49500
X33250Y-17000
X33250Y-32000
X33250Y-34500
X33250Y-49500
X35750Y-17000
X35750Y-32000
X35750Y-34500
X35750Y-49500
X42750Y-17000
X42750Y-32000
X42750Y-34500
X42750Y-49500
X45250Y-17000
X45250Y-32000
X45250Y-34500
X45250Y-49500
X52250Y-17000
X52250Y-32000
X52250Y-34500
X52250Y-49500
X54750Y-17000
X54750Y-32000
X54750Y-34500
X54750Y-49500
X61750Y-17000
X61750Y-32000
X61750Y-34500
X61750Y-49500
T0
M30
