G04 #@! TF.FileFunction,Legend,Top*
%FSLAX46Y46*%
G04 Gerber Fmt 4.6, Leading zero omitted, Abs format (unit mm)*
G04 Created by KiCad (PCBNEW 4.0.7) date 06/11/20 11:20:33*
%MOMM*%
%LPD*%
G01*
G04 APERTURE LIST*
%ADD10C,0.100000*%
%ADD11C,0.200000*%
%ADD12C,0.300000*%
%ADD13C,0.150000*%
%ADD14C,0.120000*%
%ADD15R,2.100000X2.100000*%
%ADD16O,2.100000X2.100000*%
%ADD17C,2.000000*%
%ADD18O,2.000000X2.000000*%
%ADD19C,2.100000*%
%ADD20C,3.900000*%
%ADD21R,1.600000X2.100000*%
%ADD22O,1.600000X2.100000*%
G04 APERTURE END LIST*
D10*
D11*
X135890000Y-132715000D02*
X138430000Y-135255000D01*
X135890000Y-132715000D02*
X133350000Y-135255000D01*
X135890000Y-132715000D02*
X135890000Y-137795000D01*
D12*
X137532857Y-141383571D02*
X134532857Y-142383571D01*
X137532857Y-143383571D01*
X135675714Y-144383572D02*
X135675714Y-146669286D01*
X134818571Y-149812143D02*
X134675714Y-149669286D01*
X134532857Y-149240715D01*
X134532857Y-148955001D01*
X134675714Y-148526429D01*
X134961429Y-148240715D01*
X135247143Y-148097858D01*
X135818571Y-147955001D01*
X136247143Y-147955001D01*
X136818571Y-148097858D01*
X137104286Y-148240715D01*
X137390000Y-148526429D01*
X137532857Y-148955001D01*
X137532857Y-149240715D01*
X137390000Y-149669286D01*
X137247143Y-149812143D01*
X136532857Y-152383572D02*
X134532857Y-152383572D01*
X136532857Y-151097858D02*
X134961429Y-151097858D01*
X134675714Y-151240715D01*
X134532857Y-151526429D01*
X134532857Y-151955001D01*
X134675714Y-152240715D01*
X134818571Y-152383572D01*
X136532857Y-153383572D02*
X136532857Y-154526429D01*
X137532857Y-153812144D02*
X134961429Y-153812144D01*
X134675714Y-153955001D01*
X134532857Y-154240715D01*
X134532857Y-154526429D01*
X113402857Y-141383571D02*
X110402857Y-142383571D01*
X113402857Y-143383571D01*
X111545714Y-144383572D02*
X111545714Y-146669286D01*
X110688571Y-149812143D02*
X110545714Y-149669286D01*
X110402857Y-149240715D01*
X110402857Y-148955001D01*
X110545714Y-148526429D01*
X110831429Y-148240715D01*
X111117143Y-148097858D01*
X111688571Y-147955001D01*
X112117143Y-147955001D01*
X112688571Y-148097858D01*
X112974286Y-148240715D01*
X113260000Y-148526429D01*
X113402857Y-148955001D01*
X113402857Y-149240715D01*
X113260000Y-149669286D01*
X113117143Y-149812143D01*
X112402857Y-152383572D02*
X110402857Y-152383572D01*
X112402857Y-151097858D02*
X110831429Y-151097858D01*
X110545714Y-151240715D01*
X110402857Y-151526429D01*
X110402857Y-151955001D01*
X110545714Y-152240715D01*
X110688571Y-152383572D01*
X112402857Y-153383572D02*
X112402857Y-154526429D01*
X113402857Y-153812144D02*
X110831429Y-153812144D01*
X110545714Y-153955001D01*
X110402857Y-154240715D01*
X110402857Y-154526429D01*
D11*
X111760000Y-132715000D02*
X111760000Y-137795000D01*
X111760000Y-132715000D02*
X109220000Y-135255000D01*
X111760000Y-132715000D02*
X114300000Y-135255000D01*
X87630000Y-132715000D02*
X90170000Y-135255000D01*
X87630000Y-132715000D02*
X85090000Y-135255000D01*
X87630000Y-132715000D02*
X87630000Y-137795000D01*
D12*
X89272857Y-141383571D02*
X86272857Y-142383571D01*
X89272857Y-143383571D01*
X87415714Y-144383572D02*
X87415714Y-146669286D01*
X86558571Y-149812143D02*
X86415714Y-149669286D01*
X86272857Y-149240715D01*
X86272857Y-148955001D01*
X86415714Y-148526429D01*
X86701429Y-148240715D01*
X86987143Y-148097858D01*
X87558571Y-147955001D01*
X87987143Y-147955001D01*
X88558571Y-148097858D01*
X88844286Y-148240715D01*
X89130000Y-148526429D01*
X89272857Y-148955001D01*
X89272857Y-149240715D01*
X89130000Y-149669286D01*
X88987143Y-149812143D01*
X88272857Y-152383572D02*
X86272857Y-152383572D01*
X88272857Y-151097858D02*
X86701429Y-151097858D01*
X86415714Y-151240715D01*
X86272857Y-151526429D01*
X86272857Y-151955001D01*
X86415714Y-152240715D01*
X86558571Y-152383572D01*
X88272857Y-153383572D02*
X88272857Y-154526429D01*
X89272857Y-153812144D02*
X86701429Y-153812144D01*
X86415714Y-153955001D01*
X86272857Y-154240715D01*
X86272857Y-154526429D01*
X173768571Y-82812143D02*
X174768571Y-85812143D01*
X175768571Y-82812143D01*
X176768572Y-84669286D02*
X179054286Y-84669286D01*
X182197143Y-85526429D02*
X182054286Y-85669286D01*
X181625715Y-85812143D01*
X181340001Y-85812143D01*
X180911429Y-85669286D01*
X180625715Y-85383571D01*
X180482858Y-85097857D01*
X180340001Y-84526429D01*
X180340001Y-84097857D01*
X180482858Y-83526429D01*
X180625715Y-83240714D01*
X180911429Y-82955000D01*
X181340001Y-82812143D01*
X181625715Y-82812143D01*
X182054286Y-82955000D01*
X182197143Y-83097857D01*
X184768572Y-83812143D02*
X184768572Y-85812143D01*
X183482858Y-83812143D02*
X183482858Y-85383571D01*
X183625715Y-85669286D01*
X183911429Y-85812143D01*
X184340001Y-85812143D01*
X184625715Y-85669286D01*
X184768572Y-85526429D01*
X185768572Y-83812143D02*
X186911429Y-83812143D01*
X186197144Y-82812143D02*
X186197144Y-85383571D01*
X186340001Y-85669286D01*
X186625715Y-85812143D01*
X186911429Y-85812143D01*
D11*
X165100000Y-84455000D02*
X170180000Y-84455000D01*
X165100000Y-84455000D02*
X167640000Y-86995000D01*
X165100000Y-84455000D02*
X167640000Y-81915000D01*
D13*
X146137381Y-114268095D02*
X146137381Y-113649047D01*
X146518333Y-113982381D01*
X146518333Y-113839523D01*
X146565952Y-113744285D01*
X146613571Y-113696666D01*
X146708810Y-113649047D01*
X146946905Y-113649047D01*
X147042143Y-113696666D01*
X147089762Y-113744285D01*
X147137381Y-113839523D01*
X147137381Y-114125238D01*
X147089762Y-114220476D01*
X147042143Y-114268095D01*
X146137381Y-113363333D02*
X147137381Y-113030000D01*
X146137381Y-112696666D01*
X146137381Y-112458571D02*
X146137381Y-111839523D01*
X146518333Y-112172857D01*
X146518333Y-112029999D01*
X146565952Y-111934761D01*
X146613571Y-111887142D01*
X146708810Y-111839523D01*
X146946905Y-111839523D01*
X147042143Y-111887142D01*
X147089762Y-111934761D01*
X147137381Y-112029999D01*
X147137381Y-112315714D01*
X147089762Y-112410952D01*
X147042143Y-112458571D01*
X122007381Y-114268095D02*
X122007381Y-113649047D01*
X122388333Y-113982381D01*
X122388333Y-113839523D01*
X122435952Y-113744285D01*
X122483571Y-113696666D01*
X122578810Y-113649047D01*
X122816905Y-113649047D01*
X122912143Y-113696666D01*
X122959762Y-113744285D01*
X123007381Y-113839523D01*
X123007381Y-114125238D01*
X122959762Y-114220476D01*
X122912143Y-114268095D01*
X122007381Y-113363333D02*
X123007381Y-113030000D01*
X122007381Y-112696666D01*
X122007381Y-112458571D02*
X122007381Y-111839523D01*
X122388333Y-112172857D01*
X122388333Y-112029999D01*
X122435952Y-111934761D01*
X122483571Y-111887142D01*
X122578810Y-111839523D01*
X122816905Y-111839523D01*
X122912143Y-111887142D01*
X122959762Y-111934761D01*
X123007381Y-112029999D01*
X123007381Y-112315714D01*
X122959762Y-112410952D01*
X122912143Y-112458571D01*
X97877381Y-114268095D02*
X97877381Y-113649047D01*
X98258333Y-113982381D01*
X98258333Y-113839523D01*
X98305952Y-113744285D01*
X98353571Y-113696666D01*
X98448810Y-113649047D01*
X98686905Y-113649047D01*
X98782143Y-113696666D01*
X98829762Y-113744285D01*
X98877381Y-113839523D01*
X98877381Y-114125238D01*
X98829762Y-114220476D01*
X98782143Y-114268095D01*
X97877381Y-113363333D02*
X98877381Y-113030000D01*
X97877381Y-112696666D01*
X97877381Y-112458571D02*
X97877381Y-111839523D01*
X98258333Y-112172857D01*
X98258333Y-112029999D01*
X98305952Y-111934761D01*
X98353571Y-111887142D01*
X98448810Y-111839523D01*
X98686905Y-111839523D01*
X98782143Y-111887142D01*
X98829762Y-111934761D01*
X98877381Y-112029999D01*
X98877381Y-112315714D01*
X98829762Y-112410952D01*
X98782143Y-112458571D01*
X73747381Y-114268095D02*
X73747381Y-113649047D01*
X74128333Y-113982381D01*
X74128333Y-113839523D01*
X74175952Y-113744285D01*
X74223571Y-113696666D01*
X74318810Y-113649047D01*
X74556905Y-113649047D01*
X74652143Y-113696666D01*
X74699762Y-113744285D01*
X74747381Y-113839523D01*
X74747381Y-114125238D01*
X74699762Y-114220476D01*
X74652143Y-114268095D01*
X73747381Y-113363333D02*
X74747381Y-113030000D01*
X73747381Y-112696666D01*
X73747381Y-112458571D02*
X73747381Y-111839523D01*
X74128333Y-112172857D01*
X74128333Y-112029999D01*
X74175952Y-111934761D01*
X74223571Y-111887142D01*
X74318810Y-111839523D01*
X74556905Y-111839523D01*
X74652143Y-111887142D01*
X74699762Y-111934761D01*
X74747381Y-112029999D01*
X74747381Y-112315714D01*
X74699762Y-112410952D01*
X74652143Y-112458571D01*
X146137381Y-69818095D02*
X146137381Y-69199047D01*
X146518333Y-69532381D01*
X146518333Y-69389523D01*
X146565952Y-69294285D01*
X146613571Y-69246666D01*
X146708810Y-69199047D01*
X146946905Y-69199047D01*
X147042143Y-69246666D01*
X147089762Y-69294285D01*
X147137381Y-69389523D01*
X147137381Y-69675238D01*
X147089762Y-69770476D01*
X147042143Y-69818095D01*
X146137381Y-68913333D02*
X147137381Y-68580000D01*
X146137381Y-68246666D01*
X146137381Y-68008571D02*
X146137381Y-67389523D01*
X146518333Y-67722857D01*
X146518333Y-67579999D01*
X146565952Y-67484761D01*
X146613571Y-67437142D01*
X146708810Y-67389523D01*
X146946905Y-67389523D01*
X147042143Y-67437142D01*
X147089762Y-67484761D01*
X147137381Y-67579999D01*
X147137381Y-67865714D01*
X147089762Y-67960952D01*
X147042143Y-68008571D01*
X122007381Y-69818095D02*
X122007381Y-69199047D01*
X122388333Y-69532381D01*
X122388333Y-69389523D01*
X122435952Y-69294285D01*
X122483571Y-69246666D01*
X122578810Y-69199047D01*
X122816905Y-69199047D01*
X122912143Y-69246666D01*
X122959762Y-69294285D01*
X123007381Y-69389523D01*
X123007381Y-69675238D01*
X122959762Y-69770476D01*
X122912143Y-69818095D01*
X122007381Y-68913333D02*
X123007381Y-68580000D01*
X122007381Y-68246666D01*
X122007381Y-68008571D02*
X122007381Y-67389523D01*
X122388333Y-67722857D01*
X122388333Y-67579999D01*
X122435952Y-67484761D01*
X122483571Y-67437142D01*
X122578810Y-67389523D01*
X122816905Y-67389523D01*
X122912143Y-67437142D01*
X122959762Y-67484761D01*
X123007381Y-67579999D01*
X123007381Y-67865714D01*
X122959762Y-67960952D01*
X122912143Y-68008571D01*
X97877381Y-69818095D02*
X97877381Y-69199047D01*
X98258333Y-69532381D01*
X98258333Y-69389523D01*
X98305952Y-69294285D01*
X98353571Y-69246666D01*
X98448810Y-69199047D01*
X98686905Y-69199047D01*
X98782143Y-69246666D01*
X98829762Y-69294285D01*
X98877381Y-69389523D01*
X98877381Y-69675238D01*
X98829762Y-69770476D01*
X98782143Y-69818095D01*
X97877381Y-68913333D02*
X98877381Y-68580000D01*
X97877381Y-68246666D01*
X97877381Y-68008571D02*
X97877381Y-67389523D01*
X98258333Y-67722857D01*
X98258333Y-67579999D01*
X98305952Y-67484761D01*
X98353571Y-67437142D01*
X98448810Y-67389523D01*
X98686905Y-67389523D01*
X98782143Y-67437142D01*
X98829762Y-67484761D01*
X98877381Y-67579999D01*
X98877381Y-67865714D01*
X98829762Y-67960952D01*
X98782143Y-68008571D01*
D11*
X146685000Y-111125000D02*
X146685000Y-108585000D01*
X122555000Y-111125000D02*
X122555000Y-108585000D01*
X98425000Y-111125000D02*
X98425000Y-108585000D01*
X74295000Y-111125000D02*
X74295000Y-108585000D01*
X146685000Y-66675000D02*
X146685000Y-64135000D01*
X122555000Y-66675000D02*
X122555000Y-64135000D01*
X98425000Y-66675000D02*
X98425000Y-64135000D01*
D13*
X146185000Y-98551904D02*
X146137381Y-98647142D01*
X146137381Y-98789999D01*
X146185000Y-98932857D01*
X146280238Y-99028095D01*
X146375476Y-99075714D01*
X146565952Y-99123333D01*
X146708810Y-99123333D01*
X146899286Y-99075714D01*
X146994524Y-99028095D01*
X147089762Y-98932857D01*
X147137381Y-98789999D01*
X147137381Y-98694761D01*
X147089762Y-98551904D01*
X147042143Y-98504285D01*
X146708810Y-98504285D01*
X146708810Y-98694761D01*
X147137381Y-98075714D02*
X146137381Y-98075714D01*
X147137381Y-97504285D01*
X146137381Y-97504285D01*
X147137381Y-97028095D02*
X146137381Y-97028095D01*
X146137381Y-96790000D01*
X146185000Y-96647142D01*
X146280238Y-96551904D01*
X146375476Y-96504285D01*
X146565952Y-96456666D01*
X146708810Y-96456666D01*
X146899286Y-96504285D01*
X146994524Y-96551904D01*
X147089762Y-96647142D01*
X147137381Y-96790000D01*
X147137381Y-97028095D01*
X122055000Y-98551904D02*
X122007381Y-98647142D01*
X122007381Y-98789999D01*
X122055000Y-98932857D01*
X122150238Y-99028095D01*
X122245476Y-99075714D01*
X122435952Y-99123333D01*
X122578810Y-99123333D01*
X122769286Y-99075714D01*
X122864524Y-99028095D01*
X122959762Y-98932857D01*
X123007381Y-98789999D01*
X123007381Y-98694761D01*
X122959762Y-98551904D01*
X122912143Y-98504285D01*
X122578810Y-98504285D01*
X122578810Y-98694761D01*
X123007381Y-98075714D02*
X122007381Y-98075714D01*
X123007381Y-97504285D01*
X122007381Y-97504285D01*
X123007381Y-97028095D02*
X122007381Y-97028095D01*
X122007381Y-96790000D01*
X122055000Y-96647142D01*
X122150238Y-96551904D01*
X122245476Y-96504285D01*
X122435952Y-96456666D01*
X122578810Y-96456666D01*
X122769286Y-96504285D01*
X122864524Y-96551904D01*
X122959762Y-96647142D01*
X123007381Y-96790000D01*
X123007381Y-97028095D01*
X97925000Y-98551904D02*
X97877381Y-98647142D01*
X97877381Y-98789999D01*
X97925000Y-98932857D01*
X98020238Y-99028095D01*
X98115476Y-99075714D01*
X98305952Y-99123333D01*
X98448810Y-99123333D01*
X98639286Y-99075714D01*
X98734524Y-99028095D01*
X98829762Y-98932857D01*
X98877381Y-98789999D01*
X98877381Y-98694761D01*
X98829762Y-98551904D01*
X98782143Y-98504285D01*
X98448810Y-98504285D01*
X98448810Y-98694761D01*
X98877381Y-98075714D02*
X97877381Y-98075714D01*
X98877381Y-97504285D01*
X97877381Y-97504285D01*
X98877381Y-97028095D02*
X97877381Y-97028095D01*
X97877381Y-96790000D01*
X97925000Y-96647142D01*
X98020238Y-96551904D01*
X98115476Y-96504285D01*
X98305952Y-96456666D01*
X98448810Y-96456666D01*
X98639286Y-96504285D01*
X98734524Y-96551904D01*
X98829762Y-96647142D01*
X98877381Y-96790000D01*
X98877381Y-97028095D01*
X73795000Y-98551904D02*
X73747381Y-98647142D01*
X73747381Y-98789999D01*
X73795000Y-98932857D01*
X73890238Y-99028095D01*
X73985476Y-99075714D01*
X74175952Y-99123333D01*
X74318810Y-99123333D01*
X74509286Y-99075714D01*
X74604524Y-99028095D01*
X74699762Y-98932857D01*
X74747381Y-98789999D01*
X74747381Y-98694761D01*
X74699762Y-98551904D01*
X74652143Y-98504285D01*
X74318810Y-98504285D01*
X74318810Y-98694761D01*
X74747381Y-98075714D02*
X73747381Y-98075714D01*
X74747381Y-97504285D01*
X73747381Y-97504285D01*
X74747381Y-97028095D02*
X73747381Y-97028095D01*
X73747381Y-96790000D01*
X73795000Y-96647142D01*
X73890238Y-96551904D01*
X73985476Y-96504285D01*
X74175952Y-96456666D01*
X74318810Y-96456666D01*
X74509286Y-96504285D01*
X74604524Y-96551904D01*
X74699762Y-96647142D01*
X74747381Y-96790000D01*
X74747381Y-97028095D01*
X146185000Y-54101904D02*
X146137381Y-54197142D01*
X146137381Y-54339999D01*
X146185000Y-54482857D01*
X146280238Y-54578095D01*
X146375476Y-54625714D01*
X146565952Y-54673333D01*
X146708810Y-54673333D01*
X146899286Y-54625714D01*
X146994524Y-54578095D01*
X147089762Y-54482857D01*
X147137381Y-54339999D01*
X147137381Y-54244761D01*
X147089762Y-54101904D01*
X147042143Y-54054285D01*
X146708810Y-54054285D01*
X146708810Y-54244761D01*
X147137381Y-53625714D02*
X146137381Y-53625714D01*
X147137381Y-53054285D01*
X146137381Y-53054285D01*
X147137381Y-52578095D02*
X146137381Y-52578095D01*
X146137381Y-52340000D01*
X146185000Y-52197142D01*
X146280238Y-52101904D01*
X146375476Y-52054285D01*
X146565952Y-52006666D01*
X146708810Y-52006666D01*
X146899286Y-52054285D01*
X146994524Y-52101904D01*
X147089762Y-52197142D01*
X147137381Y-52340000D01*
X147137381Y-52578095D01*
X122055000Y-54101904D02*
X122007381Y-54197142D01*
X122007381Y-54339999D01*
X122055000Y-54482857D01*
X122150238Y-54578095D01*
X122245476Y-54625714D01*
X122435952Y-54673333D01*
X122578810Y-54673333D01*
X122769286Y-54625714D01*
X122864524Y-54578095D01*
X122959762Y-54482857D01*
X123007381Y-54339999D01*
X123007381Y-54244761D01*
X122959762Y-54101904D01*
X122912143Y-54054285D01*
X122578810Y-54054285D01*
X122578810Y-54244761D01*
X123007381Y-53625714D02*
X122007381Y-53625714D01*
X123007381Y-53054285D01*
X122007381Y-53054285D01*
X123007381Y-52578095D02*
X122007381Y-52578095D01*
X122007381Y-52340000D01*
X122055000Y-52197142D01*
X122150238Y-52101904D01*
X122245476Y-52054285D01*
X122435952Y-52006666D01*
X122578810Y-52006666D01*
X122769286Y-52054285D01*
X122864524Y-52101904D01*
X122959762Y-52197142D01*
X123007381Y-52340000D01*
X123007381Y-52578095D01*
X97925000Y-54101904D02*
X97877381Y-54197142D01*
X97877381Y-54339999D01*
X97925000Y-54482857D01*
X98020238Y-54578095D01*
X98115476Y-54625714D01*
X98305952Y-54673333D01*
X98448810Y-54673333D01*
X98639286Y-54625714D01*
X98734524Y-54578095D01*
X98829762Y-54482857D01*
X98877381Y-54339999D01*
X98877381Y-54244761D01*
X98829762Y-54101904D01*
X98782143Y-54054285D01*
X98448810Y-54054285D01*
X98448810Y-54244761D01*
X98877381Y-53625714D02*
X97877381Y-53625714D01*
X98877381Y-53054285D01*
X97877381Y-53054285D01*
X98877381Y-52578095D02*
X97877381Y-52578095D01*
X97877381Y-52340000D01*
X97925000Y-52197142D01*
X98020238Y-52101904D01*
X98115476Y-52054285D01*
X98305952Y-52006666D01*
X98448810Y-52006666D01*
X98639286Y-52054285D01*
X98734524Y-52101904D01*
X98829762Y-52197142D01*
X98877381Y-52340000D01*
X98877381Y-52578095D01*
D11*
X146685000Y-104775000D02*
X146685000Y-99695000D01*
X122555000Y-104775000D02*
X122555000Y-99695000D01*
X98425000Y-104775000D02*
X98425000Y-99695000D01*
X74295000Y-104775000D02*
X74295000Y-99695000D01*
X146685000Y-60325000D02*
X146685000Y-55245000D01*
X122555000Y-60325000D02*
X122555000Y-55245000D01*
X98425000Y-60325000D02*
X98425000Y-55245000D01*
X146685000Y-116840000D02*
X146685000Y-114935000D01*
X122555000Y-116840000D02*
X122555000Y-114935000D01*
X98425000Y-116840000D02*
X98425000Y-114935000D01*
X74295000Y-116840000D02*
X74295000Y-114935000D01*
X146685000Y-72390000D02*
X146685000Y-70485000D01*
X122555000Y-72390000D02*
X122555000Y-70485000D01*
X98425000Y-72390000D02*
X98425000Y-70485000D01*
X147363571Y-122215000D02*
X145863571Y-122215000D01*
X146935000Y-121815000D01*
X145863571Y-121415000D01*
X147363571Y-121415000D01*
X147363571Y-120672142D02*
X147292143Y-120786428D01*
X147220714Y-120843571D01*
X147077857Y-120900714D01*
X146649286Y-120900714D01*
X146506429Y-120843571D01*
X146435000Y-120786428D01*
X146363571Y-120672142D01*
X146363571Y-120500714D01*
X146435000Y-120386428D01*
X146506429Y-120329285D01*
X146649286Y-120272142D01*
X147077857Y-120272142D01*
X147220714Y-120329285D01*
X147292143Y-120386428D01*
X147363571Y-120500714D01*
X147363571Y-120672142D01*
X146363571Y-119929285D02*
X146363571Y-119472142D01*
X145863571Y-119757857D02*
X147149286Y-119757857D01*
X147292143Y-119700714D01*
X147363571Y-119586428D01*
X147363571Y-119472142D01*
X147363571Y-118900714D02*
X147292143Y-119015000D01*
X147220714Y-119072143D01*
X147077857Y-119129286D01*
X146649286Y-119129286D01*
X146506429Y-119072143D01*
X146435000Y-119015000D01*
X146363571Y-118900714D01*
X146363571Y-118729286D01*
X146435000Y-118615000D01*
X146506429Y-118557857D01*
X146649286Y-118500714D01*
X147077857Y-118500714D01*
X147220714Y-118557857D01*
X147292143Y-118615000D01*
X147363571Y-118729286D01*
X147363571Y-118900714D01*
X147363571Y-117986429D02*
X146363571Y-117986429D01*
X146649286Y-117986429D02*
X146506429Y-117929286D01*
X146435000Y-117872143D01*
X146363571Y-117757857D01*
X146363571Y-117643572D01*
X123233571Y-122215000D02*
X121733571Y-122215000D01*
X122805000Y-121815000D01*
X121733571Y-121415000D01*
X123233571Y-121415000D01*
X123233571Y-120672142D02*
X123162143Y-120786428D01*
X123090714Y-120843571D01*
X122947857Y-120900714D01*
X122519286Y-120900714D01*
X122376429Y-120843571D01*
X122305000Y-120786428D01*
X122233571Y-120672142D01*
X122233571Y-120500714D01*
X122305000Y-120386428D01*
X122376429Y-120329285D01*
X122519286Y-120272142D01*
X122947857Y-120272142D01*
X123090714Y-120329285D01*
X123162143Y-120386428D01*
X123233571Y-120500714D01*
X123233571Y-120672142D01*
X122233571Y-119929285D02*
X122233571Y-119472142D01*
X121733571Y-119757857D02*
X123019286Y-119757857D01*
X123162143Y-119700714D01*
X123233571Y-119586428D01*
X123233571Y-119472142D01*
X123233571Y-118900714D02*
X123162143Y-119015000D01*
X123090714Y-119072143D01*
X122947857Y-119129286D01*
X122519286Y-119129286D01*
X122376429Y-119072143D01*
X122305000Y-119015000D01*
X122233571Y-118900714D01*
X122233571Y-118729286D01*
X122305000Y-118615000D01*
X122376429Y-118557857D01*
X122519286Y-118500714D01*
X122947857Y-118500714D01*
X123090714Y-118557857D01*
X123162143Y-118615000D01*
X123233571Y-118729286D01*
X123233571Y-118900714D01*
X123233571Y-117986429D02*
X122233571Y-117986429D01*
X122519286Y-117986429D02*
X122376429Y-117929286D01*
X122305000Y-117872143D01*
X122233571Y-117757857D01*
X122233571Y-117643572D01*
X99103571Y-122215000D02*
X97603571Y-122215000D01*
X98675000Y-121815000D01*
X97603571Y-121415000D01*
X99103571Y-121415000D01*
X99103571Y-120672142D02*
X99032143Y-120786428D01*
X98960714Y-120843571D01*
X98817857Y-120900714D01*
X98389286Y-120900714D01*
X98246429Y-120843571D01*
X98175000Y-120786428D01*
X98103571Y-120672142D01*
X98103571Y-120500714D01*
X98175000Y-120386428D01*
X98246429Y-120329285D01*
X98389286Y-120272142D01*
X98817857Y-120272142D01*
X98960714Y-120329285D01*
X99032143Y-120386428D01*
X99103571Y-120500714D01*
X99103571Y-120672142D01*
X98103571Y-119929285D02*
X98103571Y-119472142D01*
X97603571Y-119757857D02*
X98889286Y-119757857D01*
X99032143Y-119700714D01*
X99103571Y-119586428D01*
X99103571Y-119472142D01*
X99103571Y-118900714D02*
X99032143Y-119015000D01*
X98960714Y-119072143D01*
X98817857Y-119129286D01*
X98389286Y-119129286D01*
X98246429Y-119072143D01*
X98175000Y-119015000D01*
X98103571Y-118900714D01*
X98103571Y-118729286D01*
X98175000Y-118615000D01*
X98246429Y-118557857D01*
X98389286Y-118500714D01*
X98817857Y-118500714D01*
X98960714Y-118557857D01*
X99032143Y-118615000D01*
X99103571Y-118729286D01*
X99103571Y-118900714D01*
X99103571Y-117986429D02*
X98103571Y-117986429D01*
X98389286Y-117986429D02*
X98246429Y-117929286D01*
X98175000Y-117872143D01*
X98103571Y-117757857D01*
X98103571Y-117643572D01*
X74973571Y-122215000D02*
X73473571Y-122215000D01*
X74545000Y-121815000D01*
X73473571Y-121415000D01*
X74973571Y-121415000D01*
X74973571Y-120672142D02*
X74902143Y-120786428D01*
X74830714Y-120843571D01*
X74687857Y-120900714D01*
X74259286Y-120900714D01*
X74116429Y-120843571D01*
X74045000Y-120786428D01*
X73973571Y-120672142D01*
X73973571Y-120500714D01*
X74045000Y-120386428D01*
X74116429Y-120329285D01*
X74259286Y-120272142D01*
X74687857Y-120272142D01*
X74830714Y-120329285D01*
X74902143Y-120386428D01*
X74973571Y-120500714D01*
X74973571Y-120672142D01*
X73973571Y-119929285D02*
X73973571Y-119472142D01*
X73473571Y-119757857D02*
X74759286Y-119757857D01*
X74902143Y-119700714D01*
X74973571Y-119586428D01*
X74973571Y-119472142D01*
X74973571Y-118900714D02*
X74902143Y-119015000D01*
X74830714Y-119072143D01*
X74687857Y-119129286D01*
X74259286Y-119129286D01*
X74116429Y-119072143D01*
X74045000Y-119015000D01*
X73973571Y-118900714D01*
X73973571Y-118729286D01*
X74045000Y-118615000D01*
X74116429Y-118557857D01*
X74259286Y-118500714D01*
X74687857Y-118500714D01*
X74830714Y-118557857D01*
X74902143Y-118615000D01*
X74973571Y-118729286D01*
X74973571Y-118900714D01*
X74973571Y-117986429D02*
X73973571Y-117986429D01*
X74259286Y-117986429D02*
X74116429Y-117929286D01*
X74045000Y-117872143D01*
X73973571Y-117757857D01*
X73973571Y-117643572D01*
X147363571Y-77765000D02*
X145863571Y-77765000D01*
X146935000Y-77365000D01*
X145863571Y-76965000D01*
X147363571Y-76965000D01*
X147363571Y-76222142D02*
X147292143Y-76336428D01*
X147220714Y-76393571D01*
X147077857Y-76450714D01*
X146649286Y-76450714D01*
X146506429Y-76393571D01*
X146435000Y-76336428D01*
X146363571Y-76222142D01*
X146363571Y-76050714D01*
X146435000Y-75936428D01*
X146506429Y-75879285D01*
X146649286Y-75822142D01*
X147077857Y-75822142D01*
X147220714Y-75879285D01*
X147292143Y-75936428D01*
X147363571Y-76050714D01*
X147363571Y-76222142D01*
X146363571Y-75479285D02*
X146363571Y-75022142D01*
X145863571Y-75307857D02*
X147149286Y-75307857D01*
X147292143Y-75250714D01*
X147363571Y-75136428D01*
X147363571Y-75022142D01*
X147363571Y-74450714D02*
X147292143Y-74565000D01*
X147220714Y-74622143D01*
X147077857Y-74679286D01*
X146649286Y-74679286D01*
X146506429Y-74622143D01*
X146435000Y-74565000D01*
X146363571Y-74450714D01*
X146363571Y-74279286D01*
X146435000Y-74165000D01*
X146506429Y-74107857D01*
X146649286Y-74050714D01*
X147077857Y-74050714D01*
X147220714Y-74107857D01*
X147292143Y-74165000D01*
X147363571Y-74279286D01*
X147363571Y-74450714D01*
X147363571Y-73536429D02*
X146363571Y-73536429D01*
X146649286Y-73536429D02*
X146506429Y-73479286D01*
X146435000Y-73422143D01*
X146363571Y-73307857D01*
X146363571Y-73193572D01*
X123233571Y-77765000D02*
X121733571Y-77765000D01*
X122805000Y-77365000D01*
X121733571Y-76965000D01*
X123233571Y-76965000D01*
X123233571Y-76222142D02*
X123162143Y-76336428D01*
X123090714Y-76393571D01*
X122947857Y-76450714D01*
X122519286Y-76450714D01*
X122376429Y-76393571D01*
X122305000Y-76336428D01*
X122233571Y-76222142D01*
X122233571Y-76050714D01*
X122305000Y-75936428D01*
X122376429Y-75879285D01*
X122519286Y-75822142D01*
X122947857Y-75822142D01*
X123090714Y-75879285D01*
X123162143Y-75936428D01*
X123233571Y-76050714D01*
X123233571Y-76222142D01*
X122233571Y-75479285D02*
X122233571Y-75022142D01*
X121733571Y-75307857D02*
X123019286Y-75307857D01*
X123162143Y-75250714D01*
X123233571Y-75136428D01*
X123233571Y-75022142D01*
X123233571Y-74450714D02*
X123162143Y-74565000D01*
X123090714Y-74622143D01*
X122947857Y-74679286D01*
X122519286Y-74679286D01*
X122376429Y-74622143D01*
X122305000Y-74565000D01*
X122233571Y-74450714D01*
X122233571Y-74279286D01*
X122305000Y-74165000D01*
X122376429Y-74107857D01*
X122519286Y-74050714D01*
X122947857Y-74050714D01*
X123090714Y-74107857D01*
X123162143Y-74165000D01*
X123233571Y-74279286D01*
X123233571Y-74450714D01*
X123233571Y-73536429D02*
X122233571Y-73536429D01*
X122519286Y-73536429D02*
X122376429Y-73479286D01*
X122305000Y-73422143D01*
X122233571Y-73307857D01*
X122233571Y-73193572D01*
X99103571Y-77765000D02*
X97603571Y-77765000D01*
X98675000Y-77365000D01*
X97603571Y-76965000D01*
X99103571Y-76965000D01*
X99103571Y-76222142D02*
X99032143Y-76336428D01*
X98960714Y-76393571D01*
X98817857Y-76450714D01*
X98389286Y-76450714D01*
X98246429Y-76393571D01*
X98175000Y-76336428D01*
X98103571Y-76222142D01*
X98103571Y-76050714D01*
X98175000Y-75936428D01*
X98246429Y-75879285D01*
X98389286Y-75822142D01*
X98817857Y-75822142D01*
X98960714Y-75879285D01*
X99032143Y-75936428D01*
X99103571Y-76050714D01*
X99103571Y-76222142D01*
X98103571Y-75479285D02*
X98103571Y-75022142D01*
X97603571Y-75307857D02*
X98889286Y-75307857D01*
X99032143Y-75250714D01*
X99103571Y-75136428D01*
X99103571Y-75022142D01*
X99103571Y-74450714D02*
X99032143Y-74565000D01*
X98960714Y-74622143D01*
X98817857Y-74679286D01*
X98389286Y-74679286D01*
X98246429Y-74622143D01*
X98175000Y-74565000D01*
X98103571Y-74450714D01*
X98103571Y-74279286D01*
X98175000Y-74165000D01*
X98246429Y-74107857D01*
X98389286Y-74050714D01*
X98817857Y-74050714D01*
X98960714Y-74107857D01*
X99032143Y-74165000D01*
X99103571Y-74279286D01*
X99103571Y-74450714D01*
X99103571Y-73536429D02*
X98103571Y-73536429D01*
X98389286Y-73536429D02*
X98246429Y-73479286D01*
X98175000Y-73422143D01*
X98103571Y-73307857D01*
X98103571Y-73193572D01*
X149225000Y-116840000D02*
X146685000Y-116840000D01*
X125095000Y-116840000D02*
X122555000Y-116840000D01*
X100965000Y-116840000D02*
X98425000Y-116840000D01*
X76835000Y-116840000D02*
X74295000Y-116840000D01*
X149225000Y-72390000D02*
X146685000Y-72390000D01*
X125095000Y-72390000D02*
X122555000Y-72390000D01*
X100965000Y-72390000D02*
X98425000Y-72390000D01*
X147363571Y-95430714D02*
X145863571Y-95430714D01*
X146935000Y-95030714D01*
X145863571Y-94630714D01*
X147363571Y-94630714D01*
X145863571Y-93487856D02*
X145863571Y-94059285D01*
X146577857Y-94116428D01*
X146506429Y-94059285D01*
X146435000Y-93944999D01*
X146435000Y-93659285D01*
X146506429Y-93544999D01*
X146577857Y-93487856D01*
X146720714Y-93430713D01*
X147077857Y-93430713D01*
X147220714Y-93487856D01*
X147292143Y-93544999D01*
X147363571Y-93659285D01*
X147363571Y-93944999D01*
X147292143Y-94059285D01*
X147220714Y-94116428D01*
X145935000Y-92287856D02*
X145863571Y-92402142D01*
X145863571Y-92573571D01*
X145935000Y-92744999D01*
X146077857Y-92859285D01*
X146220714Y-92916428D01*
X146506429Y-92973571D01*
X146720714Y-92973571D01*
X147006429Y-92916428D01*
X147149286Y-92859285D01*
X147292143Y-92744999D01*
X147363571Y-92573571D01*
X147363571Y-92459285D01*
X147292143Y-92287856D01*
X147220714Y-92230713D01*
X146720714Y-92230713D01*
X146720714Y-92459285D01*
X145863571Y-91887856D02*
X147363571Y-91487856D01*
X145863571Y-91087856D01*
X123233571Y-95430714D02*
X121733571Y-95430714D01*
X122805000Y-95030714D01*
X121733571Y-94630714D01*
X123233571Y-94630714D01*
X121733571Y-93487856D02*
X121733571Y-94059285D01*
X122447857Y-94116428D01*
X122376429Y-94059285D01*
X122305000Y-93944999D01*
X122305000Y-93659285D01*
X122376429Y-93544999D01*
X122447857Y-93487856D01*
X122590714Y-93430713D01*
X122947857Y-93430713D01*
X123090714Y-93487856D01*
X123162143Y-93544999D01*
X123233571Y-93659285D01*
X123233571Y-93944999D01*
X123162143Y-94059285D01*
X123090714Y-94116428D01*
X121805000Y-92287856D02*
X121733571Y-92402142D01*
X121733571Y-92573571D01*
X121805000Y-92744999D01*
X121947857Y-92859285D01*
X122090714Y-92916428D01*
X122376429Y-92973571D01*
X122590714Y-92973571D01*
X122876429Y-92916428D01*
X123019286Y-92859285D01*
X123162143Y-92744999D01*
X123233571Y-92573571D01*
X123233571Y-92459285D01*
X123162143Y-92287856D01*
X123090714Y-92230713D01*
X122590714Y-92230713D01*
X122590714Y-92459285D01*
X121733571Y-91887856D02*
X123233571Y-91487856D01*
X121733571Y-91087856D01*
X99103571Y-95430714D02*
X97603571Y-95430714D01*
X98675000Y-95030714D01*
X97603571Y-94630714D01*
X99103571Y-94630714D01*
X97603571Y-93487856D02*
X97603571Y-94059285D01*
X98317857Y-94116428D01*
X98246429Y-94059285D01*
X98175000Y-93944999D01*
X98175000Y-93659285D01*
X98246429Y-93544999D01*
X98317857Y-93487856D01*
X98460714Y-93430713D01*
X98817857Y-93430713D01*
X98960714Y-93487856D01*
X99032143Y-93544999D01*
X99103571Y-93659285D01*
X99103571Y-93944999D01*
X99032143Y-94059285D01*
X98960714Y-94116428D01*
X97675000Y-92287856D02*
X97603571Y-92402142D01*
X97603571Y-92573571D01*
X97675000Y-92744999D01*
X97817857Y-92859285D01*
X97960714Y-92916428D01*
X98246429Y-92973571D01*
X98460714Y-92973571D01*
X98746429Y-92916428D01*
X98889286Y-92859285D01*
X99032143Y-92744999D01*
X99103571Y-92573571D01*
X99103571Y-92459285D01*
X99032143Y-92287856D01*
X98960714Y-92230713D01*
X98460714Y-92230713D01*
X98460714Y-92459285D01*
X97603571Y-91887856D02*
X99103571Y-91487856D01*
X97603571Y-91087856D01*
X74973571Y-95430714D02*
X73473571Y-95430714D01*
X74545000Y-95030714D01*
X73473571Y-94630714D01*
X74973571Y-94630714D01*
X73473571Y-93487856D02*
X73473571Y-94059285D01*
X74187857Y-94116428D01*
X74116429Y-94059285D01*
X74045000Y-93944999D01*
X74045000Y-93659285D01*
X74116429Y-93544999D01*
X74187857Y-93487856D01*
X74330714Y-93430713D01*
X74687857Y-93430713D01*
X74830714Y-93487856D01*
X74902143Y-93544999D01*
X74973571Y-93659285D01*
X74973571Y-93944999D01*
X74902143Y-94059285D01*
X74830714Y-94116428D01*
X73545000Y-92287856D02*
X73473571Y-92402142D01*
X73473571Y-92573571D01*
X73545000Y-92744999D01*
X73687857Y-92859285D01*
X73830714Y-92916428D01*
X74116429Y-92973571D01*
X74330714Y-92973571D01*
X74616429Y-92916428D01*
X74759286Y-92859285D01*
X74902143Y-92744999D01*
X74973571Y-92573571D01*
X74973571Y-92459285D01*
X74902143Y-92287856D01*
X74830714Y-92230713D01*
X74330714Y-92230713D01*
X74330714Y-92459285D01*
X73473571Y-91887856D02*
X74973571Y-91487856D01*
X73473571Y-91087856D01*
X147363571Y-50980714D02*
X145863571Y-50980714D01*
X146935000Y-50580714D01*
X145863571Y-50180714D01*
X147363571Y-50180714D01*
X145863571Y-49037856D02*
X145863571Y-49609285D01*
X146577857Y-49666428D01*
X146506429Y-49609285D01*
X146435000Y-49494999D01*
X146435000Y-49209285D01*
X146506429Y-49094999D01*
X146577857Y-49037856D01*
X146720714Y-48980713D01*
X147077857Y-48980713D01*
X147220714Y-49037856D01*
X147292143Y-49094999D01*
X147363571Y-49209285D01*
X147363571Y-49494999D01*
X147292143Y-49609285D01*
X147220714Y-49666428D01*
X145935000Y-47837856D02*
X145863571Y-47952142D01*
X145863571Y-48123571D01*
X145935000Y-48294999D01*
X146077857Y-48409285D01*
X146220714Y-48466428D01*
X146506429Y-48523571D01*
X146720714Y-48523571D01*
X147006429Y-48466428D01*
X147149286Y-48409285D01*
X147292143Y-48294999D01*
X147363571Y-48123571D01*
X147363571Y-48009285D01*
X147292143Y-47837856D01*
X147220714Y-47780713D01*
X146720714Y-47780713D01*
X146720714Y-48009285D01*
X145863571Y-47437856D02*
X147363571Y-47037856D01*
X145863571Y-46637856D01*
X123233571Y-50980714D02*
X121733571Y-50980714D01*
X122805000Y-50580714D01*
X121733571Y-50180714D01*
X123233571Y-50180714D01*
X121733571Y-49037856D02*
X121733571Y-49609285D01*
X122447857Y-49666428D01*
X122376429Y-49609285D01*
X122305000Y-49494999D01*
X122305000Y-49209285D01*
X122376429Y-49094999D01*
X122447857Y-49037856D01*
X122590714Y-48980713D01*
X122947857Y-48980713D01*
X123090714Y-49037856D01*
X123162143Y-49094999D01*
X123233571Y-49209285D01*
X123233571Y-49494999D01*
X123162143Y-49609285D01*
X123090714Y-49666428D01*
X121805000Y-47837856D02*
X121733571Y-47952142D01*
X121733571Y-48123571D01*
X121805000Y-48294999D01*
X121947857Y-48409285D01*
X122090714Y-48466428D01*
X122376429Y-48523571D01*
X122590714Y-48523571D01*
X122876429Y-48466428D01*
X123019286Y-48409285D01*
X123162143Y-48294999D01*
X123233571Y-48123571D01*
X123233571Y-48009285D01*
X123162143Y-47837856D01*
X123090714Y-47780713D01*
X122590714Y-47780713D01*
X122590714Y-48009285D01*
X121733571Y-47437856D02*
X123233571Y-47037856D01*
X121733571Y-46637856D01*
X99103571Y-50980714D02*
X97603571Y-50980714D01*
X98675000Y-50580714D01*
X97603571Y-50180714D01*
X99103571Y-50180714D01*
X97603571Y-49037856D02*
X97603571Y-49609285D01*
X98317857Y-49666428D01*
X98246429Y-49609285D01*
X98175000Y-49494999D01*
X98175000Y-49209285D01*
X98246429Y-49094999D01*
X98317857Y-49037856D01*
X98460714Y-48980713D01*
X98817857Y-48980713D01*
X98960714Y-49037856D01*
X99032143Y-49094999D01*
X99103571Y-49209285D01*
X99103571Y-49494999D01*
X99032143Y-49609285D01*
X98960714Y-49666428D01*
X97675000Y-47837856D02*
X97603571Y-47952142D01*
X97603571Y-48123571D01*
X97675000Y-48294999D01*
X97817857Y-48409285D01*
X97960714Y-48466428D01*
X98246429Y-48523571D01*
X98460714Y-48523571D01*
X98746429Y-48466428D01*
X98889286Y-48409285D01*
X99032143Y-48294999D01*
X99103571Y-48123571D01*
X99103571Y-48009285D01*
X99032143Y-47837856D01*
X98960714Y-47780713D01*
X98460714Y-47780713D01*
X98460714Y-48009285D01*
X97603571Y-47437856D02*
X99103571Y-47037856D01*
X97603571Y-46637856D01*
X74295000Y-60325000D02*
X74295000Y-55245000D01*
X74295000Y-66675000D02*
X74295000Y-64135000D01*
X74295000Y-72390000D02*
X74295000Y-70485000D01*
X76835000Y-72390000D02*
X74295000Y-72390000D01*
D13*
X73747381Y-69818095D02*
X73747381Y-69199047D01*
X74128333Y-69532381D01*
X74128333Y-69389523D01*
X74175952Y-69294285D01*
X74223571Y-69246666D01*
X74318810Y-69199047D01*
X74556905Y-69199047D01*
X74652143Y-69246666D01*
X74699762Y-69294285D01*
X74747381Y-69389523D01*
X74747381Y-69675238D01*
X74699762Y-69770476D01*
X74652143Y-69818095D01*
X73747381Y-68913333D02*
X74747381Y-68580000D01*
X73747381Y-68246666D01*
X73747381Y-68008571D02*
X73747381Y-67389523D01*
X74128333Y-67722857D01*
X74128333Y-67579999D01*
X74175952Y-67484761D01*
X74223571Y-67437142D01*
X74318810Y-67389523D01*
X74556905Y-67389523D01*
X74652143Y-67437142D01*
X74699762Y-67484761D01*
X74747381Y-67579999D01*
X74747381Y-67865714D01*
X74699762Y-67960952D01*
X74652143Y-68008571D01*
X73795000Y-54101904D02*
X73747381Y-54197142D01*
X73747381Y-54339999D01*
X73795000Y-54482857D01*
X73890238Y-54578095D01*
X73985476Y-54625714D01*
X74175952Y-54673333D01*
X74318810Y-54673333D01*
X74509286Y-54625714D01*
X74604524Y-54578095D01*
X74699762Y-54482857D01*
X74747381Y-54339999D01*
X74747381Y-54244761D01*
X74699762Y-54101904D01*
X74652143Y-54054285D01*
X74318810Y-54054285D01*
X74318810Y-54244761D01*
X74747381Y-53625714D02*
X73747381Y-53625714D01*
X74747381Y-53054285D01*
X73747381Y-53054285D01*
X74747381Y-52578095D02*
X73747381Y-52578095D01*
X73747381Y-52340000D01*
X73795000Y-52197142D01*
X73890238Y-52101904D01*
X73985476Y-52054285D01*
X74175952Y-52006666D01*
X74318810Y-52006666D01*
X74509286Y-52054285D01*
X74604524Y-52101904D01*
X74699762Y-52197142D01*
X74747381Y-52340000D01*
X74747381Y-52578095D01*
D11*
X74973571Y-50980714D02*
X73473571Y-50980714D01*
X74545000Y-50580714D01*
X73473571Y-50180714D01*
X74973571Y-50180714D01*
X73473571Y-49037856D02*
X73473571Y-49609285D01*
X74187857Y-49666428D01*
X74116429Y-49609285D01*
X74045000Y-49494999D01*
X74045000Y-49209285D01*
X74116429Y-49094999D01*
X74187857Y-49037856D01*
X74330714Y-48980713D01*
X74687857Y-48980713D01*
X74830714Y-49037856D01*
X74902143Y-49094999D01*
X74973571Y-49209285D01*
X74973571Y-49494999D01*
X74902143Y-49609285D01*
X74830714Y-49666428D01*
X73545000Y-47837856D02*
X73473571Y-47952142D01*
X73473571Y-48123571D01*
X73545000Y-48294999D01*
X73687857Y-48409285D01*
X73830714Y-48466428D01*
X74116429Y-48523571D01*
X74330714Y-48523571D01*
X74616429Y-48466428D01*
X74759286Y-48409285D01*
X74902143Y-48294999D01*
X74973571Y-48123571D01*
X74973571Y-48009285D01*
X74902143Y-47837856D01*
X74830714Y-47780713D01*
X74330714Y-47780713D01*
X74330714Y-48009285D01*
X73473571Y-47437856D02*
X74973571Y-47037856D01*
X73473571Y-46637856D01*
X74973571Y-77765000D02*
X73473571Y-77765000D01*
X74545000Y-77365000D01*
X73473571Y-76965000D01*
X74973571Y-76965000D01*
X74973571Y-76222142D02*
X74902143Y-76336428D01*
X74830714Y-76393571D01*
X74687857Y-76450714D01*
X74259286Y-76450714D01*
X74116429Y-76393571D01*
X74045000Y-76336428D01*
X73973571Y-76222142D01*
X73973571Y-76050714D01*
X74045000Y-75936428D01*
X74116429Y-75879285D01*
X74259286Y-75822142D01*
X74687857Y-75822142D01*
X74830714Y-75879285D01*
X74902143Y-75936428D01*
X74973571Y-76050714D01*
X74973571Y-76222142D01*
X73973571Y-75479285D02*
X73973571Y-75022142D01*
X73473571Y-75307857D02*
X74759286Y-75307857D01*
X74902143Y-75250714D01*
X74973571Y-75136428D01*
X74973571Y-75022142D01*
X74973571Y-74450714D02*
X74902143Y-74565000D01*
X74830714Y-74622143D01*
X74687857Y-74679286D01*
X74259286Y-74679286D01*
X74116429Y-74622143D01*
X74045000Y-74565000D01*
X73973571Y-74450714D01*
X73973571Y-74279286D01*
X74045000Y-74165000D01*
X74116429Y-74107857D01*
X74259286Y-74050714D01*
X74687857Y-74050714D01*
X74830714Y-74107857D01*
X74902143Y-74165000D01*
X74973571Y-74279286D01*
X74973571Y-74450714D01*
X74973571Y-73536429D02*
X73973571Y-73536429D01*
X74259286Y-73536429D02*
X74116429Y-73479286D01*
X74045000Y-73422143D01*
X73973571Y-73307857D01*
X73973571Y-73193572D01*
D14*
X146090000Y-116205000D02*
G75*
G03X146090000Y-116205000I-1310000J0D01*
G01*
X143470000Y-116205000D02*
X143340000Y-116205000D01*
X121960000Y-116205000D02*
G75*
G03X121960000Y-116205000I-1310000J0D01*
G01*
X119340000Y-116205000D02*
X119210000Y-116205000D01*
X97830000Y-116205000D02*
G75*
G03X97830000Y-116205000I-1310000J0D01*
G01*
X95210000Y-116205000D02*
X95080000Y-116205000D01*
X73700000Y-116205000D02*
G75*
G03X73700000Y-116205000I-1310000J0D01*
G01*
X71080000Y-116205000D02*
X70950000Y-116205000D01*
X146090000Y-71755000D02*
G75*
G03X146090000Y-71755000I-1310000J0D01*
G01*
X143470000Y-71755000D02*
X143340000Y-71755000D01*
X121960000Y-71755000D02*
G75*
G03X121960000Y-71755000I-1310000J0D01*
G01*
X119340000Y-71755000D02*
X119210000Y-71755000D01*
X97830000Y-71755000D02*
G75*
G03X97830000Y-71755000I-1310000J0D01*
G01*
X95210000Y-71755000D02*
X95080000Y-71755000D01*
X146090000Y-97155000D02*
G75*
G03X146090000Y-97155000I-1310000J0D01*
G01*
X143470000Y-97155000D02*
X143340000Y-97155000D01*
X121960000Y-97155000D02*
G75*
G03X121960000Y-97155000I-1310000J0D01*
G01*
X119340000Y-97155000D02*
X119210000Y-97155000D01*
X97830000Y-97155000D02*
G75*
G03X97830000Y-97155000I-1310000J0D01*
G01*
X95210000Y-97155000D02*
X95080000Y-97155000D01*
X73700000Y-97155000D02*
G75*
G03X73700000Y-97155000I-1310000J0D01*
G01*
X71080000Y-97155000D02*
X70950000Y-97155000D01*
X146090000Y-52705000D02*
G75*
G03X146090000Y-52705000I-1310000J0D01*
G01*
X143470000Y-52705000D02*
X143340000Y-52705000D01*
X121960000Y-52705000D02*
G75*
G03X121960000Y-52705000I-1310000J0D01*
G01*
X119340000Y-52705000D02*
X119210000Y-52705000D01*
X97830000Y-52705000D02*
G75*
G03X97830000Y-52705000I-1310000J0D01*
G01*
X95210000Y-52705000D02*
X95080000Y-52705000D01*
X137852419Y-91464945D02*
X138976584Y-93875724D01*
X149416907Y-86072336D02*
X137852419Y-91464945D01*
X150541071Y-88483115D02*
X138976584Y-93875724D01*
X149416907Y-86072336D02*
X150541071Y-88483115D01*
X150567918Y-85535611D02*
X151773307Y-84973528D01*
X151773307Y-84973528D02*
X152335389Y-86178918D01*
X113722419Y-91464945D02*
X114846584Y-93875724D01*
X125286907Y-86072336D02*
X113722419Y-91464945D01*
X126411071Y-88483115D02*
X114846584Y-93875724D01*
X125286907Y-86072336D02*
X126411071Y-88483115D01*
X126437918Y-85535611D02*
X127643307Y-84973528D01*
X127643307Y-84973528D02*
X128205389Y-86178918D01*
X89592419Y-91464945D02*
X90716584Y-93875724D01*
X101156907Y-86072336D02*
X89592419Y-91464945D01*
X102281071Y-88483115D02*
X90716584Y-93875724D01*
X101156907Y-86072336D02*
X102281071Y-88483115D01*
X102307918Y-85535611D02*
X103513307Y-84973528D01*
X103513307Y-84973528D02*
X104075389Y-86178918D01*
X65462419Y-91464945D02*
X66586584Y-93875724D01*
X77026907Y-86072336D02*
X65462419Y-91464945D01*
X78151071Y-88483115D02*
X66586584Y-93875724D01*
X77026907Y-86072336D02*
X78151071Y-88483115D01*
X78177918Y-85535611D02*
X79383307Y-84973528D01*
X79383307Y-84973528D02*
X79945389Y-86178918D01*
X137852419Y-47014945D02*
X138976584Y-49425724D01*
X149416907Y-41622336D02*
X137852419Y-47014945D01*
X150541071Y-44033115D02*
X138976584Y-49425724D01*
X149416907Y-41622336D02*
X150541071Y-44033115D01*
X150567918Y-41085611D02*
X151773307Y-40523528D01*
X151773307Y-40523528D02*
X152335389Y-41728918D01*
X113722419Y-47014945D02*
X114846584Y-49425724D01*
X125286907Y-41622336D02*
X113722419Y-47014945D01*
X126411071Y-44033115D02*
X114846584Y-49425724D01*
X125286907Y-41622336D02*
X126411071Y-44033115D01*
X126437918Y-41085611D02*
X127643307Y-40523528D01*
X127643307Y-40523528D02*
X128205389Y-41728918D01*
X89592419Y-47014945D02*
X90716584Y-49425724D01*
X101156907Y-41622336D02*
X89592419Y-47014945D01*
X102281071Y-44033115D02*
X90716584Y-49425724D01*
X101156907Y-41622336D02*
X102281071Y-44033115D01*
X102307918Y-41085611D02*
X103513307Y-40523528D01*
X103513307Y-40523528D02*
X104075389Y-41728918D01*
X137100000Y-114360000D02*
X139760000Y-114360000D01*
X137100000Y-101600000D02*
X137100000Y-114360000D01*
X139760000Y-101600000D02*
X139760000Y-114360000D01*
X137100000Y-101600000D02*
X139760000Y-101600000D01*
X137100000Y-100330000D02*
X137100000Y-99000000D01*
X137100000Y-99000000D02*
X138430000Y-99000000D01*
X112970000Y-114360000D02*
X115630000Y-114360000D01*
X112970000Y-101600000D02*
X112970000Y-114360000D01*
X115630000Y-101600000D02*
X115630000Y-114360000D01*
X112970000Y-101600000D02*
X115630000Y-101600000D01*
X112970000Y-100330000D02*
X112970000Y-99000000D01*
X112970000Y-99000000D02*
X114300000Y-99000000D01*
X88840000Y-114360000D02*
X91500000Y-114360000D01*
X88840000Y-101600000D02*
X88840000Y-114360000D01*
X91500000Y-101600000D02*
X91500000Y-114360000D01*
X88840000Y-101600000D02*
X91500000Y-101600000D01*
X88840000Y-100330000D02*
X88840000Y-99000000D01*
X88840000Y-99000000D02*
X90170000Y-99000000D01*
X64710000Y-114360000D02*
X67370000Y-114360000D01*
X64710000Y-101600000D02*
X64710000Y-114360000D01*
X67370000Y-101600000D02*
X67370000Y-114360000D01*
X64710000Y-101600000D02*
X67370000Y-101600000D01*
X64710000Y-100330000D02*
X64710000Y-99000000D01*
X64710000Y-99000000D02*
X66040000Y-99000000D01*
X137100000Y-69910000D02*
X139760000Y-69910000D01*
X137100000Y-57150000D02*
X137100000Y-69910000D01*
X139760000Y-57150000D02*
X139760000Y-69910000D01*
X137100000Y-57150000D02*
X139760000Y-57150000D01*
X137100000Y-55880000D02*
X137100000Y-54550000D01*
X137100000Y-54550000D02*
X138430000Y-54550000D01*
X112970000Y-69910000D02*
X115630000Y-69910000D01*
X112970000Y-57150000D02*
X112970000Y-69910000D01*
X115630000Y-57150000D02*
X115630000Y-69910000D01*
X112970000Y-57150000D02*
X115630000Y-57150000D01*
X112970000Y-55880000D02*
X112970000Y-54550000D01*
X112970000Y-54550000D02*
X114300000Y-54550000D01*
X88840000Y-69910000D02*
X91500000Y-69910000D01*
X88840000Y-57150000D02*
X88840000Y-69910000D01*
X91500000Y-57150000D02*
X91500000Y-69910000D01*
X88840000Y-57150000D02*
X91500000Y-57150000D01*
X88840000Y-55880000D02*
X88840000Y-54550000D01*
X88840000Y-54550000D02*
X90170000Y-54550000D01*
X150030000Y-96460000D02*
X150030000Y-116900000D01*
X150030000Y-116900000D02*
X152690000Y-116900000D01*
X152690000Y-116900000D02*
X152690000Y-96460000D01*
X152690000Y-96460000D02*
X150030000Y-96460000D01*
X152690000Y-97410000D02*
X158690000Y-97410000D01*
X158690000Y-97410000D02*
X158690000Y-98170000D01*
X158690000Y-98170000D02*
X152690000Y-98170000D01*
X152690000Y-97470000D02*
X158690000Y-97470000D01*
X152690000Y-97590000D02*
X158690000Y-97590000D01*
X152690000Y-97710000D02*
X158690000Y-97710000D01*
X152690000Y-97830000D02*
X158690000Y-97830000D01*
X152690000Y-97950000D02*
X158690000Y-97950000D01*
X152690000Y-98070000D02*
X158690000Y-98070000D01*
X149700000Y-97410000D02*
X150030000Y-97410000D01*
X149700000Y-98170000D02*
X150030000Y-98170000D01*
X150030000Y-99060000D02*
X152690000Y-99060000D01*
X152690000Y-99950000D02*
X158690000Y-99950000D01*
X158690000Y-99950000D02*
X158690000Y-100710000D01*
X158690000Y-100710000D02*
X152690000Y-100710000D01*
X149632929Y-99950000D02*
X150030000Y-99950000D01*
X149632929Y-100710000D02*
X150030000Y-100710000D01*
X150030000Y-101600000D02*
X152690000Y-101600000D01*
X152690000Y-102490000D02*
X158690000Y-102490000D01*
X158690000Y-102490000D02*
X158690000Y-103250000D01*
X158690000Y-103250000D02*
X152690000Y-103250000D01*
X149632929Y-102490000D02*
X150030000Y-102490000D01*
X149632929Y-103250000D02*
X150030000Y-103250000D01*
X150030000Y-104140000D02*
X152690000Y-104140000D01*
X152690000Y-105030000D02*
X158690000Y-105030000D01*
X158690000Y-105030000D02*
X158690000Y-105790000D01*
X158690000Y-105790000D02*
X152690000Y-105790000D01*
X149632929Y-105030000D02*
X150030000Y-105030000D01*
X149632929Y-105790000D02*
X150030000Y-105790000D01*
X150030000Y-106680000D02*
X152690000Y-106680000D01*
X152690000Y-107570000D02*
X158690000Y-107570000D01*
X158690000Y-107570000D02*
X158690000Y-108330000D01*
X158690000Y-108330000D02*
X152690000Y-108330000D01*
X149632929Y-107570000D02*
X150030000Y-107570000D01*
X149632929Y-108330000D02*
X150030000Y-108330000D01*
X150030000Y-109220000D02*
X152690000Y-109220000D01*
X152690000Y-110110000D02*
X158690000Y-110110000D01*
X158690000Y-110110000D02*
X158690000Y-110870000D01*
X158690000Y-110870000D02*
X152690000Y-110870000D01*
X149632929Y-110110000D02*
X150030000Y-110110000D01*
X149632929Y-110870000D02*
X150030000Y-110870000D01*
X150030000Y-111760000D02*
X152690000Y-111760000D01*
X152690000Y-112650000D02*
X158690000Y-112650000D01*
X158690000Y-112650000D02*
X158690000Y-113410000D01*
X158690000Y-113410000D02*
X152690000Y-113410000D01*
X149632929Y-112650000D02*
X150030000Y-112650000D01*
X149632929Y-113410000D02*
X150030000Y-113410000D01*
X150030000Y-114300000D02*
X152690000Y-114300000D01*
X152690000Y-115190000D02*
X158690000Y-115190000D01*
X158690000Y-115190000D02*
X158690000Y-115950000D01*
X158690000Y-115950000D02*
X152690000Y-115950000D01*
X149632929Y-115190000D02*
X150030000Y-115190000D01*
X149632929Y-115950000D02*
X150030000Y-115950000D01*
X147320000Y-97790000D02*
X147320000Y-96520000D01*
X147320000Y-96520000D02*
X148590000Y-96520000D01*
X125900000Y-96460000D02*
X125900000Y-116900000D01*
X125900000Y-116900000D02*
X128560000Y-116900000D01*
X128560000Y-116900000D02*
X128560000Y-96460000D01*
X128560000Y-96460000D02*
X125900000Y-96460000D01*
X128560000Y-97410000D02*
X134560000Y-97410000D01*
X134560000Y-97410000D02*
X134560000Y-98170000D01*
X134560000Y-98170000D02*
X128560000Y-98170000D01*
X128560000Y-97470000D02*
X134560000Y-97470000D01*
X128560000Y-97590000D02*
X134560000Y-97590000D01*
X128560000Y-97710000D02*
X134560000Y-97710000D01*
X128560000Y-97830000D02*
X134560000Y-97830000D01*
X128560000Y-97950000D02*
X134560000Y-97950000D01*
X128560000Y-98070000D02*
X134560000Y-98070000D01*
X125570000Y-97410000D02*
X125900000Y-97410000D01*
X125570000Y-98170000D02*
X125900000Y-98170000D01*
X125900000Y-99060000D02*
X128560000Y-99060000D01*
X128560000Y-99950000D02*
X134560000Y-99950000D01*
X134560000Y-99950000D02*
X134560000Y-100710000D01*
X134560000Y-100710000D02*
X128560000Y-100710000D01*
X125502929Y-99950000D02*
X125900000Y-99950000D01*
X125502929Y-100710000D02*
X125900000Y-100710000D01*
X125900000Y-101600000D02*
X128560000Y-101600000D01*
X128560000Y-102490000D02*
X134560000Y-102490000D01*
X134560000Y-102490000D02*
X134560000Y-103250000D01*
X134560000Y-103250000D02*
X128560000Y-103250000D01*
X125502929Y-102490000D02*
X125900000Y-102490000D01*
X125502929Y-103250000D02*
X125900000Y-103250000D01*
X125900000Y-104140000D02*
X128560000Y-104140000D01*
X128560000Y-105030000D02*
X134560000Y-105030000D01*
X134560000Y-105030000D02*
X134560000Y-105790000D01*
X134560000Y-105790000D02*
X128560000Y-105790000D01*
X125502929Y-105030000D02*
X125900000Y-105030000D01*
X125502929Y-105790000D02*
X125900000Y-105790000D01*
X125900000Y-106680000D02*
X128560000Y-106680000D01*
X128560000Y-107570000D02*
X134560000Y-107570000D01*
X134560000Y-107570000D02*
X134560000Y-108330000D01*
X134560000Y-108330000D02*
X128560000Y-108330000D01*
X125502929Y-107570000D02*
X125900000Y-107570000D01*
X125502929Y-108330000D02*
X125900000Y-108330000D01*
X125900000Y-109220000D02*
X128560000Y-109220000D01*
X128560000Y-110110000D02*
X134560000Y-110110000D01*
X134560000Y-110110000D02*
X134560000Y-110870000D01*
X134560000Y-110870000D02*
X128560000Y-110870000D01*
X125502929Y-110110000D02*
X125900000Y-110110000D01*
X125502929Y-110870000D02*
X125900000Y-110870000D01*
X125900000Y-111760000D02*
X128560000Y-111760000D01*
X128560000Y-112650000D02*
X134560000Y-112650000D01*
X134560000Y-112650000D02*
X134560000Y-113410000D01*
X134560000Y-113410000D02*
X128560000Y-113410000D01*
X125502929Y-112650000D02*
X125900000Y-112650000D01*
X125502929Y-113410000D02*
X125900000Y-113410000D01*
X125900000Y-114300000D02*
X128560000Y-114300000D01*
X128560000Y-115190000D02*
X134560000Y-115190000D01*
X134560000Y-115190000D02*
X134560000Y-115950000D01*
X134560000Y-115950000D02*
X128560000Y-115950000D01*
X125502929Y-115190000D02*
X125900000Y-115190000D01*
X125502929Y-115950000D02*
X125900000Y-115950000D01*
X123190000Y-97790000D02*
X123190000Y-96520000D01*
X123190000Y-96520000D02*
X124460000Y-96520000D01*
X101770000Y-96460000D02*
X101770000Y-116900000D01*
X101770000Y-116900000D02*
X104430000Y-116900000D01*
X104430000Y-116900000D02*
X104430000Y-96460000D01*
X104430000Y-96460000D02*
X101770000Y-96460000D01*
X104430000Y-97410000D02*
X110430000Y-97410000D01*
X110430000Y-97410000D02*
X110430000Y-98170000D01*
X110430000Y-98170000D02*
X104430000Y-98170000D01*
X104430000Y-97470000D02*
X110430000Y-97470000D01*
X104430000Y-97590000D02*
X110430000Y-97590000D01*
X104430000Y-97710000D02*
X110430000Y-97710000D01*
X104430000Y-97830000D02*
X110430000Y-97830000D01*
X104430000Y-97950000D02*
X110430000Y-97950000D01*
X104430000Y-98070000D02*
X110430000Y-98070000D01*
X101440000Y-97410000D02*
X101770000Y-97410000D01*
X101440000Y-98170000D02*
X101770000Y-98170000D01*
X101770000Y-99060000D02*
X104430000Y-99060000D01*
X104430000Y-99950000D02*
X110430000Y-99950000D01*
X110430000Y-99950000D02*
X110430000Y-100710000D01*
X110430000Y-100710000D02*
X104430000Y-100710000D01*
X101372929Y-99950000D02*
X101770000Y-99950000D01*
X101372929Y-100710000D02*
X101770000Y-100710000D01*
X101770000Y-101600000D02*
X104430000Y-101600000D01*
X104430000Y-102490000D02*
X110430000Y-102490000D01*
X110430000Y-102490000D02*
X110430000Y-103250000D01*
X110430000Y-103250000D02*
X104430000Y-103250000D01*
X101372929Y-102490000D02*
X101770000Y-102490000D01*
X101372929Y-103250000D02*
X101770000Y-103250000D01*
X101770000Y-104140000D02*
X104430000Y-104140000D01*
X104430000Y-105030000D02*
X110430000Y-105030000D01*
X110430000Y-105030000D02*
X110430000Y-105790000D01*
X110430000Y-105790000D02*
X104430000Y-105790000D01*
X101372929Y-105030000D02*
X101770000Y-105030000D01*
X101372929Y-105790000D02*
X101770000Y-105790000D01*
X101770000Y-106680000D02*
X104430000Y-106680000D01*
X104430000Y-107570000D02*
X110430000Y-107570000D01*
X110430000Y-107570000D02*
X110430000Y-108330000D01*
X110430000Y-108330000D02*
X104430000Y-108330000D01*
X101372929Y-107570000D02*
X101770000Y-107570000D01*
X101372929Y-108330000D02*
X101770000Y-108330000D01*
X101770000Y-109220000D02*
X104430000Y-109220000D01*
X104430000Y-110110000D02*
X110430000Y-110110000D01*
X110430000Y-110110000D02*
X110430000Y-110870000D01*
X110430000Y-110870000D02*
X104430000Y-110870000D01*
X101372929Y-110110000D02*
X101770000Y-110110000D01*
X101372929Y-110870000D02*
X101770000Y-110870000D01*
X101770000Y-111760000D02*
X104430000Y-111760000D01*
X104430000Y-112650000D02*
X110430000Y-112650000D01*
X110430000Y-112650000D02*
X110430000Y-113410000D01*
X110430000Y-113410000D02*
X104430000Y-113410000D01*
X101372929Y-112650000D02*
X101770000Y-112650000D01*
X101372929Y-113410000D02*
X101770000Y-113410000D01*
X101770000Y-114300000D02*
X104430000Y-114300000D01*
X104430000Y-115190000D02*
X110430000Y-115190000D01*
X110430000Y-115190000D02*
X110430000Y-115950000D01*
X110430000Y-115950000D02*
X104430000Y-115950000D01*
X101372929Y-115190000D02*
X101770000Y-115190000D01*
X101372929Y-115950000D02*
X101770000Y-115950000D01*
X99060000Y-97790000D02*
X99060000Y-96520000D01*
X99060000Y-96520000D02*
X100330000Y-96520000D01*
X77640000Y-96460000D02*
X77640000Y-116900000D01*
X77640000Y-116900000D02*
X80300000Y-116900000D01*
X80300000Y-116900000D02*
X80300000Y-96460000D01*
X80300000Y-96460000D02*
X77640000Y-96460000D01*
X80300000Y-97410000D02*
X86300000Y-97410000D01*
X86300000Y-97410000D02*
X86300000Y-98170000D01*
X86300000Y-98170000D02*
X80300000Y-98170000D01*
X80300000Y-97470000D02*
X86300000Y-97470000D01*
X80300000Y-97590000D02*
X86300000Y-97590000D01*
X80300000Y-97710000D02*
X86300000Y-97710000D01*
X80300000Y-97830000D02*
X86300000Y-97830000D01*
X80300000Y-97950000D02*
X86300000Y-97950000D01*
X80300000Y-98070000D02*
X86300000Y-98070000D01*
X77310000Y-97410000D02*
X77640000Y-97410000D01*
X77310000Y-98170000D02*
X77640000Y-98170000D01*
X77640000Y-99060000D02*
X80300000Y-99060000D01*
X80300000Y-99950000D02*
X86300000Y-99950000D01*
X86300000Y-99950000D02*
X86300000Y-100710000D01*
X86300000Y-100710000D02*
X80300000Y-100710000D01*
X77242929Y-99950000D02*
X77640000Y-99950000D01*
X77242929Y-100710000D02*
X77640000Y-100710000D01*
X77640000Y-101600000D02*
X80300000Y-101600000D01*
X80300000Y-102490000D02*
X86300000Y-102490000D01*
X86300000Y-102490000D02*
X86300000Y-103250000D01*
X86300000Y-103250000D02*
X80300000Y-103250000D01*
X77242929Y-102490000D02*
X77640000Y-102490000D01*
X77242929Y-103250000D02*
X77640000Y-103250000D01*
X77640000Y-104140000D02*
X80300000Y-104140000D01*
X80300000Y-105030000D02*
X86300000Y-105030000D01*
X86300000Y-105030000D02*
X86300000Y-105790000D01*
X86300000Y-105790000D02*
X80300000Y-105790000D01*
X77242929Y-105030000D02*
X77640000Y-105030000D01*
X77242929Y-105790000D02*
X77640000Y-105790000D01*
X77640000Y-106680000D02*
X80300000Y-106680000D01*
X80300000Y-107570000D02*
X86300000Y-107570000D01*
X86300000Y-107570000D02*
X86300000Y-108330000D01*
X86300000Y-108330000D02*
X80300000Y-108330000D01*
X77242929Y-107570000D02*
X77640000Y-107570000D01*
X77242929Y-108330000D02*
X77640000Y-108330000D01*
X77640000Y-109220000D02*
X80300000Y-109220000D01*
X80300000Y-110110000D02*
X86300000Y-110110000D01*
X86300000Y-110110000D02*
X86300000Y-110870000D01*
X86300000Y-110870000D02*
X80300000Y-110870000D01*
X77242929Y-110110000D02*
X77640000Y-110110000D01*
X77242929Y-110870000D02*
X77640000Y-110870000D01*
X77640000Y-111760000D02*
X80300000Y-111760000D01*
X80300000Y-112650000D02*
X86300000Y-112650000D01*
X86300000Y-112650000D02*
X86300000Y-113410000D01*
X86300000Y-113410000D02*
X80300000Y-113410000D01*
X77242929Y-112650000D02*
X77640000Y-112650000D01*
X77242929Y-113410000D02*
X77640000Y-113410000D01*
X77640000Y-114300000D02*
X80300000Y-114300000D01*
X80300000Y-115190000D02*
X86300000Y-115190000D01*
X86300000Y-115190000D02*
X86300000Y-115950000D01*
X86300000Y-115950000D02*
X80300000Y-115950000D01*
X77242929Y-115190000D02*
X77640000Y-115190000D01*
X77242929Y-115950000D02*
X77640000Y-115950000D01*
X74930000Y-97790000D02*
X74930000Y-96520000D01*
X74930000Y-96520000D02*
X76200000Y-96520000D01*
X150030000Y-52010000D02*
X150030000Y-72450000D01*
X150030000Y-72450000D02*
X152690000Y-72450000D01*
X152690000Y-72450000D02*
X152690000Y-52010000D01*
X152690000Y-52010000D02*
X150030000Y-52010000D01*
X152690000Y-52960000D02*
X158690000Y-52960000D01*
X158690000Y-52960000D02*
X158690000Y-53720000D01*
X158690000Y-53720000D02*
X152690000Y-53720000D01*
X152690000Y-53020000D02*
X158690000Y-53020000D01*
X152690000Y-53140000D02*
X158690000Y-53140000D01*
X152690000Y-53260000D02*
X158690000Y-53260000D01*
X152690000Y-53380000D02*
X158690000Y-53380000D01*
X152690000Y-53500000D02*
X158690000Y-53500000D01*
X152690000Y-53620000D02*
X158690000Y-53620000D01*
X149700000Y-52960000D02*
X150030000Y-52960000D01*
X149700000Y-53720000D02*
X150030000Y-53720000D01*
X150030000Y-54610000D02*
X152690000Y-54610000D01*
X152690000Y-55500000D02*
X158690000Y-55500000D01*
X158690000Y-55500000D02*
X158690000Y-56260000D01*
X158690000Y-56260000D02*
X152690000Y-56260000D01*
X149632929Y-55500000D02*
X150030000Y-55500000D01*
X149632929Y-56260000D02*
X150030000Y-56260000D01*
X150030000Y-57150000D02*
X152690000Y-57150000D01*
X152690000Y-58040000D02*
X158690000Y-58040000D01*
X158690000Y-58040000D02*
X158690000Y-58800000D01*
X158690000Y-58800000D02*
X152690000Y-58800000D01*
X149632929Y-58040000D02*
X150030000Y-58040000D01*
X149632929Y-58800000D02*
X150030000Y-58800000D01*
X150030000Y-59690000D02*
X152690000Y-59690000D01*
X152690000Y-60580000D02*
X158690000Y-60580000D01*
X158690000Y-60580000D02*
X158690000Y-61340000D01*
X158690000Y-61340000D02*
X152690000Y-61340000D01*
X149632929Y-60580000D02*
X150030000Y-60580000D01*
X149632929Y-61340000D02*
X150030000Y-61340000D01*
X150030000Y-62230000D02*
X152690000Y-62230000D01*
X152690000Y-63120000D02*
X158690000Y-63120000D01*
X158690000Y-63120000D02*
X158690000Y-63880000D01*
X158690000Y-63880000D02*
X152690000Y-63880000D01*
X149632929Y-63120000D02*
X150030000Y-63120000D01*
X149632929Y-63880000D02*
X150030000Y-63880000D01*
X150030000Y-64770000D02*
X152690000Y-64770000D01*
X152690000Y-65660000D02*
X158690000Y-65660000D01*
X158690000Y-65660000D02*
X158690000Y-66420000D01*
X158690000Y-66420000D02*
X152690000Y-66420000D01*
X149632929Y-65660000D02*
X150030000Y-65660000D01*
X149632929Y-66420000D02*
X150030000Y-66420000D01*
X150030000Y-67310000D02*
X152690000Y-67310000D01*
X152690000Y-68200000D02*
X158690000Y-68200000D01*
X158690000Y-68200000D02*
X158690000Y-68960000D01*
X158690000Y-68960000D02*
X152690000Y-68960000D01*
X149632929Y-68200000D02*
X150030000Y-68200000D01*
X149632929Y-68960000D02*
X150030000Y-68960000D01*
X150030000Y-69850000D02*
X152690000Y-69850000D01*
X152690000Y-70740000D02*
X158690000Y-70740000D01*
X158690000Y-70740000D02*
X158690000Y-71500000D01*
X158690000Y-71500000D02*
X152690000Y-71500000D01*
X149632929Y-70740000D02*
X150030000Y-70740000D01*
X149632929Y-71500000D02*
X150030000Y-71500000D01*
X147320000Y-53340000D02*
X147320000Y-52070000D01*
X147320000Y-52070000D02*
X148590000Y-52070000D01*
X125900000Y-52010000D02*
X125900000Y-72450000D01*
X125900000Y-72450000D02*
X128560000Y-72450000D01*
X128560000Y-72450000D02*
X128560000Y-52010000D01*
X128560000Y-52010000D02*
X125900000Y-52010000D01*
X128560000Y-52960000D02*
X134560000Y-52960000D01*
X134560000Y-52960000D02*
X134560000Y-53720000D01*
X134560000Y-53720000D02*
X128560000Y-53720000D01*
X128560000Y-53020000D02*
X134560000Y-53020000D01*
X128560000Y-53140000D02*
X134560000Y-53140000D01*
X128560000Y-53260000D02*
X134560000Y-53260000D01*
X128560000Y-53380000D02*
X134560000Y-53380000D01*
X128560000Y-53500000D02*
X134560000Y-53500000D01*
X128560000Y-53620000D02*
X134560000Y-53620000D01*
X125570000Y-52960000D02*
X125900000Y-52960000D01*
X125570000Y-53720000D02*
X125900000Y-53720000D01*
X125900000Y-54610000D02*
X128560000Y-54610000D01*
X128560000Y-55500000D02*
X134560000Y-55500000D01*
X134560000Y-55500000D02*
X134560000Y-56260000D01*
X134560000Y-56260000D02*
X128560000Y-56260000D01*
X125502929Y-55500000D02*
X125900000Y-55500000D01*
X125502929Y-56260000D02*
X125900000Y-56260000D01*
X125900000Y-57150000D02*
X128560000Y-57150000D01*
X128560000Y-58040000D02*
X134560000Y-58040000D01*
X134560000Y-58040000D02*
X134560000Y-58800000D01*
X134560000Y-58800000D02*
X128560000Y-58800000D01*
X125502929Y-58040000D02*
X125900000Y-58040000D01*
X125502929Y-58800000D02*
X125900000Y-58800000D01*
X125900000Y-59690000D02*
X128560000Y-59690000D01*
X128560000Y-60580000D02*
X134560000Y-60580000D01*
X134560000Y-60580000D02*
X134560000Y-61340000D01*
X134560000Y-61340000D02*
X128560000Y-61340000D01*
X125502929Y-60580000D02*
X125900000Y-60580000D01*
X125502929Y-61340000D02*
X125900000Y-61340000D01*
X125900000Y-62230000D02*
X128560000Y-62230000D01*
X128560000Y-63120000D02*
X134560000Y-63120000D01*
X134560000Y-63120000D02*
X134560000Y-63880000D01*
X134560000Y-63880000D02*
X128560000Y-63880000D01*
X125502929Y-63120000D02*
X125900000Y-63120000D01*
X125502929Y-63880000D02*
X125900000Y-63880000D01*
X125900000Y-64770000D02*
X128560000Y-64770000D01*
X128560000Y-65660000D02*
X134560000Y-65660000D01*
X134560000Y-65660000D02*
X134560000Y-66420000D01*
X134560000Y-66420000D02*
X128560000Y-66420000D01*
X125502929Y-65660000D02*
X125900000Y-65660000D01*
X125502929Y-66420000D02*
X125900000Y-66420000D01*
X125900000Y-67310000D02*
X128560000Y-67310000D01*
X128560000Y-68200000D02*
X134560000Y-68200000D01*
X134560000Y-68200000D02*
X134560000Y-68960000D01*
X134560000Y-68960000D02*
X128560000Y-68960000D01*
X125502929Y-68200000D02*
X125900000Y-68200000D01*
X125502929Y-68960000D02*
X125900000Y-68960000D01*
X125900000Y-69850000D02*
X128560000Y-69850000D01*
X128560000Y-70740000D02*
X134560000Y-70740000D01*
X134560000Y-70740000D02*
X134560000Y-71500000D01*
X134560000Y-71500000D02*
X128560000Y-71500000D01*
X125502929Y-70740000D02*
X125900000Y-70740000D01*
X125502929Y-71500000D02*
X125900000Y-71500000D01*
X123190000Y-53340000D02*
X123190000Y-52070000D01*
X123190000Y-52070000D02*
X124460000Y-52070000D01*
X101770000Y-52010000D02*
X101770000Y-72450000D01*
X101770000Y-72450000D02*
X104430000Y-72450000D01*
X104430000Y-72450000D02*
X104430000Y-52010000D01*
X104430000Y-52010000D02*
X101770000Y-52010000D01*
X104430000Y-52960000D02*
X110430000Y-52960000D01*
X110430000Y-52960000D02*
X110430000Y-53720000D01*
X110430000Y-53720000D02*
X104430000Y-53720000D01*
X104430000Y-53020000D02*
X110430000Y-53020000D01*
X104430000Y-53140000D02*
X110430000Y-53140000D01*
X104430000Y-53260000D02*
X110430000Y-53260000D01*
X104430000Y-53380000D02*
X110430000Y-53380000D01*
X104430000Y-53500000D02*
X110430000Y-53500000D01*
X104430000Y-53620000D02*
X110430000Y-53620000D01*
X101440000Y-52960000D02*
X101770000Y-52960000D01*
X101440000Y-53720000D02*
X101770000Y-53720000D01*
X101770000Y-54610000D02*
X104430000Y-54610000D01*
X104430000Y-55500000D02*
X110430000Y-55500000D01*
X110430000Y-55500000D02*
X110430000Y-56260000D01*
X110430000Y-56260000D02*
X104430000Y-56260000D01*
X101372929Y-55500000D02*
X101770000Y-55500000D01*
X101372929Y-56260000D02*
X101770000Y-56260000D01*
X101770000Y-57150000D02*
X104430000Y-57150000D01*
X104430000Y-58040000D02*
X110430000Y-58040000D01*
X110430000Y-58040000D02*
X110430000Y-58800000D01*
X110430000Y-58800000D02*
X104430000Y-58800000D01*
X101372929Y-58040000D02*
X101770000Y-58040000D01*
X101372929Y-58800000D02*
X101770000Y-58800000D01*
X101770000Y-59690000D02*
X104430000Y-59690000D01*
X104430000Y-60580000D02*
X110430000Y-60580000D01*
X110430000Y-60580000D02*
X110430000Y-61340000D01*
X110430000Y-61340000D02*
X104430000Y-61340000D01*
X101372929Y-60580000D02*
X101770000Y-60580000D01*
X101372929Y-61340000D02*
X101770000Y-61340000D01*
X101770000Y-62230000D02*
X104430000Y-62230000D01*
X104430000Y-63120000D02*
X110430000Y-63120000D01*
X110430000Y-63120000D02*
X110430000Y-63880000D01*
X110430000Y-63880000D02*
X104430000Y-63880000D01*
X101372929Y-63120000D02*
X101770000Y-63120000D01*
X101372929Y-63880000D02*
X101770000Y-63880000D01*
X101770000Y-64770000D02*
X104430000Y-64770000D01*
X104430000Y-65660000D02*
X110430000Y-65660000D01*
X110430000Y-65660000D02*
X110430000Y-66420000D01*
X110430000Y-66420000D02*
X104430000Y-66420000D01*
X101372929Y-65660000D02*
X101770000Y-65660000D01*
X101372929Y-66420000D02*
X101770000Y-66420000D01*
X101770000Y-67310000D02*
X104430000Y-67310000D01*
X104430000Y-68200000D02*
X110430000Y-68200000D01*
X110430000Y-68200000D02*
X110430000Y-68960000D01*
X110430000Y-68960000D02*
X104430000Y-68960000D01*
X101372929Y-68200000D02*
X101770000Y-68200000D01*
X101372929Y-68960000D02*
X101770000Y-68960000D01*
X101770000Y-69850000D02*
X104430000Y-69850000D01*
X104430000Y-70740000D02*
X110430000Y-70740000D01*
X110430000Y-70740000D02*
X110430000Y-71500000D01*
X110430000Y-71500000D02*
X104430000Y-71500000D01*
X101372929Y-70740000D02*
X101770000Y-70740000D01*
X101372929Y-71500000D02*
X101770000Y-71500000D01*
X99060000Y-53340000D02*
X99060000Y-52070000D01*
X99060000Y-52070000D02*
X100330000Y-52070000D01*
X158260000Y-94510000D02*
X158260000Y-89810000D01*
X158260000Y-89810000D02*
X148160000Y-89810000D01*
X148160000Y-89810000D02*
X148160000Y-94510000D01*
X148160000Y-94510000D02*
X158260000Y-94510000D01*
X155710000Y-94510000D02*
X155710000Y-93910000D01*
X155710000Y-93910000D02*
X157660000Y-93910000D01*
X157660000Y-93910000D02*
X157660000Y-90410000D01*
X157660000Y-90410000D02*
X148760000Y-90410000D01*
X148760000Y-90410000D02*
X148760000Y-93910000D01*
X148760000Y-93910000D02*
X150710000Y-93910000D01*
X150710000Y-93910000D02*
X150710000Y-94510000D01*
X158260000Y-93210000D02*
X157660000Y-93210000D01*
X158260000Y-91910000D02*
X157660000Y-91910000D01*
X148160000Y-93210000D02*
X148760000Y-93210000D01*
X148160000Y-91910000D02*
X148760000Y-91910000D01*
X156510000Y-94510000D02*
X156510000Y-94710000D01*
X156510000Y-94710000D02*
X156810000Y-94710000D01*
X156810000Y-94710000D02*
X156810000Y-94510000D01*
X156510000Y-94610000D02*
X156810000Y-94610000D01*
X155310000Y-90410000D02*
X155310000Y-90910000D01*
X155310000Y-90910000D02*
X155110000Y-90910000D01*
X155110000Y-90910000D02*
X155110000Y-90410000D01*
X155210000Y-90410000D02*
X155210000Y-90910000D01*
X153310000Y-90410000D02*
X153310000Y-90910000D01*
X153310000Y-90910000D02*
X153110000Y-90910000D01*
X153110000Y-90910000D02*
X153110000Y-90410000D01*
X153210000Y-90410000D02*
X153210000Y-90910000D01*
X151310000Y-90410000D02*
X151310000Y-90910000D01*
X151310000Y-90910000D02*
X151110000Y-90910000D01*
X151110000Y-90910000D02*
X151110000Y-90410000D01*
X151210000Y-90410000D02*
X151210000Y-90910000D01*
X157310000Y-94810000D02*
X158560000Y-94810000D01*
X158560000Y-94810000D02*
X158560000Y-93560000D01*
X134130000Y-94510000D02*
X134130000Y-89810000D01*
X134130000Y-89810000D02*
X124030000Y-89810000D01*
X124030000Y-89810000D02*
X124030000Y-94510000D01*
X124030000Y-94510000D02*
X134130000Y-94510000D01*
X131580000Y-94510000D02*
X131580000Y-93910000D01*
X131580000Y-93910000D02*
X133530000Y-93910000D01*
X133530000Y-93910000D02*
X133530000Y-90410000D01*
X133530000Y-90410000D02*
X124630000Y-90410000D01*
X124630000Y-90410000D02*
X124630000Y-93910000D01*
X124630000Y-93910000D02*
X126580000Y-93910000D01*
X126580000Y-93910000D02*
X126580000Y-94510000D01*
X134130000Y-93210000D02*
X133530000Y-93210000D01*
X134130000Y-91910000D02*
X133530000Y-91910000D01*
X124030000Y-93210000D02*
X124630000Y-93210000D01*
X124030000Y-91910000D02*
X124630000Y-91910000D01*
X132380000Y-94510000D02*
X132380000Y-94710000D01*
X132380000Y-94710000D02*
X132680000Y-94710000D01*
X132680000Y-94710000D02*
X132680000Y-94510000D01*
X132380000Y-94610000D02*
X132680000Y-94610000D01*
X131180000Y-90410000D02*
X131180000Y-90910000D01*
X131180000Y-90910000D02*
X130980000Y-90910000D01*
X130980000Y-90910000D02*
X130980000Y-90410000D01*
X131080000Y-90410000D02*
X131080000Y-90910000D01*
X129180000Y-90410000D02*
X129180000Y-90910000D01*
X129180000Y-90910000D02*
X128980000Y-90910000D01*
X128980000Y-90910000D02*
X128980000Y-90410000D01*
X129080000Y-90410000D02*
X129080000Y-90910000D01*
X127180000Y-90410000D02*
X127180000Y-90910000D01*
X127180000Y-90910000D02*
X126980000Y-90910000D01*
X126980000Y-90910000D02*
X126980000Y-90410000D01*
X127080000Y-90410000D02*
X127080000Y-90910000D01*
X133180000Y-94810000D02*
X134430000Y-94810000D01*
X134430000Y-94810000D02*
X134430000Y-93560000D01*
X110000000Y-94510000D02*
X110000000Y-89810000D01*
X110000000Y-89810000D02*
X99900000Y-89810000D01*
X99900000Y-89810000D02*
X99900000Y-94510000D01*
X99900000Y-94510000D02*
X110000000Y-94510000D01*
X107450000Y-94510000D02*
X107450000Y-93910000D01*
X107450000Y-93910000D02*
X109400000Y-93910000D01*
X109400000Y-93910000D02*
X109400000Y-90410000D01*
X109400000Y-90410000D02*
X100500000Y-90410000D01*
X100500000Y-90410000D02*
X100500000Y-93910000D01*
X100500000Y-93910000D02*
X102450000Y-93910000D01*
X102450000Y-93910000D02*
X102450000Y-94510000D01*
X110000000Y-93210000D02*
X109400000Y-93210000D01*
X110000000Y-91910000D02*
X109400000Y-91910000D01*
X99900000Y-93210000D02*
X100500000Y-93210000D01*
X99900000Y-91910000D02*
X100500000Y-91910000D01*
X108250000Y-94510000D02*
X108250000Y-94710000D01*
X108250000Y-94710000D02*
X108550000Y-94710000D01*
X108550000Y-94710000D02*
X108550000Y-94510000D01*
X108250000Y-94610000D02*
X108550000Y-94610000D01*
X107050000Y-90410000D02*
X107050000Y-90910000D01*
X107050000Y-90910000D02*
X106850000Y-90910000D01*
X106850000Y-90910000D02*
X106850000Y-90410000D01*
X106950000Y-90410000D02*
X106950000Y-90910000D01*
X105050000Y-90410000D02*
X105050000Y-90910000D01*
X105050000Y-90910000D02*
X104850000Y-90910000D01*
X104850000Y-90910000D02*
X104850000Y-90410000D01*
X104950000Y-90410000D02*
X104950000Y-90910000D01*
X103050000Y-90410000D02*
X103050000Y-90910000D01*
X103050000Y-90910000D02*
X102850000Y-90910000D01*
X102850000Y-90910000D02*
X102850000Y-90410000D01*
X102950000Y-90410000D02*
X102950000Y-90910000D01*
X109050000Y-94810000D02*
X110300000Y-94810000D01*
X110300000Y-94810000D02*
X110300000Y-93560000D01*
X85870000Y-94510000D02*
X85870000Y-89810000D01*
X85870000Y-89810000D02*
X75770000Y-89810000D01*
X75770000Y-89810000D02*
X75770000Y-94510000D01*
X75770000Y-94510000D02*
X85870000Y-94510000D01*
X83320000Y-94510000D02*
X83320000Y-93910000D01*
X83320000Y-93910000D02*
X85270000Y-93910000D01*
X85270000Y-93910000D02*
X85270000Y-90410000D01*
X85270000Y-90410000D02*
X76370000Y-90410000D01*
X76370000Y-90410000D02*
X76370000Y-93910000D01*
X76370000Y-93910000D02*
X78320000Y-93910000D01*
X78320000Y-93910000D02*
X78320000Y-94510000D01*
X85870000Y-93210000D02*
X85270000Y-93210000D01*
X85870000Y-91910000D02*
X85270000Y-91910000D01*
X75770000Y-93210000D02*
X76370000Y-93210000D01*
X75770000Y-91910000D02*
X76370000Y-91910000D01*
X84120000Y-94510000D02*
X84120000Y-94710000D01*
X84120000Y-94710000D02*
X84420000Y-94710000D01*
X84420000Y-94710000D02*
X84420000Y-94510000D01*
X84120000Y-94610000D02*
X84420000Y-94610000D01*
X82920000Y-90410000D02*
X82920000Y-90910000D01*
X82920000Y-90910000D02*
X82720000Y-90910000D01*
X82720000Y-90910000D02*
X82720000Y-90410000D01*
X82820000Y-90410000D02*
X82820000Y-90910000D01*
X80920000Y-90410000D02*
X80920000Y-90910000D01*
X80920000Y-90910000D02*
X80720000Y-90910000D01*
X80720000Y-90910000D02*
X80720000Y-90410000D01*
X80820000Y-90410000D02*
X80820000Y-90910000D01*
X78920000Y-90410000D02*
X78920000Y-90910000D01*
X78920000Y-90910000D02*
X78720000Y-90910000D01*
X78720000Y-90910000D02*
X78720000Y-90410000D01*
X78820000Y-90410000D02*
X78820000Y-90910000D01*
X84920000Y-94810000D02*
X86170000Y-94810000D01*
X86170000Y-94810000D02*
X86170000Y-93560000D01*
X158260000Y-50060000D02*
X158260000Y-45360000D01*
X158260000Y-45360000D02*
X148160000Y-45360000D01*
X148160000Y-45360000D02*
X148160000Y-50060000D01*
X148160000Y-50060000D02*
X158260000Y-50060000D01*
X155710000Y-50060000D02*
X155710000Y-49460000D01*
X155710000Y-49460000D02*
X157660000Y-49460000D01*
X157660000Y-49460000D02*
X157660000Y-45960000D01*
X157660000Y-45960000D02*
X148760000Y-45960000D01*
X148760000Y-45960000D02*
X148760000Y-49460000D01*
X148760000Y-49460000D02*
X150710000Y-49460000D01*
X150710000Y-49460000D02*
X150710000Y-50060000D01*
X158260000Y-48760000D02*
X157660000Y-48760000D01*
X158260000Y-47460000D02*
X157660000Y-47460000D01*
X148160000Y-48760000D02*
X148760000Y-48760000D01*
X148160000Y-47460000D02*
X148760000Y-47460000D01*
X156510000Y-50060000D02*
X156510000Y-50260000D01*
X156510000Y-50260000D02*
X156810000Y-50260000D01*
X156810000Y-50260000D02*
X156810000Y-50060000D01*
X156510000Y-50160000D02*
X156810000Y-50160000D01*
X155310000Y-45960000D02*
X155310000Y-46460000D01*
X155310000Y-46460000D02*
X155110000Y-46460000D01*
X155110000Y-46460000D02*
X155110000Y-45960000D01*
X155210000Y-45960000D02*
X155210000Y-46460000D01*
X153310000Y-45960000D02*
X153310000Y-46460000D01*
X153310000Y-46460000D02*
X153110000Y-46460000D01*
X153110000Y-46460000D02*
X153110000Y-45960000D01*
X153210000Y-45960000D02*
X153210000Y-46460000D01*
X151310000Y-45960000D02*
X151310000Y-46460000D01*
X151310000Y-46460000D02*
X151110000Y-46460000D01*
X151110000Y-46460000D02*
X151110000Y-45960000D01*
X151210000Y-45960000D02*
X151210000Y-46460000D01*
X157310000Y-50360000D02*
X158560000Y-50360000D01*
X158560000Y-50360000D02*
X158560000Y-49110000D01*
X134130000Y-50060000D02*
X134130000Y-45360000D01*
X134130000Y-45360000D02*
X124030000Y-45360000D01*
X124030000Y-45360000D02*
X124030000Y-50060000D01*
X124030000Y-50060000D02*
X134130000Y-50060000D01*
X131580000Y-50060000D02*
X131580000Y-49460000D01*
X131580000Y-49460000D02*
X133530000Y-49460000D01*
X133530000Y-49460000D02*
X133530000Y-45960000D01*
X133530000Y-45960000D02*
X124630000Y-45960000D01*
X124630000Y-45960000D02*
X124630000Y-49460000D01*
X124630000Y-49460000D02*
X126580000Y-49460000D01*
X126580000Y-49460000D02*
X126580000Y-50060000D01*
X134130000Y-48760000D02*
X133530000Y-48760000D01*
X134130000Y-47460000D02*
X133530000Y-47460000D01*
X124030000Y-48760000D02*
X124630000Y-48760000D01*
X124030000Y-47460000D02*
X124630000Y-47460000D01*
X132380000Y-50060000D02*
X132380000Y-50260000D01*
X132380000Y-50260000D02*
X132680000Y-50260000D01*
X132680000Y-50260000D02*
X132680000Y-50060000D01*
X132380000Y-50160000D02*
X132680000Y-50160000D01*
X131180000Y-45960000D02*
X131180000Y-46460000D01*
X131180000Y-46460000D02*
X130980000Y-46460000D01*
X130980000Y-46460000D02*
X130980000Y-45960000D01*
X131080000Y-45960000D02*
X131080000Y-46460000D01*
X129180000Y-45960000D02*
X129180000Y-46460000D01*
X129180000Y-46460000D02*
X128980000Y-46460000D01*
X128980000Y-46460000D02*
X128980000Y-45960000D01*
X129080000Y-45960000D02*
X129080000Y-46460000D01*
X127180000Y-45960000D02*
X127180000Y-46460000D01*
X127180000Y-46460000D02*
X126980000Y-46460000D01*
X126980000Y-46460000D02*
X126980000Y-45960000D01*
X127080000Y-45960000D02*
X127080000Y-46460000D01*
X133180000Y-50360000D02*
X134430000Y-50360000D01*
X134430000Y-50360000D02*
X134430000Y-49110000D01*
X110000000Y-50060000D02*
X110000000Y-45360000D01*
X110000000Y-45360000D02*
X99900000Y-45360000D01*
X99900000Y-45360000D02*
X99900000Y-50060000D01*
X99900000Y-50060000D02*
X110000000Y-50060000D01*
X107450000Y-50060000D02*
X107450000Y-49460000D01*
X107450000Y-49460000D02*
X109400000Y-49460000D01*
X109400000Y-49460000D02*
X109400000Y-45960000D01*
X109400000Y-45960000D02*
X100500000Y-45960000D01*
X100500000Y-45960000D02*
X100500000Y-49460000D01*
X100500000Y-49460000D02*
X102450000Y-49460000D01*
X102450000Y-49460000D02*
X102450000Y-50060000D01*
X110000000Y-48760000D02*
X109400000Y-48760000D01*
X110000000Y-47460000D02*
X109400000Y-47460000D01*
X99900000Y-48760000D02*
X100500000Y-48760000D01*
X99900000Y-47460000D02*
X100500000Y-47460000D01*
X108250000Y-50060000D02*
X108250000Y-50260000D01*
X108250000Y-50260000D02*
X108550000Y-50260000D01*
X108550000Y-50260000D02*
X108550000Y-50060000D01*
X108250000Y-50160000D02*
X108550000Y-50160000D01*
X107050000Y-45960000D02*
X107050000Y-46460000D01*
X107050000Y-46460000D02*
X106850000Y-46460000D01*
X106850000Y-46460000D02*
X106850000Y-45960000D01*
X106950000Y-45960000D02*
X106950000Y-46460000D01*
X105050000Y-45960000D02*
X105050000Y-46460000D01*
X105050000Y-46460000D02*
X104850000Y-46460000D01*
X104850000Y-46460000D02*
X104850000Y-45960000D01*
X104950000Y-45960000D02*
X104950000Y-46460000D01*
X103050000Y-45960000D02*
X103050000Y-46460000D01*
X103050000Y-46460000D02*
X102850000Y-46460000D01*
X102850000Y-46460000D02*
X102850000Y-45960000D01*
X102950000Y-45960000D02*
X102950000Y-46460000D01*
X109050000Y-50360000D02*
X110300000Y-50360000D01*
X110300000Y-50360000D02*
X110300000Y-49110000D01*
X151853416Y-128419724D02*
X152977581Y-126008945D01*
X140288929Y-123027115D02*
X151853416Y-128419724D01*
X141413093Y-120616336D02*
X152977581Y-126008945D01*
X140288929Y-123027115D02*
X141413093Y-120616336D01*
X139137918Y-122490389D02*
X137932528Y-121928307D01*
X137932528Y-121928307D02*
X138494611Y-120722918D01*
X127723416Y-128419724D02*
X128847581Y-126008945D01*
X116158929Y-123027115D02*
X127723416Y-128419724D01*
X117283093Y-120616336D02*
X128847581Y-126008945D01*
X116158929Y-123027115D02*
X117283093Y-120616336D01*
X115007918Y-122490389D02*
X113802528Y-121928307D01*
X113802528Y-121928307D02*
X114364611Y-120722918D01*
X103593416Y-128419724D02*
X104717581Y-126008945D01*
X92028929Y-123027115D02*
X103593416Y-128419724D01*
X93153093Y-120616336D02*
X104717581Y-126008945D01*
X92028929Y-123027115D02*
X93153093Y-120616336D01*
X90877918Y-122490389D02*
X89672528Y-121928307D01*
X89672528Y-121928307D02*
X90234611Y-120722918D01*
X79463416Y-128419724D02*
X80587581Y-126008945D01*
X67898929Y-123027115D02*
X79463416Y-128419724D01*
X69023093Y-120616336D02*
X80587581Y-126008945D01*
X67898929Y-123027115D02*
X69023093Y-120616336D01*
X66747918Y-122490389D02*
X65542528Y-121928307D01*
X65542528Y-121928307D02*
X66104611Y-120722918D01*
X151853416Y-83969724D02*
X152977581Y-81558945D01*
X140288929Y-78577115D02*
X151853416Y-83969724D01*
X141413093Y-76166336D02*
X152977581Y-81558945D01*
X140288929Y-78577115D02*
X141413093Y-76166336D01*
X139137918Y-78040389D02*
X137932528Y-77478307D01*
X137932528Y-77478307D02*
X138494611Y-76272918D01*
X127723416Y-83969724D02*
X128847581Y-81558945D01*
X116158929Y-78577115D02*
X127723416Y-83969724D01*
X117283093Y-76166336D02*
X128847581Y-81558945D01*
X116158929Y-78577115D02*
X117283093Y-76166336D01*
X115007918Y-78040389D02*
X113802528Y-77478307D01*
X113802528Y-77478307D02*
X114364611Y-76272918D01*
X103593416Y-83969724D02*
X104717581Y-81558945D01*
X92028929Y-78577115D02*
X103593416Y-83969724D01*
X93153093Y-76166336D02*
X104717581Y-81558945D01*
X92028929Y-78577115D02*
X93153093Y-76166336D01*
X90877918Y-78040389D02*
X89672528Y-77478307D01*
X89672528Y-77478307D02*
X90234611Y-76272918D01*
X158260000Y-121815000D02*
X158260000Y-117115000D01*
X158260000Y-117115000D02*
X148160000Y-117115000D01*
X148160000Y-117115000D02*
X148160000Y-121815000D01*
X148160000Y-121815000D02*
X158260000Y-121815000D01*
X155710000Y-121815000D02*
X155710000Y-121215000D01*
X155710000Y-121215000D02*
X157660000Y-121215000D01*
X157660000Y-121215000D02*
X157660000Y-117715000D01*
X157660000Y-117715000D02*
X148760000Y-117715000D01*
X148760000Y-117715000D02*
X148760000Y-121215000D01*
X148760000Y-121215000D02*
X150710000Y-121215000D01*
X150710000Y-121215000D02*
X150710000Y-121815000D01*
X158260000Y-120515000D02*
X157660000Y-120515000D01*
X158260000Y-119215000D02*
X157660000Y-119215000D01*
X148160000Y-120515000D02*
X148760000Y-120515000D01*
X148160000Y-119215000D02*
X148760000Y-119215000D01*
X156510000Y-121815000D02*
X156510000Y-122015000D01*
X156510000Y-122015000D02*
X156810000Y-122015000D01*
X156810000Y-122015000D02*
X156810000Y-121815000D01*
X156510000Y-121915000D02*
X156810000Y-121915000D01*
X155310000Y-117715000D02*
X155310000Y-118215000D01*
X155310000Y-118215000D02*
X155110000Y-118215000D01*
X155110000Y-118215000D02*
X155110000Y-117715000D01*
X155210000Y-117715000D02*
X155210000Y-118215000D01*
X153310000Y-117715000D02*
X153310000Y-118215000D01*
X153310000Y-118215000D02*
X153110000Y-118215000D01*
X153110000Y-118215000D02*
X153110000Y-117715000D01*
X153210000Y-117715000D02*
X153210000Y-118215000D01*
X151310000Y-117715000D02*
X151310000Y-118215000D01*
X151310000Y-118215000D02*
X151110000Y-118215000D01*
X151110000Y-118215000D02*
X151110000Y-117715000D01*
X151210000Y-117715000D02*
X151210000Y-118215000D01*
X157310000Y-122115000D02*
X158560000Y-122115000D01*
X158560000Y-122115000D02*
X158560000Y-120865000D01*
X134130000Y-121815000D02*
X134130000Y-117115000D01*
X134130000Y-117115000D02*
X124030000Y-117115000D01*
X124030000Y-117115000D02*
X124030000Y-121815000D01*
X124030000Y-121815000D02*
X134130000Y-121815000D01*
X131580000Y-121815000D02*
X131580000Y-121215000D01*
X131580000Y-121215000D02*
X133530000Y-121215000D01*
X133530000Y-121215000D02*
X133530000Y-117715000D01*
X133530000Y-117715000D02*
X124630000Y-117715000D01*
X124630000Y-117715000D02*
X124630000Y-121215000D01*
X124630000Y-121215000D02*
X126580000Y-121215000D01*
X126580000Y-121215000D02*
X126580000Y-121815000D01*
X134130000Y-120515000D02*
X133530000Y-120515000D01*
X134130000Y-119215000D02*
X133530000Y-119215000D01*
X124030000Y-120515000D02*
X124630000Y-120515000D01*
X124030000Y-119215000D02*
X124630000Y-119215000D01*
X132380000Y-121815000D02*
X132380000Y-122015000D01*
X132380000Y-122015000D02*
X132680000Y-122015000D01*
X132680000Y-122015000D02*
X132680000Y-121815000D01*
X132380000Y-121915000D02*
X132680000Y-121915000D01*
X131180000Y-117715000D02*
X131180000Y-118215000D01*
X131180000Y-118215000D02*
X130980000Y-118215000D01*
X130980000Y-118215000D02*
X130980000Y-117715000D01*
X131080000Y-117715000D02*
X131080000Y-118215000D01*
X129180000Y-117715000D02*
X129180000Y-118215000D01*
X129180000Y-118215000D02*
X128980000Y-118215000D01*
X128980000Y-118215000D02*
X128980000Y-117715000D01*
X129080000Y-117715000D02*
X129080000Y-118215000D01*
X127180000Y-117715000D02*
X127180000Y-118215000D01*
X127180000Y-118215000D02*
X126980000Y-118215000D01*
X126980000Y-118215000D02*
X126980000Y-117715000D01*
X127080000Y-117715000D02*
X127080000Y-118215000D01*
X133180000Y-122115000D02*
X134430000Y-122115000D01*
X134430000Y-122115000D02*
X134430000Y-120865000D01*
X110000000Y-121815000D02*
X110000000Y-117115000D01*
X110000000Y-117115000D02*
X99900000Y-117115000D01*
X99900000Y-117115000D02*
X99900000Y-121815000D01*
X99900000Y-121815000D02*
X110000000Y-121815000D01*
X107450000Y-121815000D02*
X107450000Y-121215000D01*
X107450000Y-121215000D02*
X109400000Y-121215000D01*
X109400000Y-121215000D02*
X109400000Y-117715000D01*
X109400000Y-117715000D02*
X100500000Y-117715000D01*
X100500000Y-117715000D02*
X100500000Y-121215000D01*
X100500000Y-121215000D02*
X102450000Y-121215000D01*
X102450000Y-121215000D02*
X102450000Y-121815000D01*
X110000000Y-120515000D02*
X109400000Y-120515000D01*
X110000000Y-119215000D02*
X109400000Y-119215000D01*
X99900000Y-120515000D02*
X100500000Y-120515000D01*
X99900000Y-119215000D02*
X100500000Y-119215000D01*
X108250000Y-121815000D02*
X108250000Y-122015000D01*
X108250000Y-122015000D02*
X108550000Y-122015000D01*
X108550000Y-122015000D02*
X108550000Y-121815000D01*
X108250000Y-121915000D02*
X108550000Y-121915000D01*
X107050000Y-117715000D02*
X107050000Y-118215000D01*
X107050000Y-118215000D02*
X106850000Y-118215000D01*
X106850000Y-118215000D02*
X106850000Y-117715000D01*
X106950000Y-117715000D02*
X106950000Y-118215000D01*
X105050000Y-117715000D02*
X105050000Y-118215000D01*
X105050000Y-118215000D02*
X104850000Y-118215000D01*
X104850000Y-118215000D02*
X104850000Y-117715000D01*
X104950000Y-117715000D02*
X104950000Y-118215000D01*
X103050000Y-117715000D02*
X103050000Y-118215000D01*
X103050000Y-118215000D02*
X102850000Y-118215000D01*
X102850000Y-118215000D02*
X102850000Y-117715000D01*
X102950000Y-117715000D02*
X102950000Y-118215000D01*
X109050000Y-122115000D02*
X110300000Y-122115000D01*
X110300000Y-122115000D02*
X110300000Y-120865000D01*
X85870000Y-121815000D02*
X85870000Y-117115000D01*
X85870000Y-117115000D02*
X75770000Y-117115000D01*
X75770000Y-117115000D02*
X75770000Y-121815000D01*
X75770000Y-121815000D02*
X85870000Y-121815000D01*
X83320000Y-121815000D02*
X83320000Y-121215000D01*
X83320000Y-121215000D02*
X85270000Y-121215000D01*
X85270000Y-121215000D02*
X85270000Y-117715000D01*
X85270000Y-117715000D02*
X76370000Y-117715000D01*
X76370000Y-117715000D02*
X76370000Y-121215000D01*
X76370000Y-121215000D02*
X78320000Y-121215000D01*
X78320000Y-121215000D02*
X78320000Y-121815000D01*
X85870000Y-120515000D02*
X85270000Y-120515000D01*
X85870000Y-119215000D02*
X85270000Y-119215000D01*
X75770000Y-120515000D02*
X76370000Y-120515000D01*
X75770000Y-119215000D02*
X76370000Y-119215000D01*
X84120000Y-121815000D02*
X84120000Y-122015000D01*
X84120000Y-122015000D02*
X84420000Y-122015000D01*
X84420000Y-122015000D02*
X84420000Y-121815000D01*
X84120000Y-121915000D02*
X84420000Y-121915000D01*
X82920000Y-117715000D02*
X82920000Y-118215000D01*
X82920000Y-118215000D02*
X82720000Y-118215000D01*
X82720000Y-118215000D02*
X82720000Y-117715000D01*
X82820000Y-117715000D02*
X82820000Y-118215000D01*
X80920000Y-117715000D02*
X80920000Y-118215000D01*
X80920000Y-118215000D02*
X80720000Y-118215000D01*
X80720000Y-118215000D02*
X80720000Y-117715000D01*
X80820000Y-117715000D02*
X80820000Y-118215000D01*
X78920000Y-117715000D02*
X78920000Y-118215000D01*
X78920000Y-118215000D02*
X78720000Y-118215000D01*
X78720000Y-118215000D02*
X78720000Y-117715000D01*
X78820000Y-117715000D02*
X78820000Y-118215000D01*
X84920000Y-122115000D02*
X86170000Y-122115000D01*
X86170000Y-122115000D02*
X86170000Y-120865000D01*
X158260000Y-77365000D02*
X158260000Y-72665000D01*
X158260000Y-72665000D02*
X148160000Y-72665000D01*
X148160000Y-72665000D02*
X148160000Y-77365000D01*
X148160000Y-77365000D02*
X158260000Y-77365000D01*
X155710000Y-77365000D02*
X155710000Y-76765000D01*
X155710000Y-76765000D02*
X157660000Y-76765000D01*
X157660000Y-76765000D02*
X157660000Y-73265000D01*
X157660000Y-73265000D02*
X148760000Y-73265000D01*
X148760000Y-73265000D02*
X148760000Y-76765000D01*
X148760000Y-76765000D02*
X150710000Y-76765000D01*
X150710000Y-76765000D02*
X150710000Y-77365000D01*
X158260000Y-76065000D02*
X157660000Y-76065000D01*
X158260000Y-74765000D02*
X157660000Y-74765000D01*
X148160000Y-76065000D02*
X148760000Y-76065000D01*
X148160000Y-74765000D02*
X148760000Y-74765000D01*
X156510000Y-77365000D02*
X156510000Y-77565000D01*
X156510000Y-77565000D02*
X156810000Y-77565000D01*
X156810000Y-77565000D02*
X156810000Y-77365000D01*
X156510000Y-77465000D02*
X156810000Y-77465000D01*
X155310000Y-73265000D02*
X155310000Y-73765000D01*
X155310000Y-73765000D02*
X155110000Y-73765000D01*
X155110000Y-73765000D02*
X155110000Y-73265000D01*
X155210000Y-73265000D02*
X155210000Y-73765000D01*
X153310000Y-73265000D02*
X153310000Y-73765000D01*
X153310000Y-73765000D02*
X153110000Y-73765000D01*
X153110000Y-73765000D02*
X153110000Y-73265000D01*
X153210000Y-73265000D02*
X153210000Y-73765000D01*
X151310000Y-73265000D02*
X151310000Y-73765000D01*
X151310000Y-73765000D02*
X151110000Y-73765000D01*
X151110000Y-73765000D02*
X151110000Y-73265000D01*
X151210000Y-73265000D02*
X151210000Y-73765000D01*
X157310000Y-77665000D02*
X158560000Y-77665000D01*
X158560000Y-77665000D02*
X158560000Y-76415000D01*
X134130000Y-77365000D02*
X134130000Y-72665000D01*
X134130000Y-72665000D02*
X124030000Y-72665000D01*
X124030000Y-72665000D02*
X124030000Y-77365000D01*
X124030000Y-77365000D02*
X134130000Y-77365000D01*
X131580000Y-77365000D02*
X131580000Y-76765000D01*
X131580000Y-76765000D02*
X133530000Y-76765000D01*
X133530000Y-76765000D02*
X133530000Y-73265000D01*
X133530000Y-73265000D02*
X124630000Y-73265000D01*
X124630000Y-73265000D02*
X124630000Y-76765000D01*
X124630000Y-76765000D02*
X126580000Y-76765000D01*
X126580000Y-76765000D02*
X126580000Y-77365000D01*
X134130000Y-76065000D02*
X133530000Y-76065000D01*
X134130000Y-74765000D02*
X133530000Y-74765000D01*
X124030000Y-76065000D02*
X124630000Y-76065000D01*
X124030000Y-74765000D02*
X124630000Y-74765000D01*
X132380000Y-77365000D02*
X132380000Y-77565000D01*
X132380000Y-77565000D02*
X132680000Y-77565000D01*
X132680000Y-77565000D02*
X132680000Y-77365000D01*
X132380000Y-77465000D02*
X132680000Y-77465000D01*
X131180000Y-73265000D02*
X131180000Y-73765000D01*
X131180000Y-73765000D02*
X130980000Y-73765000D01*
X130980000Y-73765000D02*
X130980000Y-73265000D01*
X131080000Y-73265000D02*
X131080000Y-73765000D01*
X129180000Y-73265000D02*
X129180000Y-73765000D01*
X129180000Y-73765000D02*
X128980000Y-73765000D01*
X128980000Y-73765000D02*
X128980000Y-73265000D01*
X129080000Y-73265000D02*
X129080000Y-73765000D01*
X127180000Y-73265000D02*
X127180000Y-73765000D01*
X127180000Y-73765000D02*
X126980000Y-73765000D01*
X126980000Y-73765000D02*
X126980000Y-73265000D01*
X127080000Y-73265000D02*
X127080000Y-73765000D01*
X133180000Y-77665000D02*
X134430000Y-77665000D01*
X134430000Y-77665000D02*
X134430000Y-76415000D01*
X110000000Y-77365000D02*
X110000000Y-72665000D01*
X110000000Y-72665000D02*
X99900000Y-72665000D01*
X99900000Y-72665000D02*
X99900000Y-77365000D01*
X99900000Y-77365000D02*
X110000000Y-77365000D01*
X107450000Y-77365000D02*
X107450000Y-76765000D01*
X107450000Y-76765000D02*
X109400000Y-76765000D01*
X109400000Y-76765000D02*
X109400000Y-73265000D01*
X109400000Y-73265000D02*
X100500000Y-73265000D01*
X100500000Y-73265000D02*
X100500000Y-76765000D01*
X100500000Y-76765000D02*
X102450000Y-76765000D01*
X102450000Y-76765000D02*
X102450000Y-77365000D01*
X110000000Y-76065000D02*
X109400000Y-76065000D01*
X110000000Y-74765000D02*
X109400000Y-74765000D01*
X99900000Y-76065000D02*
X100500000Y-76065000D01*
X99900000Y-74765000D02*
X100500000Y-74765000D01*
X108250000Y-77365000D02*
X108250000Y-77565000D01*
X108250000Y-77565000D02*
X108550000Y-77565000D01*
X108550000Y-77565000D02*
X108550000Y-77365000D01*
X108250000Y-77465000D02*
X108550000Y-77465000D01*
X107050000Y-73265000D02*
X107050000Y-73765000D01*
X107050000Y-73765000D02*
X106850000Y-73765000D01*
X106850000Y-73765000D02*
X106850000Y-73265000D01*
X106950000Y-73265000D02*
X106950000Y-73765000D01*
X105050000Y-73265000D02*
X105050000Y-73765000D01*
X105050000Y-73765000D02*
X104850000Y-73765000D01*
X104850000Y-73765000D02*
X104850000Y-73265000D01*
X104950000Y-73265000D02*
X104950000Y-73765000D01*
X103050000Y-73265000D02*
X103050000Y-73765000D01*
X103050000Y-73765000D02*
X102850000Y-73765000D01*
X102850000Y-73765000D02*
X102850000Y-73265000D01*
X102950000Y-73265000D02*
X102950000Y-73765000D01*
X109050000Y-77665000D02*
X110300000Y-77665000D01*
X110300000Y-77665000D02*
X110300000Y-76415000D01*
X77640000Y-52010000D02*
X77640000Y-72450000D01*
X77640000Y-72450000D02*
X80300000Y-72450000D01*
X80300000Y-72450000D02*
X80300000Y-52010000D01*
X80300000Y-52010000D02*
X77640000Y-52010000D01*
X80300000Y-52960000D02*
X86300000Y-52960000D01*
X86300000Y-52960000D02*
X86300000Y-53720000D01*
X86300000Y-53720000D02*
X80300000Y-53720000D01*
X80300000Y-53020000D02*
X86300000Y-53020000D01*
X80300000Y-53140000D02*
X86300000Y-53140000D01*
X80300000Y-53260000D02*
X86300000Y-53260000D01*
X80300000Y-53380000D02*
X86300000Y-53380000D01*
X80300000Y-53500000D02*
X86300000Y-53500000D01*
X80300000Y-53620000D02*
X86300000Y-53620000D01*
X77310000Y-52960000D02*
X77640000Y-52960000D01*
X77310000Y-53720000D02*
X77640000Y-53720000D01*
X77640000Y-54610000D02*
X80300000Y-54610000D01*
X80300000Y-55500000D02*
X86300000Y-55500000D01*
X86300000Y-55500000D02*
X86300000Y-56260000D01*
X86300000Y-56260000D02*
X80300000Y-56260000D01*
X77242929Y-55500000D02*
X77640000Y-55500000D01*
X77242929Y-56260000D02*
X77640000Y-56260000D01*
X77640000Y-57150000D02*
X80300000Y-57150000D01*
X80300000Y-58040000D02*
X86300000Y-58040000D01*
X86300000Y-58040000D02*
X86300000Y-58800000D01*
X86300000Y-58800000D02*
X80300000Y-58800000D01*
X77242929Y-58040000D02*
X77640000Y-58040000D01*
X77242929Y-58800000D02*
X77640000Y-58800000D01*
X77640000Y-59690000D02*
X80300000Y-59690000D01*
X80300000Y-60580000D02*
X86300000Y-60580000D01*
X86300000Y-60580000D02*
X86300000Y-61340000D01*
X86300000Y-61340000D02*
X80300000Y-61340000D01*
X77242929Y-60580000D02*
X77640000Y-60580000D01*
X77242929Y-61340000D02*
X77640000Y-61340000D01*
X77640000Y-62230000D02*
X80300000Y-62230000D01*
X80300000Y-63120000D02*
X86300000Y-63120000D01*
X86300000Y-63120000D02*
X86300000Y-63880000D01*
X86300000Y-63880000D02*
X80300000Y-63880000D01*
X77242929Y-63120000D02*
X77640000Y-63120000D01*
X77242929Y-63880000D02*
X77640000Y-63880000D01*
X77640000Y-64770000D02*
X80300000Y-64770000D01*
X80300000Y-65660000D02*
X86300000Y-65660000D01*
X86300000Y-65660000D02*
X86300000Y-66420000D01*
X86300000Y-66420000D02*
X80300000Y-66420000D01*
X77242929Y-65660000D02*
X77640000Y-65660000D01*
X77242929Y-66420000D02*
X77640000Y-66420000D01*
X77640000Y-67310000D02*
X80300000Y-67310000D01*
X80300000Y-68200000D02*
X86300000Y-68200000D01*
X86300000Y-68200000D02*
X86300000Y-68960000D01*
X86300000Y-68960000D02*
X80300000Y-68960000D01*
X77242929Y-68200000D02*
X77640000Y-68200000D01*
X77242929Y-68960000D02*
X77640000Y-68960000D01*
X77640000Y-69850000D02*
X80300000Y-69850000D01*
X80300000Y-70740000D02*
X86300000Y-70740000D01*
X86300000Y-70740000D02*
X86300000Y-71500000D01*
X86300000Y-71500000D02*
X80300000Y-71500000D01*
X77242929Y-70740000D02*
X77640000Y-70740000D01*
X77242929Y-71500000D02*
X77640000Y-71500000D01*
X74930000Y-53340000D02*
X74930000Y-52070000D01*
X74930000Y-52070000D02*
X76200000Y-52070000D01*
X85870000Y-50060000D02*
X85870000Y-45360000D01*
X85870000Y-45360000D02*
X75770000Y-45360000D01*
X75770000Y-45360000D02*
X75770000Y-50060000D01*
X75770000Y-50060000D02*
X85870000Y-50060000D01*
X83320000Y-50060000D02*
X83320000Y-49460000D01*
X83320000Y-49460000D02*
X85270000Y-49460000D01*
X85270000Y-49460000D02*
X85270000Y-45960000D01*
X85270000Y-45960000D02*
X76370000Y-45960000D01*
X76370000Y-45960000D02*
X76370000Y-49460000D01*
X76370000Y-49460000D02*
X78320000Y-49460000D01*
X78320000Y-49460000D02*
X78320000Y-50060000D01*
X85870000Y-48760000D02*
X85270000Y-48760000D01*
X85870000Y-47460000D02*
X85270000Y-47460000D01*
X75770000Y-48760000D02*
X76370000Y-48760000D01*
X75770000Y-47460000D02*
X76370000Y-47460000D01*
X84120000Y-50060000D02*
X84120000Y-50260000D01*
X84120000Y-50260000D02*
X84420000Y-50260000D01*
X84420000Y-50260000D02*
X84420000Y-50060000D01*
X84120000Y-50160000D02*
X84420000Y-50160000D01*
X82920000Y-45960000D02*
X82920000Y-46460000D01*
X82920000Y-46460000D02*
X82720000Y-46460000D01*
X82720000Y-46460000D02*
X82720000Y-45960000D01*
X82820000Y-45960000D02*
X82820000Y-46460000D01*
X80920000Y-45960000D02*
X80920000Y-46460000D01*
X80920000Y-46460000D02*
X80720000Y-46460000D01*
X80720000Y-46460000D02*
X80720000Y-45960000D01*
X80820000Y-45960000D02*
X80820000Y-46460000D01*
X78920000Y-45960000D02*
X78920000Y-46460000D01*
X78920000Y-46460000D02*
X78720000Y-46460000D01*
X78720000Y-46460000D02*
X78720000Y-45960000D01*
X78820000Y-45960000D02*
X78820000Y-46460000D01*
X84920000Y-50360000D02*
X86170000Y-50360000D01*
X86170000Y-50360000D02*
X86170000Y-49110000D01*
X85870000Y-77365000D02*
X85870000Y-72665000D01*
X85870000Y-72665000D02*
X75770000Y-72665000D01*
X75770000Y-72665000D02*
X75770000Y-77365000D01*
X75770000Y-77365000D02*
X85870000Y-77365000D01*
X83320000Y-77365000D02*
X83320000Y-76765000D01*
X83320000Y-76765000D02*
X85270000Y-76765000D01*
X85270000Y-76765000D02*
X85270000Y-73265000D01*
X85270000Y-73265000D02*
X76370000Y-73265000D01*
X76370000Y-73265000D02*
X76370000Y-76765000D01*
X76370000Y-76765000D02*
X78320000Y-76765000D01*
X78320000Y-76765000D02*
X78320000Y-77365000D01*
X85870000Y-76065000D02*
X85270000Y-76065000D01*
X85870000Y-74765000D02*
X85270000Y-74765000D01*
X75770000Y-76065000D02*
X76370000Y-76065000D01*
X75770000Y-74765000D02*
X76370000Y-74765000D01*
X84120000Y-77365000D02*
X84120000Y-77565000D01*
X84120000Y-77565000D02*
X84420000Y-77565000D01*
X84420000Y-77565000D02*
X84420000Y-77365000D01*
X84120000Y-77465000D02*
X84420000Y-77465000D01*
X82920000Y-73265000D02*
X82920000Y-73765000D01*
X82920000Y-73765000D02*
X82720000Y-73765000D01*
X82720000Y-73765000D02*
X82720000Y-73265000D01*
X82820000Y-73265000D02*
X82820000Y-73765000D01*
X80920000Y-73265000D02*
X80920000Y-73765000D01*
X80920000Y-73765000D02*
X80720000Y-73765000D01*
X80720000Y-73765000D02*
X80720000Y-73265000D01*
X80820000Y-73265000D02*
X80820000Y-73765000D01*
X78920000Y-73265000D02*
X78920000Y-73765000D01*
X78920000Y-73765000D02*
X78720000Y-73765000D01*
X78720000Y-73765000D02*
X78720000Y-73265000D01*
X78820000Y-73265000D02*
X78820000Y-73765000D01*
X84920000Y-77665000D02*
X86170000Y-77665000D01*
X86170000Y-77665000D02*
X86170000Y-76415000D01*
X79463416Y-83969724D02*
X80587581Y-81558945D01*
X67898929Y-78577115D02*
X79463416Y-83969724D01*
X69023093Y-76166336D02*
X80587581Y-81558945D01*
X67898929Y-78577115D02*
X69023093Y-76166336D01*
X66747918Y-78040389D02*
X65542528Y-77478307D01*
X65542528Y-77478307D02*
X66104611Y-76272918D01*
X64710000Y-69910000D02*
X67370000Y-69910000D01*
X64710000Y-57150000D02*
X64710000Y-69910000D01*
X67370000Y-57150000D02*
X67370000Y-69910000D01*
X64710000Y-57150000D02*
X67370000Y-57150000D01*
X64710000Y-55880000D02*
X64710000Y-54550000D01*
X64710000Y-54550000D02*
X66040000Y-54550000D01*
X65462419Y-47014945D02*
X66586584Y-49425724D01*
X77026907Y-41622336D02*
X65462419Y-47014945D01*
X78151071Y-44033115D02*
X66586584Y-49425724D01*
X77026907Y-41622336D02*
X78151071Y-44033115D01*
X78177918Y-41085611D02*
X79383307Y-40523528D01*
X79383307Y-40523528D02*
X79945389Y-41728918D01*
X73700000Y-52705000D02*
G75*
G03X73700000Y-52705000I-1310000J0D01*
G01*
X71080000Y-52705000D02*
X70950000Y-52705000D01*
X73700000Y-71755000D02*
G75*
G03X73700000Y-71755000I-1310000J0D01*
G01*
X71080000Y-71755000D02*
X70950000Y-71755000D01*
D13*
X140787381Y-116371666D02*
X140311190Y-116705000D01*
X140787381Y-116943095D02*
X139787381Y-116943095D01*
X139787381Y-116562142D01*
X139835000Y-116466904D01*
X139882619Y-116419285D01*
X139977857Y-116371666D01*
X140120714Y-116371666D01*
X140215952Y-116419285D01*
X140263571Y-116466904D01*
X140311190Y-116562142D01*
X140311190Y-116943095D01*
X139882619Y-115990714D02*
X139835000Y-115943095D01*
X139787381Y-115847857D01*
X139787381Y-115609761D01*
X139835000Y-115514523D01*
X139882619Y-115466904D01*
X139977857Y-115419285D01*
X140073095Y-115419285D01*
X140215952Y-115466904D01*
X140787381Y-116038333D01*
X140787381Y-115419285D01*
X116657381Y-116371666D02*
X116181190Y-116705000D01*
X116657381Y-116943095D02*
X115657381Y-116943095D01*
X115657381Y-116562142D01*
X115705000Y-116466904D01*
X115752619Y-116419285D01*
X115847857Y-116371666D01*
X115990714Y-116371666D01*
X116085952Y-116419285D01*
X116133571Y-116466904D01*
X116181190Y-116562142D01*
X116181190Y-116943095D01*
X115752619Y-115990714D02*
X115705000Y-115943095D01*
X115657381Y-115847857D01*
X115657381Y-115609761D01*
X115705000Y-115514523D01*
X115752619Y-115466904D01*
X115847857Y-115419285D01*
X115943095Y-115419285D01*
X116085952Y-115466904D01*
X116657381Y-116038333D01*
X116657381Y-115419285D01*
X92527381Y-116371666D02*
X92051190Y-116705000D01*
X92527381Y-116943095D02*
X91527381Y-116943095D01*
X91527381Y-116562142D01*
X91575000Y-116466904D01*
X91622619Y-116419285D01*
X91717857Y-116371666D01*
X91860714Y-116371666D01*
X91955952Y-116419285D01*
X92003571Y-116466904D01*
X92051190Y-116562142D01*
X92051190Y-116943095D01*
X91622619Y-115990714D02*
X91575000Y-115943095D01*
X91527381Y-115847857D01*
X91527381Y-115609761D01*
X91575000Y-115514523D01*
X91622619Y-115466904D01*
X91717857Y-115419285D01*
X91813095Y-115419285D01*
X91955952Y-115466904D01*
X92527381Y-116038333D01*
X92527381Y-115419285D01*
X68397381Y-116371666D02*
X67921190Y-116705000D01*
X68397381Y-116943095D02*
X67397381Y-116943095D01*
X67397381Y-116562142D01*
X67445000Y-116466904D01*
X67492619Y-116419285D01*
X67587857Y-116371666D01*
X67730714Y-116371666D01*
X67825952Y-116419285D01*
X67873571Y-116466904D01*
X67921190Y-116562142D01*
X67921190Y-116943095D01*
X67492619Y-115990714D02*
X67445000Y-115943095D01*
X67397381Y-115847857D01*
X67397381Y-115609761D01*
X67445000Y-115514523D01*
X67492619Y-115466904D01*
X67587857Y-115419285D01*
X67683095Y-115419285D01*
X67825952Y-115466904D01*
X68397381Y-116038333D01*
X68397381Y-115419285D01*
X140787381Y-71921666D02*
X140311190Y-72255000D01*
X140787381Y-72493095D02*
X139787381Y-72493095D01*
X139787381Y-72112142D01*
X139835000Y-72016904D01*
X139882619Y-71969285D01*
X139977857Y-71921666D01*
X140120714Y-71921666D01*
X140215952Y-71969285D01*
X140263571Y-72016904D01*
X140311190Y-72112142D01*
X140311190Y-72493095D01*
X139882619Y-71540714D02*
X139835000Y-71493095D01*
X139787381Y-71397857D01*
X139787381Y-71159761D01*
X139835000Y-71064523D01*
X139882619Y-71016904D01*
X139977857Y-70969285D01*
X140073095Y-70969285D01*
X140215952Y-71016904D01*
X140787381Y-71588333D01*
X140787381Y-70969285D01*
X116657381Y-71921666D02*
X116181190Y-72255000D01*
X116657381Y-72493095D02*
X115657381Y-72493095D01*
X115657381Y-72112142D01*
X115705000Y-72016904D01*
X115752619Y-71969285D01*
X115847857Y-71921666D01*
X115990714Y-71921666D01*
X116085952Y-71969285D01*
X116133571Y-72016904D01*
X116181190Y-72112142D01*
X116181190Y-72493095D01*
X115752619Y-71540714D02*
X115705000Y-71493095D01*
X115657381Y-71397857D01*
X115657381Y-71159761D01*
X115705000Y-71064523D01*
X115752619Y-71016904D01*
X115847857Y-70969285D01*
X115943095Y-70969285D01*
X116085952Y-71016904D01*
X116657381Y-71588333D01*
X116657381Y-70969285D01*
X92527381Y-71921666D02*
X92051190Y-72255000D01*
X92527381Y-72493095D02*
X91527381Y-72493095D01*
X91527381Y-72112142D01*
X91575000Y-72016904D01*
X91622619Y-71969285D01*
X91717857Y-71921666D01*
X91860714Y-71921666D01*
X91955952Y-71969285D01*
X92003571Y-72016904D01*
X92051190Y-72112142D01*
X92051190Y-72493095D01*
X91622619Y-71540714D02*
X91575000Y-71493095D01*
X91527381Y-71397857D01*
X91527381Y-71159761D01*
X91575000Y-71064523D01*
X91622619Y-71016904D01*
X91717857Y-70969285D01*
X91813095Y-70969285D01*
X91955952Y-71016904D01*
X92527381Y-71588333D01*
X92527381Y-70969285D01*
X140787381Y-97321666D02*
X140311190Y-97655000D01*
X140787381Y-97893095D02*
X139787381Y-97893095D01*
X139787381Y-97512142D01*
X139835000Y-97416904D01*
X139882619Y-97369285D01*
X139977857Y-97321666D01*
X140120714Y-97321666D01*
X140215952Y-97369285D01*
X140263571Y-97416904D01*
X140311190Y-97512142D01*
X140311190Y-97893095D01*
X140787381Y-96369285D02*
X140787381Y-96940714D01*
X140787381Y-96655000D02*
X139787381Y-96655000D01*
X139930238Y-96750238D01*
X140025476Y-96845476D01*
X140073095Y-96940714D01*
X116657381Y-97321666D02*
X116181190Y-97655000D01*
X116657381Y-97893095D02*
X115657381Y-97893095D01*
X115657381Y-97512142D01*
X115705000Y-97416904D01*
X115752619Y-97369285D01*
X115847857Y-97321666D01*
X115990714Y-97321666D01*
X116085952Y-97369285D01*
X116133571Y-97416904D01*
X116181190Y-97512142D01*
X116181190Y-97893095D01*
X116657381Y-96369285D02*
X116657381Y-96940714D01*
X116657381Y-96655000D02*
X115657381Y-96655000D01*
X115800238Y-96750238D01*
X115895476Y-96845476D01*
X115943095Y-96940714D01*
X92527381Y-97321666D02*
X92051190Y-97655000D01*
X92527381Y-97893095D02*
X91527381Y-97893095D01*
X91527381Y-97512142D01*
X91575000Y-97416904D01*
X91622619Y-97369285D01*
X91717857Y-97321666D01*
X91860714Y-97321666D01*
X91955952Y-97369285D01*
X92003571Y-97416904D01*
X92051190Y-97512142D01*
X92051190Y-97893095D01*
X92527381Y-96369285D02*
X92527381Y-96940714D01*
X92527381Y-96655000D02*
X91527381Y-96655000D01*
X91670238Y-96750238D01*
X91765476Y-96845476D01*
X91813095Y-96940714D01*
X68397381Y-97321666D02*
X67921190Y-97655000D01*
X68397381Y-97893095D02*
X67397381Y-97893095D01*
X67397381Y-97512142D01*
X67445000Y-97416904D01*
X67492619Y-97369285D01*
X67587857Y-97321666D01*
X67730714Y-97321666D01*
X67825952Y-97369285D01*
X67873571Y-97416904D01*
X67921190Y-97512142D01*
X67921190Y-97893095D01*
X68397381Y-96369285D02*
X68397381Y-96940714D01*
X68397381Y-96655000D02*
X67397381Y-96655000D01*
X67540238Y-96750238D01*
X67635476Y-96845476D01*
X67683095Y-96940714D01*
X140787381Y-52871666D02*
X140311190Y-53205000D01*
X140787381Y-53443095D02*
X139787381Y-53443095D01*
X139787381Y-53062142D01*
X139835000Y-52966904D01*
X139882619Y-52919285D01*
X139977857Y-52871666D01*
X140120714Y-52871666D01*
X140215952Y-52919285D01*
X140263571Y-52966904D01*
X140311190Y-53062142D01*
X140311190Y-53443095D01*
X140787381Y-51919285D02*
X140787381Y-52490714D01*
X140787381Y-52205000D02*
X139787381Y-52205000D01*
X139930238Y-52300238D01*
X140025476Y-52395476D01*
X140073095Y-52490714D01*
X116657381Y-52871666D02*
X116181190Y-53205000D01*
X116657381Y-53443095D02*
X115657381Y-53443095D01*
X115657381Y-53062142D01*
X115705000Y-52966904D01*
X115752619Y-52919285D01*
X115847857Y-52871666D01*
X115990714Y-52871666D01*
X116085952Y-52919285D01*
X116133571Y-52966904D01*
X116181190Y-53062142D01*
X116181190Y-53443095D01*
X116657381Y-51919285D02*
X116657381Y-52490714D01*
X116657381Y-52205000D02*
X115657381Y-52205000D01*
X115800238Y-52300238D01*
X115895476Y-52395476D01*
X115943095Y-52490714D01*
X92527381Y-52871666D02*
X92051190Y-53205000D01*
X92527381Y-53443095D02*
X91527381Y-53443095D01*
X91527381Y-53062142D01*
X91575000Y-52966904D01*
X91622619Y-52919285D01*
X91717857Y-52871666D01*
X91860714Y-52871666D01*
X91955952Y-52919285D01*
X92003571Y-52966904D01*
X92051190Y-53062142D01*
X92051190Y-53443095D01*
X92527381Y-51919285D02*
X92527381Y-52490714D01*
X92527381Y-52205000D02*
X91527381Y-52205000D01*
X91670238Y-52300238D01*
X91765476Y-52395476D01*
X91813095Y-52490714D01*
X152552863Y-85236838D02*
X152570080Y-85386435D01*
X152670703Y-85602224D01*
X152754110Y-85668414D01*
X152817392Y-85691447D01*
X152923832Y-85694355D01*
X153010147Y-85654106D01*
X153076337Y-85570699D01*
X153099370Y-85507417D01*
X153102279Y-85400977D01*
X153064937Y-85208221D01*
X153067845Y-85101782D01*
X153090878Y-85038500D01*
X153157069Y-84955093D01*
X153243384Y-84914843D01*
X153349823Y-84917752D01*
X153413105Y-84940784D01*
X153496512Y-85006975D01*
X153597136Y-85222763D01*
X153614352Y-85372360D01*
X153798382Y-85654338D02*
X154060003Y-86215386D01*
X153573871Y-86074280D01*
X153634245Y-86203753D01*
X153631337Y-86310193D01*
X153608304Y-86373475D01*
X153542113Y-86456882D01*
X153326325Y-86557505D01*
X153219886Y-86554597D01*
X153156604Y-86531564D01*
X153073197Y-86465374D01*
X152952449Y-86206428D01*
X152955357Y-86099989D01*
X152978389Y-86036707D01*
X128422863Y-85236838D02*
X128440080Y-85386435D01*
X128540703Y-85602224D01*
X128624110Y-85668414D01*
X128687392Y-85691447D01*
X128793832Y-85694355D01*
X128880147Y-85654106D01*
X128946337Y-85570699D01*
X128969370Y-85507417D01*
X128972279Y-85400977D01*
X128934937Y-85208221D01*
X128937845Y-85101782D01*
X128960878Y-85038500D01*
X129027069Y-84955093D01*
X129113384Y-84914843D01*
X129219823Y-84917752D01*
X129283105Y-84940784D01*
X129366512Y-85006975D01*
X129467136Y-85222763D01*
X129484352Y-85372360D01*
X129668382Y-85654338D02*
X129930003Y-86215386D01*
X129443871Y-86074280D01*
X129504245Y-86203753D01*
X129501337Y-86310193D01*
X129478304Y-86373475D01*
X129412113Y-86456882D01*
X129196325Y-86557505D01*
X129089886Y-86554597D01*
X129026604Y-86531564D01*
X128943197Y-86465374D01*
X128822449Y-86206428D01*
X128825357Y-86099989D01*
X128848389Y-86036707D01*
X104292863Y-85236838D02*
X104310080Y-85386435D01*
X104410703Y-85602224D01*
X104494110Y-85668414D01*
X104557392Y-85691447D01*
X104663832Y-85694355D01*
X104750147Y-85654106D01*
X104816337Y-85570699D01*
X104839370Y-85507417D01*
X104842279Y-85400977D01*
X104804937Y-85208221D01*
X104807845Y-85101782D01*
X104830878Y-85038500D01*
X104897069Y-84955093D01*
X104983384Y-84914843D01*
X105089823Y-84917752D01*
X105153105Y-84940784D01*
X105236512Y-85006975D01*
X105337136Y-85222763D01*
X105354352Y-85372360D01*
X105538382Y-85654338D02*
X105800003Y-86215386D01*
X105313871Y-86074280D01*
X105374245Y-86203753D01*
X105371337Y-86310193D01*
X105348304Y-86373475D01*
X105282113Y-86456882D01*
X105066325Y-86557505D01*
X104959886Y-86554597D01*
X104896604Y-86531564D01*
X104813197Y-86465374D01*
X104692449Y-86206428D01*
X104695357Y-86099989D01*
X104718389Y-86036707D01*
X80162863Y-85236838D02*
X80180080Y-85386435D01*
X80280703Y-85602224D01*
X80364110Y-85668414D01*
X80427392Y-85691447D01*
X80533832Y-85694355D01*
X80620147Y-85654106D01*
X80686337Y-85570699D01*
X80709370Y-85507417D01*
X80712279Y-85400977D01*
X80674937Y-85208221D01*
X80677845Y-85101782D01*
X80700878Y-85038500D01*
X80767069Y-84955093D01*
X80853384Y-84914843D01*
X80959823Y-84917752D01*
X81023105Y-84940784D01*
X81106512Y-85006975D01*
X81207136Y-85222763D01*
X81224352Y-85372360D01*
X81408382Y-85654338D02*
X81670003Y-86215386D01*
X81183871Y-86074280D01*
X81244245Y-86203753D01*
X81241337Y-86310193D01*
X81218304Y-86373475D01*
X81152113Y-86456882D01*
X80936325Y-86557505D01*
X80829886Y-86554597D01*
X80766604Y-86531564D01*
X80683197Y-86465374D01*
X80562449Y-86206428D01*
X80565357Y-86099989D01*
X80588389Y-86036707D01*
X152552863Y-40786838D02*
X152570080Y-40936435D01*
X152670703Y-41152224D01*
X152754110Y-41218414D01*
X152817392Y-41241447D01*
X152923832Y-41244355D01*
X153010147Y-41204106D01*
X153076337Y-41120699D01*
X153099370Y-41057417D01*
X153102279Y-40950977D01*
X153064937Y-40758221D01*
X153067845Y-40651782D01*
X153090878Y-40588500D01*
X153157069Y-40505093D01*
X153243384Y-40464843D01*
X153349823Y-40467752D01*
X153413105Y-40490784D01*
X153496512Y-40556975D01*
X153597136Y-40772763D01*
X153614352Y-40922360D01*
X153798382Y-41204338D02*
X154060003Y-41765386D01*
X153573871Y-41624280D01*
X153634245Y-41753753D01*
X153631337Y-41860193D01*
X153608304Y-41923475D01*
X153542113Y-42006882D01*
X153326325Y-42107505D01*
X153219886Y-42104597D01*
X153156604Y-42081564D01*
X153073197Y-42015374D01*
X152952449Y-41756428D01*
X152955357Y-41649989D01*
X152978389Y-41586707D01*
X128422863Y-40786838D02*
X128440080Y-40936435D01*
X128540703Y-41152224D01*
X128624110Y-41218414D01*
X128687392Y-41241447D01*
X128793832Y-41244355D01*
X128880147Y-41204106D01*
X128946337Y-41120699D01*
X128969370Y-41057417D01*
X128972279Y-40950977D01*
X128934937Y-40758221D01*
X128937845Y-40651782D01*
X128960878Y-40588500D01*
X129027069Y-40505093D01*
X129113384Y-40464843D01*
X129219823Y-40467752D01*
X129283105Y-40490784D01*
X129366512Y-40556975D01*
X129467136Y-40772763D01*
X129484352Y-40922360D01*
X129668382Y-41204338D02*
X129930003Y-41765386D01*
X129443871Y-41624280D01*
X129504245Y-41753753D01*
X129501337Y-41860193D01*
X129478304Y-41923475D01*
X129412113Y-42006882D01*
X129196325Y-42107505D01*
X129089886Y-42104597D01*
X129026604Y-42081564D01*
X128943197Y-42015374D01*
X128822449Y-41756428D01*
X128825357Y-41649989D01*
X128848389Y-41586707D01*
X104292863Y-40786838D02*
X104310080Y-40936435D01*
X104410703Y-41152224D01*
X104494110Y-41218414D01*
X104557392Y-41241447D01*
X104663832Y-41244355D01*
X104750147Y-41204106D01*
X104816337Y-41120699D01*
X104839370Y-41057417D01*
X104842279Y-40950977D01*
X104804937Y-40758221D01*
X104807845Y-40651782D01*
X104830878Y-40588500D01*
X104897069Y-40505093D01*
X104983384Y-40464843D01*
X105089823Y-40467752D01*
X105153105Y-40490784D01*
X105236512Y-40556975D01*
X105337136Y-40772763D01*
X105354352Y-40922360D01*
X105538382Y-41204338D02*
X105800003Y-41765386D01*
X105313871Y-41624280D01*
X105374245Y-41753753D01*
X105371337Y-41860193D01*
X105348304Y-41923475D01*
X105282113Y-42006882D01*
X105066325Y-42107505D01*
X104959886Y-42104597D01*
X104896604Y-42081564D01*
X104813197Y-42015374D01*
X104692449Y-41756428D01*
X104695357Y-41649989D01*
X104718389Y-41586707D01*
X137668095Y-98404762D02*
X137810952Y-98452381D01*
X138049048Y-98452381D01*
X138144286Y-98404762D01*
X138191905Y-98357143D01*
X138239524Y-98261905D01*
X138239524Y-98166667D01*
X138191905Y-98071429D01*
X138144286Y-98023810D01*
X138049048Y-97976190D01*
X137858571Y-97928571D01*
X137763333Y-97880952D01*
X137715714Y-97833333D01*
X137668095Y-97738095D01*
X137668095Y-97642857D01*
X137715714Y-97547619D01*
X137763333Y-97500000D01*
X137858571Y-97452381D01*
X138096667Y-97452381D01*
X138239524Y-97500000D01*
X138620476Y-97547619D02*
X138668095Y-97500000D01*
X138763333Y-97452381D01*
X139001429Y-97452381D01*
X139096667Y-97500000D01*
X139144286Y-97547619D01*
X139191905Y-97642857D01*
X139191905Y-97738095D01*
X139144286Y-97880952D01*
X138572857Y-98452381D01*
X139191905Y-98452381D01*
X113538095Y-98404762D02*
X113680952Y-98452381D01*
X113919048Y-98452381D01*
X114014286Y-98404762D01*
X114061905Y-98357143D01*
X114109524Y-98261905D01*
X114109524Y-98166667D01*
X114061905Y-98071429D01*
X114014286Y-98023810D01*
X113919048Y-97976190D01*
X113728571Y-97928571D01*
X113633333Y-97880952D01*
X113585714Y-97833333D01*
X113538095Y-97738095D01*
X113538095Y-97642857D01*
X113585714Y-97547619D01*
X113633333Y-97500000D01*
X113728571Y-97452381D01*
X113966667Y-97452381D01*
X114109524Y-97500000D01*
X114490476Y-97547619D02*
X114538095Y-97500000D01*
X114633333Y-97452381D01*
X114871429Y-97452381D01*
X114966667Y-97500000D01*
X115014286Y-97547619D01*
X115061905Y-97642857D01*
X115061905Y-97738095D01*
X115014286Y-97880952D01*
X114442857Y-98452381D01*
X115061905Y-98452381D01*
X89408095Y-98404762D02*
X89550952Y-98452381D01*
X89789048Y-98452381D01*
X89884286Y-98404762D01*
X89931905Y-98357143D01*
X89979524Y-98261905D01*
X89979524Y-98166667D01*
X89931905Y-98071429D01*
X89884286Y-98023810D01*
X89789048Y-97976190D01*
X89598571Y-97928571D01*
X89503333Y-97880952D01*
X89455714Y-97833333D01*
X89408095Y-97738095D01*
X89408095Y-97642857D01*
X89455714Y-97547619D01*
X89503333Y-97500000D01*
X89598571Y-97452381D01*
X89836667Y-97452381D01*
X89979524Y-97500000D01*
X90360476Y-97547619D02*
X90408095Y-97500000D01*
X90503333Y-97452381D01*
X90741429Y-97452381D01*
X90836667Y-97500000D01*
X90884286Y-97547619D01*
X90931905Y-97642857D01*
X90931905Y-97738095D01*
X90884286Y-97880952D01*
X90312857Y-98452381D01*
X90931905Y-98452381D01*
X65278095Y-98404762D02*
X65420952Y-98452381D01*
X65659048Y-98452381D01*
X65754286Y-98404762D01*
X65801905Y-98357143D01*
X65849524Y-98261905D01*
X65849524Y-98166667D01*
X65801905Y-98071429D01*
X65754286Y-98023810D01*
X65659048Y-97976190D01*
X65468571Y-97928571D01*
X65373333Y-97880952D01*
X65325714Y-97833333D01*
X65278095Y-97738095D01*
X65278095Y-97642857D01*
X65325714Y-97547619D01*
X65373333Y-97500000D01*
X65468571Y-97452381D01*
X65706667Y-97452381D01*
X65849524Y-97500000D01*
X66230476Y-97547619D02*
X66278095Y-97500000D01*
X66373333Y-97452381D01*
X66611429Y-97452381D01*
X66706667Y-97500000D01*
X66754286Y-97547619D01*
X66801905Y-97642857D01*
X66801905Y-97738095D01*
X66754286Y-97880952D01*
X66182857Y-98452381D01*
X66801905Y-98452381D01*
X137668095Y-53954762D02*
X137810952Y-54002381D01*
X138049048Y-54002381D01*
X138144286Y-53954762D01*
X138191905Y-53907143D01*
X138239524Y-53811905D01*
X138239524Y-53716667D01*
X138191905Y-53621429D01*
X138144286Y-53573810D01*
X138049048Y-53526190D01*
X137858571Y-53478571D01*
X137763333Y-53430952D01*
X137715714Y-53383333D01*
X137668095Y-53288095D01*
X137668095Y-53192857D01*
X137715714Y-53097619D01*
X137763333Y-53050000D01*
X137858571Y-53002381D01*
X138096667Y-53002381D01*
X138239524Y-53050000D01*
X138620476Y-53097619D02*
X138668095Y-53050000D01*
X138763333Y-53002381D01*
X139001429Y-53002381D01*
X139096667Y-53050000D01*
X139144286Y-53097619D01*
X139191905Y-53192857D01*
X139191905Y-53288095D01*
X139144286Y-53430952D01*
X138572857Y-54002381D01*
X139191905Y-54002381D01*
X113538095Y-53954762D02*
X113680952Y-54002381D01*
X113919048Y-54002381D01*
X114014286Y-53954762D01*
X114061905Y-53907143D01*
X114109524Y-53811905D01*
X114109524Y-53716667D01*
X114061905Y-53621429D01*
X114014286Y-53573810D01*
X113919048Y-53526190D01*
X113728571Y-53478571D01*
X113633333Y-53430952D01*
X113585714Y-53383333D01*
X113538095Y-53288095D01*
X113538095Y-53192857D01*
X113585714Y-53097619D01*
X113633333Y-53050000D01*
X113728571Y-53002381D01*
X113966667Y-53002381D01*
X114109524Y-53050000D01*
X114490476Y-53097619D02*
X114538095Y-53050000D01*
X114633333Y-53002381D01*
X114871429Y-53002381D01*
X114966667Y-53050000D01*
X115014286Y-53097619D01*
X115061905Y-53192857D01*
X115061905Y-53288095D01*
X115014286Y-53430952D01*
X114442857Y-54002381D01*
X115061905Y-54002381D01*
X89408095Y-53954762D02*
X89550952Y-54002381D01*
X89789048Y-54002381D01*
X89884286Y-53954762D01*
X89931905Y-53907143D01*
X89979524Y-53811905D01*
X89979524Y-53716667D01*
X89931905Y-53621429D01*
X89884286Y-53573810D01*
X89789048Y-53526190D01*
X89598571Y-53478571D01*
X89503333Y-53430952D01*
X89455714Y-53383333D01*
X89408095Y-53288095D01*
X89408095Y-53192857D01*
X89455714Y-53097619D01*
X89503333Y-53050000D01*
X89598571Y-53002381D01*
X89836667Y-53002381D01*
X89979524Y-53050000D01*
X90360476Y-53097619D02*
X90408095Y-53050000D01*
X90503333Y-53002381D01*
X90741429Y-53002381D01*
X90836667Y-53050000D01*
X90884286Y-53097619D01*
X90931905Y-53192857D01*
X90931905Y-53288095D01*
X90884286Y-53430952D01*
X90312857Y-54002381D01*
X90931905Y-54002381D01*
X147042143Y-107370476D02*
X147089762Y-107418095D01*
X147137381Y-107560952D01*
X147137381Y-107656190D01*
X147089762Y-107799048D01*
X146994524Y-107894286D01*
X146899286Y-107941905D01*
X146708810Y-107989524D01*
X146565952Y-107989524D01*
X146375476Y-107941905D01*
X146280238Y-107894286D01*
X146185000Y-107799048D01*
X146137381Y-107656190D01*
X146137381Y-107560952D01*
X146185000Y-107418095D01*
X146232619Y-107370476D01*
X147137381Y-106941905D02*
X146137381Y-106941905D01*
X147137381Y-106370476D01*
X146137381Y-106370476D01*
X146470714Y-105465714D02*
X147137381Y-105465714D01*
X146089762Y-105703810D02*
X146804048Y-105941905D01*
X146804048Y-105322857D01*
X122912143Y-107370476D02*
X122959762Y-107418095D01*
X123007381Y-107560952D01*
X123007381Y-107656190D01*
X122959762Y-107799048D01*
X122864524Y-107894286D01*
X122769286Y-107941905D01*
X122578810Y-107989524D01*
X122435952Y-107989524D01*
X122245476Y-107941905D01*
X122150238Y-107894286D01*
X122055000Y-107799048D01*
X122007381Y-107656190D01*
X122007381Y-107560952D01*
X122055000Y-107418095D01*
X122102619Y-107370476D01*
X123007381Y-106941905D02*
X122007381Y-106941905D01*
X123007381Y-106370476D01*
X122007381Y-106370476D01*
X122340714Y-105465714D02*
X123007381Y-105465714D01*
X121959762Y-105703810D02*
X122674048Y-105941905D01*
X122674048Y-105322857D01*
X98782143Y-107370476D02*
X98829762Y-107418095D01*
X98877381Y-107560952D01*
X98877381Y-107656190D01*
X98829762Y-107799048D01*
X98734524Y-107894286D01*
X98639286Y-107941905D01*
X98448810Y-107989524D01*
X98305952Y-107989524D01*
X98115476Y-107941905D01*
X98020238Y-107894286D01*
X97925000Y-107799048D01*
X97877381Y-107656190D01*
X97877381Y-107560952D01*
X97925000Y-107418095D01*
X97972619Y-107370476D01*
X98877381Y-106941905D02*
X97877381Y-106941905D01*
X98877381Y-106370476D01*
X97877381Y-106370476D01*
X98210714Y-105465714D02*
X98877381Y-105465714D01*
X97829762Y-105703810D02*
X98544048Y-105941905D01*
X98544048Y-105322857D01*
X74652143Y-107370476D02*
X74699762Y-107418095D01*
X74747381Y-107560952D01*
X74747381Y-107656190D01*
X74699762Y-107799048D01*
X74604524Y-107894286D01*
X74509286Y-107941905D01*
X74318810Y-107989524D01*
X74175952Y-107989524D01*
X73985476Y-107941905D01*
X73890238Y-107894286D01*
X73795000Y-107799048D01*
X73747381Y-107656190D01*
X73747381Y-107560952D01*
X73795000Y-107418095D01*
X73842619Y-107370476D01*
X74747381Y-106941905D02*
X73747381Y-106941905D01*
X74747381Y-106370476D01*
X73747381Y-106370476D01*
X74080714Y-105465714D02*
X74747381Y-105465714D01*
X73699762Y-105703810D02*
X74414048Y-105941905D01*
X74414048Y-105322857D01*
X147042143Y-62920476D02*
X147089762Y-62968095D01*
X147137381Y-63110952D01*
X147137381Y-63206190D01*
X147089762Y-63349048D01*
X146994524Y-63444286D01*
X146899286Y-63491905D01*
X146708810Y-63539524D01*
X146565952Y-63539524D01*
X146375476Y-63491905D01*
X146280238Y-63444286D01*
X146185000Y-63349048D01*
X146137381Y-63206190D01*
X146137381Y-63110952D01*
X146185000Y-62968095D01*
X146232619Y-62920476D01*
X147137381Y-62491905D02*
X146137381Y-62491905D01*
X147137381Y-61920476D01*
X146137381Y-61920476D01*
X146470714Y-61015714D02*
X147137381Y-61015714D01*
X146089762Y-61253810D02*
X146804048Y-61491905D01*
X146804048Y-60872857D01*
X122912143Y-62920476D02*
X122959762Y-62968095D01*
X123007381Y-63110952D01*
X123007381Y-63206190D01*
X122959762Y-63349048D01*
X122864524Y-63444286D01*
X122769286Y-63491905D01*
X122578810Y-63539524D01*
X122435952Y-63539524D01*
X122245476Y-63491905D01*
X122150238Y-63444286D01*
X122055000Y-63349048D01*
X122007381Y-63206190D01*
X122007381Y-63110952D01*
X122055000Y-62968095D01*
X122102619Y-62920476D01*
X123007381Y-62491905D02*
X122007381Y-62491905D01*
X123007381Y-61920476D01*
X122007381Y-61920476D01*
X122340714Y-61015714D02*
X123007381Y-61015714D01*
X121959762Y-61253810D02*
X122674048Y-61491905D01*
X122674048Y-60872857D01*
X98782143Y-62920476D02*
X98829762Y-62968095D01*
X98877381Y-63110952D01*
X98877381Y-63206190D01*
X98829762Y-63349048D01*
X98734524Y-63444286D01*
X98639286Y-63491905D01*
X98448810Y-63539524D01*
X98305952Y-63539524D01*
X98115476Y-63491905D01*
X98020238Y-63444286D01*
X97925000Y-63349048D01*
X97877381Y-63206190D01*
X97877381Y-63110952D01*
X97925000Y-62968095D01*
X97972619Y-62920476D01*
X98877381Y-62491905D02*
X97877381Y-62491905D01*
X98877381Y-61920476D01*
X97877381Y-61920476D01*
X98210714Y-61015714D02*
X98877381Y-61015714D01*
X97829762Y-61253810D02*
X98544048Y-61491905D01*
X98544048Y-60872857D01*
X159742143Y-92765476D02*
X159789762Y-92813095D01*
X159837381Y-92955952D01*
X159837381Y-93051190D01*
X159789762Y-93194048D01*
X159694524Y-93289286D01*
X159599286Y-93336905D01*
X159408810Y-93384524D01*
X159265952Y-93384524D01*
X159075476Y-93336905D01*
X158980238Y-93289286D01*
X158885000Y-93194048D01*
X158837381Y-93051190D01*
X158837381Y-92955952D01*
X158885000Y-92813095D01*
X158932619Y-92765476D01*
X159837381Y-92336905D02*
X158837381Y-92336905D01*
X159837381Y-91765476D01*
X158837381Y-91765476D01*
X158932619Y-91336905D02*
X158885000Y-91289286D01*
X158837381Y-91194048D01*
X158837381Y-90955952D01*
X158885000Y-90860714D01*
X158932619Y-90813095D01*
X159027857Y-90765476D01*
X159123095Y-90765476D01*
X159265952Y-90813095D01*
X159837381Y-91384524D01*
X159837381Y-90765476D01*
X135612143Y-92765476D02*
X135659762Y-92813095D01*
X135707381Y-92955952D01*
X135707381Y-93051190D01*
X135659762Y-93194048D01*
X135564524Y-93289286D01*
X135469286Y-93336905D01*
X135278810Y-93384524D01*
X135135952Y-93384524D01*
X134945476Y-93336905D01*
X134850238Y-93289286D01*
X134755000Y-93194048D01*
X134707381Y-93051190D01*
X134707381Y-92955952D01*
X134755000Y-92813095D01*
X134802619Y-92765476D01*
X135707381Y-92336905D02*
X134707381Y-92336905D01*
X135707381Y-91765476D01*
X134707381Y-91765476D01*
X134802619Y-91336905D02*
X134755000Y-91289286D01*
X134707381Y-91194048D01*
X134707381Y-90955952D01*
X134755000Y-90860714D01*
X134802619Y-90813095D01*
X134897857Y-90765476D01*
X134993095Y-90765476D01*
X135135952Y-90813095D01*
X135707381Y-91384524D01*
X135707381Y-90765476D01*
X111482143Y-92765476D02*
X111529762Y-92813095D01*
X111577381Y-92955952D01*
X111577381Y-93051190D01*
X111529762Y-93194048D01*
X111434524Y-93289286D01*
X111339286Y-93336905D01*
X111148810Y-93384524D01*
X111005952Y-93384524D01*
X110815476Y-93336905D01*
X110720238Y-93289286D01*
X110625000Y-93194048D01*
X110577381Y-93051190D01*
X110577381Y-92955952D01*
X110625000Y-92813095D01*
X110672619Y-92765476D01*
X111577381Y-92336905D02*
X110577381Y-92336905D01*
X111577381Y-91765476D01*
X110577381Y-91765476D01*
X110672619Y-91336905D02*
X110625000Y-91289286D01*
X110577381Y-91194048D01*
X110577381Y-90955952D01*
X110625000Y-90860714D01*
X110672619Y-90813095D01*
X110767857Y-90765476D01*
X110863095Y-90765476D01*
X111005952Y-90813095D01*
X111577381Y-91384524D01*
X111577381Y-90765476D01*
X87352143Y-92765476D02*
X87399762Y-92813095D01*
X87447381Y-92955952D01*
X87447381Y-93051190D01*
X87399762Y-93194048D01*
X87304524Y-93289286D01*
X87209286Y-93336905D01*
X87018810Y-93384524D01*
X86875952Y-93384524D01*
X86685476Y-93336905D01*
X86590238Y-93289286D01*
X86495000Y-93194048D01*
X86447381Y-93051190D01*
X86447381Y-92955952D01*
X86495000Y-92813095D01*
X86542619Y-92765476D01*
X87447381Y-92336905D02*
X86447381Y-92336905D01*
X87447381Y-91765476D01*
X86447381Y-91765476D01*
X86542619Y-91336905D02*
X86495000Y-91289286D01*
X86447381Y-91194048D01*
X86447381Y-90955952D01*
X86495000Y-90860714D01*
X86542619Y-90813095D01*
X86637857Y-90765476D01*
X86733095Y-90765476D01*
X86875952Y-90813095D01*
X87447381Y-91384524D01*
X87447381Y-90765476D01*
X159742143Y-48315476D02*
X159789762Y-48363095D01*
X159837381Y-48505952D01*
X159837381Y-48601190D01*
X159789762Y-48744048D01*
X159694524Y-48839286D01*
X159599286Y-48886905D01*
X159408810Y-48934524D01*
X159265952Y-48934524D01*
X159075476Y-48886905D01*
X158980238Y-48839286D01*
X158885000Y-48744048D01*
X158837381Y-48601190D01*
X158837381Y-48505952D01*
X158885000Y-48363095D01*
X158932619Y-48315476D01*
X159837381Y-47886905D02*
X158837381Y-47886905D01*
X159837381Y-47315476D01*
X158837381Y-47315476D01*
X158932619Y-46886905D02*
X158885000Y-46839286D01*
X158837381Y-46744048D01*
X158837381Y-46505952D01*
X158885000Y-46410714D01*
X158932619Y-46363095D01*
X159027857Y-46315476D01*
X159123095Y-46315476D01*
X159265952Y-46363095D01*
X159837381Y-46934524D01*
X159837381Y-46315476D01*
X135612143Y-48315476D02*
X135659762Y-48363095D01*
X135707381Y-48505952D01*
X135707381Y-48601190D01*
X135659762Y-48744048D01*
X135564524Y-48839286D01*
X135469286Y-48886905D01*
X135278810Y-48934524D01*
X135135952Y-48934524D01*
X134945476Y-48886905D01*
X134850238Y-48839286D01*
X134755000Y-48744048D01*
X134707381Y-48601190D01*
X134707381Y-48505952D01*
X134755000Y-48363095D01*
X134802619Y-48315476D01*
X135707381Y-47886905D02*
X134707381Y-47886905D01*
X135707381Y-47315476D01*
X134707381Y-47315476D01*
X134802619Y-46886905D02*
X134755000Y-46839286D01*
X134707381Y-46744048D01*
X134707381Y-46505952D01*
X134755000Y-46410714D01*
X134802619Y-46363095D01*
X134897857Y-46315476D01*
X134993095Y-46315476D01*
X135135952Y-46363095D01*
X135707381Y-46934524D01*
X135707381Y-46315476D01*
X111482143Y-48315476D02*
X111529762Y-48363095D01*
X111577381Y-48505952D01*
X111577381Y-48601190D01*
X111529762Y-48744048D01*
X111434524Y-48839286D01*
X111339286Y-48886905D01*
X111148810Y-48934524D01*
X111005952Y-48934524D01*
X110815476Y-48886905D01*
X110720238Y-48839286D01*
X110625000Y-48744048D01*
X110577381Y-48601190D01*
X110577381Y-48505952D01*
X110625000Y-48363095D01*
X110672619Y-48315476D01*
X111577381Y-47886905D02*
X110577381Y-47886905D01*
X111577381Y-47315476D01*
X110577381Y-47315476D01*
X110672619Y-46886905D02*
X110625000Y-46839286D01*
X110577381Y-46744048D01*
X110577381Y-46505952D01*
X110625000Y-46410714D01*
X110672619Y-46363095D01*
X110767857Y-46315476D01*
X110863095Y-46315476D01*
X111005952Y-46363095D01*
X111577381Y-46934524D01*
X111577381Y-46315476D01*
X137633147Y-121161879D02*
X137736678Y-121052531D01*
X137837302Y-120836743D01*
X137834394Y-120730304D01*
X137811361Y-120667022D01*
X137745171Y-120583615D01*
X137658856Y-120543365D01*
X137552416Y-120546274D01*
X137489134Y-120569306D01*
X137405727Y-120635496D01*
X137282070Y-120788002D01*
X137198663Y-120854193D01*
X137135381Y-120877225D01*
X137028941Y-120880134D01*
X136942627Y-120839884D01*
X136876436Y-120756477D01*
X136853403Y-120693195D01*
X136850495Y-120586756D01*
X136951119Y-120370968D01*
X137054650Y-120261620D01*
X138320294Y-119800963D02*
X138078798Y-120318854D01*
X138199546Y-120059909D02*
X137293238Y-119637291D01*
X137382461Y-119783979D01*
X137428527Y-119910544D01*
X137431435Y-120016983D01*
X113503147Y-121161879D02*
X113606678Y-121052531D01*
X113707302Y-120836743D01*
X113704394Y-120730304D01*
X113681361Y-120667022D01*
X113615171Y-120583615D01*
X113528856Y-120543365D01*
X113422416Y-120546274D01*
X113359134Y-120569306D01*
X113275727Y-120635496D01*
X113152070Y-120788002D01*
X113068663Y-120854193D01*
X113005381Y-120877225D01*
X112898941Y-120880134D01*
X112812627Y-120839884D01*
X112746436Y-120756477D01*
X112723403Y-120693195D01*
X112720495Y-120586756D01*
X112821119Y-120370968D01*
X112924650Y-120261620D01*
X114190294Y-119800963D02*
X113948798Y-120318854D01*
X114069546Y-120059909D02*
X113163238Y-119637291D01*
X113252461Y-119783979D01*
X113298527Y-119910544D01*
X113301435Y-120016983D01*
X89373147Y-121161879D02*
X89476678Y-121052531D01*
X89577302Y-120836743D01*
X89574394Y-120730304D01*
X89551361Y-120667022D01*
X89485171Y-120583615D01*
X89398856Y-120543365D01*
X89292416Y-120546274D01*
X89229134Y-120569306D01*
X89145727Y-120635496D01*
X89022070Y-120788002D01*
X88938663Y-120854193D01*
X88875381Y-120877225D01*
X88768941Y-120880134D01*
X88682627Y-120839884D01*
X88616436Y-120756477D01*
X88593403Y-120693195D01*
X88590495Y-120586756D01*
X88691119Y-120370968D01*
X88794650Y-120261620D01*
X90060294Y-119800963D02*
X89818798Y-120318854D01*
X89939546Y-120059909D02*
X89033238Y-119637291D01*
X89122461Y-119783979D01*
X89168527Y-119910544D01*
X89171435Y-120016983D01*
X65243147Y-121161879D02*
X65346678Y-121052531D01*
X65447302Y-120836743D01*
X65444394Y-120730304D01*
X65421361Y-120667022D01*
X65355171Y-120583615D01*
X65268856Y-120543365D01*
X65162416Y-120546274D01*
X65099134Y-120569306D01*
X65015727Y-120635496D01*
X64892070Y-120788002D01*
X64808663Y-120854193D01*
X64745381Y-120877225D01*
X64638941Y-120880134D01*
X64552627Y-120839884D01*
X64486436Y-120756477D01*
X64463403Y-120693195D01*
X64460495Y-120586756D01*
X64561119Y-120370968D01*
X64664650Y-120261620D01*
X65930294Y-119800963D02*
X65688798Y-120318854D01*
X65809546Y-120059909D02*
X64903238Y-119637291D01*
X64992461Y-119783979D01*
X65038527Y-119910544D01*
X65041435Y-120016983D01*
X137633147Y-76711879D02*
X137736678Y-76602531D01*
X137837302Y-76386743D01*
X137834394Y-76280304D01*
X137811361Y-76217022D01*
X137745171Y-76133615D01*
X137658856Y-76093365D01*
X137552416Y-76096274D01*
X137489134Y-76119306D01*
X137405727Y-76185496D01*
X137282070Y-76338002D01*
X137198663Y-76404193D01*
X137135381Y-76427225D01*
X137028941Y-76430134D01*
X136942627Y-76389884D01*
X136876436Y-76306477D01*
X136853403Y-76243195D01*
X136850495Y-76136756D01*
X136951119Y-75920968D01*
X137054650Y-75811620D01*
X138320294Y-75350963D02*
X138078798Y-75868854D01*
X138199546Y-75609909D02*
X137293238Y-75187291D01*
X137382461Y-75333979D01*
X137428527Y-75460544D01*
X137431435Y-75566983D01*
X113503147Y-76711879D02*
X113606678Y-76602531D01*
X113707302Y-76386743D01*
X113704394Y-76280304D01*
X113681361Y-76217022D01*
X113615171Y-76133615D01*
X113528856Y-76093365D01*
X113422416Y-76096274D01*
X113359134Y-76119306D01*
X113275727Y-76185496D01*
X113152070Y-76338002D01*
X113068663Y-76404193D01*
X113005381Y-76427225D01*
X112898941Y-76430134D01*
X112812627Y-76389884D01*
X112746436Y-76306477D01*
X112723403Y-76243195D01*
X112720495Y-76136756D01*
X112821119Y-75920968D01*
X112924650Y-75811620D01*
X114190294Y-75350963D02*
X113948798Y-75868854D01*
X114069546Y-75609909D02*
X113163238Y-75187291D01*
X113252461Y-75333979D01*
X113298527Y-75460544D01*
X113301435Y-75566983D01*
X89373147Y-76711879D02*
X89476678Y-76602531D01*
X89577302Y-76386743D01*
X89574394Y-76280304D01*
X89551361Y-76217022D01*
X89485171Y-76133615D01*
X89398856Y-76093365D01*
X89292416Y-76096274D01*
X89229134Y-76119306D01*
X89145727Y-76185496D01*
X89022070Y-76338002D01*
X88938663Y-76404193D01*
X88875381Y-76427225D01*
X88768941Y-76430134D01*
X88682627Y-76389884D01*
X88616436Y-76306477D01*
X88593403Y-76243195D01*
X88590495Y-76136756D01*
X88691119Y-75920968D01*
X88794650Y-75811620D01*
X90060294Y-75350963D02*
X89818798Y-75868854D01*
X89939546Y-75609909D02*
X89033238Y-75187291D01*
X89122461Y-75333979D01*
X89168527Y-75460544D01*
X89171435Y-75566983D01*
X159742143Y-120070476D02*
X159789762Y-120118095D01*
X159837381Y-120260952D01*
X159837381Y-120356190D01*
X159789762Y-120499048D01*
X159694524Y-120594286D01*
X159599286Y-120641905D01*
X159408810Y-120689524D01*
X159265952Y-120689524D01*
X159075476Y-120641905D01*
X158980238Y-120594286D01*
X158885000Y-120499048D01*
X158837381Y-120356190D01*
X158837381Y-120260952D01*
X158885000Y-120118095D01*
X158932619Y-120070476D01*
X159837381Y-119641905D02*
X158837381Y-119641905D01*
X159837381Y-119070476D01*
X158837381Y-119070476D01*
X158837381Y-118689524D02*
X158837381Y-118070476D01*
X159218333Y-118403810D01*
X159218333Y-118260952D01*
X159265952Y-118165714D01*
X159313571Y-118118095D01*
X159408810Y-118070476D01*
X159646905Y-118070476D01*
X159742143Y-118118095D01*
X159789762Y-118165714D01*
X159837381Y-118260952D01*
X159837381Y-118546667D01*
X159789762Y-118641905D01*
X159742143Y-118689524D01*
X135612143Y-120070476D02*
X135659762Y-120118095D01*
X135707381Y-120260952D01*
X135707381Y-120356190D01*
X135659762Y-120499048D01*
X135564524Y-120594286D01*
X135469286Y-120641905D01*
X135278810Y-120689524D01*
X135135952Y-120689524D01*
X134945476Y-120641905D01*
X134850238Y-120594286D01*
X134755000Y-120499048D01*
X134707381Y-120356190D01*
X134707381Y-120260952D01*
X134755000Y-120118095D01*
X134802619Y-120070476D01*
X135707381Y-119641905D02*
X134707381Y-119641905D01*
X135707381Y-119070476D01*
X134707381Y-119070476D01*
X134707381Y-118689524D02*
X134707381Y-118070476D01*
X135088333Y-118403810D01*
X135088333Y-118260952D01*
X135135952Y-118165714D01*
X135183571Y-118118095D01*
X135278810Y-118070476D01*
X135516905Y-118070476D01*
X135612143Y-118118095D01*
X135659762Y-118165714D01*
X135707381Y-118260952D01*
X135707381Y-118546667D01*
X135659762Y-118641905D01*
X135612143Y-118689524D01*
X111482143Y-120070476D02*
X111529762Y-120118095D01*
X111577381Y-120260952D01*
X111577381Y-120356190D01*
X111529762Y-120499048D01*
X111434524Y-120594286D01*
X111339286Y-120641905D01*
X111148810Y-120689524D01*
X111005952Y-120689524D01*
X110815476Y-120641905D01*
X110720238Y-120594286D01*
X110625000Y-120499048D01*
X110577381Y-120356190D01*
X110577381Y-120260952D01*
X110625000Y-120118095D01*
X110672619Y-120070476D01*
X111577381Y-119641905D02*
X110577381Y-119641905D01*
X111577381Y-119070476D01*
X110577381Y-119070476D01*
X110577381Y-118689524D02*
X110577381Y-118070476D01*
X110958333Y-118403810D01*
X110958333Y-118260952D01*
X111005952Y-118165714D01*
X111053571Y-118118095D01*
X111148810Y-118070476D01*
X111386905Y-118070476D01*
X111482143Y-118118095D01*
X111529762Y-118165714D01*
X111577381Y-118260952D01*
X111577381Y-118546667D01*
X111529762Y-118641905D01*
X111482143Y-118689524D01*
X87352143Y-120070476D02*
X87399762Y-120118095D01*
X87447381Y-120260952D01*
X87447381Y-120356190D01*
X87399762Y-120499048D01*
X87304524Y-120594286D01*
X87209286Y-120641905D01*
X87018810Y-120689524D01*
X86875952Y-120689524D01*
X86685476Y-120641905D01*
X86590238Y-120594286D01*
X86495000Y-120499048D01*
X86447381Y-120356190D01*
X86447381Y-120260952D01*
X86495000Y-120118095D01*
X86542619Y-120070476D01*
X87447381Y-119641905D02*
X86447381Y-119641905D01*
X87447381Y-119070476D01*
X86447381Y-119070476D01*
X86447381Y-118689524D02*
X86447381Y-118070476D01*
X86828333Y-118403810D01*
X86828333Y-118260952D01*
X86875952Y-118165714D01*
X86923571Y-118118095D01*
X87018810Y-118070476D01*
X87256905Y-118070476D01*
X87352143Y-118118095D01*
X87399762Y-118165714D01*
X87447381Y-118260952D01*
X87447381Y-118546667D01*
X87399762Y-118641905D01*
X87352143Y-118689524D01*
X159742143Y-75620476D02*
X159789762Y-75668095D01*
X159837381Y-75810952D01*
X159837381Y-75906190D01*
X159789762Y-76049048D01*
X159694524Y-76144286D01*
X159599286Y-76191905D01*
X159408810Y-76239524D01*
X159265952Y-76239524D01*
X159075476Y-76191905D01*
X158980238Y-76144286D01*
X158885000Y-76049048D01*
X158837381Y-75906190D01*
X158837381Y-75810952D01*
X158885000Y-75668095D01*
X158932619Y-75620476D01*
X159837381Y-75191905D02*
X158837381Y-75191905D01*
X159837381Y-74620476D01*
X158837381Y-74620476D01*
X158837381Y-74239524D02*
X158837381Y-73620476D01*
X159218333Y-73953810D01*
X159218333Y-73810952D01*
X159265952Y-73715714D01*
X159313571Y-73668095D01*
X159408810Y-73620476D01*
X159646905Y-73620476D01*
X159742143Y-73668095D01*
X159789762Y-73715714D01*
X159837381Y-73810952D01*
X159837381Y-74096667D01*
X159789762Y-74191905D01*
X159742143Y-74239524D01*
X135612143Y-75620476D02*
X135659762Y-75668095D01*
X135707381Y-75810952D01*
X135707381Y-75906190D01*
X135659762Y-76049048D01*
X135564524Y-76144286D01*
X135469286Y-76191905D01*
X135278810Y-76239524D01*
X135135952Y-76239524D01*
X134945476Y-76191905D01*
X134850238Y-76144286D01*
X134755000Y-76049048D01*
X134707381Y-75906190D01*
X134707381Y-75810952D01*
X134755000Y-75668095D01*
X134802619Y-75620476D01*
X135707381Y-75191905D02*
X134707381Y-75191905D01*
X135707381Y-74620476D01*
X134707381Y-74620476D01*
X134707381Y-74239524D02*
X134707381Y-73620476D01*
X135088333Y-73953810D01*
X135088333Y-73810952D01*
X135135952Y-73715714D01*
X135183571Y-73668095D01*
X135278810Y-73620476D01*
X135516905Y-73620476D01*
X135612143Y-73668095D01*
X135659762Y-73715714D01*
X135707381Y-73810952D01*
X135707381Y-74096667D01*
X135659762Y-74191905D01*
X135612143Y-74239524D01*
X111482143Y-75620476D02*
X111529762Y-75668095D01*
X111577381Y-75810952D01*
X111577381Y-75906190D01*
X111529762Y-76049048D01*
X111434524Y-76144286D01*
X111339286Y-76191905D01*
X111148810Y-76239524D01*
X111005952Y-76239524D01*
X110815476Y-76191905D01*
X110720238Y-76144286D01*
X110625000Y-76049048D01*
X110577381Y-75906190D01*
X110577381Y-75810952D01*
X110625000Y-75668095D01*
X110672619Y-75620476D01*
X111577381Y-75191905D02*
X110577381Y-75191905D01*
X111577381Y-74620476D01*
X110577381Y-74620476D01*
X110577381Y-74239524D02*
X110577381Y-73620476D01*
X110958333Y-73953810D01*
X110958333Y-73810952D01*
X111005952Y-73715714D01*
X111053571Y-73668095D01*
X111148810Y-73620476D01*
X111386905Y-73620476D01*
X111482143Y-73668095D01*
X111529762Y-73715714D01*
X111577381Y-73810952D01*
X111577381Y-74096667D01*
X111529762Y-74191905D01*
X111482143Y-74239524D01*
X74652143Y-62920476D02*
X74699762Y-62968095D01*
X74747381Y-63110952D01*
X74747381Y-63206190D01*
X74699762Y-63349048D01*
X74604524Y-63444286D01*
X74509286Y-63491905D01*
X74318810Y-63539524D01*
X74175952Y-63539524D01*
X73985476Y-63491905D01*
X73890238Y-63444286D01*
X73795000Y-63349048D01*
X73747381Y-63206190D01*
X73747381Y-63110952D01*
X73795000Y-62968095D01*
X73842619Y-62920476D01*
X74747381Y-62491905D02*
X73747381Y-62491905D01*
X74747381Y-61920476D01*
X73747381Y-61920476D01*
X74080714Y-61015714D02*
X74747381Y-61015714D01*
X73699762Y-61253810D02*
X74414048Y-61491905D01*
X74414048Y-60872857D01*
X87352143Y-48315476D02*
X87399762Y-48363095D01*
X87447381Y-48505952D01*
X87447381Y-48601190D01*
X87399762Y-48744048D01*
X87304524Y-48839286D01*
X87209286Y-48886905D01*
X87018810Y-48934524D01*
X86875952Y-48934524D01*
X86685476Y-48886905D01*
X86590238Y-48839286D01*
X86495000Y-48744048D01*
X86447381Y-48601190D01*
X86447381Y-48505952D01*
X86495000Y-48363095D01*
X86542619Y-48315476D01*
X87447381Y-47886905D02*
X86447381Y-47886905D01*
X87447381Y-47315476D01*
X86447381Y-47315476D01*
X86542619Y-46886905D02*
X86495000Y-46839286D01*
X86447381Y-46744048D01*
X86447381Y-46505952D01*
X86495000Y-46410714D01*
X86542619Y-46363095D01*
X86637857Y-46315476D01*
X86733095Y-46315476D01*
X86875952Y-46363095D01*
X87447381Y-46934524D01*
X87447381Y-46315476D01*
X87352143Y-75620476D02*
X87399762Y-75668095D01*
X87447381Y-75810952D01*
X87447381Y-75906190D01*
X87399762Y-76049048D01*
X87304524Y-76144286D01*
X87209286Y-76191905D01*
X87018810Y-76239524D01*
X86875952Y-76239524D01*
X86685476Y-76191905D01*
X86590238Y-76144286D01*
X86495000Y-76049048D01*
X86447381Y-75906190D01*
X86447381Y-75810952D01*
X86495000Y-75668095D01*
X86542619Y-75620476D01*
X87447381Y-75191905D02*
X86447381Y-75191905D01*
X87447381Y-74620476D01*
X86447381Y-74620476D01*
X86447381Y-74239524D02*
X86447381Y-73620476D01*
X86828333Y-73953810D01*
X86828333Y-73810952D01*
X86875952Y-73715714D01*
X86923571Y-73668095D01*
X87018810Y-73620476D01*
X87256905Y-73620476D01*
X87352143Y-73668095D01*
X87399762Y-73715714D01*
X87447381Y-73810952D01*
X87447381Y-74096667D01*
X87399762Y-74191905D01*
X87352143Y-74239524D01*
X65243147Y-76711879D02*
X65346678Y-76602531D01*
X65447302Y-76386743D01*
X65444394Y-76280304D01*
X65421361Y-76217022D01*
X65355171Y-76133615D01*
X65268856Y-76093365D01*
X65162416Y-76096274D01*
X65099134Y-76119306D01*
X65015727Y-76185496D01*
X64892070Y-76338002D01*
X64808663Y-76404193D01*
X64745381Y-76427225D01*
X64638941Y-76430134D01*
X64552627Y-76389884D01*
X64486436Y-76306477D01*
X64463403Y-76243195D01*
X64460495Y-76136756D01*
X64561119Y-75920968D01*
X64664650Y-75811620D01*
X65930294Y-75350963D02*
X65688798Y-75868854D01*
X65809546Y-75609909D02*
X64903238Y-75187291D01*
X64992461Y-75333979D01*
X65038527Y-75460544D01*
X65041435Y-75566983D01*
X65278095Y-53954762D02*
X65420952Y-54002381D01*
X65659048Y-54002381D01*
X65754286Y-53954762D01*
X65801905Y-53907143D01*
X65849524Y-53811905D01*
X65849524Y-53716667D01*
X65801905Y-53621429D01*
X65754286Y-53573810D01*
X65659048Y-53526190D01*
X65468571Y-53478571D01*
X65373333Y-53430952D01*
X65325714Y-53383333D01*
X65278095Y-53288095D01*
X65278095Y-53192857D01*
X65325714Y-53097619D01*
X65373333Y-53050000D01*
X65468571Y-53002381D01*
X65706667Y-53002381D01*
X65849524Y-53050000D01*
X66230476Y-53097619D02*
X66278095Y-53050000D01*
X66373333Y-53002381D01*
X66611429Y-53002381D01*
X66706667Y-53050000D01*
X66754286Y-53097619D01*
X66801905Y-53192857D01*
X66801905Y-53288095D01*
X66754286Y-53430952D01*
X66182857Y-54002381D01*
X66801905Y-54002381D01*
X80162863Y-40786838D02*
X80180080Y-40936435D01*
X80280703Y-41152224D01*
X80364110Y-41218414D01*
X80427392Y-41241447D01*
X80533832Y-41244355D01*
X80620147Y-41204106D01*
X80686337Y-41120699D01*
X80709370Y-41057417D01*
X80712279Y-40950977D01*
X80674937Y-40758221D01*
X80677845Y-40651782D01*
X80700878Y-40588500D01*
X80767069Y-40505093D01*
X80853384Y-40464843D01*
X80959823Y-40467752D01*
X81023105Y-40490784D01*
X81106512Y-40556975D01*
X81207136Y-40772763D01*
X81224352Y-40922360D01*
X81408382Y-41204338D02*
X81670003Y-41765386D01*
X81183871Y-41624280D01*
X81244245Y-41753753D01*
X81241337Y-41860193D01*
X81218304Y-41923475D01*
X81152113Y-42006882D01*
X80936325Y-42107505D01*
X80829886Y-42104597D01*
X80766604Y-42081564D01*
X80683197Y-42015374D01*
X80562449Y-41756428D01*
X80565357Y-41649989D01*
X80588389Y-41586707D01*
X68397381Y-52871666D02*
X67921190Y-53205000D01*
X68397381Y-53443095D02*
X67397381Y-53443095D01*
X67397381Y-53062142D01*
X67445000Y-52966904D01*
X67492619Y-52919285D01*
X67587857Y-52871666D01*
X67730714Y-52871666D01*
X67825952Y-52919285D01*
X67873571Y-52966904D01*
X67921190Y-53062142D01*
X67921190Y-53443095D01*
X68397381Y-51919285D02*
X68397381Y-52490714D01*
X68397381Y-52205000D02*
X67397381Y-52205000D01*
X67540238Y-52300238D01*
X67635476Y-52395476D01*
X67683095Y-52490714D01*
X68397381Y-71921666D02*
X67921190Y-72255000D01*
X68397381Y-72493095D02*
X67397381Y-72493095D01*
X67397381Y-72112142D01*
X67445000Y-72016904D01*
X67492619Y-71969285D01*
X67587857Y-71921666D01*
X67730714Y-71921666D01*
X67825952Y-71969285D01*
X67873571Y-72016904D01*
X67921190Y-72112142D01*
X67921190Y-72493095D01*
X67492619Y-71540714D02*
X67445000Y-71493095D01*
X67397381Y-71397857D01*
X67397381Y-71159761D01*
X67445000Y-71064523D01*
X67492619Y-71016904D01*
X67587857Y-70969285D01*
X67683095Y-70969285D01*
X67825952Y-71016904D01*
X68397381Y-71588333D01*
X68397381Y-70969285D01*
%LPC*%
D15*
X144780000Y-102870000D03*
D16*
X142240000Y-102870000D03*
X144780000Y-105410000D03*
X142240000Y-105410000D03*
X144780000Y-107950000D03*
X142240000Y-107950000D03*
X144780000Y-110490000D03*
X142240000Y-110490000D03*
D15*
X120650000Y-102870000D03*
D16*
X118110000Y-102870000D03*
X120650000Y-105410000D03*
X118110000Y-105410000D03*
X120650000Y-107950000D03*
X118110000Y-107950000D03*
X120650000Y-110490000D03*
X118110000Y-110490000D03*
D15*
X96520000Y-102870000D03*
D16*
X93980000Y-102870000D03*
X96520000Y-105410000D03*
X93980000Y-105410000D03*
X96520000Y-107950000D03*
X93980000Y-107950000D03*
X96520000Y-110490000D03*
X93980000Y-110490000D03*
D15*
X72390000Y-102870000D03*
D16*
X69850000Y-102870000D03*
X72390000Y-105410000D03*
X69850000Y-105410000D03*
X72390000Y-107950000D03*
X69850000Y-107950000D03*
X72390000Y-110490000D03*
X69850000Y-110490000D03*
D15*
X144780000Y-58420000D03*
D16*
X142240000Y-58420000D03*
X144780000Y-60960000D03*
X142240000Y-60960000D03*
X144780000Y-63500000D03*
X142240000Y-63500000D03*
X144780000Y-66040000D03*
X142240000Y-66040000D03*
D15*
X120650000Y-58420000D03*
D16*
X118110000Y-58420000D03*
X120650000Y-60960000D03*
X118110000Y-60960000D03*
X120650000Y-63500000D03*
X118110000Y-63500000D03*
X120650000Y-66040000D03*
X118110000Y-66040000D03*
D15*
X96520000Y-58420000D03*
D16*
X93980000Y-58420000D03*
X96520000Y-60960000D03*
X93980000Y-60960000D03*
X96520000Y-63500000D03*
X93980000Y-63500000D03*
X96520000Y-66040000D03*
X93980000Y-66040000D03*
D17*
X144780000Y-116205000D03*
D18*
X142240000Y-116205000D03*
D17*
X120650000Y-116205000D03*
D18*
X118110000Y-116205000D03*
D17*
X96520000Y-116205000D03*
D18*
X93980000Y-116205000D03*
D17*
X72390000Y-116205000D03*
D18*
X69850000Y-116205000D03*
D17*
X144780000Y-71755000D03*
D18*
X142240000Y-71755000D03*
D17*
X120650000Y-71755000D03*
D18*
X118110000Y-71755000D03*
D17*
X96520000Y-71755000D03*
D18*
X93980000Y-71755000D03*
D17*
X144780000Y-97155000D03*
D18*
X142240000Y-97155000D03*
D17*
X120650000Y-97155000D03*
D18*
X118110000Y-97155000D03*
D17*
X96520000Y-97155000D03*
D18*
X93980000Y-97155000D03*
D17*
X72390000Y-97155000D03*
D18*
X69850000Y-97155000D03*
D17*
X144780000Y-52705000D03*
D18*
X142240000Y-52705000D03*
D17*
X120650000Y-52705000D03*
D18*
X118110000Y-52705000D03*
D17*
X96520000Y-52705000D03*
D18*
X93980000Y-52705000D03*
D10*
G36*
X149734628Y-86233126D02*
X151637874Y-85345628D01*
X152525372Y-87248874D01*
X150622126Y-88136372D01*
X149734628Y-86233126D01*
X149734628Y-86233126D01*
G37*
D19*
X148827978Y-87814450D02*
X148827978Y-87814450D01*
X146525956Y-88887901D02*
X146525956Y-88887901D01*
X144223935Y-89961351D02*
X144223935Y-89961351D01*
X141921913Y-91034802D02*
X141921913Y-91034802D01*
X139619891Y-92108252D02*
X139619891Y-92108252D01*
D10*
G36*
X125604628Y-86233126D02*
X127507874Y-85345628D01*
X128395372Y-87248874D01*
X126492126Y-88136372D01*
X125604628Y-86233126D01*
X125604628Y-86233126D01*
G37*
D19*
X124697978Y-87814450D02*
X124697978Y-87814450D01*
X122395956Y-88887901D02*
X122395956Y-88887901D01*
X120093935Y-89961351D02*
X120093935Y-89961351D01*
X117791913Y-91034802D02*
X117791913Y-91034802D01*
X115489891Y-92108252D02*
X115489891Y-92108252D01*
D10*
G36*
X101474628Y-86233126D02*
X103377874Y-85345628D01*
X104265372Y-87248874D01*
X102362126Y-88136372D01*
X101474628Y-86233126D01*
X101474628Y-86233126D01*
G37*
D19*
X100567978Y-87814450D02*
X100567978Y-87814450D01*
X98265956Y-88887901D02*
X98265956Y-88887901D01*
X95963935Y-89961351D02*
X95963935Y-89961351D01*
X93661913Y-91034802D02*
X93661913Y-91034802D01*
X91359891Y-92108252D02*
X91359891Y-92108252D01*
D10*
G36*
X77344628Y-86233126D02*
X79247874Y-85345628D01*
X80135372Y-87248874D01*
X78232126Y-88136372D01*
X77344628Y-86233126D01*
X77344628Y-86233126D01*
G37*
D19*
X76437978Y-87814450D02*
X76437978Y-87814450D01*
X74135956Y-88887901D02*
X74135956Y-88887901D01*
X71833935Y-89961351D02*
X71833935Y-89961351D01*
X69531913Y-91034802D02*
X69531913Y-91034802D01*
X67229891Y-92108252D02*
X67229891Y-92108252D01*
D10*
G36*
X149734628Y-41783126D02*
X151637874Y-40895628D01*
X152525372Y-42798874D01*
X150622126Y-43686372D01*
X149734628Y-41783126D01*
X149734628Y-41783126D01*
G37*
D19*
X148827978Y-43364450D02*
X148827978Y-43364450D01*
X146525956Y-44437901D02*
X146525956Y-44437901D01*
X144223935Y-45511351D02*
X144223935Y-45511351D01*
X141921913Y-46584802D02*
X141921913Y-46584802D01*
X139619891Y-47658252D02*
X139619891Y-47658252D01*
D10*
G36*
X125604628Y-41783126D02*
X127507874Y-40895628D01*
X128395372Y-42798874D01*
X126492126Y-43686372D01*
X125604628Y-41783126D01*
X125604628Y-41783126D01*
G37*
D19*
X124697978Y-43364450D02*
X124697978Y-43364450D01*
X122395956Y-44437901D02*
X122395956Y-44437901D01*
X120093935Y-45511351D02*
X120093935Y-45511351D01*
X117791913Y-46584802D02*
X117791913Y-46584802D01*
X115489891Y-47658252D02*
X115489891Y-47658252D01*
D10*
G36*
X101474628Y-41783126D02*
X103377874Y-40895628D01*
X104265372Y-42798874D01*
X102362126Y-43686372D01*
X101474628Y-41783126D01*
X101474628Y-41783126D01*
G37*
D19*
X100567978Y-43364450D02*
X100567978Y-43364450D01*
X98265956Y-44437901D02*
X98265956Y-44437901D01*
X95963935Y-45511351D02*
X95963935Y-45511351D01*
X93661913Y-46584802D02*
X93661913Y-46584802D01*
X91359891Y-47658252D02*
X91359891Y-47658252D01*
D15*
X138430000Y-100330000D03*
D16*
X138430000Y-102870000D03*
X138430000Y-105410000D03*
X138430000Y-107950000D03*
X138430000Y-110490000D03*
X138430000Y-113030000D03*
D15*
X114300000Y-100330000D03*
D16*
X114300000Y-102870000D03*
X114300000Y-105410000D03*
X114300000Y-107950000D03*
X114300000Y-110490000D03*
X114300000Y-113030000D03*
D15*
X90170000Y-100330000D03*
D16*
X90170000Y-102870000D03*
X90170000Y-105410000D03*
X90170000Y-107950000D03*
X90170000Y-110490000D03*
X90170000Y-113030000D03*
D15*
X66040000Y-100330000D03*
D16*
X66040000Y-102870000D03*
X66040000Y-105410000D03*
X66040000Y-107950000D03*
X66040000Y-110490000D03*
X66040000Y-113030000D03*
D15*
X138430000Y-55880000D03*
D16*
X138430000Y-58420000D03*
X138430000Y-60960000D03*
X138430000Y-63500000D03*
X138430000Y-66040000D03*
X138430000Y-68580000D03*
D15*
X114300000Y-55880000D03*
D16*
X114300000Y-58420000D03*
X114300000Y-60960000D03*
X114300000Y-63500000D03*
X114300000Y-66040000D03*
X114300000Y-68580000D03*
D15*
X90170000Y-55880000D03*
D16*
X90170000Y-58420000D03*
X90170000Y-60960000D03*
X90170000Y-63500000D03*
X90170000Y-66040000D03*
X90170000Y-68580000D03*
D20*
X139065000Y-87630000D03*
X114935000Y-87630000D03*
X90805000Y-87630000D03*
X66675000Y-87630000D03*
X139065000Y-43180000D03*
X114935000Y-43180000D03*
X90805000Y-43180000D03*
D15*
X148590000Y-97790000D03*
D16*
X148590000Y-100330000D03*
X148590000Y-102870000D03*
X148590000Y-105410000D03*
X148590000Y-107950000D03*
X148590000Y-110490000D03*
X148590000Y-113030000D03*
X148590000Y-115570000D03*
D15*
X124460000Y-97790000D03*
D16*
X124460000Y-100330000D03*
X124460000Y-102870000D03*
X124460000Y-105410000D03*
X124460000Y-107950000D03*
X124460000Y-110490000D03*
X124460000Y-113030000D03*
X124460000Y-115570000D03*
D15*
X100330000Y-97790000D03*
D16*
X100330000Y-100330000D03*
X100330000Y-102870000D03*
X100330000Y-105410000D03*
X100330000Y-107950000D03*
X100330000Y-110490000D03*
X100330000Y-113030000D03*
X100330000Y-115570000D03*
D15*
X76200000Y-97790000D03*
D16*
X76200000Y-100330000D03*
X76200000Y-102870000D03*
X76200000Y-105410000D03*
X76200000Y-107950000D03*
X76200000Y-110490000D03*
X76200000Y-113030000D03*
X76200000Y-115570000D03*
D15*
X148590000Y-53340000D03*
D16*
X148590000Y-55880000D03*
X148590000Y-58420000D03*
X148590000Y-60960000D03*
X148590000Y-63500000D03*
X148590000Y-66040000D03*
X148590000Y-68580000D03*
X148590000Y-71120000D03*
D15*
X124460000Y-53340000D03*
D16*
X124460000Y-55880000D03*
X124460000Y-58420000D03*
X124460000Y-60960000D03*
X124460000Y-63500000D03*
X124460000Y-66040000D03*
X124460000Y-68580000D03*
X124460000Y-71120000D03*
D15*
X100330000Y-53340000D03*
D16*
X100330000Y-55880000D03*
X100330000Y-58420000D03*
X100330000Y-60960000D03*
X100330000Y-63500000D03*
X100330000Y-66040000D03*
X100330000Y-68580000D03*
X100330000Y-71120000D03*
D20*
X156845000Y-87630000D03*
X132715000Y-87630000D03*
X108585000Y-87630000D03*
X84455000Y-87630000D03*
X156845000Y-43180000D03*
X132715000Y-43180000D03*
X108585000Y-43180000D03*
D21*
X156210000Y-92710000D03*
D22*
X154210000Y-92710000D03*
X152210000Y-92710000D03*
X150210000Y-92710000D03*
D21*
X132080000Y-92710000D03*
D22*
X130080000Y-92710000D03*
X128080000Y-92710000D03*
X126080000Y-92710000D03*
D21*
X107950000Y-92710000D03*
D22*
X105950000Y-92710000D03*
X103950000Y-92710000D03*
X101950000Y-92710000D03*
D21*
X83820000Y-92710000D03*
D22*
X81820000Y-92710000D03*
X79820000Y-92710000D03*
X77820000Y-92710000D03*
D21*
X156210000Y-48260000D03*
D22*
X154210000Y-48260000D03*
X152210000Y-48260000D03*
X150210000Y-48260000D03*
D21*
X132080000Y-48260000D03*
D22*
X130080000Y-48260000D03*
X128080000Y-48260000D03*
X126080000Y-48260000D03*
D21*
X107950000Y-48260000D03*
D22*
X105950000Y-48260000D03*
X103950000Y-48260000D03*
X101950000Y-48260000D03*
D10*
G36*
X140207874Y-122680372D02*
X138304628Y-121792874D01*
X139192126Y-119889628D01*
X141095372Y-120777126D01*
X140207874Y-122680372D01*
X140207874Y-122680372D01*
G37*
D19*
X142002022Y-122358450D02*
X142002022Y-122358450D01*
X144304044Y-123431901D02*
X144304044Y-123431901D01*
X146606065Y-124505351D02*
X146606065Y-124505351D01*
X148908087Y-125578802D02*
X148908087Y-125578802D01*
X151210109Y-126652252D02*
X151210109Y-126652252D01*
D10*
G36*
X116077874Y-122680372D02*
X114174628Y-121792874D01*
X115062126Y-119889628D01*
X116965372Y-120777126D01*
X116077874Y-122680372D01*
X116077874Y-122680372D01*
G37*
D19*
X117872022Y-122358450D02*
X117872022Y-122358450D01*
X120174044Y-123431901D02*
X120174044Y-123431901D01*
X122476065Y-124505351D02*
X122476065Y-124505351D01*
X124778087Y-125578802D02*
X124778087Y-125578802D01*
X127080109Y-126652252D02*
X127080109Y-126652252D01*
D10*
G36*
X91947874Y-122680372D02*
X90044628Y-121792874D01*
X90932126Y-119889628D01*
X92835372Y-120777126D01*
X91947874Y-122680372D01*
X91947874Y-122680372D01*
G37*
D19*
X93742022Y-122358450D02*
X93742022Y-122358450D01*
X96044044Y-123431901D02*
X96044044Y-123431901D01*
X98346065Y-124505351D02*
X98346065Y-124505351D01*
X100648087Y-125578802D02*
X100648087Y-125578802D01*
X102950109Y-126652252D02*
X102950109Y-126652252D01*
D10*
G36*
X67817874Y-122680372D02*
X65914628Y-121792874D01*
X66802126Y-119889628D01*
X68705372Y-120777126D01*
X67817874Y-122680372D01*
X67817874Y-122680372D01*
G37*
D19*
X69612022Y-122358450D02*
X69612022Y-122358450D01*
X71914044Y-123431901D02*
X71914044Y-123431901D01*
X74216065Y-124505351D02*
X74216065Y-124505351D01*
X76518087Y-125578802D02*
X76518087Y-125578802D01*
X78820109Y-126652252D02*
X78820109Y-126652252D01*
D10*
G36*
X140207874Y-78230372D02*
X138304628Y-77342874D01*
X139192126Y-75439628D01*
X141095372Y-76327126D01*
X140207874Y-78230372D01*
X140207874Y-78230372D01*
G37*
D19*
X142002022Y-77908450D02*
X142002022Y-77908450D01*
X144304044Y-78981901D02*
X144304044Y-78981901D01*
X146606065Y-80055351D02*
X146606065Y-80055351D01*
X148908087Y-81128802D02*
X148908087Y-81128802D01*
X151210109Y-82202252D02*
X151210109Y-82202252D01*
D10*
G36*
X116077874Y-78230372D02*
X114174628Y-77342874D01*
X115062126Y-75439628D01*
X116965372Y-76327126D01*
X116077874Y-78230372D01*
X116077874Y-78230372D01*
G37*
D19*
X117872022Y-77908450D02*
X117872022Y-77908450D01*
X120174044Y-78981901D02*
X120174044Y-78981901D01*
X122476065Y-80055351D02*
X122476065Y-80055351D01*
X124778087Y-81128802D02*
X124778087Y-81128802D01*
X127080109Y-82202252D02*
X127080109Y-82202252D01*
D10*
G36*
X91947874Y-78230372D02*
X90044628Y-77342874D01*
X90932126Y-75439628D01*
X92835372Y-76327126D01*
X91947874Y-78230372D01*
X91947874Y-78230372D01*
G37*
D19*
X93742022Y-77908450D02*
X93742022Y-77908450D01*
X96044044Y-78981901D02*
X96044044Y-78981901D01*
X98346065Y-80055351D02*
X98346065Y-80055351D01*
X100648087Y-81128802D02*
X100648087Y-81128802D01*
X102950109Y-82202252D02*
X102950109Y-82202252D01*
D21*
X156210000Y-120015000D03*
D22*
X154210000Y-120015000D03*
X152210000Y-120015000D03*
X150210000Y-120015000D03*
D21*
X132080000Y-120015000D03*
D22*
X130080000Y-120015000D03*
X128080000Y-120015000D03*
X126080000Y-120015000D03*
D21*
X107950000Y-120015000D03*
D22*
X105950000Y-120015000D03*
X103950000Y-120015000D03*
X101950000Y-120015000D03*
D21*
X83820000Y-120015000D03*
D22*
X81820000Y-120015000D03*
X79820000Y-120015000D03*
X77820000Y-120015000D03*
D21*
X156210000Y-75565000D03*
D22*
X154210000Y-75565000D03*
X152210000Y-75565000D03*
X150210000Y-75565000D03*
D21*
X132080000Y-75565000D03*
D22*
X130080000Y-75565000D03*
X128080000Y-75565000D03*
X126080000Y-75565000D03*
D21*
X107950000Y-75565000D03*
D22*
X105950000Y-75565000D03*
X103950000Y-75565000D03*
X101950000Y-75565000D03*
D20*
X139065000Y-125730000D03*
X114935000Y-125730000D03*
X90805000Y-125730000D03*
X66675000Y-125730000D03*
X139065000Y-81280000D03*
X114935000Y-81280000D03*
X90805000Y-81280000D03*
X156845000Y-125730000D03*
X132715000Y-125730000D03*
X108585000Y-125730000D03*
X84455000Y-125730000D03*
X156845000Y-81280000D03*
X132715000Y-81280000D03*
X108585000Y-81280000D03*
D15*
X76200000Y-53340000D03*
D16*
X76200000Y-55880000D03*
X76200000Y-58420000D03*
X76200000Y-60960000D03*
X76200000Y-63500000D03*
X76200000Y-66040000D03*
X76200000Y-68580000D03*
X76200000Y-71120000D03*
D15*
X72390000Y-58420000D03*
D16*
X69850000Y-58420000D03*
X72390000Y-60960000D03*
X69850000Y-60960000D03*
X72390000Y-63500000D03*
X69850000Y-63500000D03*
X72390000Y-66040000D03*
X69850000Y-66040000D03*
D21*
X83820000Y-48260000D03*
D22*
X81820000Y-48260000D03*
X79820000Y-48260000D03*
X77820000Y-48260000D03*
D21*
X83820000Y-75565000D03*
D22*
X81820000Y-75565000D03*
X79820000Y-75565000D03*
X77820000Y-75565000D03*
D10*
G36*
X67817874Y-78230372D02*
X65914628Y-77342874D01*
X66802126Y-75439628D01*
X68705372Y-76327126D01*
X67817874Y-78230372D01*
X67817874Y-78230372D01*
G37*
D19*
X69612022Y-77908450D02*
X69612022Y-77908450D01*
X71914044Y-78981901D02*
X71914044Y-78981901D01*
X74216065Y-80055351D02*
X74216065Y-80055351D01*
X76518087Y-81128802D02*
X76518087Y-81128802D01*
X78820109Y-82202252D02*
X78820109Y-82202252D01*
D15*
X66040000Y-55880000D03*
D16*
X66040000Y-58420000D03*
X66040000Y-60960000D03*
X66040000Y-63500000D03*
X66040000Y-66040000D03*
X66040000Y-68580000D03*
D10*
G36*
X77344628Y-41783126D02*
X79247874Y-40895628D01*
X80135372Y-42798874D01*
X78232126Y-43686372D01*
X77344628Y-41783126D01*
X77344628Y-41783126D01*
G37*
D19*
X76437978Y-43364450D02*
X76437978Y-43364450D01*
X74135956Y-44437901D02*
X74135956Y-44437901D01*
X71833935Y-45511351D02*
X71833935Y-45511351D01*
X69531913Y-46584802D02*
X69531913Y-46584802D01*
X67229891Y-47658252D02*
X67229891Y-47658252D01*
D20*
X66675000Y-43180000D03*
X84455000Y-43180000D03*
X66675000Y-81280000D03*
X84455000Y-81280000D03*
D17*
X72390000Y-52705000D03*
D18*
X69850000Y-52705000D03*
D17*
X72390000Y-71755000D03*
D18*
X69850000Y-71755000D03*
M02*
