G04 #@! TF.FileFunction,Copper,L1,Top,Signal*
%FSLAX46Y46*%
G04 Gerber Fmt 4.6, Leading zero omitted, Abs format (unit mm)*
G04 Created by KiCad (PCBNEW 4.0.7) date 06/11/20 11:20:33*
%MOMM*%
%LPD*%
G01*
G04 APERTURE LIST*
%ADD10C,0.100000*%
%ADD11R,1.700000X1.700000*%
%ADD12O,1.700000X1.700000*%
%ADD13C,1.600000*%
%ADD14O,1.600000X1.600000*%
%ADD15C,1.700000*%
%ADD16R,1.200000X1.700000*%
%ADD17O,1.200000X1.700000*%
%ADD18C,0.400000*%
G04 APERTURE END LIST*
D10*
D11*
X144780000Y-102870000D03*
D12*
X142240000Y-102870000D03*
X144780000Y-105410000D03*
X142240000Y-105410000D03*
X144780000Y-107950000D03*
X142240000Y-107950000D03*
X144780000Y-110490000D03*
X142240000Y-110490000D03*
D11*
X120650000Y-102870000D03*
D12*
X118110000Y-102870000D03*
X120650000Y-105410000D03*
X118110000Y-105410000D03*
X120650000Y-107950000D03*
X118110000Y-107950000D03*
X120650000Y-110490000D03*
X118110000Y-110490000D03*
D11*
X96520000Y-102870000D03*
D12*
X93980000Y-102870000D03*
X96520000Y-105410000D03*
X93980000Y-105410000D03*
X96520000Y-107950000D03*
X93980000Y-107950000D03*
X96520000Y-110490000D03*
X93980000Y-110490000D03*
D11*
X72390000Y-102870000D03*
D12*
X69850000Y-102870000D03*
X72390000Y-105410000D03*
X69850000Y-105410000D03*
X72390000Y-107950000D03*
X69850000Y-107950000D03*
X72390000Y-110490000D03*
X69850000Y-110490000D03*
D11*
X144780000Y-58420000D03*
D12*
X142240000Y-58420000D03*
X144780000Y-60960000D03*
X142240000Y-60960000D03*
X144780000Y-63500000D03*
X142240000Y-63500000D03*
X144780000Y-66040000D03*
X142240000Y-66040000D03*
D11*
X120650000Y-58420000D03*
D12*
X118110000Y-58420000D03*
X120650000Y-60960000D03*
X118110000Y-60960000D03*
X120650000Y-63500000D03*
X118110000Y-63500000D03*
X120650000Y-66040000D03*
X118110000Y-66040000D03*
D11*
X96520000Y-58420000D03*
D12*
X93980000Y-58420000D03*
X96520000Y-60960000D03*
X93980000Y-60960000D03*
X96520000Y-63500000D03*
X93980000Y-63500000D03*
X96520000Y-66040000D03*
X93980000Y-66040000D03*
D13*
X144780000Y-116205000D03*
D14*
X142240000Y-116205000D03*
D13*
X120650000Y-116205000D03*
D14*
X118110000Y-116205000D03*
D13*
X96520000Y-116205000D03*
D14*
X93980000Y-116205000D03*
D13*
X72390000Y-116205000D03*
D14*
X69850000Y-116205000D03*
D13*
X144780000Y-71755000D03*
D14*
X142240000Y-71755000D03*
D13*
X120650000Y-71755000D03*
D14*
X118110000Y-71755000D03*
D13*
X96520000Y-71755000D03*
D14*
X93980000Y-71755000D03*
D13*
X144780000Y-97155000D03*
D14*
X142240000Y-97155000D03*
D13*
X120650000Y-97155000D03*
D14*
X118110000Y-97155000D03*
D13*
X96520000Y-97155000D03*
D14*
X93980000Y-97155000D03*
D13*
X72390000Y-97155000D03*
D14*
X69850000Y-97155000D03*
D13*
X144780000Y-52705000D03*
D14*
X142240000Y-52705000D03*
D13*
X120650000Y-52705000D03*
D14*
X118110000Y-52705000D03*
D13*
X96520000Y-52705000D03*
D14*
X93980000Y-52705000D03*
D10*
G36*
X150000413Y-86329864D02*
X151541136Y-85611413D01*
X152259587Y-87152136D01*
X150718864Y-87870587D01*
X150000413Y-86329864D01*
X150000413Y-86329864D01*
G37*
D15*
X148827978Y-87814450D02*
X148827978Y-87814450D01*
X146525956Y-88887901D02*
X146525956Y-88887901D01*
X144223935Y-89961351D02*
X144223935Y-89961351D01*
X141921913Y-91034802D02*
X141921913Y-91034802D01*
X139619891Y-92108252D02*
X139619891Y-92108252D01*
D10*
G36*
X125870413Y-86329864D02*
X127411136Y-85611413D01*
X128129587Y-87152136D01*
X126588864Y-87870587D01*
X125870413Y-86329864D01*
X125870413Y-86329864D01*
G37*
D15*
X124697978Y-87814450D02*
X124697978Y-87814450D01*
X122395956Y-88887901D02*
X122395956Y-88887901D01*
X120093935Y-89961351D02*
X120093935Y-89961351D01*
X117791913Y-91034802D02*
X117791913Y-91034802D01*
X115489891Y-92108252D02*
X115489891Y-92108252D01*
D10*
G36*
X101740413Y-86329864D02*
X103281136Y-85611413D01*
X103999587Y-87152136D01*
X102458864Y-87870587D01*
X101740413Y-86329864D01*
X101740413Y-86329864D01*
G37*
D15*
X100567978Y-87814450D02*
X100567978Y-87814450D01*
X98265956Y-88887901D02*
X98265956Y-88887901D01*
X95963935Y-89961351D02*
X95963935Y-89961351D01*
X93661913Y-91034802D02*
X93661913Y-91034802D01*
X91359891Y-92108252D02*
X91359891Y-92108252D01*
D10*
G36*
X77610413Y-86329864D02*
X79151136Y-85611413D01*
X79869587Y-87152136D01*
X78328864Y-87870587D01*
X77610413Y-86329864D01*
X77610413Y-86329864D01*
G37*
D15*
X76437978Y-87814450D02*
X76437978Y-87814450D01*
X74135956Y-88887901D02*
X74135956Y-88887901D01*
X71833935Y-89961351D02*
X71833935Y-89961351D01*
X69531913Y-91034802D02*
X69531913Y-91034802D01*
X67229891Y-92108252D02*
X67229891Y-92108252D01*
D10*
G36*
X150000413Y-41879864D02*
X151541136Y-41161413D01*
X152259587Y-42702136D01*
X150718864Y-43420587D01*
X150000413Y-41879864D01*
X150000413Y-41879864D01*
G37*
D15*
X148827978Y-43364450D02*
X148827978Y-43364450D01*
X146525956Y-44437901D02*
X146525956Y-44437901D01*
X144223935Y-45511351D02*
X144223935Y-45511351D01*
X141921913Y-46584802D02*
X141921913Y-46584802D01*
X139619891Y-47658252D02*
X139619891Y-47658252D01*
D10*
G36*
X125870413Y-41879864D02*
X127411136Y-41161413D01*
X128129587Y-42702136D01*
X126588864Y-43420587D01*
X125870413Y-41879864D01*
X125870413Y-41879864D01*
G37*
D15*
X124697978Y-43364450D02*
X124697978Y-43364450D01*
X122395956Y-44437901D02*
X122395956Y-44437901D01*
X120093935Y-45511351D02*
X120093935Y-45511351D01*
X117791913Y-46584802D02*
X117791913Y-46584802D01*
X115489891Y-47658252D02*
X115489891Y-47658252D01*
D10*
G36*
X101740413Y-41879864D02*
X103281136Y-41161413D01*
X103999587Y-42702136D01*
X102458864Y-43420587D01*
X101740413Y-41879864D01*
X101740413Y-41879864D01*
G37*
D15*
X100567978Y-43364450D02*
X100567978Y-43364450D01*
X98265956Y-44437901D02*
X98265956Y-44437901D01*
X95963935Y-45511351D02*
X95963935Y-45511351D01*
X93661913Y-46584802D02*
X93661913Y-46584802D01*
X91359891Y-47658252D02*
X91359891Y-47658252D01*
D11*
X138430000Y-100330000D03*
D12*
X138430000Y-102870000D03*
X138430000Y-105410000D03*
X138430000Y-107950000D03*
X138430000Y-110490000D03*
X138430000Y-113030000D03*
D11*
X114300000Y-100330000D03*
D12*
X114300000Y-102870000D03*
X114300000Y-105410000D03*
X114300000Y-107950000D03*
X114300000Y-110490000D03*
X114300000Y-113030000D03*
D11*
X90170000Y-100330000D03*
D12*
X90170000Y-102870000D03*
X90170000Y-105410000D03*
X90170000Y-107950000D03*
X90170000Y-110490000D03*
X90170000Y-113030000D03*
D11*
X66040000Y-100330000D03*
D12*
X66040000Y-102870000D03*
X66040000Y-105410000D03*
X66040000Y-107950000D03*
X66040000Y-110490000D03*
X66040000Y-113030000D03*
D11*
X138430000Y-55880000D03*
D12*
X138430000Y-58420000D03*
X138430000Y-60960000D03*
X138430000Y-63500000D03*
X138430000Y-66040000D03*
X138430000Y-68580000D03*
D11*
X114300000Y-55880000D03*
D12*
X114300000Y-58420000D03*
X114300000Y-60960000D03*
X114300000Y-63500000D03*
X114300000Y-66040000D03*
X114300000Y-68580000D03*
D11*
X90170000Y-55880000D03*
D12*
X90170000Y-58420000D03*
X90170000Y-60960000D03*
X90170000Y-63500000D03*
X90170000Y-66040000D03*
X90170000Y-68580000D03*
D11*
X148590000Y-97790000D03*
D12*
X148590000Y-100330000D03*
X148590000Y-102870000D03*
X148590000Y-105410000D03*
X148590000Y-107950000D03*
X148590000Y-110490000D03*
X148590000Y-113030000D03*
X148590000Y-115570000D03*
D11*
X124460000Y-97790000D03*
D12*
X124460000Y-100330000D03*
X124460000Y-102870000D03*
X124460000Y-105410000D03*
X124460000Y-107950000D03*
X124460000Y-110490000D03*
X124460000Y-113030000D03*
X124460000Y-115570000D03*
D11*
X100330000Y-97790000D03*
D12*
X100330000Y-100330000D03*
X100330000Y-102870000D03*
X100330000Y-105410000D03*
X100330000Y-107950000D03*
X100330000Y-110490000D03*
X100330000Y-113030000D03*
X100330000Y-115570000D03*
D11*
X76200000Y-97790000D03*
D12*
X76200000Y-100330000D03*
X76200000Y-102870000D03*
X76200000Y-105410000D03*
X76200000Y-107950000D03*
X76200000Y-110490000D03*
X76200000Y-113030000D03*
X76200000Y-115570000D03*
D11*
X148590000Y-53340000D03*
D12*
X148590000Y-55880000D03*
X148590000Y-58420000D03*
X148590000Y-60960000D03*
X148590000Y-63500000D03*
X148590000Y-66040000D03*
X148590000Y-68580000D03*
X148590000Y-71120000D03*
D11*
X124460000Y-53340000D03*
D12*
X124460000Y-55880000D03*
X124460000Y-58420000D03*
X124460000Y-60960000D03*
X124460000Y-63500000D03*
X124460000Y-66040000D03*
X124460000Y-68580000D03*
X124460000Y-71120000D03*
D11*
X100330000Y-53340000D03*
D12*
X100330000Y-55880000D03*
X100330000Y-58420000D03*
X100330000Y-60960000D03*
X100330000Y-63500000D03*
X100330000Y-66040000D03*
X100330000Y-68580000D03*
X100330000Y-71120000D03*
D16*
X156210000Y-92710000D03*
D17*
X154210000Y-92710000D03*
X152210000Y-92710000D03*
X150210000Y-92710000D03*
D16*
X132080000Y-92710000D03*
D17*
X130080000Y-92710000D03*
X128080000Y-92710000D03*
X126080000Y-92710000D03*
D16*
X107950000Y-92710000D03*
D17*
X105950000Y-92710000D03*
X103950000Y-92710000D03*
X101950000Y-92710000D03*
D16*
X83820000Y-92710000D03*
D17*
X81820000Y-92710000D03*
X79820000Y-92710000D03*
X77820000Y-92710000D03*
D16*
X156210000Y-48260000D03*
D17*
X154210000Y-48260000D03*
X152210000Y-48260000D03*
X150210000Y-48260000D03*
D16*
X132080000Y-48260000D03*
D17*
X130080000Y-48260000D03*
X128080000Y-48260000D03*
X126080000Y-48260000D03*
D16*
X107950000Y-48260000D03*
D17*
X105950000Y-48260000D03*
X103950000Y-48260000D03*
X101950000Y-48260000D03*
D10*
G36*
X140111136Y-122414587D02*
X138570413Y-121696136D01*
X139288864Y-120155413D01*
X140829587Y-120873864D01*
X140111136Y-122414587D01*
X140111136Y-122414587D01*
G37*
D15*
X142002022Y-122358450D02*
X142002022Y-122358450D01*
X144304044Y-123431901D02*
X144304044Y-123431901D01*
X146606065Y-124505351D02*
X146606065Y-124505351D01*
X148908087Y-125578802D02*
X148908087Y-125578802D01*
X151210109Y-126652252D02*
X151210109Y-126652252D01*
D10*
G36*
X115981136Y-122414587D02*
X114440413Y-121696136D01*
X115158864Y-120155413D01*
X116699587Y-120873864D01*
X115981136Y-122414587D01*
X115981136Y-122414587D01*
G37*
D15*
X117872022Y-122358450D02*
X117872022Y-122358450D01*
X120174044Y-123431901D02*
X120174044Y-123431901D01*
X122476065Y-124505351D02*
X122476065Y-124505351D01*
X124778087Y-125578802D02*
X124778087Y-125578802D01*
X127080109Y-126652252D02*
X127080109Y-126652252D01*
D10*
G36*
X91851136Y-122414587D02*
X90310413Y-121696136D01*
X91028864Y-120155413D01*
X92569587Y-120873864D01*
X91851136Y-122414587D01*
X91851136Y-122414587D01*
G37*
D15*
X93742022Y-122358450D02*
X93742022Y-122358450D01*
X96044044Y-123431901D02*
X96044044Y-123431901D01*
X98346065Y-124505351D02*
X98346065Y-124505351D01*
X100648087Y-125578802D02*
X100648087Y-125578802D01*
X102950109Y-126652252D02*
X102950109Y-126652252D01*
D10*
G36*
X67721136Y-122414587D02*
X66180413Y-121696136D01*
X66898864Y-120155413D01*
X68439587Y-120873864D01*
X67721136Y-122414587D01*
X67721136Y-122414587D01*
G37*
D15*
X69612022Y-122358450D02*
X69612022Y-122358450D01*
X71914044Y-123431901D02*
X71914044Y-123431901D01*
X74216065Y-124505351D02*
X74216065Y-124505351D01*
X76518087Y-125578802D02*
X76518087Y-125578802D01*
X78820109Y-126652252D02*
X78820109Y-126652252D01*
D10*
G36*
X140111136Y-77964587D02*
X138570413Y-77246136D01*
X139288864Y-75705413D01*
X140829587Y-76423864D01*
X140111136Y-77964587D01*
X140111136Y-77964587D01*
G37*
D15*
X142002022Y-77908450D02*
X142002022Y-77908450D01*
X144304044Y-78981901D02*
X144304044Y-78981901D01*
X146606065Y-80055351D02*
X146606065Y-80055351D01*
X148908087Y-81128802D02*
X148908087Y-81128802D01*
X151210109Y-82202252D02*
X151210109Y-82202252D01*
D10*
G36*
X115981136Y-77964587D02*
X114440413Y-77246136D01*
X115158864Y-75705413D01*
X116699587Y-76423864D01*
X115981136Y-77964587D01*
X115981136Y-77964587D01*
G37*
D15*
X117872022Y-77908450D02*
X117872022Y-77908450D01*
X120174044Y-78981901D02*
X120174044Y-78981901D01*
X122476065Y-80055351D02*
X122476065Y-80055351D01*
X124778087Y-81128802D02*
X124778087Y-81128802D01*
X127080109Y-82202252D02*
X127080109Y-82202252D01*
D10*
G36*
X91851136Y-77964587D02*
X90310413Y-77246136D01*
X91028864Y-75705413D01*
X92569587Y-76423864D01*
X91851136Y-77964587D01*
X91851136Y-77964587D01*
G37*
D15*
X93742022Y-77908450D02*
X93742022Y-77908450D01*
X96044044Y-78981901D02*
X96044044Y-78981901D01*
X98346065Y-80055351D02*
X98346065Y-80055351D01*
X100648087Y-81128802D02*
X100648087Y-81128802D01*
X102950109Y-82202252D02*
X102950109Y-82202252D01*
D16*
X156210000Y-120015000D03*
D17*
X154210000Y-120015000D03*
X152210000Y-120015000D03*
X150210000Y-120015000D03*
D16*
X132080000Y-120015000D03*
D17*
X130080000Y-120015000D03*
X128080000Y-120015000D03*
X126080000Y-120015000D03*
D16*
X107950000Y-120015000D03*
D17*
X105950000Y-120015000D03*
X103950000Y-120015000D03*
X101950000Y-120015000D03*
D16*
X83820000Y-120015000D03*
D17*
X81820000Y-120015000D03*
X79820000Y-120015000D03*
X77820000Y-120015000D03*
D16*
X156210000Y-75565000D03*
D17*
X154210000Y-75565000D03*
X152210000Y-75565000D03*
X150210000Y-75565000D03*
D16*
X132080000Y-75565000D03*
D17*
X130080000Y-75565000D03*
X128080000Y-75565000D03*
X126080000Y-75565000D03*
D16*
X107950000Y-75565000D03*
D17*
X105950000Y-75565000D03*
X103950000Y-75565000D03*
X101950000Y-75565000D03*
D11*
X76200000Y-53340000D03*
D12*
X76200000Y-55880000D03*
X76200000Y-58420000D03*
X76200000Y-60960000D03*
X76200000Y-63500000D03*
X76200000Y-66040000D03*
X76200000Y-68580000D03*
X76200000Y-71120000D03*
D11*
X72390000Y-58420000D03*
D12*
X69850000Y-58420000D03*
X72390000Y-60960000D03*
X69850000Y-60960000D03*
X72390000Y-63500000D03*
X69850000Y-63500000D03*
X72390000Y-66040000D03*
X69850000Y-66040000D03*
D16*
X83820000Y-48260000D03*
D17*
X81820000Y-48260000D03*
X79820000Y-48260000D03*
X77820000Y-48260000D03*
D16*
X83820000Y-75565000D03*
D17*
X81820000Y-75565000D03*
X79820000Y-75565000D03*
X77820000Y-75565000D03*
D10*
G36*
X67721136Y-77964587D02*
X66180413Y-77246136D01*
X66898864Y-75705413D01*
X68439587Y-76423864D01*
X67721136Y-77964587D01*
X67721136Y-77964587D01*
G37*
D15*
X69612022Y-77908450D02*
X69612022Y-77908450D01*
X71914044Y-78981901D02*
X71914044Y-78981901D01*
X74216065Y-80055351D02*
X74216065Y-80055351D01*
X76518087Y-81128802D02*
X76518087Y-81128802D01*
X78820109Y-82202252D02*
X78820109Y-82202252D01*
D11*
X66040000Y-55880000D03*
D12*
X66040000Y-58420000D03*
X66040000Y-60960000D03*
X66040000Y-63500000D03*
X66040000Y-66040000D03*
X66040000Y-68580000D03*
D10*
G36*
X77610413Y-41879864D02*
X79151136Y-41161413D01*
X79869587Y-42702136D01*
X78328864Y-43420587D01*
X77610413Y-41879864D01*
X77610413Y-41879864D01*
G37*
D15*
X76437978Y-43364450D02*
X76437978Y-43364450D01*
X74135956Y-44437901D02*
X74135956Y-44437901D01*
X71833935Y-45511351D02*
X71833935Y-45511351D01*
X69531913Y-46584802D02*
X69531913Y-46584802D01*
X67229891Y-47658252D02*
X67229891Y-47658252D01*
D13*
X72390000Y-52705000D03*
D14*
X69850000Y-52705000D03*
D13*
X72390000Y-71755000D03*
D14*
X69850000Y-71755000D03*
D18*
X146050000Y-108585000D02*
X146050000Y-120015000D01*
X121920000Y-108585000D02*
X121920000Y-120015000D01*
X97790000Y-108585000D02*
X97790000Y-120015000D01*
X73660000Y-108585000D02*
X73660000Y-120015000D01*
X146050000Y-64135000D02*
X146050000Y-75565000D01*
X121920000Y-64135000D02*
X121920000Y-75565000D01*
X97790000Y-64135000D02*
X97790000Y-75565000D01*
X144780000Y-107950000D02*
X145415000Y-107950000D01*
X120650000Y-107950000D02*
X121285000Y-107950000D01*
X96520000Y-107950000D02*
X97155000Y-107950000D01*
X72390000Y-107950000D02*
X73025000Y-107950000D01*
X144780000Y-63500000D02*
X145415000Y-63500000D01*
X120650000Y-63500000D02*
X121285000Y-63500000D01*
X96520000Y-63500000D02*
X97155000Y-63500000D01*
X145415000Y-107950000D02*
X146050000Y-108585000D01*
X121285000Y-107950000D02*
X121920000Y-108585000D01*
X97155000Y-107950000D02*
X97790000Y-108585000D01*
X73025000Y-107950000D02*
X73660000Y-108585000D01*
X145415000Y-63500000D02*
X146050000Y-64135000D01*
X121285000Y-63500000D02*
X121920000Y-64135000D01*
X97155000Y-63500000D02*
X97790000Y-64135000D01*
X146050000Y-120015000D02*
X151130000Y-125095000D01*
X121920000Y-120015000D02*
X127000000Y-125095000D01*
X97790000Y-120015000D02*
X102870000Y-125095000D01*
X73660000Y-120015000D02*
X78740000Y-125095000D01*
X146050000Y-75565000D02*
X151130000Y-80645000D01*
X121920000Y-75565000D02*
X127000000Y-80645000D01*
X97790000Y-75565000D02*
X102870000Y-80645000D01*
X151130000Y-125095000D02*
X151130000Y-126572143D01*
X127000000Y-125095000D02*
X127000000Y-126572143D01*
X102870000Y-125095000D02*
X102870000Y-126572143D01*
X78740000Y-125095000D02*
X78740000Y-126572143D01*
X151130000Y-80645000D02*
X151130000Y-82122143D01*
X127000000Y-80645000D02*
X127000000Y-82122143D01*
X102870000Y-80645000D02*
X102870000Y-82122143D01*
X72390000Y-63500000D02*
X73025000Y-63500000D01*
X73025000Y-63500000D02*
X73660000Y-64135000D01*
X78740000Y-80645000D02*
X78740000Y-82122143D01*
X73660000Y-75565000D02*
X78740000Y-80645000D01*
X73660000Y-64135000D02*
X73660000Y-75565000D01*
X150839300Y-86450300D02*
X151130000Y-86741000D01*
X126709300Y-86450300D02*
X127000000Y-86741000D01*
X102579300Y-86450300D02*
X102870000Y-86741000D01*
X78449300Y-86450300D02*
X78740000Y-86741000D01*
X150839300Y-42000300D02*
X151130000Y-42291000D01*
X126709300Y-42000300D02*
X127000000Y-42291000D01*
X102579300Y-42000300D02*
X102870000Y-42291000D01*
X150749000Y-86360000D02*
X151130000Y-86741000D01*
X126619000Y-86360000D02*
X127000000Y-86741000D01*
X102489000Y-86360000D02*
X102870000Y-86741000D01*
X78359000Y-86360000D02*
X78740000Y-86741000D01*
X150749000Y-41910000D02*
X151130000Y-42291000D01*
X126619000Y-41910000D02*
X127000000Y-42291000D01*
X102489000Y-41910000D02*
X102870000Y-42291000D01*
X142875000Y-102870000D02*
X143510000Y-103505000D01*
X118745000Y-102870000D02*
X119380000Y-103505000D01*
X94615000Y-102870000D02*
X95250000Y-103505000D01*
X70485000Y-102870000D02*
X71120000Y-103505000D01*
X142875000Y-58420000D02*
X143510000Y-59055000D01*
X118745000Y-58420000D02*
X119380000Y-59055000D01*
X94615000Y-58420000D02*
X95250000Y-59055000D01*
X142240000Y-102870000D02*
X142875000Y-102870000D01*
X118110000Y-102870000D02*
X118745000Y-102870000D01*
X93980000Y-102870000D02*
X94615000Y-102870000D01*
X69850000Y-102870000D02*
X70485000Y-102870000D01*
X142240000Y-58420000D02*
X142875000Y-58420000D01*
X118110000Y-58420000D02*
X118745000Y-58420000D01*
X93980000Y-58420000D02*
X94615000Y-58420000D01*
X143510000Y-103505000D02*
X143510000Y-114935000D01*
X119380000Y-103505000D02*
X119380000Y-114935000D01*
X95250000Y-103505000D02*
X95250000Y-114935000D01*
X71120000Y-103505000D02*
X71120000Y-114935000D01*
X143510000Y-59055000D02*
X143510000Y-70485000D01*
X119380000Y-59055000D02*
X119380000Y-70485000D01*
X95250000Y-59055000D02*
X95250000Y-70485000D01*
X147955000Y-113030000D02*
X147320000Y-113665000D01*
X123825000Y-113030000D02*
X123190000Y-113665000D01*
X99695000Y-113030000D02*
X99060000Y-113665000D01*
X75565000Y-113030000D02*
X74930000Y-113665000D01*
X147955000Y-68580000D02*
X147320000Y-69215000D01*
X123825000Y-68580000D02*
X123190000Y-69215000D01*
X99695000Y-68580000D02*
X99060000Y-69215000D01*
X148590000Y-113030000D02*
X147955000Y-113030000D01*
X124460000Y-113030000D02*
X123825000Y-113030000D01*
X100330000Y-113030000D02*
X99695000Y-113030000D01*
X76200000Y-113030000D02*
X75565000Y-113030000D01*
X148590000Y-68580000D02*
X147955000Y-68580000D01*
X124460000Y-68580000D02*
X123825000Y-68580000D01*
X100330000Y-68580000D02*
X99695000Y-68580000D01*
X147320000Y-113665000D02*
X147320000Y-119380000D01*
X123190000Y-113665000D02*
X123190000Y-119380000D01*
X99060000Y-113665000D02*
X99060000Y-119380000D01*
X74930000Y-113665000D02*
X74930000Y-119380000D01*
X147320000Y-69215000D02*
X147320000Y-74930000D01*
X123190000Y-69215000D02*
X123190000Y-74930000D01*
X99060000Y-69215000D02*
X99060000Y-74930000D01*
X149860000Y-121920000D02*
X153670000Y-121920000D01*
X125730000Y-121920000D02*
X129540000Y-121920000D01*
X101600000Y-121920000D02*
X105410000Y-121920000D01*
X77470000Y-121920000D02*
X81280000Y-121920000D01*
X149860000Y-77470000D02*
X153670000Y-77470000D01*
X125730000Y-77470000D02*
X129540000Y-77470000D01*
X101600000Y-77470000D02*
X105410000Y-77470000D01*
X153670000Y-121920000D02*
X154210000Y-121380000D01*
X129540000Y-121920000D02*
X130080000Y-121380000D01*
X105410000Y-121920000D02*
X105950000Y-121380000D01*
X81280000Y-121920000D02*
X81820000Y-121380000D01*
X153670000Y-77470000D02*
X154210000Y-76930000D01*
X129540000Y-77470000D02*
X130080000Y-76930000D01*
X105410000Y-77470000D02*
X105950000Y-76930000D01*
X154210000Y-121380000D02*
X154210000Y-120015000D01*
X130080000Y-121380000D02*
X130080000Y-120015000D01*
X105950000Y-121380000D02*
X105950000Y-120015000D01*
X81820000Y-121380000D02*
X81820000Y-120015000D01*
X154210000Y-76930000D02*
X154210000Y-75565000D01*
X130080000Y-76930000D02*
X130080000Y-75565000D01*
X105950000Y-76930000D02*
X105950000Y-75565000D01*
X147320000Y-119380000D02*
X149860000Y-121920000D01*
X123190000Y-119380000D02*
X125730000Y-121920000D01*
X99060000Y-119380000D02*
X101600000Y-121920000D01*
X74930000Y-119380000D02*
X77470000Y-121920000D01*
X147320000Y-74930000D02*
X149860000Y-77470000D01*
X123190000Y-74930000D02*
X125730000Y-77470000D01*
X99060000Y-74930000D02*
X101600000Y-77470000D01*
X143510000Y-114935000D02*
X144780000Y-116205000D01*
X119380000Y-114935000D02*
X120650000Y-116205000D01*
X95250000Y-114935000D02*
X96520000Y-116205000D01*
X71120000Y-114935000D02*
X72390000Y-116205000D01*
X143510000Y-70485000D02*
X144780000Y-71755000D01*
X119380000Y-70485000D02*
X120650000Y-71755000D01*
X95250000Y-70485000D02*
X96520000Y-71755000D01*
X76200000Y-68580000D02*
X75565000Y-68580000D01*
X75565000Y-68580000D02*
X74930000Y-69215000D01*
X81820000Y-76930000D02*
X81820000Y-75565000D01*
X81280000Y-77470000D02*
X81820000Y-76930000D01*
X77470000Y-77470000D02*
X81280000Y-77470000D01*
X74930000Y-74930000D02*
X77470000Y-77470000D01*
X74930000Y-69215000D02*
X74930000Y-74930000D01*
X69850000Y-58420000D02*
X70485000Y-58420000D01*
X70485000Y-58420000D02*
X71120000Y-59055000D01*
X71120000Y-59055000D02*
X71120000Y-70485000D01*
X71120000Y-70485000D02*
X72390000Y-71755000D01*
X78359000Y-41910000D02*
X78740000Y-42291000D01*
X78449300Y-42000300D02*
X78740000Y-42291000D01*
X156210000Y-91440000D02*
X155575000Y-90805000D01*
X132080000Y-91440000D02*
X131445000Y-90805000D01*
X107950000Y-91440000D02*
X107315000Y-90805000D01*
X83820000Y-91440000D02*
X83185000Y-90805000D01*
X156210000Y-46990000D02*
X155575000Y-46355000D01*
X132080000Y-46990000D02*
X131445000Y-46355000D01*
X107950000Y-46990000D02*
X107315000Y-46355000D01*
X155575000Y-90805000D02*
X149225000Y-90805000D01*
X131445000Y-90805000D02*
X125095000Y-90805000D01*
X107315000Y-90805000D02*
X100965000Y-90805000D01*
X83185000Y-90805000D02*
X76835000Y-90805000D01*
X155575000Y-46355000D02*
X149225000Y-46355000D01*
X131445000Y-46355000D02*
X125095000Y-46355000D01*
X107315000Y-46355000D02*
X100965000Y-46355000D01*
X156210000Y-92710000D02*
X156210000Y-91440000D01*
X132080000Y-92710000D02*
X132080000Y-91440000D01*
X107950000Y-92710000D02*
X107950000Y-91440000D01*
X83820000Y-92710000D02*
X83820000Y-91440000D01*
X156210000Y-48260000D02*
X156210000Y-46990000D01*
X132080000Y-48260000D02*
X132080000Y-46990000D01*
X107950000Y-48260000D02*
X107950000Y-46990000D01*
X148590000Y-91440000D02*
X148590000Y-97790000D01*
X124460000Y-91440000D02*
X124460000Y-97790000D01*
X100330000Y-91440000D02*
X100330000Y-97790000D01*
X76200000Y-91440000D02*
X76200000Y-97790000D01*
X148590000Y-46990000D02*
X148590000Y-53340000D01*
X124460000Y-46990000D02*
X124460000Y-53340000D01*
X100330000Y-46990000D02*
X100330000Y-53340000D01*
X149225000Y-90805000D02*
X148827978Y-90407978D01*
X125095000Y-90805000D02*
X124697978Y-90407978D01*
X100965000Y-90805000D02*
X100567978Y-90407978D01*
X76835000Y-90805000D02*
X76437978Y-90407978D01*
X149225000Y-46355000D02*
X148827978Y-45957978D01*
X125095000Y-46355000D02*
X124697978Y-45957978D01*
X100965000Y-46355000D02*
X100567978Y-45957978D01*
X148827978Y-90407978D02*
X148827978Y-87814450D01*
X124697978Y-90407978D02*
X124697978Y-87814450D01*
X100567978Y-90407978D02*
X100567978Y-87814450D01*
X76437978Y-90407978D02*
X76437978Y-87814450D01*
X148827978Y-45957978D02*
X148827978Y-43364450D01*
X124697978Y-45957978D02*
X124697978Y-43364450D01*
X100567978Y-45957978D02*
X100567978Y-43364450D01*
X149225000Y-90805000D02*
X148590000Y-91440000D01*
X125095000Y-90805000D02*
X124460000Y-91440000D01*
X100965000Y-90805000D02*
X100330000Y-91440000D01*
X76835000Y-90805000D02*
X76200000Y-91440000D01*
X149225000Y-46355000D02*
X148590000Y-46990000D01*
X125095000Y-46355000D02*
X124460000Y-46990000D01*
X100965000Y-46355000D02*
X100330000Y-46990000D01*
X76835000Y-46355000D02*
X76200000Y-46990000D01*
X76200000Y-46990000D02*
X76200000Y-53340000D01*
X83820000Y-48260000D02*
X83820000Y-46990000D01*
X76437978Y-45957978D02*
X76437978Y-43364450D01*
X76835000Y-46355000D02*
X76437978Y-45957978D01*
X83185000Y-46355000D02*
X76835000Y-46355000D01*
X83820000Y-46990000D02*
X83185000Y-46355000D01*
X143510000Y-95250000D02*
X143510000Y-101600000D01*
X119380000Y-95250000D02*
X119380000Y-101600000D01*
X95250000Y-95250000D02*
X95250000Y-101600000D01*
X71120000Y-95250000D02*
X71120000Y-101600000D01*
X143510000Y-50800000D02*
X143510000Y-57150000D01*
X119380000Y-50800000D02*
X119380000Y-57150000D01*
X95250000Y-50800000D02*
X95250000Y-57150000D01*
X143510000Y-101600000D02*
X144780000Y-102870000D01*
X119380000Y-101600000D02*
X120650000Y-102870000D01*
X95250000Y-101600000D02*
X96520000Y-102870000D01*
X71120000Y-101600000D02*
X72390000Y-102870000D01*
X143510000Y-57150000D02*
X144780000Y-58420000D01*
X119380000Y-57150000D02*
X120650000Y-58420000D01*
X95250000Y-57150000D02*
X96520000Y-58420000D01*
X139619891Y-92108252D02*
X139619891Y-93264891D01*
X115489891Y-92108252D02*
X115489891Y-93264891D01*
X91359891Y-92108252D02*
X91359891Y-93264891D01*
X67229891Y-92108252D02*
X67229891Y-93264891D01*
X139619891Y-47658252D02*
X139619891Y-48814891D01*
X115489891Y-47658252D02*
X115489891Y-48814891D01*
X91359891Y-47658252D02*
X91359891Y-48814891D01*
X140970000Y-94615000D02*
X142875000Y-94615000D01*
X116840000Y-94615000D02*
X118745000Y-94615000D01*
X92710000Y-94615000D02*
X94615000Y-94615000D01*
X68580000Y-94615000D02*
X70485000Y-94615000D01*
X140970000Y-50165000D02*
X142875000Y-50165000D01*
X116840000Y-50165000D02*
X118745000Y-50165000D01*
X92710000Y-50165000D02*
X94615000Y-50165000D01*
X139619891Y-93264891D02*
X140970000Y-94615000D01*
X115489891Y-93264891D02*
X116840000Y-94615000D01*
X91359891Y-93264891D02*
X92710000Y-94615000D01*
X67229891Y-93264891D02*
X68580000Y-94615000D01*
X139619891Y-48814891D02*
X140970000Y-50165000D01*
X115489891Y-48814891D02*
X116840000Y-50165000D01*
X91359891Y-48814891D02*
X92710000Y-50165000D01*
X142875000Y-94615000D02*
X143510000Y-95250000D01*
X118745000Y-94615000D02*
X119380000Y-95250000D01*
X94615000Y-94615000D02*
X95250000Y-95250000D01*
X70485000Y-94615000D02*
X71120000Y-95250000D01*
X142875000Y-50165000D02*
X143510000Y-50800000D01*
X118745000Y-50165000D02*
X119380000Y-50800000D01*
X94615000Y-50165000D02*
X95250000Y-50800000D01*
X67229891Y-47658252D02*
X67229891Y-48814891D01*
X71120000Y-57150000D02*
X72390000Y-58420000D01*
X71120000Y-50800000D02*
X71120000Y-57150000D01*
X70485000Y-50165000D02*
X71120000Y-50800000D01*
X68580000Y-50165000D02*
X70485000Y-50165000D01*
X67229891Y-48814891D02*
X68580000Y-50165000D01*
X140335000Y-107315000D02*
X140335000Y-100260300D01*
X116205000Y-107315000D02*
X116205000Y-100260300D01*
X92075000Y-107315000D02*
X92075000Y-100260300D01*
X67945000Y-107315000D02*
X67945000Y-100260300D01*
X140335000Y-62865000D02*
X140335000Y-55810300D01*
X116205000Y-62865000D02*
X116205000Y-55810300D01*
X92075000Y-62865000D02*
X92075000Y-55810300D01*
X142240000Y-97755100D02*
X142240000Y-97155000D01*
X118110000Y-97755100D02*
X118110000Y-97155000D01*
X93980000Y-97755100D02*
X93980000Y-97155000D01*
X69850000Y-97755100D02*
X69850000Y-97155000D01*
X142240000Y-53305100D02*
X142240000Y-52705000D01*
X118110000Y-53305100D02*
X118110000Y-52705000D01*
X93980000Y-53305100D02*
X93980000Y-52705000D01*
X142240000Y-97755100D02*
X142240000Y-98355300D01*
X118110000Y-97755100D02*
X118110000Y-98355300D01*
X93980000Y-97755100D02*
X93980000Y-98355300D01*
X69850000Y-97755100D02*
X69850000Y-98355300D01*
X142240000Y-53305100D02*
X142240000Y-53905300D01*
X118110000Y-53305100D02*
X118110000Y-53905300D01*
X93980000Y-53305100D02*
X93980000Y-53905300D01*
X142240000Y-98355300D02*
X140335000Y-100260300D01*
X118110000Y-98355300D02*
X116205000Y-100260300D01*
X93980000Y-98355300D02*
X92075000Y-100260300D01*
X69850000Y-98355300D02*
X67945000Y-100260300D01*
X142240000Y-53905300D02*
X140335000Y-55810300D01*
X118110000Y-53905300D02*
X116205000Y-55810300D01*
X93980000Y-53905300D02*
X92075000Y-55810300D01*
X138430000Y-107950000D02*
X139700000Y-107950000D01*
X114300000Y-107950000D02*
X115570000Y-107950000D01*
X90170000Y-107950000D02*
X91440000Y-107950000D01*
X66040000Y-107950000D02*
X67310000Y-107950000D01*
X138430000Y-63500000D02*
X139700000Y-63500000D01*
X114300000Y-63500000D02*
X115570000Y-63500000D01*
X90170000Y-63500000D02*
X91440000Y-63500000D01*
X139700000Y-107950000D02*
X140335000Y-107315000D01*
X115570000Y-107950000D02*
X116205000Y-107315000D01*
X91440000Y-107950000D02*
X92075000Y-107315000D01*
X67310000Y-107950000D02*
X67945000Y-107315000D01*
X139700000Y-63500000D02*
X140335000Y-62865000D01*
X115570000Y-63500000D02*
X116205000Y-62865000D01*
X91440000Y-63500000D02*
X92075000Y-62865000D01*
X152210000Y-109665000D02*
X150495000Y-107950000D01*
X128080000Y-109665000D02*
X126365000Y-107950000D01*
X103950000Y-109665000D02*
X102235000Y-107950000D01*
X79820000Y-109665000D02*
X78105000Y-107950000D01*
X152210000Y-65215000D02*
X150495000Y-63500000D01*
X128080000Y-65215000D02*
X126365000Y-63500000D01*
X103950000Y-65215000D02*
X102235000Y-63500000D01*
X150495000Y-107950000D02*
X148590000Y-107950000D01*
X126365000Y-107950000D02*
X124460000Y-107950000D01*
X102235000Y-107950000D02*
X100330000Y-107950000D01*
X78105000Y-107950000D02*
X76200000Y-107950000D01*
X150495000Y-63500000D02*
X148590000Y-63500000D01*
X126365000Y-63500000D02*
X124460000Y-63500000D01*
X102235000Y-63500000D02*
X100330000Y-63500000D01*
X152210000Y-120015000D02*
X152210000Y-109665000D01*
X128080000Y-120015000D02*
X128080000Y-109665000D01*
X103950000Y-120015000D02*
X103950000Y-109665000D01*
X79820000Y-120015000D02*
X79820000Y-109665000D01*
X152210000Y-75565000D02*
X152210000Y-65215000D01*
X128080000Y-75565000D02*
X128080000Y-65215000D01*
X103950000Y-75565000D02*
X103950000Y-65215000D01*
X142240000Y-110490000D02*
X140989700Y-110490000D01*
X118110000Y-110490000D02*
X116859700Y-110490000D01*
X93980000Y-110490000D02*
X92729700Y-110490000D01*
X69850000Y-110490000D02*
X68599700Y-110490000D01*
X142240000Y-66040000D02*
X140989700Y-66040000D01*
X118110000Y-66040000D02*
X116859700Y-66040000D01*
X93980000Y-66040000D02*
X92729700Y-66040000D01*
X140335000Y-108585000D02*
X140335000Y-109835300D01*
X116205000Y-108585000D02*
X116205000Y-109835300D01*
X92075000Y-108585000D02*
X92075000Y-109835300D01*
X67945000Y-108585000D02*
X67945000Y-109835300D01*
X140335000Y-64135000D02*
X140335000Y-65385300D01*
X116205000Y-64135000D02*
X116205000Y-65385300D01*
X92075000Y-64135000D02*
X92075000Y-65385300D01*
X138449700Y-107950000D02*
X138430000Y-107950000D01*
X114319700Y-107950000D02*
X114300000Y-107950000D01*
X90189700Y-107950000D02*
X90170000Y-107950000D01*
X66059700Y-107950000D02*
X66040000Y-107950000D01*
X138449700Y-63500000D02*
X138430000Y-63500000D01*
X114319700Y-63500000D02*
X114300000Y-63500000D01*
X90189700Y-63500000D02*
X90170000Y-63500000D01*
X140989700Y-110490000D02*
X140335000Y-109835300D01*
X116859700Y-110490000D02*
X116205000Y-109835300D01*
X92729700Y-110490000D02*
X92075000Y-109835300D01*
X68599700Y-110490000D02*
X67945000Y-109835300D01*
X140989700Y-66040000D02*
X140335000Y-65385300D01*
X116859700Y-66040000D02*
X116205000Y-65385300D01*
X92729700Y-66040000D02*
X92075000Y-65385300D01*
X139700000Y-107950000D02*
X140335000Y-108585000D01*
X115570000Y-107950000D02*
X116205000Y-108585000D01*
X91440000Y-107950000D02*
X92075000Y-108585000D01*
X67310000Y-107950000D02*
X67945000Y-108585000D01*
X139700000Y-63500000D02*
X140335000Y-64135000D01*
X115570000Y-63500000D02*
X116205000Y-64135000D01*
X91440000Y-63500000D02*
X92075000Y-64135000D01*
X67310000Y-63500000D02*
X67945000Y-62865000D01*
X67945000Y-62865000D02*
X67945000Y-55810300D01*
X66040000Y-63500000D02*
X67310000Y-63500000D01*
X67945000Y-64135000D02*
X67945000Y-65385300D01*
X67310000Y-63500000D02*
X67945000Y-64135000D01*
X79820000Y-75565000D02*
X79820000Y-65215000D01*
X78105000Y-63500000D02*
X76200000Y-63500000D01*
X79820000Y-65215000D02*
X78105000Y-63500000D01*
X69850000Y-66040000D02*
X68599700Y-66040000D01*
X68599700Y-66040000D02*
X67945000Y-65385300D01*
X69850000Y-53905300D02*
X67945000Y-55810300D01*
X69850000Y-53305100D02*
X69850000Y-53905300D01*
X66059700Y-63500000D02*
X66040000Y-63500000D01*
X69850000Y-53305100D02*
X69850000Y-52705000D01*
X146685000Y-100965000D02*
X148590000Y-102870000D01*
X122555000Y-100965000D02*
X124460000Y-102870000D01*
X98425000Y-100965000D02*
X100330000Y-102870000D01*
X74295000Y-100965000D02*
X76200000Y-102870000D01*
X146685000Y-56515000D02*
X148590000Y-58420000D01*
X122555000Y-56515000D02*
X124460000Y-58420000D01*
X98425000Y-56515000D02*
X100330000Y-58420000D01*
X146685000Y-95250000D02*
X146685000Y-100965000D01*
X122555000Y-95250000D02*
X122555000Y-100965000D01*
X98425000Y-95250000D02*
X98425000Y-100965000D01*
X74295000Y-95250000D02*
X74295000Y-100965000D01*
X146685000Y-50800000D02*
X146685000Y-56515000D01*
X122555000Y-50800000D02*
X122555000Y-56515000D01*
X98425000Y-50800000D02*
X98425000Y-56515000D01*
X147320000Y-94615000D02*
X146685000Y-95250000D01*
X123190000Y-94615000D02*
X122555000Y-95250000D01*
X99060000Y-94615000D02*
X98425000Y-95250000D01*
X74930000Y-94615000D02*
X74295000Y-95250000D01*
X147320000Y-50165000D02*
X146685000Y-50800000D01*
X123190000Y-50165000D02*
X122555000Y-50800000D01*
X99060000Y-50165000D02*
X98425000Y-50800000D01*
X146672901Y-88887901D02*
X147320000Y-89535000D01*
X122542901Y-88887901D02*
X123190000Y-89535000D01*
X98412901Y-88887901D02*
X99060000Y-89535000D01*
X74282901Y-88887901D02*
X74930000Y-89535000D01*
X146672901Y-44437901D02*
X147320000Y-45085000D01*
X122542901Y-44437901D02*
X123190000Y-45085000D01*
X98412901Y-44437901D02*
X99060000Y-45085000D01*
X147320000Y-89535000D02*
X147320000Y-94615000D01*
X123190000Y-89535000D02*
X123190000Y-94615000D01*
X99060000Y-89535000D02*
X99060000Y-94615000D01*
X74930000Y-89535000D02*
X74930000Y-94615000D01*
X147320000Y-45085000D02*
X147320000Y-50165000D01*
X123190000Y-45085000D02*
X123190000Y-50165000D01*
X99060000Y-45085000D02*
X99060000Y-50165000D01*
X137160000Y-106045000D02*
X137160000Y-115570000D01*
X113030000Y-106045000D02*
X113030000Y-115570000D01*
X88900000Y-106045000D02*
X88900000Y-115570000D01*
X64770000Y-106045000D02*
X64770000Y-115570000D01*
X137160000Y-61595000D02*
X137160000Y-71120000D01*
X113030000Y-61595000D02*
X113030000Y-71120000D01*
X88900000Y-61595000D02*
X88900000Y-71120000D01*
X137795000Y-116205000D02*
X142240000Y-116205000D01*
X113665000Y-116205000D02*
X118110000Y-116205000D01*
X89535000Y-116205000D02*
X93980000Y-116205000D01*
X65405000Y-116205000D02*
X69850000Y-116205000D01*
X137795000Y-71755000D02*
X142240000Y-71755000D01*
X113665000Y-71755000D02*
X118110000Y-71755000D01*
X89535000Y-71755000D02*
X93980000Y-71755000D01*
X137160000Y-115570000D02*
X137795000Y-116205000D01*
X113030000Y-115570000D02*
X113665000Y-116205000D01*
X88900000Y-115570000D02*
X89535000Y-116205000D01*
X64770000Y-115570000D02*
X65405000Y-116205000D01*
X137160000Y-71120000D02*
X137795000Y-71755000D01*
X113030000Y-71120000D02*
X113665000Y-71755000D01*
X88900000Y-71120000D02*
X89535000Y-71755000D01*
X137795000Y-105410000D02*
X137160000Y-106045000D01*
X113665000Y-105410000D02*
X113030000Y-106045000D01*
X89535000Y-105410000D02*
X88900000Y-106045000D01*
X65405000Y-105410000D02*
X64770000Y-106045000D01*
X137795000Y-60960000D02*
X137160000Y-61595000D01*
X113665000Y-60960000D02*
X113030000Y-61595000D01*
X89535000Y-60960000D02*
X88900000Y-61595000D01*
X138430000Y-105410000D02*
X137795000Y-105410000D01*
X114300000Y-105410000D02*
X113665000Y-105410000D01*
X90170000Y-105410000D02*
X89535000Y-105410000D01*
X66040000Y-105410000D02*
X65405000Y-105410000D01*
X138430000Y-60960000D02*
X137795000Y-60960000D01*
X114300000Y-60960000D02*
X113665000Y-60960000D01*
X90170000Y-60960000D02*
X89535000Y-60960000D01*
X144304044Y-123431901D02*
X144304044Y-119469344D01*
X120174044Y-123431901D02*
X120174044Y-119469344D01*
X96044044Y-123431901D02*
X96044044Y-119469344D01*
X71914044Y-123431901D02*
X71914044Y-119469344D01*
X144304044Y-78981901D02*
X144304044Y-75019344D01*
X120174044Y-78981901D02*
X120174044Y-75019344D01*
X96044044Y-78981901D02*
X96044044Y-75019344D01*
X142240000Y-116805100D02*
X142240000Y-116205000D01*
X118110000Y-116805100D02*
X118110000Y-116205000D01*
X93980000Y-116805100D02*
X93980000Y-116205000D01*
X69850000Y-116805100D02*
X69850000Y-116205000D01*
X142240000Y-72355100D02*
X142240000Y-71755000D01*
X118110000Y-72355100D02*
X118110000Y-71755000D01*
X93980000Y-72355100D02*
X93980000Y-71755000D01*
X142240000Y-117405300D02*
X142240000Y-116205000D01*
X118110000Y-117405300D02*
X118110000Y-116205000D01*
X93980000Y-117405300D02*
X93980000Y-116205000D01*
X69850000Y-117405300D02*
X69850000Y-116205000D01*
X142240000Y-72955300D02*
X142240000Y-71755000D01*
X118110000Y-72955300D02*
X118110000Y-71755000D01*
X93980000Y-72955300D02*
X93980000Y-71755000D01*
X144304044Y-119469344D02*
X142240000Y-117405300D01*
X120174044Y-119469344D02*
X118110000Y-117405300D01*
X96044044Y-119469344D02*
X93980000Y-117405300D01*
X71914044Y-119469344D02*
X69850000Y-117405300D01*
X144304044Y-75019344D02*
X142240000Y-72955300D01*
X120174044Y-75019344D02*
X118110000Y-72955300D01*
X96044044Y-75019344D02*
X93980000Y-72955300D01*
X142240000Y-116805100D02*
X142240000Y-117405300D01*
X118110000Y-116805100D02*
X118110000Y-117405300D01*
X93980000Y-116805100D02*
X93980000Y-117405300D01*
X69850000Y-116805100D02*
X69850000Y-117405300D01*
X142240000Y-72355100D02*
X142240000Y-72955300D01*
X118110000Y-72355100D02*
X118110000Y-72955300D01*
X93980000Y-72355100D02*
X93980000Y-72955300D01*
X66040000Y-60960000D02*
X65405000Y-60960000D01*
X65405000Y-60960000D02*
X64770000Y-61595000D01*
X65405000Y-71755000D02*
X69850000Y-71755000D01*
X64770000Y-71120000D02*
X65405000Y-71755000D01*
X64770000Y-61595000D02*
X64770000Y-71120000D01*
X71914044Y-78981901D02*
X71914044Y-75019344D01*
X71914044Y-75019344D02*
X69850000Y-72955300D01*
X69850000Y-72955300D02*
X69850000Y-71755000D01*
X74282901Y-44437901D02*
X74930000Y-45085000D01*
X74930000Y-45085000D02*
X74930000Y-50165000D01*
X74930000Y-50165000D02*
X74295000Y-50800000D01*
X74295000Y-50800000D02*
X74295000Y-56515000D01*
X74295000Y-56515000D02*
X76200000Y-58420000D01*
X69850000Y-72355100D02*
X69850000Y-72955300D01*
X69850000Y-72355100D02*
X69850000Y-71755000D01*
M02*
