G04 #@! TF.FileFunction,Copper,L2,Bot,Signal*
%FSLAX46Y46*%
G04 Gerber Fmt 4.6, Leading zero omitted, Abs format (unit mm)*
G04 Created by KiCad (PCBNEW 4.0.7) date 05/17/20 12:10:28*
%MOMM*%
%LPD*%
G01*
G04 APERTURE LIST*
%ADD10C,0.100000*%
%ADD11R,1.700000X1.700000*%
%ADD12O,1.700000X1.700000*%
%ADD13R,1.200000X1.700000*%
%ADD14O,1.200000X1.700000*%
%ADD15C,1.700000*%
%ADD16C,0.400000*%
G04 APERTURE END LIST*
D10*
D11*
X69850000Y-60960000D03*
D12*
X67310000Y-60960000D03*
X69850000Y-63500000D03*
X67310000Y-63500000D03*
X69850000Y-66040000D03*
X67310000Y-66040000D03*
X69850000Y-68580000D03*
X67310000Y-68580000D03*
D13*
X75565000Y-50800000D03*
D14*
X77565000Y-50800000D03*
X79565000Y-50800000D03*
X81565000Y-50800000D03*
D13*
X75565000Y-78105000D03*
D14*
X77565000Y-78105000D03*
X79565000Y-78105000D03*
X81565000Y-78105000D03*
D11*
X73660000Y-55880000D03*
D12*
X73660000Y-58420000D03*
X73660000Y-60960000D03*
X73660000Y-63500000D03*
X73660000Y-66040000D03*
X73660000Y-68580000D03*
X73660000Y-71120000D03*
X73660000Y-73660000D03*
D10*
G36*
X65181136Y-80504587D02*
X63640413Y-79786136D01*
X64358864Y-78245413D01*
X65899587Y-78963864D01*
X65181136Y-80504587D01*
X65181136Y-80504587D01*
G37*
D15*
X67072022Y-80448450D02*
X67072022Y-80448450D01*
X69374044Y-81521901D02*
X69374044Y-81521901D01*
X71676065Y-82595351D02*
X71676065Y-82595351D01*
X73978087Y-83668802D02*
X73978087Y-83668802D01*
X76280109Y-84742252D02*
X76280109Y-84742252D01*
D11*
X63500000Y-58420000D03*
D12*
X63500000Y-60960000D03*
X63500000Y-63500000D03*
X63500000Y-66040000D03*
X63500000Y-68580000D03*
X63500000Y-71120000D03*
D10*
G36*
X75070413Y-44419864D02*
X76611136Y-43701413D01*
X77329587Y-45242136D01*
X75788864Y-45960587D01*
X75070413Y-44419864D01*
X75070413Y-44419864D01*
G37*
D15*
X73897978Y-45904450D02*
X73897978Y-45904450D01*
X71595956Y-46977901D02*
X71595956Y-46977901D01*
X69293935Y-48051351D02*
X69293935Y-48051351D01*
X66991913Y-49124802D02*
X66991913Y-49124802D01*
X64689891Y-50198252D02*
X64689891Y-50198252D01*
D16*
X64689891Y-50198252D02*
X64803252Y-50198252D01*
X63500000Y-58420000D02*
X63500000Y-55245000D01*
X63500000Y-55245000D02*
X65405000Y-53340000D01*
X73025000Y-52705000D02*
X73025000Y-50165000D01*
X72390000Y-53340000D02*
X73025000Y-52705000D01*
X65405000Y-53340000D02*
X72390000Y-53340000D01*
X76200000Y-46990000D02*
X76200000Y-44831000D01*
X73025000Y-50165000D02*
X76200000Y-46990000D01*
X76835000Y-76200000D02*
X77565000Y-75470000D01*
X74930000Y-71120000D02*
X77565000Y-73755000D01*
X77565000Y-75470000D02*
X77565000Y-73755000D01*
X74930000Y-71120000D02*
X73660000Y-71120000D01*
X64770000Y-79375000D02*
X64770000Y-78740000D01*
X64770000Y-78740000D02*
X67310000Y-76200000D01*
X77565000Y-76930000D02*
X77565000Y-78105000D01*
X76835000Y-76200000D02*
X77565000Y-76930000D01*
X67310000Y-76200000D02*
X76835000Y-76200000D01*
X73660000Y-71120000D02*
X74930000Y-71120000D01*
X67310000Y-60960000D02*
X67310000Y-59690000D01*
X66040000Y-58420000D02*
X63500000Y-58420000D01*
X67310000Y-59690000D02*
X66040000Y-58420000D01*
X63500000Y-58420000D02*
X63500000Y-58852600D01*
X63952300Y-58852600D02*
X63500000Y-58852600D01*
X69850000Y-63500000D02*
X69850000Y-63316900D01*
X69850000Y-63316900D02*
X71603700Y-61563200D01*
X63500000Y-71120000D02*
X64770000Y-71120000D01*
X66059600Y-67290400D02*
X67895800Y-67290400D01*
X65405000Y-67945000D02*
X66059600Y-67290400D01*
X65405000Y-70485000D02*
X65405000Y-67945000D01*
X64770000Y-71120000D02*
X65405000Y-70485000D01*
X67895800Y-67290400D02*
X68580000Y-66606200D01*
X68580000Y-66606200D02*
X68580000Y-65502200D01*
X68580000Y-65502200D02*
X69850000Y-64232200D01*
X69850000Y-64232200D02*
X69850000Y-63500000D01*
X68580000Y-66606200D02*
X68580000Y-65502200D01*
X67895800Y-67290400D02*
X68580000Y-66606200D01*
X71603700Y-58651600D02*
X71603700Y-61563200D01*
X73124900Y-57130400D02*
X71603700Y-58651600D01*
X74703600Y-57130400D02*
X73124900Y-57130400D01*
X79565000Y-52269000D02*
X74703600Y-57130400D01*
X79565000Y-50800000D02*
X79565000Y-52269000D01*
X67072022Y-80448450D02*
X67072022Y-79612978D01*
X67072022Y-79612978D02*
X68580000Y-78105000D01*
X68580000Y-78105000D02*
X75565000Y-78105000D01*
X63500000Y-60960000D02*
X64750300Y-60960000D01*
X64750300Y-60960000D02*
X67290300Y-63500000D01*
X67290300Y-63500000D02*
X67310000Y-63500000D01*
X75565000Y-52724700D02*
X75565000Y-50800000D01*
X73660000Y-54629700D02*
X75565000Y-52724700D01*
X73660000Y-55880000D02*
X73660000Y-54629700D01*
X80010000Y-59690000D02*
X83185000Y-62865000D01*
X83185000Y-62865000D02*
X83185000Y-68716100D01*
X73098600Y-59690000D02*
X80010000Y-59690000D01*
X81565000Y-58135000D02*
X81565000Y-50800000D01*
X80010000Y-59690000D02*
X81565000Y-58135000D01*
X76280109Y-84742252D02*
X76280109Y-83739891D01*
X76280109Y-83739891D02*
X78740000Y-81280000D01*
X78740000Y-81280000D02*
X80010000Y-81280000D01*
X80010000Y-81280000D02*
X81280000Y-80010000D01*
X81280000Y-80010000D02*
X82550000Y-80010000D01*
X82550000Y-80010000D02*
X83185000Y-79375000D01*
X83185000Y-79375000D02*
X83185000Y-68716100D01*
X72223700Y-60564900D02*
X73098600Y-59690000D01*
X72223700Y-63666300D02*
X72223700Y-60564900D01*
X69850000Y-66040000D02*
X72223700Y-63666300D01*
X71595956Y-46977901D02*
X71595956Y-50959044D01*
X62230000Y-62230000D02*
X63500000Y-63500000D01*
X62230000Y-53975000D02*
X62230000Y-62230000D01*
X64135000Y-52070000D02*
X62230000Y-53975000D01*
X70485000Y-52070000D02*
X64135000Y-52070000D01*
X71595956Y-50959044D02*
X70485000Y-52070000D01*
X63500000Y-63500000D02*
X64750300Y-63500000D01*
X64750300Y-63500000D02*
X67290300Y-66040000D01*
X67290300Y-66040000D02*
X67310000Y-66040000D01*
X71676065Y-82595351D02*
X71676065Y-81358935D01*
X78740000Y-80010000D02*
X79565000Y-79185000D01*
X73025000Y-80010000D02*
X78740000Y-80010000D01*
X71676065Y-81358935D02*
X73025000Y-80010000D01*
X79565000Y-79185000D02*
X79565000Y-78105000D01*
X79565000Y-78105000D02*
X79565000Y-79185000D01*
X71676065Y-81993935D02*
X71676065Y-82595351D01*
X79565000Y-78105000D02*
X79565000Y-71945000D01*
X79565000Y-71945000D02*
X74930000Y-67310000D01*
X73660000Y-60960000D02*
X75565000Y-62865000D01*
X75565000Y-62865000D02*
X75565000Y-66675000D01*
X75565000Y-66675000D02*
X74930000Y-67310000D01*
X69312200Y-67310000D02*
X68042200Y-68580000D01*
X74930000Y-67310000D02*
X69312200Y-67310000D01*
X68042200Y-68580000D02*
X67310000Y-68580000D01*
M02*
