G04 #@! TF.FileFunction,Copper,L1,Top,Signal*
%FSLAX46Y46*%
G04 Gerber Fmt 4.6, Leading zero omitted, Abs format (unit mm)*
G04 Created by KiCad (PCBNEW 4.0.7) date 05/17/20 12:10:28*
%MOMM*%
%LPD*%
G01*
G04 APERTURE LIST*
%ADD10C,0.100000*%
%ADD11R,1.700000X1.700000*%
%ADD12O,1.700000X1.700000*%
%ADD13R,1.200000X1.700000*%
%ADD14O,1.200000X1.700000*%
%ADD15C,1.700000*%
%ADD16C,0.400000*%
G04 APERTURE END LIST*
D10*
D11*
X69850000Y-60960000D03*
D12*
X67310000Y-60960000D03*
X69850000Y-63500000D03*
X67310000Y-63500000D03*
X69850000Y-66040000D03*
X67310000Y-66040000D03*
X69850000Y-68580000D03*
X67310000Y-68580000D03*
D13*
X75565000Y-50800000D03*
D14*
X77565000Y-50800000D03*
X79565000Y-50800000D03*
X81565000Y-50800000D03*
D13*
X75565000Y-78105000D03*
D14*
X77565000Y-78105000D03*
X79565000Y-78105000D03*
X81565000Y-78105000D03*
D11*
X73660000Y-55880000D03*
D12*
X73660000Y-58420000D03*
X73660000Y-60960000D03*
X73660000Y-63500000D03*
X73660000Y-66040000D03*
X73660000Y-68580000D03*
X73660000Y-71120000D03*
X73660000Y-73660000D03*
D10*
G36*
X65181136Y-80504587D02*
X63640413Y-79786136D01*
X64358864Y-78245413D01*
X65899587Y-78963864D01*
X65181136Y-80504587D01*
X65181136Y-80504587D01*
G37*
D15*
X67072022Y-80448450D02*
X67072022Y-80448450D01*
X69374044Y-81521901D02*
X69374044Y-81521901D01*
X71676065Y-82595351D02*
X71676065Y-82595351D01*
X73978087Y-83668802D02*
X73978087Y-83668802D01*
X76280109Y-84742252D02*
X76280109Y-84742252D01*
D11*
X63500000Y-58420000D03*
D12*
X63500000Y-60960000D03*
X63500000Y-63500000D03*
X63500000Y-66040000D03*
X63500000Y-68580000D03*
X63500000Y-71120000D03*
D10*
G36*
X75070413Y-44419864D02*
X76611136Y-43701413D01*
X77329587Y-45242136D01*
X75788864Y-45960587D01*
X75070413Y-44419864D01*
X75070413Y-44419864D01*
G37*
D15*
X73897978Y-45904450D02*
X73897978Y-45904450D01*
X71595956Y-46977901D02*
X71595956Y-46977901D01*
X69293935Y-48051351D02*
X69293935Y-48051351D01*
X66991913Y-49124802D02*
X66991913Y-49124802D01*
X64689891Y-50198252D02*
X64689891Y-50198252D01*
D16*
X64689891Y-50198252D02*
X64689891Y-54529891D01*
X69850000Y-59690000D02*
X69850000Y-60960000D01*
X64689891Y-54529891D02*
X69850000Y-59690000D01*
X67310000Y-60960000D02*
X66040000Y-60960000D01*
X66040000Y-64770000D02*
X66747700Y-64770000D01*
X65405000Y-64135000D02*
X66040000Y-64770000D01*
X65405000Y-61595000D02*
X65405000Y-64135000D01*
X66040000Y-60960000D02*
X65405000Y-61595000D01*
X67310000Y-60960000D02*
X66675000Y-60960000D01*
X66747700Y-64770000D02*
X74295000Y-64770000D01*
X75565000Y-69215000D02*
X73660000Y-71120000D01*
X75565000Y-66040000D02*
X75565000Y-69215000D01*
X74295000Y-64770000D02*
X75565000Y-66040000D01*
X75565000Y-62230000D02*
X76835000Y-60960000D01*
X76835000Y-57150000D02*
X75565000Y-55880000D01*
X76835000Y-60960000D02*
X76835000Y-57150000D01*
X75565000Y-55880000D02*
X73660000Y-55880000D01*
X75565000Y-62230000D02*
X76835000Y-63500000D01*
X76835000Y-74930000D02*
X75565000Y-76200000D01*
X76835000Y-63500000D02*
X76835000Y-74930000D01*
X75565000Y-76200000D02*
X75565000Y-78105000D01*
X75565000Y-78105000D02*
X75565000Y-76200000D01*
X73660000Y-55880000D02*
X75565000Y-55880000D01*
X68580000Y-62230000D02*
X67310000Y-63500000D01*
X75565000Y-62230000D02*
X68580000Y-62230000D01*
X73897978Y-45904450D02*
X73897978Y-47227978D01*
X75565000Y-48895000D02*
X75565000Y-50800000D01*
X73897978Y-47227978D02*
X75565000Y-48895000D01*
X71755000Y-79375000D02*
X73025000Y-80645000D01*
X71755000Y-67310000D02*
X71755000Y-79375000D01*
X71755000Y-79375000D02*
X69608099Y-81521901D01*
X67310000Y-66040000D02*
X68580000Y-67310000D01*
X71755000Y-67310000D02*
X73025000Y-66040000D01*
X68580000Y-67310000D02*
X71755000Y-67310000D01*
X73025000Y-66040000D02*
X73660000Y-66040000D01*
X69374044Y-81521901D02*
X69608099Y-81521901D01*
X81565000Y-79725000D02*
X81565000Y-78105000D01*
X73025000Y-80645000D02*
X80645000Y-80645000D01*
X80645000Y-80645000D02*
X81565000Y-79725000D01*
X63500000Y-66040000D02*
X63519700Y-66040000D01*
X63519700Y-66040000D02*
X66059700Y-68580000D01*
X66059700Y-68580000D02*
X67310000Y-68580000D01*
X69293935Y-48051351D02*
X69293935Y-56593935D01*
X69293935Y-56593935D02*
X73660000Y-60960000D01*
X67310000Y-68580000D02*
X66059700Y-68580000D01*
M02*
