M48
;DRILL file {KiCad 4.0.7} date 05/17/20 12:10:33
;FORMAT={2:4/ absolute / inch / suppress leading zeros}
FMAT,2
INCH,TZ
T1C0.030
T2C0.039
T3C0.138
%
G90
G05
M72
T1
X29750Y-20000
X29750Y-30750
X30537Y-20000
X30537Y-30750
X31325Y-20000
X31325Y-30750
X32112Y-20000
X32112Y-30750
T2
X25000Y-23000
X25000Y-24000
X25000Y-25000
X25000Y-26000
X25000Y-27000
X25000Y-28000
X25468Y-19763
X25500Y-31250
X26375Y-19340
X26406Y-31673
X26500Y-24000
X26500Y-25000
X26500Y-26000
X26500Y-27000
X27281Y-18918
X27313Y-32095
X27500Y-24000
X27500Y-25000
X27500Y-26000
X27500Y-27000
X28187Y-18495
X28219Y-32518
X29000Y-22000
X29000Y-23000
X29000Y-24000
X29000Y-25000
X29000Y-26000
X29000Y-27000
X29000Y-28000
X29000Y-29000
X29094Y-18073
X29125Y-32940
X30000Y-17650
X30032Y-33363
T3
X25250Y-18000
X25250Y-33000
X32250Y-18000
X32250Y-33000
T0
M30
