G04 #@! TF.FileFunction,Copper,L1,Top,Signal*
%FSLAX46Y46*%
G04 Gerber Fmt 4.6, Leading zero omitted, Abs format (unit mm)*
G04 Created by KiCad (PCBNEW 4.0.7) date 05/22/20 14:46:27*
%MOMM*%
%LPD*%
G01*
G04 APERTURE LIST*
%ADD10C,0.100000*%
%ADD11R,1.700000X1.700000*%
%ADD12O,1.700000X1.700000*%
%ADD13R,1.200000X1.700000*%
%ADD14O,1.200000X1.700000*%
%ADD15C,1.700000*%
%ADD16C,1.600000*%
%ADD17O,1.600000X1.600000*%
%ADD18C,0.400000*%
G04 APERTURE END LIST*
D10*
D11*
X69850000Y-60960000D03*
D12*
X67310000Y-60960000D03*
X69850000Y-63500000D03*
X67310000Y-63500000D03*
X69850000Y-66040000D03*
X67310000Y-66040000D03*
X69850000Y-68580000D03*
X67310000Y-68580000D03*
D13*
X81280000Y-50800000D03*
D14*
X79280000Y-50800000D03*
X77280000Y-50800000D03*
X75280000Y-50800000D03*
D13*
X81280000Y-78105000D03*
D14*
X79280000Y-78105000D03*
X77280000Y-78105000D03*
X75280000Y-78105000D03*
D11*
X73660000Y-55880000D03*
D12*
X73660000Y-58420000D03*
X73660000Y-60960000D03*
X73660000Y-63500000D03*
X73660000Y-66040000D03*
X73660000Y-68580000D03*
X73660000Y-71120000D03*
X73660000Y-73660000D03*
D10*
G36*
X65181136Y-80504587D02*
X63640413Y-79786136D01*
X64358864Y-78245413D01*
X65899587Y-78963864D01*
X65181136Y-80504587D01*
X65181136Y-80504587D01*
G37*
D15*
X67072022Y-80448450D02*
X67072022Y-80448450D01*
X69374044Y-81521901D02*
X69374044Y-81521901D01*
X71676065Y-82595351D02*
X71676065Y-82595351D01*
X73978087Y-83668802D02*
X73978087Y-83668802D01*
X76280109Y-84742252D02*
X76280109Y-84742252D01*
D11*
X63500000Y-58420000D03*
D12*
X63500000Y-60960000D03*
X63500000Y-63500000D03*
X63500000Y-66040000D03*
X63500000Y-68580000D03*
X63500000Y-71120000D03*
D10*
G36*
X75070413Y-44419864D02*
X76611136Y-43701413D01*
X77329587Y-45242136D01*
X75788864Y-45960587D01*
X75070413Y-44419864D01*
X75070413Y-44419864D01*
G37*
D15*
X73897978Y-45904450D02*
X73897978Y-45904450D01*
X71595956Y-46977901D02*
X71595956Y-46977901D01*
X69293935Y-48051351D02*
X69293935Y-48051351D01*
X66991913Y-49124802D02*
X66991913Y-49124802D01*
X64689891Y-50198252D02*
X64689891Y-50198252D01*
D16*
X69850000Y-55245000D03*
D17*
X67310000Y-55245000D03*
D16*
X69850000Y-74295000D03*
D17*
X67310000Y-74295000D03*
D18*
X71120000Y-61595000D02*
X71120000Y-78105000D01*
X76280109Y-83265109D02*
X76280109Y-84742252D01*
X71120000Y-78105000D02*
X76280109Y-83265109D01*
X69850000Y-60960000D02*
X70485000Y-60960000D01*
X70485000Y-60960000D02*
X71120000Y-61595000D01*
X73660000Y-71120000D02*
X73025000Y-71120000D01*
X73025000Y-71120000D02*
X72390000Y-71755000D01*
X79280000Y-79470000D02*
X79280000Y-78105000D01*
X78740000Y-80010000D02*
X79280000Y-79470000D01*
X74930000Y-80010000D02*
X78740000Y-80010000D01*
X72390000Y-77470000D02*
X74930000Y-80010000D01*
X72390000Y-71755000D02*
X72390000Y-77470000D01*
X67310000Y-60960000D02*
X67945000Y-60960000D01*
X67945000Y-60960000D02*
X68580000Y-61595000D01*
X68580000Y-61595000D02*
X68580000Y-73025000D01*
X68580000Y-73025000D02*
X69850000Y-74295000D01*
X69850000Y-46355000D02*
X69850000Y-45720000D01*
X69850000Y-45720000D02*
X71120000Y-44450000D01*
X71120000Y-44450000D02*
X75819000Y-44450000D01*
X69850000Y-46355000D02*
X71120000Y-48895000D01*
X69850000Y-53340000D02*
X71120000Y-52070000D01*
X71120000Y-52070000D02*
X71120000Y-48895000D01*
X69850000Y-55245000D02*
X69850000Y-53340000D01*
X75819000Y-44450000D02*
X76200000Y-44831000D01*
X75909300Y-44540300D02*
X76200000Y-44831000D01*
X74295000Y-48895000D02*
X73660000Y-49530000D01*
X73660000Y-49530000D02*
X73660000Y-55880000D01*
X81280000Y-50800000D02*
X81280000Y-49530000D01*
X73897978Y-48497978D02*
X73897978Y-45904450D01*
X74295000Y-48895000D02*
X73897978Y-48497978D01*
X80645000Y-48895000D02*
X74295000Y-48895000D01*
X81280000Y-49530000D02*
X80645000Y-48895000D01*
X64770000Y-66040000D02*
X65405000Y-65405000D01*
X65405000Y-65405000D02*
X65405000Y-58350300D01*
X63500000Y-66040000D02*
X64770000Y-66040000D01*
X65405000Y-66675000D02*
X65405000Y-67925300D01*
X64770000Y-66040000D02*
X65405000Y-66675000D01*
X77280000Y-78105000D02*
X77280000Y-67755000D01*
X75565000Y-66040000D02*
X73660000Y-66040000D01*
X77280000Y-67755000D02*
X75565000Y-66040000D01*
X69293935Y-48051351D02*
X69293935Y-52060765D01*
X69293935Y-52060765D02*
X67310000Y-54044700D01*
X67310000Y-68580000D02*
X66059700Y-68580000D01*
X66059700Y-68580000D02*
X65405000Y-67925300D01*
X67310000Y-56445300D02*
X65405000Y-58350300D01*
X67310000Y-55845100D02*
X67310000Y-56445300D01*
X63519700Y-66040000D02*
X63500000Y-66040000D01*
X67310000Y-55845100D02*
X67310000Y-55245000D01*
X67310000Y-55245000D02*
X67310000Y-54044700D01*
X63500000Y-63500000D02*
X62865000Y-63500000D01*
X62865000Y-63500000D02*
X62230000Y-64135000D01*
X62865000Y-74295000D02*
X67310000Y-74295000D01*
X62230000Y-73660000D02*
X62865000Y-74295000D01*
X62230000Y-64135000D02*
X62230000Y-73660000D01*
X69374044Y-81521901D02*
X69374044Y-77559344D01*
X69374044Y-77559344D02*
X67310000Y-75495300D01*
X67310000Y-75495300D02*
X67310000Y-74295000D01*
X71742901Y-46977901D02*
X72390000Y-47625000D01*
X72390000Y-47625000D02*
X72390000Y-52705000D01*
X72390000Y-52705000D02*
X71755000Y-53340000D01*
X71755000Y-53340000D02*
X71755000Y-59055000D01*
X71755000Y-59055000D02*
X73660000Y-60960000D01*
X67310000Y-74895100D02*
X67310000Y-75495300D01*
X67310000Y-74895100D02*
X67310000Y-74295000D01*
M02*
