G04 #@! TF.FileFunction,Legend,Top*
%FSLAX46Y46*%
G04 Gerber Fmt 4.6, Leading zero omitted, Abs format (unit mm)*
G04 Created by KiCad (PCBNEW 4.0.7) date 05/22/20 14:46:27*
%MOMM*%
%LPD*%
G01*
G04 APERTURE LIST*
%ADD10C,0.100000*%
%ADD11C,0.200000*%
%ADD12C,0.150000*%
%ADD13C,0.120000*%
%ADD14R,2.100000X2.100000*%
%ADD15O,2.100000X2.100000*%
%ADD16R,1.600000X2.100000*%
%ADD17O,1.600000X2.100000*%
%ADD18C,2.100000*%
%ADD19C,3.900000*%
%ADD20C,2.000000*%
%ADD21O,2.000000X2.000000*%
G04 APERTURE END LIST*
D10*
D11*
X71755000Y-62865000D02*
X71755000Y-57785000D01*
X71755000Y-69215000D02*
X71755000Y-66675000D01*
X71755000Y-74930000D02*
X71755000Y-73025000D01*
X74295000Y-74930000D02*
X71755000Y-74930000D01*
D12*
X71207381Y-72358095D02*
X71207381Y-71739047D01*
X71588333Y-72072381D01*
X71588333Y-71929523D01*
X71635952Y-71834285D01*
X71683571Y-71786666D01*
X71778810Y-71739047D01*
X72016905Y-71739047D01*
X72112143Y-71786666D01*
X72159762Y-71834285D01*
X72207381Y-71929523D01*
X72207381Y-72215238D01*
X72159762Y-72310476D01*
X72112143Y-72358095D01*
X71207381Y-71453333D02*
X72207381Y-71120000D01*
X71207381Y-70786666D01*
X71207381Y-70548571D02*
X71207381Y-69929523D01*
X71588333Y-70262857D01*
X71588333Y-70119999D01*
X71635952Y-70024761D01*
X71683571Y-69977142D01*
X71778810Y-69929523D01*
X72016905Y-69929523D01*
X72112143Y-69977142D01*
X72159762Y-70024761D01*
X72207381Y-70119999D01*
X72207381Y-70405714D01*
X72159762Y-70500952D01*
X72112143Y-70548571D01*
X71255000Y-56641904D02*
X71207381Y-56737142D01*
X71207381Y-56879999D01*
X71255000Y-57022857D01*
X71350238Y-57118095D01*
X71445476Y-57165714D01*
X71635952Y-57213333D01*
X71778810Y-57213333D01*
X71969286Y-57165714D01*
X72064524Y-57118095D01*
X72159762Y-57022857D01*
X72207381Y-56879999D01*
X72207381Y-56784761D01*
X72159762Y-56641904D01*
X72112143Y-56594285D01*
X71778810Y-56594285D01*
X71778810Y-56784761D01*
X72207381Y-56165714D02*
X71207381Y-56165714D01*
X72207381Y-55594285D01*
X71207381Y-55594285D01*
X72207381Y-55118095D02*
X71207381Y-55118095D01*
X71207381Y-54880000D01*
X71255000Y-54737142D01*
X71350238Y-54641904D01*
X71445476Y-54594285D01*
X71635952Y-54546666D01*
X71778810Y-54546666D01*
X71969286Y-54594285D01*
X72064524Y-54641904D01*
X72159762Y-54737142D01*
X72207381Y-54880000D01*
X72207381Y-55118095D01*
D11*
X72433571Y-53520714D02*
X70933571Y-53520714D01*
X72005000Y-53120714D01*
X70933571Y-52720714D01*
X72433571Y-52720714D01*
X70933571Y-51577856D02*
X70933571Y-52149285D01*
X71647857Y-52206428D01*
X71576429Y-52149285D01*
X71505000Y-52034999D01*
X71505000Y-51749285D01*
X71576429Y-51634999D01*
X71647857Y-51577856D01*
X71790714Y-51520713D01*
X72147857Y-51520713D01*
X72290714Y-51577856D01*
X72362143Y-51634999D01*
X72433571Y-51749285D01*
X72433571Y-52034999D01*
X72362143Y-52149285D01*
X72290714Y-52206428D01*
X71005000Y-50377856D02*
X70933571Y-50492142D01*
X70933571Y-50663571D01*
X71005000Y-50834999D01*
X71147857Y-50949285D01*
X71290714Y-51006428D01*
X71576429Y-51063571D01*
X71790714Y-51063571D01*
X72076429Y-51006428D01*
X72219286Y-50949285D01*
X72362143Y-50834999D01*
X72433571Y-50663571D01*
X72433571Y-50549285D01*
X72362143Y-50377856D01*
X72290714Y-50320713D01*
X71790714Y-50320713D01*
X71790714Y-50549285D01*
X70933571Y-49977856D02*
X72433571Y-49577856D01*
X70933571Y-49177856D01*
X72433571Y-80305000D02*
X70933571Y-80305000D01*
X72005000Y-79905000D01*
X70933571Y-79505000D01*
X72433571Y-79505000D01*
X72433571Y-78762142D02*
X72362143Y-78876428D01*
X72290714Y-78933571D01*
X72147857Y-78990714D01*
X71719286Y-78990714D01*
X71576429Y-78933571D01*
X71505000Y-78876428D01*
X71433571Y-78762142D01*
X71433571Y-78590714D01*
X71505000Y-78476428D01*
X71576429Y-78419285D01*
X71719286Y-78362142D01*
X72147857Y-78362142D01*
X72290714Y-78419285D01*
X72362143Y-78476428D01*
X72433571Y-78590714D01*
X72433571Y-78762142D01*
X71433571Y-78019285D02*
X71433571Y-77562142D01*
X70933571Y-77847857D02*
X72219286Y-77847857D01*
X72362143Y-77790714D01*
X72433571Y-77676428D01*
X72433571Y-77562142D01*
X72433571Y-76990714D02*
X72362143Y-77105000D01*
X72290714Y-77162143D01*
X72147857Y-77219286D01*
X71719286Y-77219286D01*
X71576429Y-77162143D01*
X71505000Y-77105000D01*
X71433571Y-76990714D01*
X71433571Y-76819286D01*
X71505000Y-76705000D01*
X71576429Y-76647857D01*
X71719286Y-76590714D01*
X72147857Y-76590714D01*
X72290714Y-76647857D01*
X72362143Y-76705000D01*
X72433571Y-76819286D01*
X72433571Y-76990714D01*
X72433571Y-76076429D02*
X71433571Y-76076429D01*
X71719286Y-76076429D02*
X71576429Y-76019286D01*
X71505000Y-75962143D01*
X71433571Y-75847857D01*
X71433571Y-75733572D01*
D13*
X83330000Y-52600000D02*
X83330000Y-47900000D01*
X83330000Y-47900000D02*
X73230000Y-47900000D01*
X73230000Y-47900000D02*
X73230000Y-52600000D01*
X73230000Y-52600000D02*
X83330000Y-52600000D01*
X80780000Y-52600000D02*
X80780000Y-52000000D01*
X80780000Y-52000000D02*
X82730000Y-52000000D01*
X82730000Y-52000000D02*
X82730000Y-48500000D01*
X82730000Y-48500000D02*
X73830000Y-48500000D01*
X73830000Y-48500000D02*
X73830000Y-52000000D01*
X73830000Y-52000000D02*
X75780000Y-52000000D01*
X75780000Y-52000000D02*
X75780000Y-52600000D01*
X83330000Y-51300000D02*
X82730000Y-51300000D01*
X83330000Y-50000000D02*
X82730000Y-50000000D01*
X73230000Y-51300000D02*
X73830000Y-51300000D01*
X73230000Y-50000000D02*
X73830000Y-50000000D01*
X81580000Y-52600000D02*
X81580000Y-52800000D01*
X81580000Y-52800000D02*
X81880000Y-52800000D01*
X81880000Y-52800000D02*
X81880000Y-52600000D01*
X81580000Y-52700000D02*
X81880000Y-52700000D01*
X80380000Y-48500000D02*
X80380000Y-49000000D01*
X80380000Y-49000000D02*
X80180000Y-49000000D01*
X80180000Y-49000000D02*
X80180000Y-48500000D01*
X80280000Y-48500000D02*
X80280000Y-49000000D01*
X78380000Y-48500000D02*
X78380000Y-49000000D01*
X78380000Y-49000000D02*
X78180000Y-49000000D01*
X78180000Y-49000000D02*
X78180000Y-48500000D01*
X78280000Y-48500000D02*
X78280000Y-49000000D01*
X76380000Y-48500000D02*
X76380000Y-49000000D01*
X76380000Y-49000000D02*
X76180000Y-49000000D01*
X76180000Y-49000000D02*
X76180000Y-48500000D01*
X76280000Y-48500000D02*
X76280000Y-49000000D01*
X82380000Y-52900000D02*
X83630000Y-52900000D01*
X83630000Y-52900000D02*
X83630000Y-51650000D01*
X83330000Y-79905000D02*
X83330000Y-75205000D01*
X83330000Y-75205000D02*
X73230000Y-75205000D01*
X73230000Y-75205000D02*
X73230000Y-79905000D01*
X73230000Y-79905000D02*
X83330000Y-79905000D01*
X80780000Y-79905000D02*
X80780000Y-79305000D01*
X80780000Y-79305000D02*
X82730000Y-79305000D01*
X82730000Y-79305000D02*
X82730000Y-75805000D01*
X82730000Y-75805000D02*
X73830000Y-75805000D01*
X73830000Y-75805000D02*
X73830000Y-79305000D01*
X73830000Y-79305000D02*
X75780000Y-79305000D01*
X75780000Y-79305000D02*
X75780000Y-79905000D01*
X83330000Y-78605000D02*
X82730000Y-78605000D01*
X83330000Y-77305000D02*
X82730000Y-77305000D01*
X73230000Y-78605000D02*
X73830000Y-78605000D01*
X73230000Y-77305000D02*
X73830000Y-77305000D01*
X81580000Y-79905000D02*
X81580000Y-80105000D01*
X81580000Y-80105000D02*
X81880000Y-80105000D01*
X81880000Y-80105000D02*
X81880000Y-79905000D01*
X81580000Y-80005000D02*
X81880000Y-80005000D01*
X80380000Y-75805000D02*
X80380000Y-76305000D01*
X80380000Y-76305000D02*
X80180000Y-76305000D01*
X80180000Y-76305000D02*
X80180000Y-75805000D01*
X80280000Y-75805000D02*
X80280000Y-76305000D01*
X78380000Y-75805000D02*
X78380000Y-76305000D01*
X78380000Y-76305000D02*
X78180000Y-76305000D01*
X78180000Y-76305000D02*
X78180000Y-75805000D01*
X78280000Y-75805000D02*
X78280000Y-76305000D01*
X76380000Y-75805000D02*
X76380000Y-76305000D01*
X76380000Y-76305000D02*
X76180000Y-76305000D01*
X76180000Y-76305000D02*
X76180000Y-75805000D01*
X76280000Y-75805000D02*
X76280000Y-76305000D01*
X82380000Y-80205000D02*
X83630000Y-80205000D01*
X83630000Y-80205000D02*
X83630000Y-78955000D01*
X75100000Y-54550000D02*
X75100000Y-74990000D01*
X75100000Y-74990000D02*
X77760000Y-74990000D01*
X77760000Y-74990000D02*
X77760000Y-54550000D01*
X77760000Y-54550000D02*
X75100000Y-54550000D01*
X77760000Y-55500000D02*
X83760000Y-55500000D01*
X83760000Y-55500000D02*
X83760000Y-56260000D01*
X83760000Y-56260000D02*
X77760000Y-56260000D01*
X77760000Y-55560000D02*
X83760000Y-55560000D01*
X77760000Y-55680000D02*
X83760000Y-55680000D01*
X77760000Y-55800000D02*
X83760000Y-55800000D01*
X77760000Y-55920000D02*
X83760000Y-55920000D01*
X77760000Y-56040000D02*
X83760000Y-56040000D01*
X77760000Y-56160000D02*
X83760000Y-56160000D01*
X74770000Y-55500000D02*
X75100000Y-55500000D01*
X74770000Y-56260000D02*
X75100000Y-56260000D01*
X75100000Y-57150000D02*
X77760000Y-57150000D01*
X77760000Y-58040000D02*
X83760000Y-58040000D01*
X83760000Y-58040000D02*
X83760000Y-58800000D01*
X83760000Y-58800000D02*
X77760000Y-58800000D01*
X74702929Y-58040000D02*
X75100000Y-58040000D01*
X74702929Y-58800000D02*
X75100000Y-58800000D01*
X75100000Y-59690000D02*
X77760000Y-59690000D01*
X77760000Y-60580000D02*
X83760000Y-60580000D01*
X83760000Y-60580000D02*
X83760000Y-61340000D01*
X83760000Y-61340000D02*
X77760000Y-61340000D01*
X74702929Y-60580000D02*
X75100000Y-60580000D01*
X74702929Y-61340000D02*
X75100000Y-61340000D01*
X75100000Y-62230000D02*
X77760000Y-62230000D01*
X77760000Y-63120000D02*
X83760000Y-63120000D01*
X83760000Y-63120000D02*
X83760000Y-63880000D01*
X83760000Y-63880000D02*
X77760000Y-63880000D01*
X74702929Y-63120000D02*
X75100000Y-63120000D01*
X74702929Y-63880000D02*
X75100000Y-63880000D01*
X75100000Y-64770000D02*
X77760000Y-64770000D01*
X77760000Y-65660000D02*
X83760000Y-65660000D01*
X83760000Y-65660000D02*
X83760000Y-66420000D01*
X83760000Y-66420000D02*
X77760000Y-66420000D01*
X74702929Y-65660000D02*
X75100000Y-65660000D01*
X74702929Y-66420000D02*
X75100000Y-66420000D01*
X75100000Y-67310000D02*
X77760000Y-67310000D01*
X77760000Y-68200000D02*
X83760000Y-68200000D01*
X83760000Y-68200000D02*
X83760000Y-68960000D01*
X83760000Y-68960000D02*
X77760000Y-68960000D01*
X74702929Y-68200000D02*
X75100000Y-68200000D01*
X74702929Y-68960000D02*
X75100000Y-68960000D01*
X75100000Y-69850000D02*
X77760000Y-69850000D01*
X77760000Y-70740000D02*
X83760000Y-70740000D01*
X83760000Y-70740000D02*
X83760000Y-71500000D01*
X83760000Y-71500000D02*
X77760000Y-71500000D01*
X74702929Y-70740000D02*
X75100000Y-70740000D01*
X74702929Y-71500000D02*
X75100000Y-71500000D01*
X75100000Y-72390000D02*
X77760000Y-72390000D01*
X77760000Y-73280000D02*
X83760000Y-73280000D01*
X83760000Y-73280000D02*
X83760000Y-74040000D01*
X83760000Y-74040000D02*
X77760000Y-74040000D01*
X74702929Y-73280000D02*
X75100000Y-73280000D01*
X74702929Y-74040000D02*
X75100000Y-74040000D01*
X72390000Y-55880000D02*
X72390000Y-54610000D01*
X72390000Y-54610000D02*
X73660000Y-54610000D01*
X76923416Y-86509724D02*
X78047581Y-84098945D01*
X65358929Y-81117115D02*
X76923416Y-86509724D01*
X66483093Y-78706336D02*
X78047581Y-84098945D01*
X65358929Y-81117115D02*
X66483093Y-78706336D01*
X64207918Y-80580389D02*
X63002528Y-80018307D01*
X63002528Y-80018307D02*
X63564611Y-78812918D01*
X62170000Y-72450000D02*
X64830000Y-72450000D01*
X62170000Y-59690000D02*
X62170000Y-72450000D01*
X64830000Y-59690000D02*
X64830000Y-72450000D01*
X62170000Y-59690000D02*
X64830000Y-59690000D01*
X62170000Y-58420000D02*
X62170000Y-57090000D01*
X62170000Y-57090000D02*
X63500000Y-57090000D01*
X62922419Y-49554945D02*
X64046584Y-51965724D01*
X74486907Y-44162336D02*
X62922419Y-49554945D01*
X75611071Y-46573115D02*
X64046584Y-51965724D01*
X74486907Y-44162336D02*
X75611071Y-46573115D01*
X75637918Y-43625611D02*
X76843307Y-43063528D01*
X76843307Y-43063528D02*
X77405389Y-44268918D01*
X71160000Y-55245000D02*
G75*
G03X71160000Y-55245000I-1310000J0D01*
G01*
X68540000Y-55245000D02*
X68410000Y-55245000D01*
X71160000Y-74295000D02*
G75*
G03X71160000Y-74295000I-1310000J0D01*
G01*
X68540000Y-74295000D02*
X68410000Y-74295000D01*
D12*
X84812143Y-50855476D02*
X84859762Y-50903095D01*
X84907381Y-51045952D01*
X84907381Y-51141190D01*
X84859762Y-51284048D01*
X84764524Y-51379286D01*
X84669286Y-51426905D01*
X84478810Y-51474524D01*
X84335952Y-51474524D01*
X84145476Y-51426905D01*
X84050238Y-51379286D01*
X83955000Y-51284048D01*
X83907381Y-51141190D01*
X83907381Y-51045952D01*
X83955000Y-50903095D01*
X84002619Y-50855476D01*
X84907381Y-50426905D02*
X83907381Y-50426905D01*
X84907381Y-49855476D01*
X83907381Y-49855476D01*
X84002619Y-49426905D02*
X83955000Y-49379286D01*
X83907381Y-49284048D01*
X83907381Y-49045952D01*
X83955000Y-48950714D01*
X84002619Y-48903095D01*
X84097857Y-48855476D01*
X84193095Y-48855476D01*
X84335952Y-48903095D01*
X84907381Y-49474524D01*
X84907381Y-48855476D01*
X84812143Y-78160476D02*
X84859762Y-78208095D01*
X84907381Y-78350952D01*
X84907381Y-78446190D01*
X84859762Y-78589048D01*
X84764524Y-78684286D01*
X84669286Y-78731905D01*
X84478810Y-78779524D01*
X84335952Y-78779524D01*
X84145476Y-78731905D01*
X84050238Y-78684286D01*
X83955000Y-78589048D01*
X83907381Y-78446190D01*
X83907381Y-78350952D01*
X83955000Y-78208095D01*
X84002619Y-78160476D01*
X84907381Y-77731905D02*
X83907381Y-77731905D01*
X84907381Y-77160476D01*
X83907381Y-77160476D01*
X83907381Y-76779524D02*
X83907381Y-76160476D01*
X84288333Y-76493810D01*
X84288333Y-76350952D01*
X84335952Y-76255714D01*
X84383571Y-76208095D01*
X84478810Y-76160476D01*
X84716905Y-76160476D01*
X84812143Y-76208095D01*
X84859762Y-76255714D01*
X84907381Y-76350952D01*
X84907381Y-76636667D01*
X84859762Y-76731905D01*
X84812143Y-76779524D01*
X72112143Y-65460476D02*
X72159762Y-65508095D01*
X72207381Y-65650952D01*
X72207381Y-65746190D01*
X72159762Y-65889048D01*
X72064524Y-65984286D01*
X71969286Y-66031905D01*
X71778810Y-66079524D01*
X71635952Y-66079524D01*
X71445476Y-66031905D01*
X71350238Y-65984286D01*
X71255000Y-65889048D01*
X71207381Y-65746190D01*
X71207381Y-65650952D01*
X71255000Y-65508095D01*
X71302619Y-65460476D01*
X72207381Y-65031905D02*
X71207381Y-65031905D01*
X72207381Y-64460476D01*
X71207381Y-64460476D01*
X71540714Y-63555714D02*
X72207381Y-63555714D01*
X71159762Y-63793810D02*
X71874048Y-64031905D01*
X71874048Y-63412857D01*
X62703147Y-79251879D02*
X62806678Y-79142531D01*
X62907302Y-78926743D01*
X62904394Y-78820304D01*
X62881361Y-78757022D01*
X62815171Y-78673615D01*
X62728856Y-78633365D01*
X62622416Y-78636274D01*
X62559134Y-78659306D01*
X62475727Y-78725496D01*
X62352070Y-78878002D01*
X62268663Y-78944193D01*
X62205381Y-78967225D01*
X62098941Y-78970134D01*
X62012627Y-78929884D01*
X61946436Y-78846477D01*
X61923403Y-78783195D01*
X61920495Y-78676756D01*
X62021119Y-78460968D01*
X62124650Y-78351620D01*
X63390294Y-77890963D02*
X63148798Y-78408854D01*
X63269546Y-78149909D02*
X62363238Y-77727291D01*
X62452461Y-77873979D01*
X62498527Y-78000544D01*
X62501435Y-78106983D01*
X62738095Y-56494762D02*
X62880952Y-56542381D01*
X63119048Y-56542381D01*
X63214286Y-56494762D01*
X63261905Y-56447143D01*
X63309524Y-56351905D01*
X63309524Y-56256667D01*
X63261905Y-56161429D01*
X63214286Y-56113810D01*
X63119048Y-56066190D01*
X62928571Y-56018571D01*
X62833333Y-55970952D01*
X62785714Y-55923333D01*
X62738095Y-55828095D01*
X62738095Y-55732857D01*
X62785714Y-55637619D01*
X62833333Y-55590000D01*
X62928571Y-55542381D01*
X63166667Y-55542381D01*
X63309524Y-55590000D01*
X63690476Y-55637619D02*
X63738095Y-55590000D01*
X63833333Y-55542381D01*
X64071429Y-55542381D01*
X64166667Y-55590000D01*
X64214286Y-55637619D01*
X64261905Y-55732857D01*
X64261905Y-55828095D01*
X64214286Y-55970952D01*
X63642857Y-56542381D01*
X64261905Y-56542381D01*
X77622863Y-43326838D02*
X77640080Y-43476435D01*
X77740703Y-43692224D01*
X77824110Y-43758414D01*
X77887392Y-43781447D01*
X77993832Y-43784355D01*
X78080147Y-43744106D01*
X78146337Y-43660699D01*
X78169370Y-43597417D01*
X78172279Y-43490977D01*
X78134937Y-43298221D01*
X78137845Y-43191782D01*
X78160878Y-43128500D01*
X78227069Y-43045093D01*
X78313384Y-43004843D01*
X78419823Y-43007752D01*
X78483105Y-43030784D01*
X78566512Y-43096975D01*
X78667136Y-43312763D01*
X78684352Y-43462360D01*
X78868382Y-43744338D02*
X79130003Y-44305386D01*
X78643871Y-44164280D01*
X78704245Y-44293753D01*
X78701337Y-44400193D01*
X78678304Y-44463475D01*
X78612113Y-44546882D01*
X78396325Y-44647505D01*
X78289886Y-44644597D01*
X78226604Y-44621564D01*
X78143197Y-44555374D01*
X78022449Y-44296428D01*
X78025357Y-44189989D01*
X78048389Y-44126707D01*
X65857381Y-55411666D02*
X65381190Y-55745000D01*
X65857381Y-55983095D02*
X64857381Y-55983095D01*
X64857381Y-55602142D01*
X64905000Y-55506904D01*
X64952619Y-55459285D01*
X65047857Y-55411666D01*
X65190714Y-55411666D01*
X65285952Y-55459285D01*
X65333571Y-55506904D01*
X65381190Y-55602142D01*
X65381190Y-55983095D01*
X65857381Y-54459285D02*
X65857381Y-55030714D01*
X65857381Y-54745000D02*
X64857381Y-54745000D01*
X65000238Y-54840238D01*
X65095476Y-54935476D01*
X65143095Y-55030714D01*
X65857381Y-74461666D02*
X65381190Y-74795000D01*
X65857381Y-75033095D02*
X64857381Y-75033095D01*
X64857381Y-74652142D01*
X64905000Y-74556904D01*
X64952619Y-74509285D01*
X65047857Y-74461666D01*
X65190714Y-74461666D01*
X65285952Y-74509285D01*
X65333571Y-74556904D01*
X65381190Y-74652142D01*
X65381190Y-75033095D01*
X64952619Y-74080714D02*
X64905000Y-74033095D01*
X64857381Y-73937857D01*
X64857381Y-73699761D01*
X64905000Y-73604523D01*
X64952619Y-73556904D01*
X65047857Y-73509285D01*
X65143095Y-73509285D01*
X65285952Y-73556904D01*
X65857381Y-74128333D01*
X65857381Y-73509285D01*
%LPC*%
D14*
X69850000Y-60960000D03*
D15*
X67310000Y-60960000D03*
X69850000Y-63500000D03*
X67310000Y-63500000D03*
X69850000Y-66040000D03*
X67310000Y-66040000D03*
X69850000Y-68580000D03*
X67310000Y-68580000D03*
D16*
X81280000Y-50800000D03*
D17*
X79280000Y-50800000D03*
X77280000Y-50800000D03*
X75280000Y-50800000D03*
D16*
X81280000Y-78105000D03*
D17*
X79280000Y-78105000D03*
X77280000Y-78105000D03*
X75280000Y-78105000D03*
D14*
X73660000Y-55880000D03*
D15*
X73660000Y-58420000D03*
X73660000Y-60960000D03*
X73660000Y-63500000D03*
X73660000Y-66040000D03*
X73660000Y-68580000D03*
X73660000Y-71120000D03*
X73660000Y-73660000D03*
D10*
G36*
X65277874Y-80770372D02*
X63374628Y-79882874D01*
X64262126Y-77979628D01*
X66165372Y-78867126D01*
X65277874Y-80770372D01*
X65277874Y-80770372D01*
G37*
D18*
X67072022Y-80448450D02*
X67072022Y-80448450D01*
X69374044Y-81521901D02*
X69374044Y-81521901D01*
X71676065Y-82595351D02*
X71676065Y-82595351D01*
X73978087Y-83668802D02*
X73978087Y-83668802D01*
X76280109Y-84742252D02*
X76280109Y-84742252D01*
D14*
X63500000Y-58420000D03*
D15*
X63500000Y-60960000D03*
X63500000Y-63500000D03*
X63500000Y-66040000D03*
X63500000Y-68580000D03*
X63500000Y-71120000D03*
D10*
G36*
X74804628Y-44323126D02*
X76707874Y-43435628D01*
X77595372Y-45338874D01*
X75692126Y-46226372D01*
X74804628Y-44323126D01*
X74804628Y-44323126D01*
G37*
D18*
X73897978Y-45904450D02*
X73897978Y-45904450D01*
X71595956Y-46977901D02*
X71595956Y-46977901D01*
X69293935Y-48051351D02*
X69293935Y-48051351D01*
X66991913Y-49124802D02*
X66991913Y-49124802D01*
X64689891Y-50198252D02*
X64689891Y-50198252D01*
D19*
X64135000Y-45720000D03*
X81915000Y-45720000D03*
X64135000Y-83820000D03*
X81915000Y-83820000D03*
D20*
X69850000Y-55245000D03*
D21*
X67310000Y-55245000D03*
D20*
X69850000Y-74295000D03*
D21*
X67310000Y-74295000D03*
M02*
